<?xml version="1.0" encoding="utf-8"?>
<svg xmlns="http://www.w3.org/2000/svg" xmlns:xlink="http://www.w3.org/1999/xlink" width="600" height="400" viewBox="0 0 2400 1600">
<defs>
  <clipPath id="clip940">
    <rect x="0" y="0" width="2400" height="1600"/>
  </clipPath>
</defs>
<path clip-path="url(#clip940)" d="
M0 1600 L2400 1600 L2400 0 L0 0  Z
  " fill="#ffffff" fill-rule="evenodd" fill-opacity="1"/>
<defs>
  <clipPath id="clip941">
    <rect x="480" y="0" width="1681" height="1600"/>
  </clipPath>
</defs>
<path clip-path="url(#clip940)" d="
M157.447 1423.18 L2352.76 1423.18 L2352.76 123.472 L157.447 123.472  Z
  " fill="#ffffff" fill-rule="evenodd" fill-opacity="1"/>
<defs>
  <clipPath id="clip942">
    <rect x="157" y="123" width="2196" height="1301"/>
  </clipPath>
</defs>
<polyline clip-path="url(#clip942)" style="stroke:#000000; stroke-linecap:butt; stroke-linejoin:round; stroke-width:2; stroke-opacity:0.1; fill:none" points="
  212.652,1423.18 212.652,123.472 
  "/>
<polyline clip-path="url(#clip942)" style="stroke:#000000; stroke-linecap:butt; stroke-linejoin:round; stroke-width:2; stroke-opacity:0.1; fill:none" points="
  905.31,1423.18 905.31,123.472 
  "/>
<polyline clip-path="url(#clip942)" style="stroke:#000000; stroke-linecap:butt; stroke-linejoin:round; stroke-width:2; stroke-opacity:0.1; fill:none" points="
  1597.97,1423.18 1597.97,123.472 
  "/>
<polyline clip-path="url(#clip942)" style="stroke:#000000; stroke-linecap:butt; stroke-linejoin:round; stroke-width:2; stroke-opacity:0.1; fill:none" points="
  2290.62,1423.18 2290.62,123.472 
  "/>
<polyline clip-path="url(#clip940)" style="stroke:#000000; stroke-linecap:butt; stroke-linejoin:round; stroke-width:4; stroke-opacity:1; fill:none" points="
  157.447,1423.18 2352.76,1423.18 
  "/>
<polyline clip-path="url(#clip940)" style="stroke:#000000; stroke-linecap:butt; stroke-linejoin:round; stroke-width:4; stroke-opacity:1; fill:none" points="
  212.652,1423.18 212.652,1404.28 
  "/>
<polyline clip-path="url(#clip940)" style="stroke:#000000; stroke-linecap:butt; stroke-linejoin:round; stroke-width:4; stroke-opacity:1; fill:none" points="
  905.31,1423.18 905.31,1404.28 
  "/>
<polyline clip-path="url(#clip940)" style="stroke:#000000; stroke-linecap:butt; stroke-linejoin:round; stroke-width:4; stroke-opacity:1; fill:none" points="
  1597.97,1423.18 1597.97,1404.28 
  "/>
<polyline clip-path="url(#clip940)" style="stroke:#000000; stroke-linecap:butt; stroke-linejoin:round; stroke-width:4; stroke-opacity:1; fill:none" points="
  2290.62,1423.18 2290.62,1404.28 
  "/>
<path clip-path="url(#clip940)" d="M212.652 1454.1 Q209.041 1454.1 207.212 1457.66 Q205.407 1461.2 205.407 1468.33 Q205.407 1475.44 207.212 1479.01 Q209.041 1482.55 212.652 1482.55 Q216.287 1482.55 218.092 1479.01 Q219.921 1475.44 219.921 1468.33 Q219.921 1461.2 218.092 1457.66 Q216.287 1454.1 212.652 1454.1 M212.652 1450.39 Q218.462 1450.39 221.518 1455 Q224.597 1459.58 224.597 1468.33 Q224.597 1477.06 221.518 1481.67 Q218.462 1486.25 212.652 1486.25 Q206.842 1486.25 203.763 1481.67 Q200.708 1477.06 200.708 1468.33 Q200.708 1459.58 203.763 1455 Q206.842 1450.39 212.652 1450.39 Z" fill="#000000" fill-rule="evenodd" fill-opacity="1" /><path clip-path="url(#clip940)" d="M864.916 1481.64 L872.555 1481.64 L872.555 1455.28 L864.245 1456.95 L864.245 1452.69 L872.509 1451.02 L877.185 1451.02 L877.185 1481.64 L884.824 1481.64 L884.824 1485.58 L864.916 1485.58 L864.916 1481.64 Z" fill="#000000" fill-rule="evenodd" fill-opacity="1" /><path clip-path="url(#clip940)" d="M904.268 1454.1 Q900.657 1454.1 898.828 1457.66 Q897.023 1461.2 897.023 1468.33 Q897.023 1475.44 898.828 1479.01 Q900.657 1482.55 904.268 1482.55 Q907.902 1482.55 909.708 1479.01 Q911.537 1475.44 911.537 1468.33 Q911.537 1461.2 909.708 1457.66 Q907.902 1454.1 904.268 1454.1 M904.268 1450.39 Q910.078 1450.39 913.134 1455 Q916.212 1459.58 916.212 1468.33 Q916.212 1477.06 913.134 1481.67 Q910.078 1486.25 904.268 1486.25 Q898.458 1486.25 895.379 1481.67 Q892.324 1477.06 892.324 1468.33 Q892.324 1459.58 895.379 1455 Q898.458 1450.39 904.268 1450.39 Z" fill="#000000" fill-rule="evenodd" fill-opacity="1" /><path clip-path="url(#clip940)" d="M934.43 1454.1 Q930.819 1454.1 928.99 1457.66 Q927.185 1461.2 927.185 1468.33 Q927.185 1475.44 928.99 1479.01 Q930.819 1482.55 934.43 1482.55 Q938.064 1482.55 939.87 1479.01 Q941.698 1475.44 941.698 1468.33 Q941.698 1461.2 939.87 1457.66 Q938.064 1454.1 934.43 1454.1 M934.43 1450.39 Q940.24 1450.39 943.296 1455 Q946.374 1459.58 946.374 1468.33 Q946.374 1477.06 943.296 1481.67 Q940.24 1486.25 934.43 1486.25 Q928.62 1486.25 925.541 1481.67 Q922.486 1477.06 922.486 1468.33 Q922.486 1459.58 925.541 1455 Q928.62 1450.39 934.43 1450.39 Z" fill="#000000" fill-rule="evenodd" fill-opacity="1" /><path clip-path="url(#clip940)" d="M1561.66 1481.64 L1577.98 1481.64 L1577.98 1485.58 L1556.03 1485.58 L1556.03 1481.64 Q1558.7 1478.89 1563.28 1474.26 Q1567.89 1469.61 1569.07 1468.27 Q1571.31 1465.74 1572.19 1464.01 Q1573.09 1462.25 1573.09 1460.56 Q1573.09 1457.8 1571.15 1456.07 Q1569.23 1454.33 1566.13 1454.33 Q1563.93 1454.33 1561.47 1455.09 Q1559.04 1455.86 1556.27 1457.41 L1556.27 1452.69 Q1559.09 1451.55 1561.54 1450.97 Q1564 1450.39 1566.03 1450.39 Q1571.4 1450.39 1574.6 1453.08 Q1577.79 1455.77 1577.79 1460.26 Q1577.79 1462.39 1576.98 1464.31 Q1576.2 1466.2 1574.09 1468.8 Q1573.51 1469.47 1570.41 1472.69 Q1567.31 1475.88 1561.66 1481.64 Z" fill="#000000" fill-rule="evenodd" fill-opacity="1" /><path clip-path="url(#clip940)" d="M1597.79 1454.1 Q1594.18 1454.1 1592.35 1457.66 Q1590.55 1461.2 1590.55 1468.33 Q1590.55 1475.44 1592.35 1479.01 Q1594.18 1482.55 1597.79 1482.55 Q1601.43 1482.55 1603.23 1479.01 Q1605.06 1475.44 1605.06 1468.33 Q1605.06 1461.2 1603.23 1457.66 Q1601.43 1454.1 1597.79 1454.1 M1597.79 1450.39 Q1603.6 1450.39 1606.66 1455 Q1609.74 1459.58 1609.74 1468.33 Q1609.74 1477.06 1606.66 1481.67 Q1603.6 1486.25 1597.79 1486.25 Q1591.98 1486.25 1588.9 1481.67 Q1585.85 1477.06 1585.85 1468.33 Q1585.85 1459.58 1588.9 1455 Q1591.98 1450.39 1597.79 1450.39 Z" fill="#000000" fill-rule="evenodd" fill-opacity="1" /><path clip-path="url(#clip940)" d="M1627.96 1454.1 Q1624.34 1454.1 1622.52 1457.66 Q1620.71 1461.2 1620.71 1468.33 Q1620.71 1475.44 1622.52 1479.01 Q1624.34 1482.55 1627.96 1482.55 Q1631.59 1482.55 1633.4 1479.01 Q1635.22 1475.44 1635.22 1468.33 Q1635.22 1461.2 1633.4 1457.66 Q1631.59 1454.1 1627.96 1454.1 M1627.96 1450.39 Q1633.77 1450.39 1636.82 1455 Q1639.9 1459.58 1639.9 1468.33 Q1639.9 1477.06 1636.82 1481.67 Q1633.77 1486.25 1627.96 1486.25 Q1622.15 1486.25 1619.07 1481.67 Q1616.01 1477.06 1616.01 1468.33 Q1616.01 1459.58 1619.07 1455 Q1622.15 1450.39 1627.96 1450.39 Z" fill="#000000" fill-rule="evenodd" fill-opacity="1" /><path clip-path="url(#clip940)" d="M2264.39 1466.95 Q2267.74 1467.66 2269.62 1469.93 Q2271.52 1472.2 2271.52 1475.53 Q2271.52 1480.65 2268 1483.45 Q2264.48 1486.25 2258 1486.25 Q2255.82 1486.25 2253.51 1485.81 Q2251.22 1485.39 2248.76 1484.54 L2248.76 1480.02 Q2250.71 1481.16 2253.02 1481.74 Q2255.34 1482.32 2257.86 1482.32 Q2262.26 1482.32 2264.55 1480.58 Q2266.86 1478.84 2266.86 1475.53 Q2266.86 1472.48 2264.71 1470.77 Q2262.58 1469.03 2258.76 1469.03 L2254.73 1469.03 L2254.73 1465.19 L2258.95 1465.19 Q2262.4 1465.19 2264.22 1463.82 Q2266.05 1462.43 2266.05 1459.84 Q2266.05 1457.18 2264.15 1455.77 Q2262.28 1454.33 2258.76 1454.33 Q2256.84 1454.33 2254.64 1454.75 Q2252.44 1455.16 2249.8 1456.04 L2249.8 1451.88 Q2252.47 1451.14 2254.78 1450.77 Q2257.12 1450.39 2259.18 1450.39 Q2264.5 1450.39 2267.6 1452.83 Q2270.71 1455.23 2270.71 1459.35 Q2270.71 1462.22 2269.06 1464.21 Q2267.42 1466.18 2264.39 1466.95 Z" fill="#000000" fill-rule="evenodd" fill-opacity="1" /><path clip-path="url(#clip940)" d="M2290.38 1454.1 Q2286.77 1454.1 2284.94 1457.66 Q2283.14 1461.2 2283.14 1468.33 Q2283.14 1475.44 2284.94 1479.01 Q2286.77 1482.55 2290.38 1482.55 Q2294.02 1482.55 2295.82 1479.01 Q2297.65 1475.44 2297.65 1468.33 Q2297.65 1461.2 2295.82 1457.66 Q2294.02 1454.1 2290.38 1454.1 M2290.38 1450.39 Q2296.19 1450.39 2299.25 1455 Q2302.33 1459.58 2302.33 1468.33 Q2302.33 1477.06 2299.25 1481.67 Q2296.19 1486.25 2290.38 1486.25 Q2284.57 1486.25 2281.49 1481.67 Q2278.44 1477.06 2278.44 1468.33 Q2278.44 1459.58 2281.49 1455 Q2284.57 1450.39 2290.38 1450.39 Z" fill="#000000" fill-rule="evenodd" fill-opacity="1" /><path clip-path="url(#clip940)" d="M2320.54 1454.1 Q2316.93 1454.1 2315.1 1457.66 Q2313.3 1461.2 2313.3 1468.33 Q2313.3 1475.44 2315.1 1479.01 Q2316.93 1482.55 2320.54 1482.55 Q2324.18 1482.55 2325.98 1479.01 Q2327.81 1475.44 2327.81 1468.33 Q2327.81 1461.2 2325.98 1457.66 Q2324.18 1454.1 2320.54 1454.1 M2320.54 1450.39 Q2326.35 1450.39 2329.41 1455 Q2332.49 1459.58 2332.49 1468.33 Q2332.49 1477.06 2329.41 1481.67 Q2326.35 1486.25 2320.54 1486.25 Q2314.73 1486.25 2311.65 1481.67 Q2308.6 1477.06 2308.6 1468.33 Q2308.6 1459.58 2311.65 1455 Q2314.73 1450.39 2320.54 1450.39 Z" fill="#000000" fill-rule="evenodd" fill-opacity="1" /><path clip-path="url(#clip940)" d="M1143.11 1520.52 L1173.16 1520.52 L1173.16 1525.93 L1149.54 1525.93 L1149.54 1540 L1172.17 1540 L1172.17 1545.41 L1149.54 1545.41 L1149.54 1562.63 L1173.73 1562.63 L1173.73 1568.04 L1143.11 1568.04 L1143.11 1520.52 Z" fill="#000000" fill-rule="evenodd" fill-opacity="1" /><path clip-path="url(#clip940)" d="M1189.71 1562.7 L1189.71 1581.6 L1183.82 1581.6 L1183.82 1532.4 L1189.71 1532.4 L1189.71 1537.81 Q1191.56 1534.62 1194.36 1533.1 Q1197.19 1531.54 1201.1 1531.54 Q1207.6 1531.54 1211.64 1536.69 Q1215.71 1541.85 1215.71 1550.25 Q1215.71 1558.65 1211.64 1563.81 Q1207.6 1568.97 1201.1 1568.97 Q1197.19 1568.97 1194.36 1567.44 Q1191.56 1565.88 1189.71 1562.7 M1209.63 1550.25 Q1209.63 1543.79 1206.96 1540.13 Q1204.32 1536.44 1199.67 1536.44 Q1195.03 1536.44 1192.35 1540.13 Q1189.71 1543.79 1189.71 1550.25 Q1189.71 1556.71 1192.35 1560.4 Q1195.03 1564.07 1199.67 1564.07 Q1204.32 1564.07 1206.96 1560.4 Q1209.63 1556.71 1209.63 1550.25 Z" fill="#000000" fill-rule="evenodd" fill-opacity="1" /><path clip-path="url(#clip940)" d="M1239.24 1536.5 Q1234.52 1536.5 1231.79 1540.19 Q1229.05 1543.85 1229.05 1550.25 Q1229.05 1556.65 1231.76 1560.34 Q1234.49 1564 1239.24 1564 Q1243.91 1564 1246.65 1560.31 Q1249.39 1556.62 1249.39 1550.25 Q1249.39 1543.92 1246.65 1540.23 Q1243.91 1536.5 1239.24 1536.5 M1239.24 1531.54 Q1246.87 1531.54 1251.23 1536.5 Q1255.6 1541.47 1255.6 1550.25 Q1255.6 1559 1251.23 1564 Q1246.87 1568.97 1239.24 1568.97 Q1231.56 1568.97 1227.2 1564 Q1222.88 1559 1222.88 1550.25 Q1222.88 1541.47 1227.2 1536.5 Q1231.56 1531.54 1239.24 1531.54 Z" fill="#000000" fill-rule="evenodd" fill-opacity="1" /><path clip-path="url(#clip940)" d="M1290.96 1533.76 L1290.96 1539.24 Q1288.47 1537.87 1285.96 1537.2 Q1283.48 1536.5 1280.93 1536.5 Q1275.23 1536.5 1272.08 1540.13 Q1268.93 1543.73 1268.93 1550.25 Q1268.93 1556.78 1272.08 1560.4 Q1275.23 1564 1280.93 1564 Q1283.48 1564 1285.96 1563.33 Q1288.47 1562.63 1290.96 1561.26 L1290.96 1566.68 Q1288.51 1567.82 1285.86 1568.39 Q1283.25 1568.97 1280.29 1568.97 Q1272.24 1568.97 1267.5 1563.91 Q1262.76 1558.85 1262.76 1550.25 Q1262.76 1541.53 1267.53 1536.53 Q1272.34 1531.54 1280.68 1531.54 Q1283.38 1531.54 1285.96 1532.11 Q1288.54 1532.65 1290.96 1533.76 Z" fill="#000000" fill-rule="evenodd" fill-opacity="1" /><path clip-path="url(#clip940)" d="M1330.77 1546.53 L1330.77 1568.04 L1324.92 1568.04 L1324.92 1546.72 Q1324.92 1541.66 1322.94 1539.14 Q1320.97 1536.63 1317.02 1536.63 Q1312.28 1536.63 1309.54 1539.65 Q1306.81 1542.68 1306.81 1547.9 L1306.81 1568.04 L1300.92 1568.04 L1300.92 1518.52 L1306.81 1518.52 L1306.81 1537.93 Q1308.91 1534.72 1311.74 1533.13 Q1314.61 1531.54 1318.33 1531.54 Q1324.47 1531.54 1327.62 1535.36 Q1330.77 1539.14 1330.77 1546.53 Z" fill="#000000" fill-rule="evenodd" fill-opacity="1" /><path clip-path="url(#clip940)" d="M1365.18 1533.45 L1365.18 1538.98 Q1362.7 1537.71 1360.02 1537.07 Q1357.35 1536.44 1354.49 1536.44 Q1350.13 1536.44 1347.93 1537.77 Q1345.77 1539.11 1345.77 1541.79 Q1345.77 1543.82 1347.32 1545 Q1348.88 1546.15 1353.6 1547.2 L1355.6 1547.64 Q1361.84 1548.98 1364.45 1551.43 Q1367.09 1553.85 1367.09 1558.21 Q1367.09 1563.17 1363.14 1566.07 Q1359.23 1568.97 1352.35 1568.97 Q1349.49 1568.97 1346.37 1568.39 Q1343.28 1567.85 1339.85 1566.74 L1339.85 1560.69 Q1343.09 1562.38 1346.24 1563.24 Q1349.39 1564.07 1352.48 1564.07 Q1356.62 1564.07 1358.85 1562.66 Q1361.07 1561.23 1361.07 1558.65 Q1361.07 1556.27 1359.45 1554.99 Q1357.86 1553.72 1352.42 1552.54 L1350.38 1552.07 Q1344.94 1550.92 1342.52 1548.56 Q1340.1 1546.18 1340.1 1542.04 Q1340.1 1537.01 1343.66 1534.27 Q1347.23 1531.54 1353.79 1531.54 Q1357.03 1531.54 1359.9 1532.01 Q1362.76 1532.49 1365.18 1533.45 Z" fill="#000000" fill-rule="evenodd" fill-opacity="1" /><polyline clip-path="url(#clip942)" style="stroke:#000000; stroke-linecap:butt; stroke-linejoin:round; stroke-width:2; stroke-opacity:0.1; fill:none" points="
  157.447,1012.62 2352.76,1012.62 
  "/>
<polyline clip-path="url(#clip942)" style="stroke:#000000; stroke-linecap:butt; stroke-linejoin:round; stroke-width:2; stroke-opacity:0.1; fill:none" points="
  157.447,467.678 2352.76,467.678 
  "/>
<polyline clip-path="url(#clip940)" style="stroke:#000000; stroke-linecap:butt; stroke-linejoin:round; stroke-width:4; stroke-opacity:1; fill:none" points="
  157.447,1423.18 157.447,123.472 
  "/>
<polyline clip-path="url(#clip940)" style="stroke:#000000; stroke-linecap:butt; stroke-linejoin:round; stroke-width:4; stroke-opacity:1; fill:none" points="
  157.447,1012.62 176.345,1012.62 
  "/>
<polyline clip-path="url(#clip940)" style="stroke:#000000; stroke-linecap:butt; stroke-linejoin:round; stroke-width:4; stroke-opacity:1; fill:none" points="
  157.447,467.678 176.345,467.678 
  "/>
<path clip-path="url(#clip940)" d="M52.3217 1032.42 L59.9605 1032.42 L59.9605 1006.05 L51.6504 1007.72 L51.6504 1003.46 L59.9142 1001.79 L64.5901 1001.79 L64.5901 1032.42 L72.229 1032.42 L72.229 1036.35 L52.3217 1036.35 L52.3217 1032.42 Z" fill="#000000" fill-rule="evenodd" fill-opacity="1" /><path clip-path="url(#clip940)" d="M91.6733 1004.87 Q88.0622 1004.87 86.2335 1008.43 Q84.428 1011.98 84.428 1019.11 Q84.428 1026.21 86.2335 1029.78 Q88.0622 1033.32 91.6733 1033.32 Q95.3076 1033.32 97.1131 1029.78 Q98.9418 1026.21 98.9418 1019.11 Q98.9418 1011.98 97.1131 1008.43 Q95.3076 1004.87 91.6733 1004.87 M91.6733 1001.17 Q97.4835 1001.17 100.539 1005.77 Q103.618 1010.36 103.618 1019.11 Q103.618 1027.83 100.539 1032.44 Q97.4835 1037.02 91.6733 1037.02 Q85.8632 1037.02 82.7845 1032.44 Q79.729 1027.83 79.729 1019.11 Q79.729 1010.36 82.7845 1005.77 Q85.8632 1001.17 91.6733 1001.17 Z" fill="#000000" fill-rule="evenodd" fill-opacity="1" /><path clip-path="url(#clip940)" d="M108.188 1005.74 L121.447 1005.74 L121.447 1008.94 L103.618 1008.94 L103.618 1005.74 Q105.781 1003.51 109.505 999.744 Q113.247 995.963 114.206 994.873 Q116.031 992.822 116.746 991.412 Q117.479 989.983 117.479 988.61 Q117.479 986.371 115.899 984.961 Q114.338 983.55 111.818 983.55 Q110.031 983.55 108.038 984.171 Q106.063 984.792 103.806 986.052 L103.806 982.215 Q106.1 981.293 108.094 980.823 Q110.088 980.353 111.743 980.353 Q116.106 980.353 118.702 982.535 Q121.297 984.716 121.297 988.365 Q121.297 990.095 120.639 991.656 Q119.999 993.199 118.288 995.305 Q117.818 995.851 115.297 998.465 Q112.777 1001.06 108.188 1005.74 Z" fill="#000000" fill-rule="evenodd" fill-opacity="1" /><path clip-path="url(#clip940)" d="M51.6634 487.47 L59.3023 487.47 L59.3023 461.104 L50.9921 462.771 L50.9921 458.512 L59.256 456.845 L63.9319 456.845 L63.9319 487.47 L71.5707 487.47 L71.5707 491.405 L51.6634 491.405 L51.6634 487.47 Z" fill="#000000" fill-rule="evenodd" fill-opacity="1" /><path clip-path="url(#clip940)" d="M91.0151 459.924 Q87.404 459.924 85.5753 463.489 Q83.7697 467.03 83.7697 474.16 Q83.7697 481.266 85.5753 484.831 Q87.404 488.373 91.0151 488.373 Q94.6493 488.373 96.4548 484.831 Q98.2835 481.266 98.2835 474.16 Q98.2835 467.03 96.4548 463.489 Q94.6493 459.924 91.0151 459.924 M91.0151 456.22 Q96.8252 456.22 99.8808 460.827 Q102.959 465.41 102.959 474.16 Q102.959 482.887 99.8808 487.493 Q96.8252 492.076 91.0151 492.076 Q85.2049 492.076 82.1262 487.493 Q79.0707 482.887 79.0707 474.16 Q79.0707 465.41 82.1262 460.827 Q85.2049 456.22 91.0151 456.22 Z" fill="#000000" fill-rule="evenodd" fill-opacity="1" /><path clip-path="url(#clip940)" d="M115.655 448.854 Q118.382 449.437 119.905 451.281 Q121.447 453.124 121.447 455.832 Q121.447 459.989 118.589 462.264 Q115.73 464.54 110.464 464.54 Q108.696 464.54 106.815 464.183 Q104.953 463.844 102.959 463.148 L102.959 459.481 Q104.539 460.402 106.42 460.873 Q108.301 461.343 110.351 461.343 Q113.924 461.343 115.786 459.932 Q117.667 458.522 117.667 455.832 Q117.667 453.35 115.918 451.958 Q114.188 450.547 111.084 450.547 L107.812 450.547 L107.812 447.425 L111.235 447.425 Q114.037 447.425 115.523 446.315 Q117.009 445.187 117.009 443.08 Q117.009 440.918 115.467 439.77 Q113.943 438.604 111.084 438.604 Q109.523 438.604 107.737 438.943 Q105.95 439.281 103.806 439.996 L103.806 436.611 Q105.969 436.009 107.849 435.708 Q109.749 435.407 111.423 435.407 Q115.749 435.407 118.269 437.382 Q120.789 439.338 120.789 442.686 Q120.789 445.018 119.454 446.635 Q118.119 448.234 115.655 448.854 Z" fill="#000000" fill-rule="evenodd" fill-opacity="1" /><path clip-path="url(#clip940)" d="M1123.08 12.096 L1131.27 12.096 L1131.27 65.6895 L1160.72 65.6895 L1160.72 72.576 L1123.08 72.576 L1123.08 12.096 Z" fill="#000000" fill-rule="evenodd" fill-opacity="1" /><path clip-path="url(#clip940)" d="M1185.1 32.4315 Q1179.11 32.4315 1175.62 37.1306 Q1172.14 41.7891 1172.14 49.9314 Q1172.14 58.0738 1175.58 62.7728 Q1179.07 67.4314 1185.1 67.4314 Q1191.06 67.4314 1194.54 62.7323 Q1198.02 58.0333 1198.02 49.9314 Q1198.02 41.8701 1194.54 37.1711 Q1191.06 32.4315 1185.1 32.4315 M1185.1 26.1121 Q1194.82 26.1121 1200.37 32.4315 Q1205.92 38.7509 1205.92 49.9314 Q1205.92 61.0714 1200.37 67.4314 Q1194.82 73.7508 1185.1 73.7508 Q1175.34 73.7508 1169.79 67.4314 Q1164.28 61.0714 1164.28 49.9314 Q1164.28 38.7509 1169.79 32.4315 Q1175.34 26.1121 1185.1 26.1121 Z" fill="#000000" fill-rule="evenodd" fill-opacity="1" /><path clip-path="url(#clip940)" d="M1247.2 28.5427 L1247.2 35.5912 Q1244.04 33.9709 1240.64 33.1607 Q1237.24 32.3505 1233.59 32.3505 Q1228.04 32.3505 1225.25 34.0519 Q1222.49 35.7533 1222.49 39.156 Q1222.49 41.7486 1224.48 43.2475 Q1226.46 44.7058 1232.46 46.0426 L1235.01 46.6097 Q1242.95 48.3111 1246.27 51.4303 Q1249.63 54.509 1249.63 60.0587 Q1249.63 66.3781 1244.61 70.0644 Q1239.63 73.7508 1230.88 73.7508 Q1227.23 73.7508 1223.26 73.0216 Q1219.33 72.3329 1214.96 70.9151 L1214.96 63.2184 Q1219.09 65.3654 1223.1 66.4591 Q1227.11 67.5124 1231.04 67.5124 Q1236.31 67.5124 1239.14 65.73 Q1241.98 63.9071 1241.98 60.6258 Q1241.98 57.5877 1239.91 55.9673 Q1237.89 54.3469 1230.96 52.8481 L1228.37 52.2405 Q1221.44 50.7821 1218.36 47.7845 Q1215.28 44.7463 1215.28 39.4801 Q1215.28 33.0797 1219.82 29.5959 Q1224.36 26.1121 1232.7 26.1121 Q1236.83 26.1121 1240.48 26.7198 Q1244.12 27.3274 1247.2 28.5427 Z" fill="#000000" fill-rule="evenodd" fill-opacity="1" /><path clip-path="url(#clip940)" d="M1290.43 28.5427 L1290.43 35.5912 Q1287.27 33.9709 1283.86 33.1607 Q1280.46 32.3505 1276.81 32.3505 Q1271.26 32.3505 1268.47 34.0519 Q1265.72 35.7533 1265.72 39.156 Q1265.72 41.7486 1267.7 43.2475 Q1269.68 44.7058 1275.68 46.0426 L1278.23 46.6097 Q1286.17 48.3111 1289.49 51.4303 Q1292.86 54.509 1292.86 60.0587 Q1292.86 66.3781 1287.83 70.0644 Q1282.85 73.7508 1274.1 73.7508 Q1270.45 73.7508 1266.48 73.0216 Q1262.56 72.3329 1258.18 70.9151 L1258.18 63.2184 Q1262.31 65.3654 1266.32 66.4591 Q1270.33 67.5124 1274.26 67.5124 Q1279.53 67.5124 1282.36 65.73 Q1285.2 63.9071 1285.2 60.6258 Q1285.2 57.5877 1283.13 55.9673 Q1281.11 54.3469 1274.18 52.8481 L1271.59 52.2405 Q1264.66 50.7821 1261.58 47.7845 Q1258.5 44.7463 1258.5 39.4801 Q1258.5 33.0797 1263.04 29.5959 Q1267.58 26.1121 1275.92 26.1121 Q1280.06 26.1121 1283.7 26.7198 Q1287.35 27.3274 1290.43 28.5427 Z" fill="#000000" fill-rule="evenodd" fill-opacity="1" /><path clip-path="url(#clip940)" d="M1343.53 48.0275 L1343.53 51.6733 L1309.26 51.6733 Q1309.75 59.3701 1313.88 63.421 Q1318.05 67.4314 1325.47 67.4314 Q1329.76 67.4314 1333.77 66.3781 Q1337.82 65.3249 1341.79 63.2184 L1341.79 70.267 Q1337.78 71.9684 1333.57 72.8596 Q1329.35 73.7508 1325.02 73.7508 Q1314.16 73.7508 1307.8 67.4314 Q1301.48 61.1119 1301.48 50.3365 Q1301.48 39.1965 1307.48 32.6746 Q1313.52 26.1121 1323.72 26.1121 Q1332.88 26.1121 1338.19 32.0264 Q1343.53 37.9003 1343.53 48.0275 M1336.08 45.84 Q1336 39.7232 1332.64 36.0774 Q1329.31 32.4315 1323.81 32.4315 Q1317.57 32.4315 1313.8 35.9558 Q1310.07 39.4801 1309.51 45.8805 L1336.08 45.84 Z" fill="#000000" fill-rule="evenodd" fill-opacity="1" /><path clip-path="url(#clip940)" d="M1384.69 28.5427 L1384.69 35.5912 Q1381.53 33.9709 1378.13 33.1607 Q1374.72 32.3505 1371.08 32.3505 Q1365.53 32.3505 1362.73 34.0519 Q1359.98 35.7533 1359.98 39.156 Q1359.98 41.7486 1361.96 43.2475 Q1363.95 44.7058 1369.94 46.0426 L1372.5 46.6097 Q1380.44 48.3111 1383.76 51.4303 Q1387.12 54.509 1387.12 60.0587 Q1387.12 66.3781 1382.1 70.0644 Q1377.11 73.7508 1368.36 73.7508 Q1364.72 73.7508 1360.75 73.0216 Q1356.82 72.3329 1352.44 70.9151 L1352.44 63.2184 Q1356.58 65.3654 1360.59 66.4591 Q1364.6 67.5124 1368.53 67.5124 Q1373.79 67.5124 1376.63 65.73 Q1379.46 63.9071 1379.46 60.6258 Q1379.46 57.5877 1377.4 55.9673 Q1375.37 54.3469 1368.45 52.8481 L1365.85 52.2405 Q1358.93 50.7821 1355.85 47.7845 Q1352.77 44.7463 1352.77 39.4801 Q1352.77 33.0797 1357.31 29.5959 Q1361.84 26.1121 1370.19 26.1121 Q1374.32 26.1121 1377.97 26.7198 Q1381.61 27.3274 1384.69 28.5427 Z" fill="#000000" fill-rule="evenodd" fill-opacity="1" /><polyline clip-path="url(#clip942)" style="stroke:#009af9; stroke-linecap:butt; stroke-linejoin:round; stroke-width:4; stroke-opacity:1; fill:none" points="
  219.579,160.256 226.505,182.274 233.432,206.552 240.359,233.608 247.285,264.1 254.212,299.059 261.138,340.091 268.065,389.76 274.991,452.446 281.918,537.67 
  288.845,669.517 295.771,964.398 302.698,1256.1 309.624,1244.56 316.551,1259.2 323.477,1255.7 330.404,1276.27 337.331,1258.65 344.257,1251.19 351.184,1270.85 
  358.11,1276.25 365.037,1257.3 371.963,1279.07 378.89,1261.65 385.817,1258.1 392.743,1280.47 399.67,1262.94 406.596,1259.28 413.523,1282.85 420.45,1266.93 
  427.376,1266.07 434.303,1264.3 441.229,1261.39 448.156,1286.65 455.082,1272.7 462.009,1278.21 468.936,1287.43 475.862,1273.48 482.789,1278.99 489.715,1288.88 
  496.642,1276.33 503.568,1280.78 510.495,1258.15 517.422,1279.46 524.348,1286.69 531.275,1270.68 538.201,1269.91 545.128,1266.46 552.054,1258.9 558.981,1278.82 
  565.908,1283.82 572.834,1260.78 579.761,1283.51 586.687,1292.66 593.614,1281.58 600.54,1288.52 607.467,1268.98 614.394,1261.35 621.32,1282.67 628.247,1289.14 
  635.173,1270.22 642.1,1262.27 649.026,1281 655.953,1287.23 662.88,1261.28 669.806,1280.44 676.733,1284.88 683.659,1291.54 690.586,1272.58 697.512,1263.29 
  704.439,1281.89 711.366,1286.38 718.292,1294.44 725.219,1277.08 732.145,1274.3 739.072,1300 745.998,1290.19 752.925,1299.35 759.852,1288.28 766.778,1296.43 
  773.705,1279.04 780.631,1275.43 787.558,1302.06 794.485,1292 801.411,1301.43 808.338,1290.12 815.264,1297.49 822.191,1277.94 829.117,1269.76 836.044,1291.26 
  842.971,1298.72 849.897,1280.02 856.824,1271.76 863.75,1294.02 870.677,1302.67 877.603,1288.85 884.53,1293.24 891.457,1300.81 898.383,1282.09 905.31,1273.7 
  912.236,1296 919.163,1304.73 926.089,1289.67 933.016,1291.86 939.943,1298.65 946.869,1308.09 953.796,1296.9 960.722,1306.7 967.649,1290.77 974.575,1293.45 
  981.502,1297.26 988.429,1304.83 995.355,1287.96 1002.28,1282.17 1009.21,1308.8 1016.13,1292.82 1023.06,1294.89 1029.99,1299.22 1036.91,1307.15 1043.84,1288.8 
  1050.77,1279.73 1057.69,1304.26 1064.62,1313.01 1071.55,1304.02 1078.47,1313.76 1085.4,1302.32 1092.33,1311.88 1099.25,1295.78 1106.18,1296.63 1113.11,1298.09 
  1120.03,1299.69 1126.96,1307.12 1133.89,1315.96 1140.81,1307.62 1147.74,1316.6 1154.67,1308.12 1161.59,1316.61 1168.52,1306.41 1175.45,1315.41 1182.37,1299.3 
  1189.3,1300.16 1196.23,1301.61 1203.15,1303.83 1210.08,1313.76 1217.01,1326.95 1223.93,1319.79 1230.86,1311.36 1237.79,1319.81 1244.71,1310.35 1251.64,1319.65 
  1258.56,1304.85 1265.49,1310.47 1272.42,1319.69 1279.34,1303.47 1286.27,1304.86 1293.2,1305.78 1300.12,1311.18 1307.05,1319.54 1313.98,1301.82 1320.9,1295.95 
  1327.83,1323.13 1334.76,1307.64 1341.68,1313.03 1348.61,1321.94 1355.54,1304.55 1362.46,1302.56 1369.39,1333.58 1376.32,1331.23 1383.24,1322.78 1390.17,1303.91 
  1397.1,1337.9 1404.02,1333.56 1410.95,1327.21 1417.88,1316.18 1424.8,1324.61 1431.73,1305.67 1438.66,1338.86 1445.58,1335.39 1452.51,1328.58 1459.44,1314.79 
  1466.36,1323.59 1473.29,1336.66 1480.22,1329.43 1487.14,1314.23 1494.07,1318.2 1501,1328.1 1507.92,1305.29 1514.85,1335.4 1521.77,1327.11 1528.7,1342.78 
  1535.63,1340.07 1542.55,1334.24 1549.48,1322.71 1556.41,1333.09 1563.33,1316.55 1570.26,1318.5 1577.19,1323.87 1584.11,1333.56 1591.04,1315.93 1597.97,1315.03 
  1604.89,1311.94 1611.82,1343.57 1618.75,1337.84 1625.67,1326.15 1632.6,1336.75 1639.53,1320.1 1646.45,1322.02 1653.38,1327.32 1660.31,1337.76 1667.23,1320.9 
  1674.16,1321.73 1681.09,1322.09 1688.01,1324.01 1694.94,1329.3 1701.87,1340.28 1708.79,1323.39 1715.72,1325.28 1722.65,1329.25 1729.57,1338.95 1736.5,1317.66 
  1743.43,1349.06 1750.35,1344.36 1757.28,1331.5 1764.2,1341.22 1771.13,1322.29 1778.06,1356.62 1784.98,1356.92 1791.91,1358.72 1798.84,1323.09 1805.76,1357.83 
  1812.69,1358.13 1819.62,1358.42 1826.54,1360.56 1833.47,1322.99 1840.4,1357.76 1847.32,1356.56 1854.25,1354.16 1861.18,1348.66 1868.1,1333.87 1875.03,1341.09 
  1881.96,1354.81 1888.88,1349.68 1895.81,1332.55 1902.74,1335.55 1909.66,1342.78 1916.59,1357.11 1923.52,1351.67 1930.44,1336.85 1937.37,1344.04 1944.3,1357.77 
  1951.22,1352.71 1958.15,1336.53 1965.08,1340.36 1972,1351.78 1978.93,1370.38 1985.86,1339.41 1992.78,1344.47 1999.71,1357.78 2006.63,1347.97 2013.56,1362.38 
  2020.49,1358.87 2027.41,1348.12 2034.34,1362.16 2041.27,1357.32 2048.19,1340.36 2055.12,1342.86 2062.05,1351.38 2068.97,1367.82 2075.9,1364.11 2082.83,1359.7 
  2089.75,1344.43 2096.68,1352.09 2103.61,1365.49 2110.53,1361.14 2117.46,1345.78 2124.39,1353.4 2131.31,1366.87 2138.24,1362.59 2145.17,1347.13 2152.09,1354.71 
  2159.02,1368.27 2165.95,1364.04 2172.87,1348.5 2179.8,1356.02 2186.73,1368.44 2193.65,1364.1 2200.58,1345.41 2207.51,1384.6 2214.43,1357.76 2221.36,1371.99 
  2228.29,1368 2235.21,1353.37 2242.14,1366.03 2249.07,1386.4 2255.99,1356.39 2262.92,1370.71 2269.84,1357.02 2276.77,1370.04 2283.7,1354.65 2290.62,1363.3 
  
  "/>
<path clip-path="url(#clip940)" d="
M1983.23 270.476 L2279.58 270.476 L2279.58 166.796 L1983.23 166.796  Z
  " fill="#ffffff" fill-rule="evenodd" fill-opacity="1"/>
<polyline clip-path="url(#clip940)" style="stroke:#000000; stroke-linecap:butt; stroke-linejoin:round; stroke-width:4; stroke-opacity:1; fill:none" points="
  1983.23,270.476 2279.58,270.476 2279.58,166.796 1983.23,166.796 1983.23,270.476 
  "/>
<polyline clip-path="url(#clip940)" style="stroke:#009af9; stroke-linecap:butt; stroke-linejoin:round; stroke-width:4; stroke-opacity:1; fill:none" points="
  2007.62,218.636 2153.97,218.636 
  "/>
<path clip-path="url(#clip940)" d="M2192.21 238.323 Q2190.4 242.953 2188.69 244.365 Q2186.98 245.777 2184.1 245.777 L2180.7 245.777 L2180.7 242.212 L2183.2 242.212 Q2184.96 242.212 2185.93 241.379 Q2186.91 240.545 2188.09 237.443 L2188.85 235.499 L2178.36 209.99 L2182.88 209.99 L2190.98 230.268 L2199.08 209.99 L2203.6 209.99 L2192.21 238.323 Z" fill="#000000" fill-rule="evenodd" fill-opacity="1" /><path clip-path="url(#clip940)" d="M2210.89 231.981 L2218.53 231.981 L2218.53 205.615 L2210.22 207.282 L2210.22 203.022 L2218.48 201.356 L2223.16 201.356 L2223.16 231.981 L2230.79 231.981 L2230.79 235.916 L2210.89 235.916 L2210.89 231.981 Z" fill="#000000" fill-rule="evenodd" fill-opacity="1" /></svg>
