<?xml version="1.0" encoding="utf-8"?>
<svg xmlns="http://www.w3.org/2000/svg" xmlns:xlink="http://www.w3.org/1999/xlink" width="600" height="400" viewBox="0 0 2400 1600">
<defs>
  <clipPath id="clip900">
    <rect x="0" y="0" width="2400" height="1600"/>
  </clipPath>
</defs>
<path clip-path="url(#clip900)" d="
M0 1600 L2400 1600 L2400 0 L0 0  Z
  " fill="#ffffff" fill-rule="evenodd" fill-opacity="1"/>
<defs>
  <clipPath id="clip901">
    <rect x="480" y="0" width="1681" height="1600"/>
  </clipPath>
</defs>
<path clip-path="url(#clip900)" d="
M199.283 1486.45 L2352.76 1486.45 L2352.76 123.472 L199.283 123.472  Z
  " fill="#ffffff" fill-rule="evenodd" fill-opacity="1"/>
<defs>
  <clipPath id="clip902">
    <rect x="199" y="123" width="2154" height="1364"/>
  </clipPath>
</defs>
<polyline clip-path="url(#clip902)" style="stroke:#000000; stroke-linecap:butt; stroke-linejoin:round; stroke-width:2; stroke-opacity:0.1; fill:none" points="
  218.77,1486.45 218.77,123.472 
  "/>
<polyline clip-path="url(#clip902)" style="stroke:#000000; stroke-linecap:butt; stroke-linejoin:round; stroke-width:2; stroke-opacity:0.1; fill:none" points="
  633.378,1486.45 633.378,123.472 
  "/>
<polyline clip-path="url(#clip902)" style="stroke:#000000; stroke-linecap:butt; stroke-linejoin:round; stroke-width:2; stroke-opacity:0.1; fill:none" points="
  1047.99,1486.45 1047.99,123.472 
  "/>
<polyline clip-path="url(#clip902)" style="stroke:#000000; stroke-linecap:butt; stroke-linejoin:round; stroke-width:2; stroke-opacity:0.1; fill:none" points="
  1462.59,1486.45 1462.59,123.472 
  "/>
<polyline clip-path="url(#clip902)" style="stroke:#000000; stroke-linecap:butt; stroke-linejoin:round; stroke-width:2; stroke-opacity:0.1; fill:none" points="
  1877.2,1486.45 1877.2,123.472 
  "/>
<polyline clip-path="url(#clip902)" style="stroke:#000000; stroke-linecap:butt; stroke-linejoin:round; stroke-width:2; stroke-opacity:0.1; fill:none" points="
  2291.81,1486.45 2291.81,123.472 
  "/>
<polyline clip-path="url(#clip900)" style="stroke:#000000; stroke-linecap:butt; stroke-linejoin:round; stroke-width:4; stroke-opacity:1; fill:none" points="
  199.283,1486.45 2352.76,1486.45 
  "/>
<polyline clip-path="url(#clip900)" style="stroke:#000000; stroke-linecap:butt; stroke-linejoin:round; stroke-width:4; stroke-opacity:1; fill:none" points="
  218.77,1486.45 218.77,1467.55 
  "/>
<polyline clip-path="url(#clip900)" style="stroke:#000000; stroke-linecap:butt; stroke-linejoin:round; stroke-width:4; stroke-opacity:1; fill:none" points="
  633.378,1486.45 633.378,1467.55 
  "/>
<polyline clip-path="url(#clip900)" style="stroke:#000000; stroke-linecap:butt; stroke-linejoin:round; stroke-width:4; stroke-opacity:1; fill:none" points="
  1047.99,1486.45 1047.99,1467.55 
  "/>
<polyline clip-path="url(#clip900)" style="stroke:#000000; stroke-linecap:butt; stroke-linejoin:round; stroke-width:4; stroke-opacity:1; fill:none" points="
  1462.59,1486.45 1462.59,1467.55 
  "/>
<polyline clip-path="url(#clip900)" style="stroke:#000000; stroke-linecap:butt; stroke-linejoin:round; stroke-width:4; stroke-opacity:1; fill:none" points="
  1877.2,1486.45 1877.2,1467.55 
  "/>
<polyline clip-path="url(#clip900)" style="stroke:#000000; stroke-linecap:butt; stroke-linejoin:round; stroke-width:4; stroke-opacity:1; fill:none" points="
  2291.81,1486.45 2291.81,1467.55 
  "/>
<path clip-path="url(#clip900)" d="M218.77 1517.37 Q215.159 1517.37 213.33 1520.93 Q211.524 1524.47 211.524 1531.6 Q211.524 1538.71 213.33 1542.27 Q215.159 1545.82 218.77 1545.82 Q222.404 1545.82 224.21 1542.27 Q226.038 1538.71 226.038 1531.6 Q226.038 1524.47 224.21 1520.93 Q222.404 1517.37 218.77 1517.37 M218.77 1513.66 Q224.58 1513.66 227.635 1518.27 Q230.714 1522.85 230.714 1531.6 Q230.714 1540.33 227.635 1544.94 Q224.58 1549.52 218.77 1549.52 Q212.96 1549.52 209.881 1544.94 Q206.825 1540.33 206.825 1531.6 Q206.825 1522.85 209.881 1518.27 Q212.96 1513.66 218.77 1513.66 Z" fill="#000000" fill-rule="evenodd" fill-opacity="1" /><path clip-path="url(#clip900)" d="M608.065 1544.91 L615.704 1544.91 L615.704 1518.55 L607.394 1520.21 L607.394 1515.95 L615.658 1514.29 L620.334 1514.29 L620.334 1544.91 L627.972 1544.91 L627.972 1548.85 L608.065 1548.85 L608.065 1544.91 Z" fill="#000000" fill-rule="evenodd" fill-opacity="1" /><path clip-path="url(#clip900)" d="M647.417 1517.37 Q643.806 1517.37 641.977 1520.93 Q640.171 1524.47 640.171 1531.6 Q640.171 1538.71 641.977 1542.27 Q643.806 1545.82 647.417 1545.82 Q651.051 1545.82 652.857 1542.27 Q654.685 1538.71 654.685 1531.6 Q654.685 1524.47 652.857 1520.93 Q651.051 1517.37 647.417 1517.37 M647.417 1513.66 Q653.227 1513.66 656.282 1518.27 Q659.361 1522.85 659.361 1531.6 Q659.361 1540.33 656.282 1544.94 Q653.227 1549.52 647.417 1549.52 Q641.607 1549.52 638.528 1544.94 Q635.472 1540.33 635.472 1531.6 Q635.472 1522.85 638.528 1518.27 Q641.607 1513.66 647.417 1513.66 Z" fill="#000000" fill-rule="evenodd" fill-opacity="1" /><path clip-path="url(#clip900)" d="M1026.76 1544.91 L1043.08 1544.91 L1043.08 1548.85 L1021.13 1548.85 L1021.13 1544.91 Q1023.8 1542.16 1028.38 1537.53 Q1032.99 1532.88 1034.17 1531.53 Q1036.41 1529.01 1037.29 1527.27 Q1038.19 1525.51 1038.19 1523.82 Q1038.19 1521.07 1036.25 1519.33 Q1034.33 1517.6 1031.23 1517.6 Q1029.03 1517.6 1026.57 1518.36 Q1024.14 1519.13 1021.37 1520.68 L1021.37 1515.95 Q1024.19 1514.82 1026.64 1514.24 Q1029.1 1513.66 1031.13 1513.66 Q1036.5 1513.66 1039.7 1516.35 Q1042.89 1519.03 1042.89 1523.52 Q1042.89 1525.65 1042.08 1527.57 Q1041.3 1529.47 1039.19 1532.07 Q1038.61 1532.74 1035.51 1535.95 Q1032.41 1539.15 1026.76 1544.91 Z" fill="#000000" fill-rule="evenodd" fill-opacity="1" /><path clip-path="url(#clip900)" d="M1062.89 1517.37 Q1059.28 1517.37 1057.45 1520.93 Q1055.65 1524.47 1055.65 1531.6 Q1055.65 1538.71 1057.45 1542.27 Q1059.28 1545.82 1062.89 1545.82 Q1066.53 1545.82 1068.33 1542.27 Q1070.16 1538.71 1070.16 1531.6 Q1070.16 1524.47 1068.33 1520.93 Q1066.53 1517.37 1062.89 1517.37 M1062.89 1513.66 Q1068.7 1513.66 1071.76 1518.27 Q1074.84 1522.85 1074.84 1531.6 Q1074.84 1540.33 1071.76 1544.94 Q1068.7 1549.52 1062.89 1549.52 Q1057.08 1549.52 1054 1544.94 Q1050.95 1540.33 1050.95 1531.6 Q1050.95 1522.85 1054 1518.27 Q1057.08 1513.66 1062.89 1513.66 Z" fill="#000000" fill-rule="evenodd" fill-opacity="1" /><path clip-path="url(#clip900)" d="M1451.44 1530.21 Q1454.79 1530.93 1456.67 1533.2 Q1458.57 1535.47 1458.57 1538.8 Q1458.57 1543.92 1455.05 1546.72 Q1451.53 1549.52 1445.05 1549.52 Q1442.87 1549.52 1440.56 1549.08 Q1438.26 1548.66 1435.81 1547.81 L1435.81 1543.29 Q1437.76 1544.43 1440.07 1545.01 Q1442.38 1545.58 1444.91 1545.58 Q1449.31 1545.58 1451.6 1543.85 Q1453.91 1542.11 1453.91 1538.8 Q1453.91 1535.75 1451.76 1534.03 Q1449.63 1532.3 1445.81 1532.3 L1441.78 1532.3 L1441.78 1528.45 L1446 1528.45 Q1449.44 1528.45 1451.27 1527.09 Q1453.1 1525.7 1453.1 1523.11 Q1453.1 1520.45 1451.2 1519.03 Q1449.33 1517.6 1445.81 1517.6 Q1443.89 1517.6 1441.69 1518.01 Q1439.49 1518.43 1436.85 1519.31 L1436.85 1515.14 Q1439.51 1514.4 1441.83 1514.03 Q1444.17 1513.66 1446.23 1513.66 Q1451.55 1513.66 1454.65 1516.09 Q1457.76 1518.5 1457.76 1522.62 Q1457.76 1525.49 1456.11 1527.48 Q1454.47 1529.45 1451.44 1530.21 Z" fill="#000000" fill-rule="evenodd" fill-opacity="1" /><path clip-path="url(#clip900)" d="M1477.43 1517.37 Q1473.82 1517.37 1471.99 1520.93 Q1470.19 1524.47 1470.19 1531.6 Q1470.19 1538.71 1471.99 1542.27 Q1473.82 1545.82 1477.43 1545.82 Q1481.07 1545.82 1482.87 1542.27 Q1484.7 1538.71 1484.7 1531.6 Q1484.7 1524.47 1482.87 1520.93 Q1481.07 1517.37 1477.43 1517.37 M1477.43 1513.66 Q1483.24 1513.66 1486.3 1518.27 Q1489.38 1522.85 1489.38 1531.6 Q1489.38 1540.33 1486.3 1544.94 Q1483.24 1549.52 1477.43 1549.52 Q1471.62 1549.52 1468.54 1544.94 Q1465.49 1540.33 1465.49 1531.6 Q1465.49 1522.85 1468.54 1518.27 Q1471.62 1513.66 1477.43 1513.66 Z" fill="#000000" fill-rule="evenodd" fill-opacity="1" /><path clip-path="url(#clip900)" d="M1865.37 1518.36 L1853.57 1536.81 L1865.37 1536.81 L1865.37 1518.36 M1864.15 1514.29 L1870.02 1514.29 L1870.02 1536.81 L1874.96 1536.81 L1874.96 1540.7 L1870.02 1540.7 L1870.02 1548.85 L1865.37 1548.85 L1865.37 1540.7 L1849.77 1540.7 L1849.77 1536.19 L1864.15 1514.29 Z" fill="#000000" fill-rule="evenodd" fill-opacity="1" /><path clip-path="url(#clip900)" d="M1892.69 1517.37 Q1889.08 1517.37 1887.25 1520.93 Q1885.44 1524.47 1885.44 1531.6 Q1885.44 1538.71 1887.25 1542.27 Q1889.08 1545.82 1892.69 1545.82 Q1896.32 1545.82 1898.13 1542.27 Q1899.96 1538.71 1899.96 1531.6 Q1899.96 1524.47 1898.13 1520.93 Q1896.32 1517.37 1892.69 1517.37 M1892.69 1513.66 Q1898.5 1513.66 1901.55 1518.27 Q1904.63 1522.85 1904.63 1531.6 Q1904.63 1540.33 1901.55 1544.94 Q1898.5 1549.52 1892.69 1549.52 Q1886.88 1549.52 1883.8 1544.94 Q1880.74 1540.33 1880.74 1531.6 Q1880.74 1522.85 1883.8 1518.27 Q1886.88 1513.66 1892.69 1513.66 Z" fill="#000000" fill-rule="evenodd" fill-opacity="1" /><path clip-path="url(#clip900)" d="M2266.51 1514.29 L2284.86 1514.29 L2284.86 1518.22 L2270.79 1518.22 L2270.79 1526.7 Q2271.81 1526.35 2272.83 1526.19 Q2273.85 1526 2274.86 1526 Q2280.65 1526 2284.03 1529.17 Q2287.41 1532.34 2287.41 1537.76 Q2287.41 1543.34 2283.94 1546.44 Q2280.47 1549.52 2274.15 1549.52 Q2271.97 1549.52 2269.7 1549.15 Q2267.46 1548.78 2265.05 1548.04 L2265.05 1543.34 Q2267.13 1544.47 2269.35 1545.03 Q2271.58 1545.58 2274.05 1545.58 Q2278.06 1545.58 2280.4 1543.48 Q2282.73 1541.37 2282.73 1537.76 Q2282.73 1534.15 2280.4 1532.04 Q2278.06 1529.94 2274.05 1529.94 Q2272.18 1529.94 2270.3 1530.35 Q2268.45 1530.77 2266.51 1531.65 L2266.51 1514.29 Z" fill="#000000" fill-rule="evenodd" fill-opacity="1" /><path clip-path="url(#clip900)" d="M2306.62 1517.37 Q2303.01 1517.37 2301.18 1520.93 Q2299.38 1524.47 2299.38 1531.6 Q2299.38 1538.71 2301.18 1542.27 Q2303.01 1545.82 2306.62 1545.82 Q2310.26 1545.82 2312.06 1542.27 Q2313.89 1538.71 2313.89 1531.6 Q2313.89 1524.47 2312.06 1520.93 Q2310.26 1517.37 2306.62 1517.37 M2306.62 1513.66 Q2312.43 1513.66 2315.49 1518.27 Q2318.57 1522.85 2318.57 1531.6 Q2318.57 1540.33 2315.49 1544.94 Q2312.43 1549.52 2306.62 1549.52 Q2300.81 1549.52 2297.73 1544.94 Q2294.68 1540.33 2294.68 1531.6 Q2294.68 1522.85 2297.73 1518.27 Q2300.81 1513.66 2306.62 1513.66 Z" fill="#000000" fill-rule="evenodd" fill-opacity="1" /><polyline clip-path="url(#clip902)" style="stroke:#000000; stroke-linecap:butt; stroke-linejoin:round; stroke-width:2; stroke-opacity:0.1; fill:none" points="
  199.283,1423.83 2352.76,1423.83 
  "/>
<polyline clip-path="url(#clip902)" style="stroke:#000000; stroke-linecap:butt; stroke-linejoin:round; stroke-width:2; stroke-opacity:0.1; fill:none" points="
  199.283,1231.44 2352.76,1231.44 
  "/>
<polyline clip-path="url(#clip902)" style="stroke:#000000; stroke-linecap:butt; stroke-linejoin:round; stroke-width:2; stroke-opacity:0.1; fill:none" points="
  199.283,1039.06 2352.76,1039.06 
  "/>
<polyline clip-path="url(#clip902)" style="stroke:#000000; stroke-linecap:butt; stroke-linejoin:round; stroke-width:2; stroke-opacity:0.1; fill:none" points="
  199.283,846.674 2352.76,846.674 
  "/>
<polyline clip-path="url(#clip902)" style="stroke:#000000; stroke-linecap:butt; stroke-linejoin:round; stroke-width:2; stroke-opacity:0.1; fill:none" points="
  199.283,654.29 2352.76,654.29 
  "/>
<polyline clip-path="url(#clip902)" style="stroke:#000000; stroke-linecap:butt; stroke-linejoin:round; stroke-width:2; stroke-opacity:0.1; fill:none" points="
  199.283,461.906 2352.76,461.906 
  "/>
<polyline clip-path="url(#clip902)" style="stroke:#000000; stroke-linecap:butt; stroke-linejoin:round; stroke-width:2; stroke-opacity:0.1; fill:none" points="
  199.283,269.523 2352.76,269.523 
  "/>
<polyline clip-path="url(#clip900)" style="stroke:#000000; stroke-linecap:butt; stroke-linejoin:round; stroke-width:4; stroke-opacity:1; fill:none" points="
  199.283,1486.45 199.283,123.472 
  "/>
<polyline clip-path="url(#clip900)" style="stroke:#000000; stroke-linecap:butt; stroke-linejoin:round; stroke-width:4; stroke-opacity:1; fill:none" points="
  199.283,1423.83 218.181,1423.83 
  "/>
<polyline clip-path="url(#clip900)" style="stroke:#000000; stroke-linecap:butt; stroke-linejoin:round; stroke-width:4; stroke-opacity:1; fill:none" points="
  199.283,1231.44 218.181,1231.44 
  "/>
<polyline clip-path="url(#clip900)" style="stroke:#000000; stroke-linecap:butt; stroke-linejoin:round; stroke-width:4; stroke-opacity:1; fill:none" points="
  199.283,1039.06 218.181,1039.06 
  "/>
<polyline clip-path="url(#clip900)" style="stroke:#000000; stroke-linecap:butt; stroke-linejoin:round; stroke-width:4; stroke-opacity:1; fill:none" points="
  199.283,846.674 218.181,846.674 
  "/>
<polyline clip-path="url(#clip900)" style="stroke:#000000; stroke-linecap:butt; stroke-linejoin:round; stroke-width:4; stroke-opacity:1; fill:none" points="
  199.283,654.29 218.181,654.29 
  "/>
<polyline clip-path="url(#clip900)" style="stroke:#000000; stroke-linecap:butt; stroke-linejoin:round; stroke-width:4; stroke-opacity:1; fill:none" points="
  199.283,461.906 218.181,461.906 
  "/>
<polyline clip-path="url(#clip900)" style="stroke:#000000; stroke-linecap:butt; stroke-linejoin:round; stroke-width:4; stroke-opacity:1; fill:none" points="
  199.283,269.523 218.181,269.523 
  "/>
<path clip-path="url(#clip900)" d="M85.0429 1437.17 L101.362 1437.17 L101.362 1441.11 L79.4179 1441.11 L79.4179 1437.17 Q82.0799 1434.42 86.6632 1429.79 Q91.2697 1425.13 92.4502 1423.79 Q94.6956 1421.27 95.5752 1419.53 Q96.478 1417.77 96.478 1416.08 Q96.478 1413.33 94.5336 1411.59 Q92.6123 1409.86 89.5104 1409.86 Q87.3114 1409.86 84.8577 1410.62 Q82.4271 1411.38 79.6494 1412.93 L79.6494 1408.21 Q82.4734 1407.08 84.9271 1406.5 Q87.3808 1405.92 89.4178 1405.92 Q94.7882 1405.92 97.9826 1408.61 Q101.177 1411.29 101.177 1415.78 Q101.177 1417.91 100.367 1419.83 Q99.5798 1421.73 97.4734 1424.32 Q96.8947 1424.99 93.7928 1428.21 Q90.691 1431.41 85.0429 1437.17 Z" fill="#000000" fill-rule="evenodd" fill-opacity="1" /><path clip-path="url(#clip900)" d="M121.177 1409.62 Q117.566 1409.62 115.737 1413.19 Q113.932 1416.73 113.932 1423.86 Q113.932 1430.97 115.737 1434.53 Q117.566 1438.07 121.177 1438.07 Q124.811 1438.07 126.617 1434.53 Q128.445 1430.97 128.445 1423.86 Q128.445 1416.73 126.617 1413.19 Q124.811 1409.62 121.177 1409.62 M121.177 1405.92 Q126.987 1405.92 130.043 1410.53 Q133.121 1415.11 133.121 1423.86 Q133.121 1432.59 130.043 1437.19 Q126.987 1441.78 121.177 1441.78 Q115.367 1441.78 112.288 1437.19 Q109.233 1432.59 109.233 1423.86 Q109.233 1415.11 112.288 1410.53 Q115.367 1405.92 121.177 1405.92 Z" fill="#000000" fill-rule="evenodd" fill-opacity="1" /><path clip-path="url(#clip900)" d="M151.339 1409.62 Q147.728 1409.62 145.899 1413.19 Q144.093 1416.73 144.093 1423.86 Q144.093 1430.97 145.899 1434.53 Q147.728 1438.07 151.339 1438.07 Q154.973 1438.07 156.779 1434.53 Q158.607 1430.97 158.607 1423.86 Q158.607 1416.73 156.779 1413.19 Q154.973 1409.62 151.339 1409.62 M151.339 1405.92 Q157.149 1405.92 160.205 1410.53 Q163.283 1415.11 163.283 1423.86 Q163.283 1432.59 160.205 1437.19 Q157.149 1441.78 151.339 1441.78 Q145.529 1441.78 142.45 1437.19 Q139.394 1432.59 139.394 1423.86 Q139.394 1415.11 142.45 1410.53 Q145.529 1405.92 151.339 1405.92 Z" fill="#000000" fill-rule="evenodd" fill-opacity="1" /><path clip-path="url(#clip900)" d="M93.8623 1218.24 L82.0568 1236.68 L93.8623 1236.68 L93.8623 1218.24 M92.6354 1214.16 L98.515 1214.16 L98.515 1236.68 L103.446 1236.68 L103.446 1240.57 L98.515 1240.57 L98.515 1248.72 L93.8623 1248.72 L93.8623 1240.57 L78.2605 1240.57 L78.2605 1236.06 L92.6354 1214.16 Z" fill="#000000" fill-rule="evenodd" fill-opacity="1" /><path clip-path="url(#clip900)" d="M121.177 1217.24 Q117.566 1217.24 115.737 1220.8 Q113.932 1224.35 113.932 1231.48 Q113.932 1238.58 115.737 1242.15 Q117.566 1245.69 121.177 1245.69 Q124.811 1245.69 126.617 1242.15 Q128.445 1238.58 128.445 1231.48 Q128.445 1224.35 126.617 1220.8 Q124.811 1217.24 121.177 1217.24 M121.177 1213.54 Q126.987 1213.54 130.043 1218.14 Q133.121 1222.73 133.121 1231.48 Q133.121 1240.2 130.043 1244.81 Q126.987 1249.39 121.177 1249.39 Q115.367 1249.39 112.288 1244.81 Q109.233 1240.2 109.233 1231.48 Q109.233 1222.73 112.288 1218.14 Q115.367 1213.54 121.177 1213.54 Z" fill="#000000" fill-rule="evenodd" fill-opacity="1" /><path clip-path="url(#clip900)" d="M151.339 1217.24 Q147.728 1217.24 145.899 1220.8 Q144.093 1224.35 144.093 1231.48 Q144.093 1238.58 145.899 1242.15 Q147.728 1245.69 151.339 1245.69 Q154.973 1245.69 156.779 1242.15 Q158.607 1238.58 158.607 1231.48 Q158.607 1224.35 156.779 1220.8 Q154.973 1217.24 151.339 1217.24 M151.339 1213.54 Q157.149 1213.54 160.205 1218.14 Q163.283 1222.73 163.283 1231.48 Q163.283 1240.2 160.205 1244.81 Q157.149 1249.39 151.339 1249.39 Q145.529 1249.39 142.45 1244.81 Q139.394 1240.2 139.394 1231.48 Q139.394 1222.73 142.45 1218.14 Q145.529 1213.54 151.339 1213.54 Z" fill="#000000" fill-rule="evenodd" fill-opacity="1" /><path clip-path="url(#clip900)" d="M91.5938 1037.19 Q88.4456 1037.19 86.5938 1039.35 Q84.7651 1041.5 84.7651 1045.25 Q84.7651 1048.98 86.5938 1051.15 Q88.4456 1053.31 91.5938 1053.31 Q94.7419 1053.31 96.5706 1051.15 Q98.4224 1048.98 98.4224 1045.25 Q98.4224 1041.5 96.5706 1039.35 Q94.7419 1037.19 91.5938 1037.19 M100.876 1022.54 L100.876 1026.8 Q99.1169 1025.97 97.3113 1025.53 Q95.5289 1025.09 93.7697 1025.09 Q89.1401 1025.09 86.6864 1028.21 Q84.2558 1031.34 83.9086 1037.66 Q85.2743 1035.64 87.3345 1034.58 Q89.3947 1033.49 91.8715 1033.49 Q97.0798 1033.49 100.089 1036.66 Q103.121 1039.81 103.121 1045.25 Q103.121 1050.57 99.9733 1053.79 Q96.8252 1057.01 91.5938 1057.01 Q85.5984 1057.01 82.4271 1052.43 Q79.2559 1047.82 79.2559 1039.09 Q79.2559 1030.9 83.1447 1026.04 Q87.0336 1021.15 93.5845 1021.15 Q95.3437 1021.15 97.1261 1021.5 Q98.9317 1021.85 100.876 1022.54 Z" fill="#000000" fill-rule="evenodd" fill-opacity="1" /><path clip-path="url(#clip900)" d="M121.177 1024.86 Q117.566 1024.86 115.737 1028.42 Q113.932 1031.96 113.932 1039.09 Q113.932 1046.2 115.737 1049.76 Q117.566 1053.31 121.177 1053.31 Q124.811 1053.31 126.617 1049.76 Q128.445 1046.2 128.445 1039.09 Q128.445 1031.96 126.617 1028.42 Q124.811 1024.86 121.177 1024.86 M121.177 1021.15 Q126.987 1021.15 130.043 1025.76 Q133.121 1030.34 133.121 1039.09 Q133.121 1047.82 130.043 1052.43 Q126.987 1057.01 121.177 1057.01 Q115.367 1057.01 112.288 1052.43 Q109.233 1047.82 109.233 1039.09 Q109.233 1030.34 112.288 1025.76 Q115.367 1021.15 121.177 1021.15 Z" fill="#000000" fill-rule="evenodd" fill-opacity="1" /><path clip-path="url(#clip900)" d="M151.339 1024.86 Q147.728 1024.86 145.899 1028.42 Q144.093 1031.96 144.093 1039.09 Q144.093 1046.2 145.899 1049.76 Q147.728 1053.31 151.339 1053.31 Q154.973 1053.31 156.779 1049.76 Q158.607 1046.2 158.607 1039.09 Q158.607 1031.96 156.779 1028.42 Q154.973 1024.86 151.339 1024.86 M151.339 1021.15 Q157.149 1021.15 160.205 1025.76 Q163.283 1030.34 163.283 1039.09 Q163.283 1047.82 160.205 1052.43 Q157.149 1057.01 151.339 1057.01 Q145.529 1057.01 142.45 1052.43 Q139.394 1047.82 139.394 1039.09 Q139.394 1030.34 142.45 1025.76 Q145.529 1021.15 151.339 1021.15 Z" fill="#000000" fill-rule="evenodd" fill-opacity="1" /><path clip-path="url(#clip900)" d="M91.0151 847.542 Q87.6817 847.542 85.7605 849.324 Q83.8623 851.107 83.8623 854.232 Q83.8623 857.357 85.7605 859.139 Q87.6817 860.921 91.0151 860.921 Q94.3484 860.921 96.2697 859.139 Q98.1909 857.334 98.1909 854.232 Q98.1909 851.107 96.2697 849.324 Q94.3715 847.542 91.0151 847.542 M86.3392 845.551 Q83.3299 844.81 81.6401 842.75 Q79.9735 840.69 79.9735 837.727 Q79.9735 833.584 82.9133 831.176 Q85.8762 828.769 91.0151 828.769 Q96.1771 828.769 99.1169 831.176 Q102.057 833.584 102.057 837.727 Q102.057 840.69 100.367 842.75 Q98.7002 844.81 95.7141 845.551 Q99.0937 846.338 100.969 848.63 Q102.867 850.922 102.867 854.232 Q102.867 859.255 99.7882 861.94 Q96.7326 864.625 91.0151 864.625 Q85.2975 864.625 82.2188 861.94 Q79.1633 859.255 79.1633 854.232 Q79.1633 850.922 81.0614 848.63 Q82.9595 846.338 86.3392 845.551 M84.6262 838.167 Q84.6262 840.852 86.2929 842.357 Q87.9827 843.861 91.0151 843.861 Q94.0243 843.861 95.7141 842.357 Q97.4271 840.852 97.4271 838.167 Q97.4271 835.482 95.7141 833.977 Q94.0243 832.473 91.0151 832.473 Q87.9827 832.473 86.2929 833.977 Q84.6262 835.482 84.6262 838.167 Z" fill="#000000" fill-rule="evenodd" fill-opacity="1" /><path clip-path="url(#clip900)" d="M121.177 832.473 Q117.566 832.473 115.737 836.037 Q113.932 839.579 113.932 846.709 Q113.932 853.815 115.737 857.38 Q117.566 860.921 121.177 860.921 Q124.811 860.921 126.617 857.38 Q128.445 853.815 128.445 846.709 Q128.445 839.579 126.617 836.037 Q124.811 832.473 121.177 832.473 M121.177 828.769 Q126.987 828.769 130.043 833.375 Q133.121 837.959 133.121 846.709 Q133.121 855.435 130.043 860.042 Q126.987 864.625 121.177 864.625 Q115.367 864.625 112.288 860.042 Q109.233 855.435 109.233 846.709 Q109.233 837.959 112.288 833.375 Q115.367 828.769 121.177 828.769 Z" fill="#000000" fill-rule="evenodd" fill-opacity="1" /><path clip-path="url(#clip900)" d="M151.339 832.473 Q147.728 832.473 145.899 836.037 Q144.093 839.579 144.093 846.709 Q144.093 853.815 145.899 857.38 Q147.728 860.921 151.339 860.921 Q154.973 860.921 156.779 857.38 Q158.607 853.815 158.607 846.709 Q158.607 839.579 156.779 836.037 Q154.973 832.473 151.339 832.473 M151.339 828.769 Q157.149 828.769 160.205 833.375 Q163.283 837.959 163.283 846.709 Q163.283 855.435 160.205 860.042 Q157.149 864.625 151.339 864.625 Q145.529 864.625 142.45 860.042 Q139.394 855.435 139.394 846.709 Q139.394 837.959 142.45 833.375 Q145.529 828.769 151.339 828.769 Z" fill="#000000" fill-rule="evenodd" fill-opacity="1" /><path clip-path="url(#clip900)" d="M51.6634 667.635 L59.3023 667.635 L59.3023 641.269 L50.9921 642.936 L50.9921 638.677 L59.256 637.01 L63.9319 637.01 L63.9319 667.635 L71.5707 667.635 L71.5707 671.57 L51.6634 671.57 L51.6634 667.635 Z" fill="#000000" fill-rule="evenodd" fill-opacity="1" /><path clip-path="url(#clip900)" d="M91.0151 640.089 Q87.404 640.089 85.5753 643.654 Q83.7697 647.195 83.7697 654.325 Q83.7697 661.431 85.5753 664.996 Q87.404 668.538 91.0151 668.538 Q94.6493 668.538 96.4548 664.996 Q98.2835 661.431 98.2835 654.325 Q98.2835 647.195 96.4548 643.654 Q94.6493 640.089 91.0151 640.089 M91.0151 636.385 Q96.8252 636.385 99.8808 640.992 Q102.959 645.575 102.959 654.325 Q102.959 663.052 99.8808 667.658 Q96.8252 672.241 91.0151 672.241 Q85.2049 672.241 82.1262 667.658 Q79.0707 663.052 79.0707 654.325 Q79.0707 645.575 82.1262 640.992 Q85.2049 636.385 91.0151 636.385 Z" fill="#000000" fill-rule="evenodd" fill-opacity="1" /><path clip-path="url(#clip900)" d="M121.177 640.089 Q117.566 640.089 115.737 643.654 Q113.932 647.195 113.932 654.325 Q113.932 661.431 115.737 664.996 Q117.566 668.538 121.177 668.538 Q124.811 668.538 126.617 664.996 Q128.445 661.431 128.445 654.325 Q128.445 647.195 126.617 643.654 Q124.811 640.089 121.177 640.089 M121.177 636.385 Q126.987 636.385 130.043 640.992 Q133.121 645.575 133.121 654.325 Q133.121 663.052 130.043 667.658 Q126.987 672.241 121.177 672.241 Q115.367 672.241 112.288 667.658 Q109.233 663.052 109.233 654.325 Q109.233 645.575 112.288 640.992 Q115.367 636.385 121.177 636.385 Z" fill="#000000" fill-rule="evenodd" fill-opacity="1" /><path clip-path="url(#clip900)" d="M151.339 640.089 Q147.728 640.089 145.899 643.654 Q144.093 647.195 144.093 654.325 Q144.093 661.431 145.899 664.996 Q147.728 668.538 151.339 668.538 Q154.973 668.538 156.779 664.996 Q158.607 661.431 158.607 654.325 Q158.607 647.195 156.779 643.654 Q154.973 640.089 151.339 640.089 M151.339 636.385 Q157.149 636.385 160.205 640.992 Q163.283 645.575 163.283 654.325 Q163.283 663.052 160.205 667.658 Q157.149 672.241 151.339 672.241 Q145.529 672.241 142.45 667.658 Q139.394 663.052 139.394 654.325 Q139.394 645.575 142.45 640.992 Q145.529 636.385 151.339 636.385 Z" fill="#000000" fill-rule="evenodd" fill-opacity="1" /><path clip-path="url(#clip900)" d="M51.6634 475.251 L59.3023 475.251 L59.3023 448.886 L50.9921 450.552 L50.9921 446.293 L59.256 444.626 L63.9319 444.626 L63.9319 475.251 L71.5707 475.251 L71.5707 479.186 L51.6634 479.186 L51.6634 475.251 Z" fill="#000000" fill-rule="evenodd" fill-opacity="1" /><path clip-path="url(#clip900)" d="M85.0429 475.251 L101.362 475.251 L101.362 479.186 L79.4179 479.186 L79.4179 475.251 Q82.0799 472.497 86.6632 467.867 Q91.2697 463.214 92.4502 461.872 Q94.6956 459.348 95.5752 457.612 Q96.478 455.853 96.478 454.163 Q96.478 451.409 94.5336 449.673 Q92.6123 447.937 89.5104 447.937 Q87.3114 447.937 84.8577 448.7 Q82.4271 449.464 79.6494 451.015 L79.6494 446.293 Q82.4734 445.159 84.9271 444.58 Q87.3808 444.001 89.4178 444.001 Q94.7882 444.001 97.9826 446.687 Q101.177 449.372 101.177 453.862 Q101.177 455.992 100.367 457.913 Q99.5798 459.811 97.4734 462.404 Q96.8947 463.075 93.7928 466.293 Q90.691 469.487 85.0429 475.251 Z" fill="#000000" fill-rule="evenodd" fill-opacity="1" /><path clip-path="url(#clip900)" d="M121.177 447.705 Q117.566 447.705 115.737 451.27 Q113.932 454.811 113.932 461.941 Q113.932 469.048 115.737 472.612 Q117.566 476.154 121.177 476.154 Q124.811 476.154 126.617 472.612 Q128.445 469.048 128.445 461.941 Q128.445 454.811 126.617 451.27 Q124.811 447.705 121.177 447.705 M121.177 444.001 Q126.987 444.001 130.043 448.608 Q133.121 453.191 133.121 461.941 Q133.121 470.668 130.043 475.274 Q126.987 479.858 121.177 479.858 Q115.367 479.858 112.288 475.274 Q109.233 470.668 109.233 461.941 Q109.233 453.191 112.288 448.608 Q115.367 444.001 121.177 444.001 Z" fill="#000000" fill-rule="evenodd" fill-opacity="1" /><path clip-path="url(#clip900)" d="M151.339 447.705 Q147.728 447.705 145.899 451.27 Q144.093 454.811 144.093 461.941 Q144.093 469.048 145.899 472.612 Q147.728 476.154 151.339 476.154 Q154.973 476.154 156.779 472.612 Q158.607 469.048 158.607 461.941 Q158.607 454.811 156.779 451.27 Q154.973 447.705 151.339 447.705 M151.339 444.001 Q157.149 444.001 160.205 448.608 Q163.283 453.191 163.283 461.941 Q163.283 470.668 160.205 475.274 Q157.149 479.858 151.339 479.858 Q145.529 479.858 142.45 475.274 Q139.394 470.668 139.394 461.941 Q139.394 453.191 142.45 448.608 Q145.529 444.001 151.339 444.001 Z" fill="#000000" fill-rule="evenodd" fill-opacity="1" /><path clip-path="url(#clip900)" d="M51.6634 282.867 L59.3023 282.867 L59.3023 256.502 L50.9921 258.168 L50.9921 253.909 L59.256 252.243 L63.9319 252.243 L63.9319 282.867 L71.5707 282.867 L71.5707 286.803 L51.6634 286.803 L51.6634 282.867 Z" fill="#000000" fill-rule="evenodd" fill-opacity="1" /><path clip-path="url(#clip900)" d="M93.8623 256.317 L82.0568 274.766 L93.8623 274.766 L93.8623 256.317 M92.6354 252.243 L98.515 252.243 L98.515 274.766 L103.446 274.766 L103.446 278.654 L98.515 278.654 L98.515 286.803 L93.8623 286.803 L93.8623 278.654 L78.2605 278.654 L78.2605 274.141 L92.6354 252.243 Z" fill="#000000" fill-rule="evenodd" fill-opacity="1" /><path clip-path="url(#clip900)" d="M121.177 255.321 Q117.566 255.321 115.737 258.886 Q113.932 262.428 113.932 269.557 Q113.932 276.664 115.737 280.229 Q117.566 283.77 121.177 283.77 Q124.811 283.77 126.617 280.229 Q128.445 276.664 128.445 269.557 Q128.445 262.428 126.617 258.886 Q124.811 255.321 121.177 255.321 M121.177 251.618 Q126.987 251.618 130.043 256.224 Q133.121 260.807 133.121 269.557 Q133.121 278.284 130.043 282.891 Q126.987 287.474 121.177 287.474 Q115.367 287.474 112.288 282.891 Q109.233 278.284 109.233 269.557 Q109.233 260.807 112.288 256.224 Q115.367 251.618 121.177 251.618 Z" fill="#000000" fill-rule="evenodd" fill-opacity="1" /><path clip-path="url(#clip900)" d="M151.339 255.321 Q147.728 255.321 145.899 258.886 Q144.093 262.428 144.093 269.557 Q144.093 276.664 145.899 280.229 Q147.728 283.77 151.339 283.77 Q154.973 283.77 156.779 280.229 Q158.607 276.664 158.607 269.557 Q158.607 262.428 156.779 258.886 Q154.973 255.321 151.339 255.321 M151.339 251.618 Q157.149 251.618 160.205 256.224 Q163.283 260.807 163.283 269.557 Q163.283 278.284 160.205 282.891 Q157.149 287.474 151.339 287.474 Q145.529 287.474 142.45 282.891 Q139.394 278.284 139.394 269.557 Q139.394 260.807 142.45 256.224 Q145.529 251.618 151.339 251.618 Z" fill="#000000" fill-rule="evenodd" fill-opacity="1" /><path clip-path="url(#clip900)" d="M1039.1 12.096 L1090.27 12.096 L1090.27 18.9825 L1068.8 18.9825 L1068.8 72.576 L1060.57 72.576 L1060.57 18.9825 L1039.1 18.9825 L1039.1 12.096 Z" fill="#000000" fill-rule="evenodd" fill-opacity="1" /><path clip-path="url(#clip900)" d="M1104.73 49.7694 Q1095.69 49.7694 1092.21 51.8354 Q1088.73 53.9013 1088.73 58.8839 Q1088.73 62.8538 1091.32 65.2034 Q1093.95 67.5124 1098.45 67.5124 Q1104.65 67.5124 1108.37 63.1374 Q1112.14 58.7219 1112.14 51.4303 L1112.14 49.7694 L1104.73 49.7694 M1119.59 46.6907 L1119.59 72.576 L1112.14 72.576 L1112.14 65.6895 Q1109.59 69.8214 1105.78 71.8063 Q1101.97 73.7508 1096.46 73.7508 Q1089.5 73.7508 1085.36 69.8619 Q1081.27 65.9325 1081.27 59.3701 Q1081.27 51.7138 1086.38 47.825 Q1091.52 43.9361 1101.69 43.9361 L1112.14 43.9361 L1112.14 43.2069 Q1112.14 38.0623 1108.74 35.2672 Q1105.38 32.4315 1099.26 32.4315 Q1095.37 32.4315 1091.68 33.3632 Q1088 34.295 1084.59 36.1584 L1084.59 29.2718 Q1088.69 27.692 1092.53 26.9223 Q1096.38 26.1121 1100.03 26.1121 Q1109.87 26.1121 1114.73 31.2163 Q1119.59 36.3204 1119.59 46.6907 Z" fill="#000000" fill-rule="evenodd" fill-opacity="1" /><path clip-path="url(#clip900)" d="M1161.24 34.1734 Q1159.98 33.4443 1158.48 33.1202 Q1157.02 32.7556 1155.24 32.7556 Q1148.92 32.7556 1145.52 36.8875 Q1142.16 40.9789 1142.16 48.6757 L1142.16 72.576 L1134.66 72.576 L1134.66 27.2059 L1142.16 27.2059 L1142.16 34.2544 Q1144.51 30.1225 1148.27 28.1376 Q1152.04 26.1121 1157.43 26.1121 Q1158.2 26.1121 1159.13 26.2337 Q1160.06 26.3147 1161.2 26.5172 L1161.24 34.1734 Z" fill="#000000" fill-rule="evenodd" fill-opacity="1" /><path clip-path="url(#clip900)" d="M1197.45 49.3643 Q1197.45 41.2625 1194.09 36.8065 Q1190.77 32.3505 1184.73 32.3505 Q1178.74 32.3505 1175.37 36.8065 Q1172.05 41.2625 1172.05 49.3643 Q1172.05 57.4256 1175.37 61.8816 Q1178.74 66.3376 1184.73 66.3376 Q1190.77 66.3376 1194.09 61.8816 Q1197.45 57.4256 1197.45 49.3643 M1204.91 66.9452 Q1204.91 78.5308 1199.76 84.1616 Q1194.62 89.8329 1184 89.8329 Q1180.07 89.8329 1176.59 89.2252 Q1173.11 88.6581 1169.83 87.4428 L1169.83 80.1917 Q1173.11 81.9741 1176.31 82.8248 Q1179.51 83.6755 1182.83 83.6755 Q1190.16 83.6755 1193.81 79.8271 Q1197.45 76.0193 1197.45 68.282 L1197.45 64.5957 Q1195.14 68.6061 1191.54 70.5911 Q1187.93 72.576 1182.91 72.576 Q1174.56 72.576 1169.46 66.2161 Q1164.36 59.8562 1164.36 49.3643 Q1164.36 38.832 1169.46 32.472 Q1174.56 26.1121 1182.91 26.1121 Q1187.93 26.1121 1191.54 28.0971 Q1195.14 30.082 1197.45 34.0924 L1197.45 27.2059 L1204.91 27.2059 L1204.91 66.9452 Z" fill="#000000" fill-rule="evenodd" fill-opacity="1" /><path clip-path="url(#clip900)" d="M1259.07 48.0275 L1259.07 51.6733 L1224.8 51.6733 Q1225.28 59.3701 1229.41 63.421 Q1233.59 67.4314 1241 67.4314 Q1245.29 67.4314 1249.3 66.3781 Q1253.35 65.3249 1257.32 63.2184 L1257.32 70.267 Q1253.31 71.9684 1249.1 72.8596 Q1244.89 73.7508 1240.55 73.7508 Q1229.7 73.7508 1223.34 67.4314 Q1217.02 61.1119 1217.02 50.3365 Q1217.02 39.1965 1223.01 32.6746 Q1229.05 26.1121 1239.26 26.1121 Q1248.41 26.1121 1253.72 32.0264 Q1259.07 37.9003 1259.07 48.0275 M1251.61 45.84 Q1251.53 39.7232 1248.17 36.0774 Q1244.85 32.4315 1239.34 32.4315 Q1233.1 32.4315 1229.33 35.9558 Q1225.61 39.4801 1225.04 45.8805 L1251.61 45.84 Z" fill="#000000" fill-rule="evenodd" fill-opacity="1" /><path clip-path="url(#clip900)" d="M1278.67 14.324 L1278.67 27.2059 L1294.03 27.2059 L1294.03 32.9987 L1278.67 32.9987 L1278.67 57.6282 Q1278.67 63.1779 1280.17 64.7578 Q1281.71 66.3376 1286.37 66.3376 L1294.03 66.3376 L1294.03 72.576 L1286.37 72.576 Q1277.74 72.576 1274.46 69.3758 Q1271.18 66.1351 1271.18 57.6282 L1271.18 32.9987 L1265.71 32.9987 L1265.71 27.2059 L1271.18 27.2059 L1271.18 14.324 L1278.67 14.324 Z" fill="#000000" fill-rule="evenodd" fill-opacity="1" /><path clip-path="url(#clip900)" d="M1338.71 18.8205 L1338.71 65.8515 L1348.59 65.8515 Q1361.11 65.8515 1366.9 60.1802 Q1372.73 54.509 1372.73 42.2752 Q1372.73 30.1225 1366.9 24.4918 Q1361.11 18.8205 1348.59 18.8205 L1338.71 18.8205 M1330.52 12.096 L1347.34 12.096 Q1364.92 12.096 1373.14 19.4281 Q1381.36 26.7198 1381.36 42.2752 Q1381.36 57.9117 1373.1 65.2439 Q1364.84 72.576 1347.34 72.576 L1330.52 72.576 L1330.52 12.096 Z" fill="#000000" fill-rule="evenodd" fill-opacity="1" /><path clip-path="url(#clip900)" d="M1414.7 49.7694 Q1405.67 49.7694 1402.18 51.8354 Q1398.7 53.9013 1398.7 58.8839 Q1398.7 62.8538 1401.29 65.2034 Q1403.93 67.5124 1408.42 67.5124 Q1414.62 67.5124 1418.35 63.1374 Q1422.12 58.7219 1422.12 51.4303 L1422.12 49.7694 L1414.7 49.7694 M1429.57 46.6907 L1429.57 72.576 L1422.12 72.576 L1422.12 65.6895 Q1419.56 69.8214 1415.76 71.8063 Q1411.95 73.7508 1406.44 73.7508 Q1399.47 73.7508 1395.34 69.8619 Q1391.25 65.9325 1391.25 59.3701 Q1391.25 51.7138 1396.35 47.825 Q1401.5 43.9361 1411.66 43.9361 L1422.12 43.9361 L1422.12 43.2069 Q1422.12 38.0623 1418.71 35.2672 Q1415.35 32.4315 1409.23 32.4315 Q1405.34 32.4315 1401.66 33.3632 Q1397.97 34.295 1394.57 36.1584 L1394.57 29.2718 Q1398.66 27.692 1402.51 26.9223 Q1406.36 26.1121 1410 26.1121 Q1419.85 26.1121 1424.71 31.2163 Q1429.57 36.3204 1429.57 46.6907 Z" fill="#000000" fill-rule="evenodd" fill-opacity="1" /><path clip-path="url(#clip900)" d="M1452.29 14.324 L1452.29 27.2059 L1467.65 27.2059 L1467.65 32.9987 L1452.29 32.9987 L1452.29 57.6282 Q1452.29 63.1779 1453.79 64.7578 Q1455.33 66.3376 1459.99 66.3376 L1467.65 66.3376 L1467.65 72.576 L1459.99 72.576 Q1451.36 72.576 1448.08 69.3758 Q1444.8 66.1351 1444.8 57.6282 L1444.8 32.9987 L1439.33 32.9987 L1439.33 27.2059 L1444.8 27.2059 L1444.8 14.324 L1452.29 14.324 Z" fill="#000000" fill-rule="evenodd" fill-opacity="1" /><path clip-path="url(#clip900)" d="M1498.07 49.7694 Q1489.04 49.7694 1485.55 51.8354 Q1482.07 53.9013 1482.07 58.8839 Q1482.07 62.8538 1484.66 65.2034 Q1487.29 67.5124 1491.79 67.5124 Q1497.99 67.5124 1501.72 63.1374 Q1505.48 58.7219 1505.48 51.4303 L1505.48 49.7694 L1498.07 49.7694 M1512.94 46.6907 L1512.94 72.576 L1505.48 72.576 L1505.48 65.6895 Q1502.93 69.8214 1499.12 71.8063 Q1495.32 73.7508 1489.81 73.7508 Q1482.84 73.7508 1478.71 69.8619 Q1474.62 65.9325 1474.62 59.3701 Q1474.62 51.7138 1479.72 47.825 Q1484.86 43.9361 1495.03 43.9361 L1505.48 43.9361 L1505.48 43.2069 Q1505.48 38.0623 1502.08 35.2672 Q1498.72 32.4315 1492.6 32.4315 Q1488.71 32.4315 1485.03 33.3632 Q1481.34 34.295 1477.94 36.1584 L1477.94 29.2718 Q1482.03 27.692 1485.88 26.9223 Q1489.73 26.1121 1493.37 26.1121 Q1503.21 26.1121 1508.08 31.2163 Q1512.94 36.3204 1512.94 46.6907 Z" fill="#000000" fill-rule="evenodd" fill-opacity="1" /><circle clip-path="url(#clip902)" cx="260.231" cy="1428.54" r="14" fill="#009af9" fill-rule="evenodd" fill-opacity="1" stroke="#000000" stroke-opacity="1" stroke-width="3.2"/>
<circle clip-path="url(#clip902)" cx="301.691" cy="1407.84" r="14" fill="#009af9" fill-rule="evenodd" fill-opacity="1" stroke="#000000" stroke-opacity="1" stroke-width="3.2"/>
<circle clip-path="url(#clip902)" cx="343.152" cy="1409.71" r="14" fill="#009af9" fill-rule="evenodd" fill-opacity="1" stroke="#000000" stroke-opacity="1" stroke-width="3.2"/>
<circle clip-path="url(#clip902)" cx="384.613" cy="1393.52" r="14" fill="#009af9" fill-rule="evenodd" fill-opacity="1" stroke="#000000" stroke-opacity="1" stroke-width="3.2"/>
<circle clip-path="url(#clip902)" cx="426.074" cy="1333.44" r="14" fill="#009af9" fill-rule="evenodd" fill-opacity="1" stroke="#000000" stroke-opacity="1" stroke-width="3.2"/>
<circle clip-path="url(#clip902)" cx="467.534" cy="1305.95" r="14" fill="#009af9" fill-rule="evenodd" fill-opacity="1" stroke="#000000" stroke-opacity="1" stroke-width="3.2"/>
<circle clip-path="url(#clip902)" cx="508.995" cy="1245.83" r="14" fill="#009af9" fill-rule="evenodd" fill-opacity="1" stroke="#000000" stroke-opacity="1" stroke-width="3.2"/>
<circle clip-path="url(#clip902)" cx="550.456" cy="1256.76" r="14" fill="#009af9" fill-rule="evenodd" fill-opacity="1" stroke="#000000" stroke-opacity="1" stroke-width="3.2"/>
<circle clip-path="url(#clip902)" cx="591.917" cy="1268.25" r="14" fill="#009af9" fill-rule="evenodd" fill-opacity="1" stroke="#000000" stroke-opacity="1" stroke-width="3.2"/>
<circle clip-path="url(#clip902)" cx="633.378" cy="1236.2" r="14" fill="#009af9" fill-rule="evenodd" fill-opacity="1" stroke="#000000" stroke-opacity="1" stroke-width="3.2"/>
<circle clip-path="url(#clip902)" cx="674.838" cy="1311.62" r="14" fill="#009af9" fill-rule="evenodd" fill-opacity="1" stroke="#000000" stroke-opacity="1" stroke-width="3.2"/>
<circle clip-path="url(#clip902)" cx="716.299" cy="1170.47" r="14" fill="#009af9" fill-rule="evenodd" fill-opacity="1" stroke="#000000" stroke-opacity="1" stroke-width="3.2"/>
<circle clip-path="url(#clip902)" cx="757.76" cy="1140.79" r="14" fill="#009af9" fill-rule="evenodd" fill-opacity="1" stroke="#000000" stroke-opacity="1" stroke-width="3.2"/>
<circle clip-path="url(#clip902)" cx="799.221" cy="1198.22" r="14" fill="#009af9" fill-rule="evenodd" fill-opacity="1" stroke="#000000" stroke-opacity="1" stroke-width="3.2"/>
<circle clip-path="url(#clip902)" cx="840.681" cy="1148.34" r="14" fill="#009af9" fill-rule="evenodd" fill-opacity="1" stroke="#000000" stroke-opacity="1" stroke-width="3.2"/>
<circle clip-path="url(#clip902)" cx="882.142" cy="1117.42" r="14" fill="#009af9" fill-rule="evenodd" fill-opacity="1" stroke="#000000" stroke-opacity="1" stroke-width="3.2"/>
<circle clip-path="url(#clip902)" cx="923.603" cy="967.346" r="14" fill="#009af9" fill-rule="evenodd" fill-opacity="1" stroke="#000000" stroke-opacity="1" stroke-width="3.2"/>
<circle clip-path="url(#clip902)" cx="965.064" cy="1088.81" r="14" fill="#009af9" fill-rule="evenodd" fill-opacity="1" stroke="#000000" stroke-opacity="1" stroke-width="3.2"/>
<circle clip-path="url(#clip902)" cx="1006.52" cy="1026.02" r="14" fill="#009af9" fill-rule="evenodd" fill-opacity="1" stroke="#000000" stroke-opacity="1" stroke-width="3.2"/>
<circle clip-path="url(#clip902)" cx="1047.99" cy="992.76" r="14" fill="#009af9" fill-rule="evenodd" fill-opacity="1" stroke="#000000" stroke-opacity="1" stroke-width="3.2"/>
<circle clip-path="url(#clip902)" cx="1089.45" cy="970.034" r="14" fill="#009af9" fill-rule="evenodd" fill-opacity="1" stroke="#000000" stroke-opacity="1" stroke-width="3.2"/>
<circle clip-path="url(#clip902)" cx="1130.91" cy="877.77" r="14" fill="#009af9" fill-rule="evenodd" fill-opacity="1" stroke="#000000" stroke-opacity="1" stroke-width="3.2"/>
<circle clip-path="url(#clip902)" cx="1172.37" cy="920.583" r="14" fill="#009af9" fill-rule="evenodd" fill-opacity="1" stroke="#000000" stroke-opacity="1" stroke-width="3.2"/>
<circle clip-path="url(#clip902)" cx="1213.83" cy="844.588" r="14" fill="#009af9" fill-rule="evenodd" fill-opacity="1" stroke="#000000" stroke-opacity="1" stroke-width="3.2"/>
<circle clip-path="url(#clip902)" cx="1255.29" cy="877.487" r="14" fill="#009af9" fill-rule="evenodd" fill-opacity="1" stroke="#000000" stroke-opacity="1" stroke-width="3.2"/>
<circle clip-path="url(#clip902)" cx="1296.75" cy="869.393" r="14" fill="#009af9" fill-rule="evenodd" fill-opacity="1" stroke="#000000" stroke-opacity="1" stroke-width="3.2"/>
<circle clip-path="url(#clip902)" cx="1338.21" cy="871.575" r="14" fill="#009af9" fill-rule="evenodd" fill-opacity="1" stroke="#000000" stroke-opacity="1" stroke-width="3.2"/>
<circle clip-path="url(#clip902)" cx="1379.67" cy="916.693" r="14" fill="#009af9" fill-rule="evenodd" fill-opacity="1" stroke="#000000" stroke-opacity="1" stroke-width="3.2"/>
<circle clip-path="url(#clip902)" cx="1421.13" cy="588.889" r="14" fill="#009af9" fill-rule="evenodd" fill-opacity="1" stroke="#000000" stroke-opacity="1" stroke-width="3.2"/>
<circle clip-path="url(#clip902)" cx="1462.59" cy="839.492" r="14" fill="#009af9" fill-rule="evenodd" fill-opacity="1" stroke="#000000" stroke-opacity="1" stroke-width="3.2"/>
<circle clip-path="url(#clip902)" cx="1504.05" cy="937.314" r="14" fill="#009af9" fill-rule="evenodd" fill-opacity="1" stroke="#000000" stroke-opacity="1" stroke-width="3.2"/>
<circle clip-path="url(#clip902)" cx="1545.51" cy="627.028" r="14" fill="#009af9" fill-rule="evenodd" fill-opacity="1" stroke="#000000" stroke-opacity="1" stroke-width="3.2"/>
<circle clip-path="url(#clip902)" cx="1586.98" cy="648.126" r="14" fill="#009af9" fill-rule="evenodd" fill-opacity="1" stroke="#000000" stroke-opacity="1" stroke-width="3.2"/>
<circle clip-path="url(#clip902)" cx="1628.44" cy="757.812" r="14" fill="#009af9" fill-rule="evenodd" fill-opacity="1" stroke="#000000" stroke-opacity="1" stroke-width="3.2"/>
<circle clip-path="url(#clip902)" cx="1669.9" cy="758.721" r="14" fill="#009af9" fill-rule="evenodd" fill-opacity="1" stroke="#000000" stroke-opacity="1" stroke-width="3.2"/>
<circle clip-path="url(#clip902)" cx="1711.36" cy="626.221" r="14" fill="#009af9" fill-rule="evenodd" fill-opacity="1" stroke="#000000" stroke-opacity="1" stroke-width="3.2"/>
<circle clip-path="url(#clip902)" cx="1752.82" cy="412.816" r="14" fill="#009af9" fill-rule="evenodd" fill-opacity="1" stroke="#000000" stroke-opacity="1" stroke-width="3.2"/>
<circle clip-path="url(#clip902)" cx="1794.28" cy="546.542" r="14" fill="#009af9" fill-rule="evenodd" fill-opacity="1" stroke="#000000" stroke-opacity="1" stroke-width="3.2"/>
<circle clip-path="url(#clip902)" cx="1835.74" cy="384.252" r="14" fill="#009af9" fill-rule="evenodd" fill-opacity="1" stroke="#000000" stroke-opacity="1" stroke-width="3.2"/>
<circle clip-path="url(#clip902)" cx="1877.2" cy="717.094" r="14" fill="#009af9" fill-rule="evenodd" fill-opacity="1" stroke="#000000" stroke-opacity="1" stroke-width="3.2"/>
<circle clip-path="url(#clip902)" cx="1918.66" cy="613.012" r="14" fill="#009af9" fill-rule="evenodd" fill-opacity="1" stroke="#000000" stroke-opacity="1" stroke-width="3.2"/>
<circle clip-path="url(#clip902)" cx="1960.12" cy="162.047" r="14" fill="#009af9" fill-rule="evenodd" fill-opacity="1" stroke="#000000" stroke-opacity="1" stroke-width="3.2"/>
<circle clip-path="url(#clip902)" cx="2001.58" cy="246.737" r="14" fill="#009af9" fill-rule="evenodd" fill-opacity="1" stroke="#000000" stroke-opacity="1" stroke-width="3.2"/>
<circle clip-path="url(#clip902)" cx="2043.04" cy="538.738" r="14" fill="#009af9" fill-rule="evenodd" fill-opacity="1" stroke="#000000" stroke-opacity="1" stroke-width="3.2"/>
<circle clip-path="url(#clip902)" cx="2084.5" cy="513.379" r="14" fill="#009af9" fill-rule="evenodd" fill-opacity="1" stroke="#000000" stroke-opacity="1" stroke-width="3.2"/>
<circle clip-path="url(#clip902)" cx="2125.97" cy="383.516" r="14" fill="#009af9" fill-rule="evenodd" fill-opacity="1" stroke="#000000" stroke-opacity="1" stroke-width="3.2"/>
<circle clip-path="url(#clip902)" cx="2167.43" cy="244.828" r="14" fill="#009af9" fill-rule="evenodd" fill-opacity="1" stroke="#000000" stroke-opacity="1" stroke-width="3.2"/>
<circle clip-path="url(#clip902)" cx="2208.89" cy="523.787" r="14" fill="#009af9" fill-rule="evenodd" fill-opacity="1" stroke="#000000" stroke-opacity="1" stroke-width="3.2"/>
<circle clip-path="url(#clip902)" cx="2250.35" cy="235.949" r="14" fill="#009af9" fill-rule="evenodd" fill-opacity="1" stroke="#000000" stroke-opacity="1" stroke-width="3.2"/>
<circle clip-path="url(#clip902)" cx="2291.81" cy="339.644" r="14" fill="#009af9" fill-rule="evenodd" fill-opacity="1" stroke="#000000" stroke-opacity="1" stroke-width="3.2"/>
<polyline clip-path="url(#clip902)" style="stroke:#e26f46; stroke-linecap:butt; stroke-linejoin:round; stroke-width:4; stroke-opacity:1; fill:none" points="
  260.231,1447.87 301.691,1423.83 343.152,1399.78 384.613,1375.73 426.074,1351.68 467.534,1327.63 508.995,1303.59 550.456,1279.54 591.917,1255.49 633.378,1231.44 
  674.838,1207.39 716.299,1183.35 757.76,1159.3 799.221,1135.25 840.681,1111.2 882.142,1087.15 923.603,1063.11 965.064,1039.06 1006.52,1015.01 1047.99,990.962 
  1089.45,966.914 1130.91,942.866 1172.37,918.818 1213.83,894.77 1255.29,870.722 1296.75,846.674 1338.21,822.626 1379.67,798.578 1421.13,774.53 1462.59,750.482 
  1504.05,726.434 1545.51,702.386 1586.98,678.338 1628.44,654.29 1669.9,630.242 1711.36,606.194 1752.82,582.146 1794.28,558.098 1835.74,534.05 1877.2,510.002 
  1918.66,485.954 1960.12,461.906 2001.58,437.858 2043.04,413.81 2084.5,389.762 2125.97,365.714 2167.43,341.667 2208.89,317.619 2250.35,293.571 2291.81,269.523 
  
  "/>
<path clip-path="url(#clip900)" d="
M1989.27 324.425 L2280.97 324.425 L2280.97 168.905 L1989.27 168.905  Z
  " fill="#ffffff" fill-rule="evenodd" fill-opacity="1"/>
<polyline clip-path="url(#clip900)" style="stroke:#000000; stroke-linecap:butt; stroke-linejoin:round; stroke-width:4; stroke-opacity:1; fill:none" points="
  1989.27,324.425 2280.97,324.425 2280.97,168.905 1989.27,168.905 1989.27,324.425 
  "/>
<circle clip-path="url(#clip900)" cx="2084.98" cy="220.745" r="23" fill="#009af9" fill-rule="evenodd" fill-opacity="1" stroke="#000000" stroke-opacity="1" stroke-width="5.12"/>
<path clip-path="url(#clip900)" d="M2194.53 240.432 Q2192.73 245.062 2191.01 246.474 Q2189.3 247.886 2186.43 247.886 L2183.03 247.886 L2183.03 244.321 L2185.53 244.321 Q2187.29 244.321 2188.26 243.488 Q2189.23 242.654 2190.41 239.552 L2191.17 237.608 L2180.69 212.099 L2185.2 212.099 L2193.3 232.377 L2201.41 212.099 L2205.92 212.099 L2194.53 240.432 Z" fill="#000000" fill-rule="evenodd" fill-opacity="1" /><path clip-path="url(#clip900)" d="M2213.21 234.089 L2220.85 234.089 L2220.85 207.724 L2212.54 209.391 L2212.54 205.131 L2220.8 203.465 L2225.48 203.465 L2225.48 234.089 L2233.12 234.089 L2233.12 238.025 L2213.21 238.025 L2213.21 234.089 Z" fill="#000000" fill-rule="evenodd" fill-opacity="1" /><polyline clip-path="url(#clip900)" style="stroke:#e26f46; stroke-linecap:butt; stroke-linejoin:round; stroke-width:4; stroke-opacity:1; fill:none" points="
  2013.2,272.585 2156.76,272.585 
  "/>
<path clip-path="url(#clip900)" d="M2194.53 292.272 Q2192.73 296.902 2191.01 298.314 Q2189.3 299.726 2186.43 299.726 L2183.03 299.726 L2183.03 296.161 L2185.53 296.161 Q2187.29 296.161 2188.26 295.328 Q2189.23 294.494 2190.41 291.392 L2191.17 289.448 L2180.69 263.939 L2185.2 263.939 L2193.3 284.217 L2201.41 263.939 L2205.92 263.939 L2194.53 292.272 Z" fill="#000000" fill-rule="evenodd" fill-opacity="1" /><path clip-path="url(#clip900)" d="M2216.43 285.929 L2232.75 285.929 L2232.75 289.865 L2210.8 289.865 L2210.8 285.929 Q2213.47 283.175 2218.05 278.545 Q2222.66 273.893 2223.84 272.55 Q2226.08 270.027 2226.96 268.291 Q2227.86 266.531 2227.86 264.842 Q2227.86 262.087 2225.92 260.351 Q2224 258.615 2220.9 258.615 Q2218.7 258.615 2216.24 259.379 Q2213.81 260.143 2211.04 261.694 L2211.04 256.971 Q2213.86 255.837 2216.31 255.258 Q2218.77 254.68 2220.8 254.68 Q2226.17 254.68 2229.37 257.365 Q2232.56 260.05 2232.56 264.541 Q2232.56 266.67 2231.75 268.592 Q2230.97 270.49 2228.86 273.082 Q2228.28 273.754 2225.18 276.971 Q2222.08 280.166 2216.43 285.929 Z" fill="#000000" fill-rule="evenodd" fill-opacity="1" /></svg>
