<?xml version="1.0" encoding="utf-8"?>
<svg xmlns="http://www.w3.org/2000/svg" xmlns:xlink="http://www.w3.org/1999/xlink" width="600" height="400" viewBox="0 0 2400 1600">
<defs>
  <clipPath id="clip060">
    <rect x="0" y="0" width="2400" height="1600"/>
  </clipPath>
</defs>
<path clip-path="url(#clip060)" d="
M0 1600 L2400 1600 L2400 0 L0 0  Z
  " fill="#ffffff" fill-rule="evenodd" fill-opacity="1"/>
<defs>
  <clipPath id="clip061">
    <rect x="480" y="0" width="1681" height="1600"/>
  </clipPath>
</defs>
<path clip-path="url(#clip060)" d="
M234.125 1423.18 L2352.76 1423.18 L2352.76 47.2441 L234.125 47.2441  Z
  " fill="#ffffff" fill-rule="evenodd" fill-opacity="1"/>
<defs>
  <clipPath id="clip062">
    <rect x="234" y="47" width="2120" height="1377"/>
  </clipPath>
</defs>
<polyline clip-path="url(#clip062)" style="stroke:#000000; stroke-linecap:butt; stroke-linejoin:round; stroke-width:2; stroke-opacity:0.1; fill:none" points="
  292.086,1423.18 292.086,47.2441 
  "/>
<polyline clip-path="url(#clip062)" style="stroke:#000000; stroke-linecap:butt; stroke-linejoin:round; stroke-width:2; stroke-opacity:0.1; fill:none" points="
  792.263,1423.18 792.263,47.2441 
  "/>
<polyline clip-path="url(#clip062)" style="stroke:#000000; stroke-linecap:butt; stroke-linejoin:round; stroke-width:2; stroke-opacity:0.1; fill:none" points="
  1292.44,1423.18 1292.44,47.2441 
  "/>
<polyline clip-path="url(#clip062)" style="stroke:#000000; stroke-linecap:butt; stroke-linejoin:round; stroke-width:2; stroke-opacity:0.1; fill:none" points="
  1792.62,1423.18 1792.62,47.2441 
  "/>
<polyline clip-path="url(#clip062)" style="stroke:#000000; stroke-linecap:butt; stroke-linejoin:round; stroke-width:2; stroke-opacity:0.1; fill:none" points="
  2292.79,1423.18 2292.79,47.2441 
  "/>
<polyline clip-path="url(#clip060)" style="stroke:#000000; stroke-linecap:butt; stroke-linejoin:round; stroke-width:4; stroke-opacity:1; fill:none" points="
  234.125,1423.18 2352.76,1423.18 
  "/>
<polyline clip-path="url(#clip060)" style="stroke:#000000; stroke-linecap:butt; stroke-linejoin:round; stroke-width:4; stroke-opacity:1; fill:none" points="
  292.086,1423.18 292.086,1404.28 
  "/>
<polyline clip-path="url(#clip060)" style="stroke:#000000; stroke-linecap:butt; stroke-linejoin:round; stroke-width:4; stroke-opacity:1; fill:none" points="
  792.263,1423.18 792.263,1404.28 
  "/>
<polyline clip-path="url(#clip060)" style="stroke:#000000; stroke-linecap:butt; stroke-linejoin:round; stroke-width:4; stroke-opacity:1; fill:none" points="
  1292.44,1423.18 1292.44,1404.28 
  "/>
<polyline clip-path="url(#clip060)" style="stroke:#000000; stroke-linecap:butt; stroke-linejoin:round; stroke-width:4; stroke-opacity:1; fill:none" points="
  1792.62,1423.18 1792.62,1404.28 
  "/>
<polyline clip-path="url(#clip060)" style="stroke:#000000; stroke-linecap:butt; stroke-linejoin:round; stroke-width:4; stroke-opacity:1; fill:none" points="
  2292.79,1423.18 2292.79,1404.28 
  "/>
<path clip-path="url(#clip060)" d="M292.086 1454.1 Q288.475 1454.1 286.646 1457.66 Q284.841 1461.2 284.841 1468.33 Q284.841 1475.44 286.646 1479.01 Q288.475 1482.55 292.086 1482.55 Q295.72 1482.55 297.526 1479.01 Q299.354 1475.44 299.354 1468.33 Q299.354 1461.2 297.526 1457.66 Q295.72 1454.1 292.086 1454.1 M292.086 1450.39 Q297.896 1450.39 300.952 1455 Q304.03 1459.58 304.03 1468.33 Q304.03 1477.06 300.952 1481.67 Q297.896 1486.25 292.086 1486.25 Q286.276 1486.25 283.197 1481.67 Q280.142 1477.06 280.142 1468.33 Q280.142 1459.58 283.197 1455 Q286.276 1450.39 292.086 1450.39 Z" fill="#000000" fill-rule="evenodd" fill-opacity="1" /><path clip-path="url(#clip060)" d="M755.955 1481.64 L772.275 1481.64 L772.275 1485.58 L750.331 1485.58 L750.331 1481.64 Q752.993 1478.89 757.576 1474.26 Q762.182 1469.61 763.363 1468.27 Q765.608 1465.74 766.488 1464.01 Q767.391 1462.25 767.391 1460.56 Q767.391 1457.8 765.446 1456.07 Q763.525 1454.33 760.423 1454.33 Q758.224 1454.33 755.77 1455.09 Q753.34 1455.86 750.562 1457.41 L750.562 1452.69 Q753.386 1451.55 755.84 1450.97 Q758.293 1450.39 760.33 1450.39 Q765.701 1450.39 768.895 1453.08 Q772.09 1455.77 772.09 1460.26 Q772.09 1462.39 771.279 1464.31 Q770.492 1466.2 768.386 1468.8 Q767.807 1469.47 764.705 1472.69 Q761.604 1475.88 755.955 1481.64 Z" fill="#000000" fill-rule="evenodd" fill-opacity="1" /><path clip-path="url(#clip060)" d="M782.136 1451.02 L800.492 1451.02 L800.492 1454.96 L786.418 1454.96 L786.418 1463.43 Q787.437 1463.08 788.455 1462.92 Q789.474 1462.73 790.492 1462.73 Q796.279 1462.73 799.659 1465.9 Q803.039 1469.08 803.039 1474.49 Q803.039 1480.07 799.566 1483.17 Q796.094 1486.25 789.775 1486.25 Q787.599 1486.25 785.33 1485.88 Q783.085 1485.51 780.678 1484.77 L780.678 1480.07 Q782.761 1481.2 784.983 1481.76 Q787.205 1482.32 789.682 1482.32 Q793.687 1482.32 796.025 1480.21 Q798.363 1478.1 798.363 1474.49 Q798.363 1470.88 796.025 1468.77 Q793.687 1466.67 789.682 1466.67 Q787.807 1466.67 785.932 1467.08 Q784.08 1467.5 782.136 1468.38 L782.136 1451.02 Z" fill="#000000" fill-rule="evenodd" fill-opacity="1" /><path clip-path="url(#clip060)" d="M822.251 1454.1 Q818.64 1454.1 816.812 1457.66 Q815.006 1461.2 815.006 1468.33 Q815.006 1475.44 816.812 1479.01 Q818.64 1482.55 822.251 1482.55 Q825.886 1482.55 827.691 1479.01 Q829.52 1475.44 829.52 1468.33 Q829.52 1461.2 827.691 1457.66 Q825.886 1454.1 822.251 1454.1 M822.251 1450.39 Q828.062 1450.39 831.117 1455 Q834.196 1459.58 834.196 1468.33 Q834.196 1477.06 831.117 1481.67 Q828.062 1486.25 822.251 1486.25 Q816.441 1486.25 813.363 1481.67 Q810.307 1477.06 810.307 1468.33 Q810.307 1459.58 813.363 1455 Q816.441 1450.39 822.251 1450.39 Z" fill="#000000" fill-rule="evenodd" fill-opacity="1" /><path clip-path="url(#clip060)" d="M1252.06 1451.02 L1270.41 1451.02 L1270.41 1454.96 L1256.34 1454.96 L1256.34 1463.43 Q1257.36 1463.08 1258.38 1462.92 Q1259.4 1462.73 1260.42 1462.73 Q1266.2 1462.73 1269.58 1465.9 Q1272.96 1469.08 1272.96 1474.49 Q1272.96 1480.07 1269.49 1483.17 Q1266.02 1486.25 1259.7 1486.25 Q1257.52 1486.25 1255.25 1485.88 Q1253.01 1485.51 1250.6 1484.77 L1250.6 1480.07 Q1252.68 1481.2 1254.91 1481.76 Q1257.13 1482.32 1259.6 1482.32 Q1263.61 1482.32 1265.95 1480.21 Q1268.29 1478.1 1268.29 1474.49 Q1268.29 1470.88 1265.95 1468.77 Q1263.61 1466.67 1259.6 1466.67 Q1257.73 1466.67 1255.85 1467.08 Q1254 1467.5 1252.06 1468.38 L1252.06 1451.02 Z" fill="#000000" fill-rule="evenodd" fill-opacity="1" /><path clip-path="url(#clip060)" d="M1292.17 1454.1 Q1288.56 1454.1 1286.73 1457.66 Q1284.93 1461.2 1284.93 1468.33 Q1284.93 1475.44 1286.73 1479.01 Q1288.56 1482.55 1292.17 1482.55 Q1295.81 1482.55 1297.61 1479.01 Q1299.44 1475.44 1299.44 1468.33 Q1299.44 1461.2 1297.61 1457.66 Q1295.81 1454.1 1292.17 1454.1 M1292.17 1450.39 Q1297.98 1450.39 1301.04 1455 Q1304.12 1459.58 1304.12 1468.33 Q1304.12 1477.06 1301.04 1481.67 Q1297.98 1486.25 1292.17 1486.25 Q1286.36 1486.25 1283.29 1481.67 Q1280.23 1477.06 1280.23 1468.33 Q1280.23 1459.58 1283.29 1455 Q1286.36 1450.39 1292.17 1450.39 Z" fill="#000000" fill-rule="evenodd" fill-opacity="1" /><path clip-path="url(#clip060)" d="M1322.34 1454.1 Q1318.72 1454.1 1316.9 1457.66 Q1315.09 1461.2 1315.09 1468.33 Q1315.09 1475.44 1316.9 1479.01 Q1318.72 1482.55 1322.34 1482.55 Q1325.97 1482.55 1327.78 1479.01 Q1329.6 1475.44 1329.6 1468.33 Q1329.6 1461.2 1327.78 1457.66 Q1325.97 1454.1 1322.34 1454.1 M1322.34 1450.39 Q1328.15 1450.39 1331.2 1455 Q1334.28 1459.58 1334.28 1468.33 Q1334.28 1477.06 1331.2 1481.67 Q1328.15 1486.25 1322.34 1486.25 Q1316.53 1486.25 1313.45 1481.67 Q1310.39 1477.06 1310.39 1468.33 Q1310.39 1459.58 1313.45 1455 Q1316.53 1450.39 1322.34 1450.39 Z" fill="#000000" fill-rule="evenodd" fill-opacity="1" /><path clip-path="url(#clip060)" d="M1750.89 1451.02 L1773.12 1451.02 L1773.12 1453.01 L1760.57 1485.58 L1755.68 1485.58 L1767.49 1454.96 L1750.89 1454.96 L1750.89 1451.02 Z" fill="#000000" fill-rule="evenodd" fill-opacity="1" /><path clip-path="url(#clip060)" d="M1782.28 1451.02 L1800.64 1451.02 L1800.64 1454.96 L1786.56 1454.96 L1786.56 1463.43 Q1787.58 1463.08 1788.6 1462.92 Q1789.62 1462.73 1790.64 1462.73 Q1796.43 1462.73 1799.8 1465.9 Q1803.18 1469.08 1803.18 1474.49 Q1803.18 1480.07 1799.71 1483.17 Q1796.24 1486.25 1789.92 1486.25 Q1787.74 1486.25 1785.48 1485.88 Q1783.23 1485.51 1780.82 1484.77 L1780.82 1480.07 Q1782.91 1481.2 1785.13 1481.76 Q1787.35 1482.32 1789.83 1482.32 Q1793.83 1482.32 1796.17 1480.21 Q1798.51 1478.1 1798.51 1474.49 Q1798.51 1470.88 1796.17 1468.77 Q1793.83 1466.67 1789.83 1466.67 Q1787.95 1466.67 1786.08 1467.08 Q1784.23 1467.5 1782.28 1468.38 L1782.28 1451.02 Z" fill="#000000" fill-rule="evenodd" fill-opacity="1" /><path clip-path="url(#clip060)" d="M1822.4 1454.1 Q1818.79 1454.1 1816.96 1457.66 Q1815.15 1461.2 1815.15 1468.33 Q1815.15 1475.44 1816.96 1479.01 Q1818.79 1482.55 1822.4 1482.55 Q1826.03 1482.55 1827.84 1479.01 Q1829.67 1475.44 1829.67 1468.33 Q1829.67 1461.2 1827.84 1457.66 Q1826.03 1454.1 1822.4 1454.1 M1822.4 1450.39 Q1828.21 1450.39 1831.26 1455 Q1834.34 1459.58 1834.34 1468.33 Q1834.34 1477.06 1831.26 1481.67 Q1828.21 1486.25 1822.4 1486.25 Q1816.59 1486.25 1813.51 1481.67 Q1810.45 1477.06 1810.45 1468.33 Q1810.45 1459.58 1813.51 1455 Q1816.59 1450.39 1822.4 1450.39 Z" fill="#000000" fill-rule="evenodd" fill-opacity="1" /><path clip-path="url(#clip060)" d="M2237.32 1481.64 L2244.96 1481.64 L2244.96 1455.28 L2236.65 1456.95 L2236.65 1452.69 L2244.91 1451.02 L2249.59 1451.02 L2249.59 1481.64 L2257.23 1481.64 L2257.23 1485.58 L2237.32 1485.58 L2237.32 1481.64 Z" fill="#000000" fill-rule="evenodd" fill-opacity="1" /><path clip-path="url(#clip060)" d="M2276.67 1454.1 Q2273.06 1454.1 2271.23 1457.66 Q2269.43 1461.2 2269.43 1468.33 Q2269.43 1475.44 2271.23 1479.01 Q2273.06 1482.55 2276.67 1482.55 Q2280.31 1482.55 2282.11 1479.01 Q2283.94 1475.44 2283.94 1468.33 Q2283.94 1461.2 2282.11 1457.66 Q2280.31 1454.1 2276.67 1454.1 M2276.67 1450.39 Q2282.48 1450.39 2285.54 1455 Q2288.62 1459.58 2288.62 1468.33 Q2288.62 1477.06 2285.54 1481.67 Q2282.48 1486.25 2276.67 1486.25 Q2270.86 1486.25 2267.78 1481.67 Q2264.73 1477.06 2264.73 1468.33 Q2264.73 1459.58 2267.78 1455 Q2270.86 1450.39 2276.67 1450.39 Z" fill="#000000" fill-rule="evenodd" fill-opacity="1" /><path clip-path="url(#clip060)" d="M2306.83 1454.1 Q2303.22 1454.1 2301.39 1457.66 Q2299.59 1461.2 2299.59 1468.33 Q2299.59 1475.44 2301.39 1479.01 Q2303.22 1482.55 2306.83 1482.55 Q2310.47 1482.55 2312.27 1479.01 Q2314.1 1475.44 2314.1 1468.33 Q2314.1 1461.2 2312.27 1457.66 Q2310.47 1454.1 2306.83 1454.1 M2306.83 1450.39 Q2312.64 1450.39 2315.7 1455 Q2318.78 1459.58 2318.78 1468.33 Q2318.78 1477.06 2315.7 1481.67 Q2312.64 1486.25 2306.83 1486.25 Q2301.02 1486.25 2297.95 1481.67 Q2294.89 1477.06 2294.89 1468.33 Q2294.89 1459.58 2297.95 1455 Q2301.02 1450.39 2306.83 1450.39 Z" fill="#000000" fill-rule="evenodd" fill-opacity="1" /><path clip-path="url(#clip060)" d="M2337 1454.1 Q2333.38 1454.1 2331.56 1457.66 Q2329.75 1461.2 2329.75 1468.33 Q2329.75 1475.44 2331.56 1479.01 Q2333.38 1482.55 2337 1482.55 Q2340.63 1482.55 2342.44 1479.01 Q2344.26 1475.44 2344.26 1468.33 Q2344.26 1461.2 2342.44 1457.66 Q2340.63 1454.1 2337 1454.1 M2337 1450.39 Q2342.81 1450.39 2345.86 1455 Q2348.94 1459.58 2348.94 1468.33 Q2348.94 1477.06 2345.86 1481.67 Q2342.81 1486.25 2337 1486.25 Q2331.19 1486.25 2328.11 1481.67 Q2325.05 1477.06 2325.05 1468.33 Q2325.05 1459.58 2328.11 1455 Q2331.19 1450.39 2337 1450.39 Z" fill="#000000" fill-rule="evenodd" fill-opacity="1" /><path clip-path="url(#clip060)" d="M1181.45 1520.52 L1211.5 1520.52 L1211.5 1525.93 L1187.88 1525.93 L1187.88 1540 L1210.51 1540 L1210.51 1545.41 L1187.88 1545.41 L1187.88 1562.63 L1212.07 1562.63 L1212.07 1568.04 L1181.45 1568.04 L1181.45 1520.52 Z" fill="#000000" fill-rule="evenodd" fill-opacity="1" /><path clip-path="url(#clip060)" d="M1228.05 1562.7 L1228.05 1581.6 L1222.16 1581.6 L1222.16 1532.4 L1228.05 1532.4 L1228.05 1537.81 Q1229.9 1534.62 1232.7 1533.1 Q1235.53 1531.54 1239.44 1531.54 Q1245.94 1531.54 1249.98 1536.69 Q1254.05 1541.85 1254.05 1550.25 Q1254.05 1558.65 1249.98 1563.81 Q1245.94 1568.97 1239.44 1568.97 Q1235.53 1568.97 1232.7 1567.44 Q1229.9 1565.88 1228.05 1562.7 M1247.97 1550.25 Q1247.97 1543.79 1245.3 1540.13 Q1242.66 1536.44 1238.01 1536.44 Q1233.36 1536.44 1230.69 1540.13 Q1228.05 1543.79 1228.05 1550.25 Q1228.05 1556.71 1230.69 1560.4 Q1233.36 1564.07 1238.01 1564.07 Q1242.66 1564.07 1245.3 1560.4 Q1247.97 1556.71 1247.97 1550.25 Z" fill="#000000" fill-rule="evenodd" fill-opacity="1" /><path clip-path="url(#clip060)" d="M1277.57 1536.5 Q1272.86 1536.5 1270.13 1540.19 Q1267.39 1543.85 1267.39 1550.25 Q1267.39 1556.65 1270.09 1560.34 Q1272.83 1564 1277.57 1564 Q1282.25 1564 1284.99 1560.31 Q1287.73 1556.62 1287.73 1550.25 Q1287.73 1543.92 1284.99 1540.23 Q1282.25 1536.5 1277.57 1536.5 M1277.57 1531.54 Q1285.21 1531.54 1289.57 1536.5 Q1293.93 1541.47 1293.93 1550.25 Q1293.93 1559 1289.57 1564 Q1285.21 1568.97 1277.57 1568.97 Q1269.9 1568.97 1265.54 1564 Q1261.21 1559 1261.21 1550.25 Q1261.21 1541.47 1265.54 1536.5 Q1269.9 1531.54 1277.57 1531.54 Z" fill="#000000" fill-rule="evenodd" fill-opacity="1" /><path clip-path="url(#clip060)" d="M1329.3 1533.76 L1329.3 1539.24 Q1326.81 1537.87 1324.3 1537.2 Q1321.82 1536.5 1319.27 1536.5 Q1313.57 1536.5 1310.42 1540.13 Q1307.27 1543.73 1307.27 1550.25 Q1307.27 1556.78 1310.42 1560.4 Q1313.57 1564 1319.27 1564 Q1321.82 1564 1324.3 1563.33 Q1326.81 1562.63 1329.3 1561.26 L1329.3 1566.68 Q1326.84 1567.82 1324.2 1568.39 Q1321.59 1568.97 1318.63 1568.97 Q1310.58 1568.97 1305.84 1563.91 Q1301.1 1558.85 1301.1 1550.25 Q1301.1 1541.53 1305.87 1536.53 Q1310.68 1531.54 1319.01 1531.54 Q1321.72 1531.54 1324.3 1532.11 Q1326.88 1532.65 1329.3 1533.76 Z" fill="#000000" fill-rule="evenodd" fill-opacity="1" /><path clip-path="url(#clip060)" d="M1369.11 1546.53 L1369.11 1568.04 L1363.26 1568.04 L1363.26 1546.72 Q1363.26 1541.66 1361.28 1539.14 Q1359.31 1536.63 1355.36 1536.63 Q1350.62 1536.63 1347.88 1539.65 Q1345.15 1542.68 1345.15 1547.9 L1345.15 1568.04 L1339.26 1568.04 L1339.26 1518.52 L1345.15 1518.52 L1345.15 1537.93 Q1347.25 1534.72 1350.08 1533.13 Q1352.94 1531.54 1356.67 1531.54 Q1362.81 1531.54 1365.96 1535.36 Q1369.11 1539.14 1369.11 1546.53 Z" fill="#000000" fill-rule="evenodd" fill-opacity="1" /><path clip-path="url(#clip060)" d="M1403.52 1533.45 L1403.52 1538.98 Q1401.04 1537.71 1398.36 1537.07 Q1395.69 1536.44 1392.83 1536.44 Q1388.46 1536.44 1386.27 1537.77 Q1384.1 1539.11 1384.1 1541.79 Q1384.1 1543.82 1385.66 1545 Q1387.22 1546.15 1391.93 1547.2 L1393.94 1547.64 Q1400.18 1548.98 1402.79 1551.43 Q1405.43 1553.85 1405.43 1558.21 Q1405.43 1563.17 1401.48 1566.07 Q1397.57 1568.97 1390.69 1568.97 Q1387.83 1568.97 1384.71 1568.39 Q1381.62 1567.85 1378.18 1566.74 L1378.18 1560.69 Q1381.43 1562.38 1384.58 1563.24 Q1387.73 1564.07 1390.82 1564.07 Q1394.96 1564.07 1397.19 1562.66 Q1399.41 1561.23 1399.41 1558.65 Q1399.41 1556.27 1397.79 1554.99 Q1396.2 1553.72 1390.76 1552.54 L1388.72 1552.07 Q1383.28 1550.92 1380.86 1548.56 Q1378.44 1546.18 1378.44 1542.04 Q1378.44 1537.01 1382 1534.27 Q1385.57 1531.54 1392.13 1531.54 Q1395.37 1531.54 1398.24 1532.01 Q1401.1 1532.49 1403.52 1533.45 Z" fill="#000000" fill-rule="evenodd" fill-opacity="1" /><polyline clip-path="url(#clip062)" style="stroke:#000000; stroke-linecap:butt; stroke-linejoin:round; stroke-width:2; stroke-opacity:0.1; fill:none" points="
  234.125,1422.19 2352.76,1422.19 
  "/>
<polyline clip-path="url(#clip062)" style="stroke:#000000; stroke-linecap:butt; stroke-linejoin:round; stroke-width:2; stroke-opacity:0.1; fill:none" points="
  234.125,1117.86 2352.76,1117.86 
  "/>
<polyline clip-path="url(#clip062)" style="stroke:#000000; stroke-linecap:butt; stroke-linejoin:round; stroke-width:2; stroke-opacity:0.1; fill:none" points="
  234.125,813.531 2352.76,813.531 
  "/>
<polyline clip-path="url(#clip062)" style="stroke:#000000; stroke-linecap:butt; stroke-linejoin:round; stroke-width:2; stroke-opacity:0.1; fill:none" points="
  234.125,509.202 2352.76,509.202 
  "/>
<polyline clip-path="url(#clip062)" style="stroke:#000000; stroke-linecap:butt; stroke-linejoin:round; stroke-width:2; stroke-opacity:0.1; fill:none" points="
  234.125,204.874 2352.76,204.874 
  "/>
<polyline clip-path="url(#clip060)" style="stroke:#000000; stroke-linecap:butt; stroke-linejoin:round; stroke-width:4; stroke-opacity:1; fill:none" points="
  234.125,1423.18 234.125,47.2441 
  "/>
<polyline clip-path="url(#clip060)" style="stroke:#000000; stroke-linecap:butt; stroke-linejoin:round; stroke-width:4; stroke-opacity:1; fill:none" points="
  234.125,1422.19 253.023,1422.19 
  "/>
<polyline clip-path="url(#clip060)" style="stroke:#000000; stroke-linecap:butt; stroke-linejoin:round; stroke-width:4; stroke-opacity:1; fill:none" points="
  234.125,1117.86 253.023,1117.86 
  "/>
<polyline clip-path="url(#clip060)" style="stroke:#000000; stroke-linecap:butt; stroke-linejoin:round; stroke-width:4; stroke-opacity:1; fill:none" points="
  234.125,813.531 253.023,813.531 
  "/>
<polyline clip-path="url(#clip060)" style="stroke:#000000; stroke-linecap:butt; stroke-linejoin:round; stroke-width:4; stroke-opacity:1; fill:none" points="
  234.125,509.202 253.023,509.202 
  "/>
<polyline clip-path="url(#clip060)" style="stroke:#000000; stroke-linecap:butt; stroke-linejoin:round; stroke-width:4; stroke-opacity:1; fill:none" points="
  234.125,204.874 253.023,204.874 
  "/>
<path clip-path="url(#clip060)" d="M146.066 1404.91 L164.422 1404.91 L164.422 1408.84 L150.348 1408.84 L150.348 1417.32 Q151.366 1416.97 152.385 1416.81 Q153.403 1416.62 154.422 1416.62 Q160.209 1416.62 163.589 1419.79 Q166.968 1422.96 166.968 1428.38 Q166.968 1433.96 163.496 1437.06 Q160.024 1440.14 153.704 1440.14 Q151.528 1440.14 149.26 1439.77 Q147.015 1439.4 144.607 1438.66 L144.607 1433.96 Q146.691 1435.09 148.913 1435.65 Q151.135 1436.2 153.612 1436.2 Q157.616 1436.2 159.954 1434.1 Q162.292 1431.99 162.292 1428.38 Q162.292 1424.77 159.954 1422.66 Q157.616 1420.56 153.612 1420.56 Q151.737 1420.56 149.862 1420.97 Q148.01 1421.39 146.066 1422.27 L146.066 1404.91 Z" fill="#000000" fill-rule="evenodd" fill-opacity="1" /><path clip-path="url(#clip060)" d="M186.181 1407.99 Q182.57 1407.99 180.741 1411.55 Q178.936 1415.09 178.936 1422.22 Q178.936 1429.33 180.741 1432.89 Q182.57 1436.44 186.181 1436.44 Q189.815 1436.44 191.621 1432.89 Q193.45 1429.33 193.45 1422.22 Q193.45 1415.09 191.621 1411.55 Q189.815 1407.99 186.181 1407.99 M186.181 1404.28 Q191.991 1404.28 195.047 1408.89 Q198.125 1413.47 198.125 1422.22 Q198.125 1430.95 195.047 1435.56 Q191.991 1440.14 186.181 1440.14 Q180.371 1440.14 177.292 1435.56 Q174.237 1430.95 174.237 1422.22 Q174.237 1413.47 177.292 1408.89 Q180.371 1404.28 186.181 1404.28 Z" fill="#000000" fill-rule="evenodd" fill-opacity="1" /><path clip-path="url(#clip060)" d="M116.668 1131.2 L124.306 1131.2 L124.306 1104.84 L115.996 1106.51 L115.996 1102.25 L124.26 1100.58 L128.936 1100.58 L128.936 1131.2 L136.575 1131.2 L136.575 1135.14 L116.668 1135.14 L116.668 1131.2 Z" fill="#000000" fill-rule="evenodd" fill-opacity="1" /><path clip-path="url(#clip060)" d="M156.019 1103.66 Q152.408 1103.66 150.579 1107.22 Q148.774 1110.76 148.774 1117.89 Q148.774 1125 150.579 1128.57 Q152.408 1132.11 156.019 1132.11 Q159.653 1132.11 161.459 1128.57 Q163.288 1125 163.288 1117.89 Q163.288 1110.76 161.459 1107.22 Q159.653 1103.66 156.019 1103.66 M156.019 1099.95 Q161.829 1099.95 164.885 1104.56 Q167.964 1109.14 167.964 1117.89 Q167.964 1126.62 164.885 1131.23 Q161.829 1135.81 156.019 1135.81 Q150.209 1135.81 147.13 1131.23 Q144.075 1126.62 144.075 1117.89 Q144.075 1109.14 147.13 1104.56 Q150.209 1099.95 156.019 1099.95 Z" fill="#000000" fill-rule="evenodd" fill-opacity="1" /><path clip-path="url(#clip060)" d="M186.181 1103.66 Q182.57 1103.66 180.741 1107.22 Q178.936 1110.76 178.936 1117.89 Q178.936 1125 180.741 1128.57 Q182.57 1132.11 186.181 1132.11 Q189.815 1132.11 191.621 1128.57 Q193.45 1125 193.45 1117.89 Q193.45 1110.76 191.621 1107.22 Q189.815 1103.66 186.181 1103.66 M186.181 1099.95 Q191.991 1099.95 195.047 1104.56 Q198.125 1109.14 198.125 1117.89 Q198.125 1126.62 195.047 1131.23 Q191.991 1135.81 186.181 1135.81 Q180.371 1135.81 177.292 1131.23 Q174.237 1126.62 174.237 1117.89 Q174.237 1109.14 177.292 1104.56 Q180.371 1099.95 186.181 1099.95 Z" fill="#000000" fill-rule="evenodd" fill-opacity="1" /><path clip-path="url(#clip060)" d="M116.668 826.876 L124.306 826.876 L124.306 800.51 L115.996 802.177 L115.996 797.918 L124.26 796.251 L128.936 796.251 L128.936 826.876 L136.575 826.876 L136.575 830.811 L116.668 830.811 L116.668 826.876 Z" fill="#000000" fill-rule="evenodd" fill-opacity="1" /><path clip-path="url(#clip060)" d="M146.066 796.251 L164.422 796.251 L164.422 800.186 L150.348 800.186 L150.348 808.658 Q151.366 808.311 152.385 808.149 Q153.403 807.964 154.422 807.964 Q160.209 807.964 163.589 811.135 Q166.968 814.306 166.968 819.723 Q166.968 825.302 163.496 828.404 Q160.024 831.482 153.704 831.482 Q151.528 831.482 149.26 831.112 Q147.015 830.742 144.607 830.001 L144.607 825.302 Q146.691 826.436 148.913 826.992 Q151.135 827.547 153.612 827.547 Q157.616 827.547 159.954 825.441 Q162.292 823.334 162.292 819.723 Q162.292 816.112 159.954 814.006 Q157.616 811.899 153.612 811.899 Q151.737 811.899 149.862 812.316 Q148.01 812.732 146.066 813.612 L146.066 796.251 Z" fill="#000000" fill-rule="evenodd" fill-opacity="1" /><path clip-path="url(#clip060)" d="M186.181 799.33 Q182.57 799.33 180.741 802.895 Q178.936 806.436 178.936 813.566 Q178.936 820.672 180.741 824.237 Q182.57 827.779 186.181 827.779 Q189.815 827.779 191.621 824.237 Q193.45 820.672 193.45 813.566 Q193.45 806.436 191.621 802.895 Q189.815 799.33 186.181 799.33 M186.181 795.626 Q191.991 795.626 195.047 800.232 Q198.125 804.816 198.125 813.566 Q198.125 822.293 195.047 826.899 Q191.991 831.482 186.181 831.482 Q180.371 831.482 177.292 826.899 Q174.237 822.293 174.237 813.566 Q174.237 804.816 177.292 800.232 Q180.371 795.626 186.181 795.626 Z" fill="#000000" fill-rule="evenodd" fill-opacity="1" /><path clip-path="url(#clip060)" d="M119.885 522.547 L136.204 522.547 L136.204 526.482 L114.26 526.482 L114.26 522.547 Q116.922 519.793 121.505 515.163 Q126.112 510.51 127.292 509.168 Q129.538 506.645 130.417 504.908 Q131.32 503.149 131.32 501.459 Q131.32 498.705 129.376 496.969 Q127.455 495.233 124.353 495.233 Q122.154 495.233 119.7 495.996 Q117.269 496.76 114.492 498.311 L114.492 493.589 Q117.316 492.455 119.769 491.876 Q122.223 491.297 124.26 491.297 Q129.63 491.297 132.825 493.983 Q136.019 496.668 136.019 501.158 Q136.019 503.288 135.209 505.209 Q134.422 507.108 132.316 509.7 Q131.737 510.371 128.635 513.589 Q125.533 516.783 119.885 522.547 Z" fill="#000000" fill-rule="evenodd" fill-opacity="1" /><path clip-path="url(#clip060)" d="M156.019 495.001 Q152.408 495.001 150.579 498.566 Q148.774 502.108 148.774 509.237 Q148.774 516.344 150.579 519.908 Q152.408 523.45 156.019 523.45 Q159.653 523.45 161.459 519.908 Q163.288 516.344 163.288 509.237 Q163.288 502.108 161.459 498.566 Q159.653 495.001 156.019 495.001 M156.019 491.297 Q161.829 491.297 164.885 495.904 Q167.964 500.487 167.964 509.237 Q167.964 517.964 164.885 522.57 Q161.829 527.154 156.019 527.154 Q150.209 527.154 147.13 522.57 Q144.075 517.964 144.075 509.237 Q144.075 500.487 147.13 495.904 Q150.209 491.297 156.019 491.297 Z" fill="#000000" fill-rule="evenodd" fill-opacity="1" /><path clip-path="url(#clip060)" d="M186.181 495.001 Q182.57 495.001 180.741 498.566 Q178.936 502.108 178.936 509.237 Q178.936 516.344 180.741 519.908 Q182.57 523.45 186.181 523.45 Q189.815 523.45 191.621 519.908 Q193.45 516.344 193.45 509.237 Q193.45 502.108 191.621 498.566 Q189.815 495.001 186.181 495.001 M186.181 491.297 Q191.991 491.297 195.047 495.904 Q198.125 500.487 198.125 509.237 Q198.125 517.964 195.047 522.57 Q191.991 527.154 186.181 527.154 Q180.371 527.154 177.292 522.57 Q174.237 517.964 174.237 509.237 Q174.237 500.487 177.292 495.904 Q180.371 491.297 186.181 491.297 Z" fill="#000000" fill-rule="evenodd" fill-opacity="1" /><path clip-path="url(#clip060)" d="M119.885 218.219 L136.204 218.219 L136.204 222.154 L114.26 222.154 L114.26 218.219 Q116.922 215.464 121.505 210.834 Q126.112 206.182 127.292 204.839 Q129.538 202.316 130.417 200.58 Q131.32 198.821 131.32 197.131 Q131.32 194.376 129.376 192.64 Q127.455 190.904 124.353 190.904 Q122.154 190.904 119.7 191.668 Q117.269 192.432 114.492 193.983 L114.492 189.26 Q117.316 188.126 119.769 187.548 Q122.223 186.969 124.26 186.969 Q129.63 186.969 132.825 189.654 Q136.019 192.339 136.019 196.83 Q136.019 198.96 135.209 200.881 Q134.422 202.779 132.316 205.372 Q131.737 206.043 128.635 209.26 Q125.533 212.455 119.885 218.219 Z" fill="#000000" fill-rule="evenodd" fill-opacity="1" /><path clip-path="url(#clip060)" d="M146.066 187.594 L164.422 187.594 L164.422 191.529 L150.348 191.529 L150.348 200.001 Q151.366 199.654 152.385 199.492 Q153.403 199.307 154.422 199.307 Q160.209 199.307 163.589 202.478 Q166.968 205.649 166.968 211.066 Q166.968 216.645 163.496 219.746 Q160.024 222.825 153.704 222.825 Q151.528 222.825 149.26 222.455 Q147.015 222.084 144.607 221.344 L144.607 216.645 Q146.691 217.779 148.913 218.334 Q151.135 218.89 153.612 218.89 Q157.616 218.89 159.954 216.783 Q162.292 214.677 162.292 211.066 Q162.292 207.455 159.954 205.348 Q157.616 203.242 153.612 203.242 Q151.737 203.242 149.862 203.659 Q148.01 204.075 146.066 204.955 L146.066 187.594 Z" fill="#000000" fill-rule="evenodd" fill-opacity="1" /><path clip-path="url(#clip060)" d="M186.181 190.673 Q182.57 190.673 180.741 194.237 Q178.936 197.779 178.936 204.909 Q178.936 212.015 180.741 215.58 Q182.57 219.121 186.181 219.121 Q189.815 219.121 191.621 215.58 Q193.45 212.015 193.45 204.909 Q193.45 197.779 191.621 194.237 Q189.815 190.673 186.181 190.673 M186.181 186.969 Q191.991 186.969 195.047 191.575 Q198.125 196.159 198.125 204.909 Q198.125 213.635 195.047 218.242 Q191.991 222.825 186.181 222.825 Q180.371 222.825 177.292 218.242 Q174.237 213.635 174.237 204.909 Q174.237 196.159 177.292 191.575 Q180.371 186.969 186.181 186.969 Z" fill="#000000" fill-rule="evenodd" fill-opacity="1" /><path clip-path="url(#clip060)" d="M16.4842 801.909 L16.4842 795.479 L58.5933 795.479 L58.5933 772.34 L64.0042 772.34 L64.0042 801.909 L16.4842 801.909 Z" fill="#000000" fill-rule="evenodd" fill-opacity="1" /><path clip-path="url(#clip060)" d="M32.4621 753.179 Q32.4621 757.89 36.1542 760.627 Q39.8145 763.364 46.212 763.364 Q52.6095 763.364 56.3017 760.659 Q59.9619 757.922 59.9619 753.179 Q59.9619 748.5 56.2698 745.763 Q52.5777 743.026 46.212 743.026 Q39.8781 743.026 36.186 745.763 Q32.4621 748.5 32.4621 753.179 M27.4968 753.179 Q27.4968 745.54 32.4621 741.18 Q37.4273 736.819 46.212 736.819 Q54.9649 736.819 59.9619 741.18 Q64.9272 745.54 64.9272 753.179 Q64.9272 760.85 59.9619 765.21 Q54.9649 769.539 46.212 769.539 Q37.4273 769.539 32.4621 765.21 Q27.4968 760.85 27.4968 753.179 Z" fill="#000000" fill-rule="evenodd" fill-opacity="1" /><path clip-path="url(#clip060)" d="M29.4065 704.386 L34.9447 704.386 Q33.6716 706.869 33.035 709.542 Q32.3984 712.216 32.3984 715.08 Q32.3984 719.441 33.7352 721.637 Q35.072 723.801 37.7456 723.801 Q39.7826 723.801 40.9603 722.242 Q42.1061 720.682 43.1565 715.972 L43.6021 713.966 Q44.9389 707.728 47.3897 705.118 Q49.8086 702.476 54.1691 702.476 Q59.1344 702.476 62.0308 706.423 Q64.9272 710.338 64.9272 717.213 Q64.9272 720.078 64.3543 723.197 Q63.8132 726.284 62.6992 729.722 L56.6518 729.722 Q58.3387 726.475 59.198 723.324 Q60.0256 720.173 60.0256 717.086 Q60.0256 712.948 58.6251 710.72 Q57.1929 708.492 54.6147 708.492 Q52.2276 708.492 50.9545 710.115 Q49.6813 711.707 48.5037 717.149 L48.0262 719.186 Q46.8804 724.629 44.5251 727.048 Q42.138 729.467 38.0002 729.467 Q32.9713 729.467 30.2341 725.902 Q27.4968 722.337 27.4968 715.781 Q27.4968 712.534 27.9743 709.67 Q28.4517 706.805 29.4065 704.386 Z" fill="#000000" fill-rule="evenodd" fill-opacity="1" /><path clip-path="url(#clip060)" d="M29.4065 670.425 L34.9447 670.425 Q33.6716 672.908 33.035 675.581 Q32.3984 678.255 32.3984 681.119 Q32.3984 685.48 33.7352 687.676 Q35.072 689.84 37.7456 689.84 Q39.7826 689.84 40.9603 688.281 Q42.1061 686.721 43.1565 682.011 L43.6021 680.005 Q44.9389 673.767 47.3897 671.157 Q49.8086 668.515 54.1691 668.515 Q59.1344 668.515 62.0308 672.462 Q64.9272 676.377 64.9272 683.252 Q64.9272 686.116 64.3543 689.236 Q63.8132 692.323 62.6992 695.761 L56.6518 695.761 Q58.3387 692.514 59.198 689.363 Q60.0256 686.212 60.0256 683.125 Q60.0256 678.987 58.6251 676.759 Q57.1929 674.531 54.6147 674.531 Q52.2276 674.531 50.9545 676.154 Q49.6813 677.746 48.5037 683.188 L48.0262 685.225 Q46.8804 690.668 44.5251 693.087 Q42.138 695.506 38.0002 695.506 Q32.9713 695.506 30.2341 691.941 Q27.4968 688.376 27.4968 681.82 Q27.4968 678.573 27.9743 675.709 Q28.4517 672.844 29.4065 670.425 Z" fill="#000000" fill-rule="evenodd" fill-opacity="1" /><polyline clip-path="url(#clip062)" style="stroke:#009af9; stroke-linecap:butt; stroke-linejoin:round; stroke-width:4; stroke-opacity:1; fill:none" points="
  294.087,86.1857 296.087,125.824 298.088,165.463 300.089,205.102 302.09,244.741 304.09,284.38 306.091,324.018 308.092,363.657 310.092,403.296 312.093,442.935 
  314.094,482.574 316.094,522.212 318.095,561.851 320.096,601.49 322.097,641.129 324.097,680.768 326.098,720.406 328.099,760.045 330.099,799.684 332.1,839.323 
  334.101,878.962 336.102,918.6 338.102,958.239 340.103,997.878 342.104,1037.52 344.104,1077.16 346.105,1116.79 348.106,1156.43 350.107,1196.07 352.107,1235.71 
  354.108,1275.35 356.109,1313.96 358.109,1338.62 360.11,1351.97 362.111,1359.83 364.111,1364.35 366.112,1367.38 368.113,1369.38 370.114,1370.93 372.114,1371.99 
  374.115,1372.72 376.116,1373.16 378.116,1373.59 380.117,1373.9 382.118,1373.99 384.119,1374.08 386.119,1374.17 388.12,1374.27 390.121,1374.36 392.121,1374.45 
  394.122,1374.54 396.123,1374.63 398.124,1374.63 400.124,1374.64 402.125,1374.66 404.126,1374.67 406.126,1374.68 408.127,1374.68 410.128,1374.69 412.129,1374.71 
  414.129,1374.72 416.13,1374.73 418.131,1374.73 420.131,1374.74 422.132,1374.76 424.133,1374.77 426.133,1374.78 428.134,1374.78 430.135,1374.8 432.136,1374.81 
  434.136,1374.83 436.137,1374.83 438.138,1374.83 440.138,1374.85 442.139,1374.86 444.14,1374.88 446.141,1374.88 448.141,1374.88 450.142,1374.9 452.143,1374.91 
  454.143,1374.93 456.144,1374.93 458.145,1374.93 460.146,1374.95 462.146,1374.96 464.147,1374.98 466.148,1374.98 468.148,1374.98 470.149,1375 472.15,1375.01 
  474.15,1375.03 476.151,1375.03 478.152,1375.03 480.153,1375.05 482.153,1375.06 484.154,1375.08 486.155,1375.08 488.155,1375.08 490.156,1375.1 492.157,1375.12 
  494.158,1375.13 496.158,1375.13 498.159,1375.14 500.16,1375.15 502.16,1375.17 504.161,1375.18 506.162,1375.18 508.163,1375.19 510.163,1375.2 512.164,1375.22 
  514.165,1375.23 516.165,1375.23 518.166,1375.24 520.167,1375.25 522.167,1375.27 524.168,1375.28 526.169,1375.28 528.17,1375.29 530.17,1375.3 532.171,1375.32 
  534.172,1375.33 536.172,1375.34 538.173,1375.34 540.174,1375.35 542.175,1375.37 544.175,1375.38 546.176,1375.39 548.177,1375.39 550.177,1375.4 552.178,1375.42 
  554.179,1375.43 556.18,1375.44 558.18,1375.44 560.181,1375.46 562.182,1375.47 564.182,1375.49 566.183,1375.49 568.184,1375.49 570.184,1375.51 572.185,1375.52 
  574.186,1375.54 576.187,1375.54 578.187,1375.54 580.188,1375.56 582.189,1375.57 584.189,1375.59 586.19,1375.59 588.191,1375.59 590.192,1375.61 592.192,1375.62 
  594.193,1375.64 596.194,1375.64 598.194,1375.64 600.195,1375.66 602.196,1375.67 604.197,1375.69 606.197,1375.69 608.198,1375.69 610.199,1375.71 612.199,1375.72 
  614.2,1375.74 616.201,1375.74 618.201,1375.74 620.202,1375.76 622.203,1375.77 624.204,1375.79 626.204,1375.79 628.205,1375.8 630.206,1375.81 632.206,1375.83 
  634.207,1375.84 636.208,1375.84 638.209,1375.85 640.209,1375.86 642.21,1375.88 644.211,1375.89 646.211,1375.89 648.212,1375.9 650.213,1375.91 652.214,1375.93 
  654.214,1375.94 656.215,1375.94 658.216,1375.95 660.216,1375.96 662.217,1375.98 664.218,1375.99 666.219,1375.99 668.219,1376 670.22,1376.01 672.221,1376.03 
  674.221,1376.04 676.222,1376.04 678.223,1376.05 680.223,1376.06 682.224,1376.08 684.225,1376.09 686.226,1376.09 688.226,1376.1 690.227,1376.12 692.228,1376.13 
  694.228,1376.15 696.229,1376.14 698.23,1376.15 700.231,1376.17 702.231,1376.18 704.232,1376.2 706.233,1376.19 708.233,1376.2 710.234,1376.22 712.235,1376.23 
  714.236,1376.25 716.236,1376.24 718.237,1376.25 720.238,1376.27 722.238,1376.28 724.239,1376.3 726.24,1376.29 728.24,1376.3 730.241,1376.32 732.242,1376.33 
  734.243,1376.35 736.243,1376.34 738.244,1376.35 740.245,1376.37 742.245,1376.38 744.246,1376.4 746.247,1376.4 748.248,1376.4 750.248,1376.42 752.249,1376.43 
  754.25,1376.45 756.25,1376.45 758.251,1376.46 760.252,1376.47 762.253,1376.49 764.253,1376.5 766.254,1376.5 768.255,1376.51 770.255,1376.52 772.256,1376.54 
  774.257,1376.55 776.257,1376.55 778.258,1376.56 780.259,1376.57 782.26,1376.59 784.26,1376.6 786.261,1376.6 788.262,1376.61 790.262,1376.62 792.263,1376.64 
  794.264,1376.65 796.265,1376.65 798.265,1376.66 800.266,1376.67 802.267,1376.69 804.267,1376.7 806.268,1376.7 808.269,1376.71 810.27,1376.72 812.27,1376.74 
  814.271,1376.75 816.272,1376.75 818.272,1376.76 820.273,1376.77 822.274,1376.79 824.274,1376.81 826.275,1376.8 828.276,1376.81 830.277,1376.83 832.277,1376.84 
  834.278,1376.86 836.279,1376.85 838.279,1376.86 840.28,1376.88 842.281,1376.89 844.282,1376.91 846.282,1376.9 848.283,1376.91 850.284,1376.93 852.284,1376.94 
  854.285,1376.96 856.286,1376.95 858.287,1376.96 860.287,1376.98 862.288,1376.99 864.289,1377.01 866.289,1377 868.29,1377.01 870.291,1377.03 872.291,1377.04 
  874.292,1377.06 876.293,1377.05 878.294,1377.06 880.294,1377.08 882.295,1377.09 884.296,1377.11 886.296,1377.1 888.297,1377.12 890.298,1377.13 892.299,1377.15 
  894.299,1377.16 896.3,1377.15 898.301,1377.17 900.301,1377.18 902.302,1377.2 904.303,1377.21 906.304,1377.2 908.304,1377.22 910.305,1377.23 912.306,1377.25 
  914.306,1377.26 916.307,1377.25 918.308,1377.27 920.309,1377.28 922.309,1377.3 924.31,1377.31 926.311,1377.3 928.311,1377.32 930.312,1377.33 932.313,1377.35 
  934.313,1377.36 936.314,1377.35 938.315,1377.37 940.316,1377.38 942.316,1377.4 944.317,1377.41 946.318,1377.4 948.318,1377.42 950.319,1377.43 952.32,1377.45 
  954.321,1377.47 956.321,1377.46 958.322,1377.47 960.323,1377.49 962.323,1377.5 964.324,1377.52 966.325,1377.51 968.326,1377.52 970.326,1377.54 972.327,1377.55 
  974.328,1377.57 976.328,1377.56 978.329,1377.57 980.33,1377.59 982.33,1377.6 984.331,1377.62 986.332,1377.61 988.333,1377.62 990.333,1377.64 992.334,1377.65 
  994.335,1377.67 996.335,1377.66 998.336,1377.67 1000.34,1377.69 1002.34,1377.7 1004.34,1377.72 1006.34,1377.71 1008.34,1377.72 1010.34,1377.74 1012.34,1377.75 
  1014.34,1377.77 1016.34,1377.76 1018.34,1377.77 1020.34,1377.79 1022.34,1377.81 1024.35,1377.82 1026.35,1377.81 1028.35,1377.83 1030.35,1377.84 1032.35,1377.86 
  1034.35,1377.87 1036.35,1377.86 1038.35,1377.88 1040.35,1377.89 1042.35,1377.91 1044.35,1377.92 1046.35,1377.91 1048.35,1377.93 1050.35,1377.94 1052.36,1377.96 
  1054.36,1377.97 1056.36,1377.96 1058.36,1377.98 1060.36,1377.99 1062.36,1378.01 1064.36,1378.02 1066.36,1378.01 1068.36,1378.03 1070.36,1378.04 1072.36,1378.06 
  1074.36,1378.07 1076.36,1378.06 1078.36,1378.08 1080.37,1378.09 1082.37,1378.11 1084.37,1378.12 1086.37,1378.12 1088.37,1378.13 1090.37,1378.15 1092.37,1378.16 
  1094.37,1378.17 1096.37,1378.17 1098.37,1378.18 1100.37,1378.2 1102.37,1378.21 1104.37,1378.22 1106.37,1378.22 1108.38,1378.23 1110.38,1378.25 1112.38,1378.26 
  1114.38,1378.27 1116.38,1378.27 1118.38,1378.28 1120.38,1378.3 1122.38,1378.31 1124.38,1378.32 1126.38,1378.32 1128.38,1378.33 1130.38,1378.35 1132.38,1378.36 
  1134.38,1378.37 1136.39,1378.37 1138.39,1378.38 1140.39,1378.4 1142.39,1378.41 1144.39,1378.42 1146.39,1378.42 1148.39,1378.43 1150.39,1378.45 1152.39,1378.47 
  1154.39,1378.47 1156.39,1378.47 1158.39,1378.49 1160.39,1378.5 1162.39,1378.52 1164.39,1378.53 1166.4,1378.52 1168.4,1378.54 1170.4,1378.55 1172.4,1378.57 
  1174.4,1378.58 1176.4,1378.57 1178.4,1378.59 1180.4,1378.6 1182.4,1378.62 1184.4,1378.63 1186.4,1378.62 1188.4,1378.64 1190.4,1378.65 1192.4,1378.67 
  1194.41,1378.68 1196.41,1378.67 1198.41,1378.69 1200.41,1378.7 1202.41,1378.72 1204.41,1378.73 1206.41,1378.72 1208.41,1378.74 1210.41,1378.75 1212.41,1378.77 
  1214.41,1378.78 1216.41,1378.78 1218.41,1378.79 1220.41,1378.81 1222.42,1378.82 1224.42,1378.83 1226.42,1378.83 1228.42,1378.84 1230.42,1378.86 1232.42,1378.87 
  1234.42,1378.88 1236.42,1378.88 1238.42,1378.89 1240.42,1378.91 1242.42,1378.92 1244.42,1378.93 1246.42,1378.93 1248.42,1378.94 1250.43,1378.96 1252.43,1378.97 
  1254.43,1378.98 1256.43,1378.98 1258.43,1378.99 1260.43,1379.01 1262.43,1379.02 1264.43,1379.03 1266.43,1379.03 1268.43,1379.04 1270.43,1379.06 1272.43,1379.07 
  1274.43,1379.08 1276.43,1379.08 1278.44,1379.09 1280.44,1379.11 1282.44,1379.13 1284.44,1379.13 1286.44,1379.13 1288.44,1379.15 1290.44,1379.16 1292.44,1379.18 
  1294.44,1379.18 1296.44,1379.18 1298.44,1379.2 1300.44,1379.21 1302.44,1379.23 1304.44,1379.23 1306.45,1379.23 1308.45,1379.25 1310.45,1379.26 1312.45,1379.28 
  1314.45,1379.28 1316.45,1379.28 1318.45,1379.3 1320.45,1379.31 1322.45,1379.33 1324.45,1379.33 1326.45,1379.33 1328.45,1379.35 1330.45,1379.36 1332.45,1379.38 
  1334.46,1379.38 1336.46,1379.38 1338.46,1379.4 1340.46,1379.41 1342.46,1379.43 1344.46,1379.43 1346.46,1379.43 1348.46,1379.45 1350.46,1379.47 1352.46,1379.48 
  1354.46,1379.48 1356.46,1379.49 1358.46,1379.5 1360.46,1379.52 1362.47,1379.53 1364.47,1379.53 1366.47,1379.54 1368.47,1379.55 1370.47,1379.57 1372.47,1379.58 
  1374.47,1379.58 1376.47,1379.59 1378.47,1379.6 1380.47,1379.62 1382.47,1379.63 1384.47,1379.64 1386.47,1379.64 1388.47,1379.65 1390.48,1379.67 1392.48,1379.68 
  1394.48,1379.69 1396.48,1379.69 1398.48,1379.7 1400.48,1379.72 1402.48,1379.73 1404.48,1379.74 1406.48,1379.74 1408.48,1379.75 1410.48,1379.77 1412.48,1379.79 
  1414.48,1379.79 1416.48,1379.79 1418.48,1379.81 1420.49,1379.82 1422.49,1379.84 1424.49,1379.84 1426.49,1379.84 1428.49,1379.86 1430.49,1379.87 1432.49,1379.89 
  1434.49,1379.89 1436.49,1379.89 1438.49,1379.91 1440.49,1379.92 1442.49,1379.94 1444.49,1379.94 1446.49,1379.94 1448.5,1379.96 1450.5,1379.97 1452.5,1379.99 
  1454.5,1379.99 1456.5,1379.99 1458.5,1380.01 1460.5,1380.02 1462.5,1380.04 1464.5,1380.04 1466.5,1380.04 1468.5,1380.06 1470.5,1380.07 1472.5,1380.09 
  1474.5,1380.09 1476.51,1380.09 1478.51,1380.11 1480.51,1380.13 1482.51,1380.14 1484.51,1380.14 1486.51,1380.15 1488.51,1380.16 1490.51,1380.18 1492.51,1380.19 
  1494.51,1380.19 1496.51,1380.2 1498.51,1380.21 1500.51,1380.23 1502.51,1380.24 1504.52,1380.24 1506.52,1380.25 1508.52,1380.26 1510.52,1380.28 1512.52,1380.29 
  1514.52,1380.29 1516.52,1380.3 1518.52,1380.31 1520.52,1380.33 1522.52,1380.34 1524.52,1380.34 1526.52,1380.35 1528.52,1380.36 1530.52,1380.38 1532.53,1380.39 
  1534.53,1380.39 1536.53,1380.4 1538.53,1380.41 1540.53,1380.43 1542.53,1380.45 1544.53,1380.44 1546.53,1380.45 1548.53,1380.47 1550.53,1380.48 1552.53,1380.5 
  1554.53,1380.49 1556.53,1380.5 1558.53,1380.52 1560.54,1380.53 1562.54,1380.55 1564.54,1380.54 1566.54,1380.55 1568.54,1380.57 1570.54,1380.58 1572.54,1380.6 
  1574.54,1380.59 1576.54,1380.6 1578.54,1380.62 1580.54,1380.63 1582.54,1380.65 1584.54,1380.64 1586.54,1380.65 1588.55,1380.67 1590.55,1380.68 1592.55,1380.7 
  1594.55,1380.7 1596.55,1380.7 1598.55,1380.72 1600.55,1380.73 1602.55,1380.75 1604.55,1380.75 1606.55,1380.75 1608.55,1380.77 1610.55,1380.79 1612.55,1380.8 
  1614.55,1380.8 1616.56,1380.81 1618.56,1380.82 1620.56,1380.84 1622.56,1380.85 1624.56,1380.85 1626.56,1380.86 1628.56,1380.87 1630.56,1380.89 1632.56,1380.9 
  1634.56,1380.9 1636.56,1380.91 1638.56,1380.92 1640.56,1380.94 1642.56,1380.95 1644.57,1380.95 1646.57,1380.96 1648.57,1380.97 1650.57,1380.99 1652.57,1381 
  1654.57,1381 1656.57,1381.01 1658.57,1381.02 1660.57,1381.04 1662.57,1381.05 1664.57,1381.05 1666.57,1381.06 1668.57,1381.07 1670.57,1381.09 1672.57,1381.1 
  1674.58,1381.1 1676.58,1381.11 1678.58,1381.13 1680.58,1381.14 1682.58,1381.16 1684.58,1381.15 1686.58,1381.16 1688.58,1381.18 1690.58,1381.19 1692.58,1381.21 
  1694.58,1381.2 1696.58,1381.21 1698.58,1381.23 1700.58,1381.24 1702.59,1381.26 1704.59,1381.25 1706.59,1381.26 1708.59,1381.28 1710.59,1381.29 1712.59,1381.31 
  1714.59,1381.3 1716.59,1381.31 1718.59,1381.33 1720.59,1381.34 1722.59,1381.36 1724.59,1381.35 1726.59,1381.36 1728.59,1381.38 1730.6,1381.39 1732.6,1381.41 
  1734.6,1381.4 1736.6,1381.41 1738.6,1381.43 1740.6,1381.45 1742.6,1381.46 1744.6,1381.45 1746.6,1381.47 1748.6,1381.48 1750.6,1381.5 1752.6,1381.51 
  1754.6,1381.5 1756.6,1381.52 1758.61,1381.53 1760.61,1381.55 1762.61,1381.56 1764.61,1381.55 1766.61,1381.57 1768.61,1381.58 1770.61,1381.6 1772.61,1381.61 
  1774.61,1381.6 1776.61,1381.62 1778.61,1381.63 1780.61,1381.65 1782.61,1381.66 1784.61,1381.65 1786.62,1381.67 1788.62,1381.68 1790.62,1381.7 1792.62,1381.71 
  1794.62,1381.7 1796.62,1381.72 1798.62,1381.73 1800.62,1381.75 1802.62,1381.76 1804.62,1381.76 1806.62,1381.77 1808.62,1381.79 1810.62,1381.8 1812.62,1381.82 
  1814.63,1381.81 1816.63,1381.82 1818.63,1381.84 1820.63,1381.85 1822.63,1381.87 1824.63,1381.86 1826.63,1381.87 1828.63,1381.89 1830.63,1381.9 1832.63,1381.92 
  1834.63,1381.91 1836.63,1381.92 1838.63,1381.94 1840.63,1381.95 1842.64,1381.97 1844.64,1381.96 1846.64,1381.97 1848.64,1381.99 1850.64,1382 1852.64,1382.02 
  1854.64,1382.01 1856.64,1382.02 1858.64,1382.04 1860.64,1382.05 1862.64,1382.07 1864.64,1382.06 1866.64,1382.07 1868.64,1382.09 1870.65,1382.1 1872.65,1382.12 
  1874.65,1382.11 1876.65,1382.13 1878.65,1382.14 1880.65,1382.16 1882.65,1382.17 1884.65,1382.16 1886.65,1382.18 1888.65,1382.19 1890.65,1382.21 1892.65,1382.22 
  1894.65,1382.21 1896.65,1382.23 1898.66,1382.24 1900.66,1382.26 1902.66,1382.27 1904.66,1382.26 1906.66,1382.28 1908.66,1382.29 1910.66,1382.31 1912.66,1382.32 
  1914.66,1382.31 1916.66,1382.33 1918.66,1382.34 1920.66,1382.36 1922.66,1382.37 1924.66,1382.36 1926.66,1382.38 1928.67,1382.39 1930.67,1382.41 1932.67,1382.42 
  1934.67,1382.41 1936.67,1382.43 1938.67,1382.45 1940.67,1382.46 1942.67,1382.47 1944.67,1382.47 1946.67,1382.48 1948.67,1382.5 1950.67,1382.51 1952.67,1382.52 
  1954.67,1382.52 1956.68,1382.53 1958.68,1382.55 1960.68,1382.56 1962.68,1382.57 1964.68,1382.57 1966.68,1382.58 1968.68,1382.6 1970.68,1382.61 1972.68,1382.62 
  1974.68,1382.62 1976.68,1382.63 1978.68,1382.65 1980.68,1382.66 1982.68,1382.67 1984.69,1382.67 1986.69,1382.68 1988.69,1382.7 1990.69,1382.71 1992.69,1382.72 
  1994.69,1382.72 1996.69,1382.73 1998.69,1382.75 2000.69,1382.76 2002.69,1382.77 2004.69,1382.77 2006.69,1382.79 2008.69,1382.8 2010.69,1382.82 2012.7,1382.83 
  2014.7,1382.82 2016.7,1382.84 2018.7,1382.85 2020.7,1382.87 2022.7,1382.88 2024.7,1382.87 2026.7,1382.89 2028.7,1382.9 2030.7,1382.92 2032.7,1382.93 
  2034.7,1382.92 2036.7,1382.94 2038.7,1382.95 2040.71,1382.97 2042.71,1382.98 2044.71,1382.97 2046.71,1382.99 2048.71,1383 2050.71,1383.02 2052.71,1383.03 
  2054.71,1383.02 2056.71,1383.04 2058.71,1383.05 2060.71,1383.07 2062.71,1383.08 2064.71,1383.07 2066.71,1383.09 2068.72,1383.1 2070.72,1383.12 2072.72,1383.13 
  2074.72,1383.13 2076.72,1383.14 2078.72,1383.16 2080.72,1383.17 2082.72,1383.18 2084.72,1383.18 2086.72,1383.19 2088.72,1383.21 2090.72,1383.22 2092.72,1383.23 
  2094.72,1383.23 2096.73,1383.24 2098.73,1383.26 2100.73,1383.27 2102.73,1383.28 2104.73,1383.28 2106.73,1383.29 2108.73,1383.31 2110.73,1383.32 2112.73,1383.33 
  2114.73,1383.33 2116.73,1383.34 2118.73,1383.36 2120.73,1383.37 2122.73,1383.38 2124.74,1383.38 2126.74,1383.39 2128.74,1383.41 2130.74,1383.42 2132.74,1383.43 
  2134.74,1383.43 2136.74,1383.45 2138.74,1383.46 2140.74,1383.48 2142.74,1383.48 2144.74,1383.48 2146.74,1383.5 2148.74,1383.51 2150.74,1383.53 2152.75,1383.53 
  2154.75,1383.53 2156.75,1383.55 2158.75,1383.56 2160.75,1383.58 2162.75,1383.58 2164.75,1383.58 2166.75,1383.6 2168.75,1383.61 2170.75,1383.63 2172.75,1383.63 
  2174.75,1383.63 2176.75,1383.65 2178.75,1383.66 2180.75,1383.68 2182.76,1383.68 2184.76,1383.68 2186.76,1383.7 2188.76,1383.71 2190.76,1383.73 2192.76,1383.73 
  2194.76,1383.73 2196.76,1383.75 2198.76,1383.76 2200.76,1383.78 2202.76,1383.78 2204.76,1383.79 2206.76,1383.8 2208.76,1383.82 2210.77,1383.83 2212.77,1383.83 
  2214.77,1383.84 2216.77,1383.85 2218.77,1383.87 2220.77,1383.88 2222.77,1383.88 2224.77,1383.89 2226.77,1383.9 2228.77,1383.92 2230.77,1383.93 2232.77,1383.94 
  2234.77,1383.94 2236.77,1383.95 2238.78,1383.97 2240.78,1383.98 2242.78,1383.99 2244.78,1383.99 2246.78,1384 2248.78,1384.02 2250.78,1384.03 2252.78,1384.04 
  2254.78,1384.04 2256.78,1384.05 2258.78,1384.07 2260.78,1384.08 2262.78,1384.09 2264.78,1384.09 2266.79,1384.11 2268.79,1384.12 2270.79,1384.14 2272.79,1384.14 
  2274.79,1384.14 2276.79,1384.16 2278.79,1384.17 2280.79,1384.19 2282.79,1384.19 2284.79,1384.19 2286.79,1384.21 2288.79,1384.22 2290.79,1384.24 2292.79,1384.24 
  
  "/>
<path clip-path="url(#clip060)" d="
M1994.3 196.789 L2282.13 196.789 L2282.13 93.1086 L1994.3 93.1086  Z
  " fill="#ffffff" fill-rule="evenodd" fill-opacity="1"/>
<polyline clip-path="url(#clip060)" style="stroke:#000000; stroke-linecap:butt; stroke-linejoin:round; stroke-width:4; stroke-opacity:1; fill:none" points="
  1994.3,196.789 2282.13,196.789 2282.13,93.1086 1994.3,93.1086 1994.3,196.789 
  "/>
<polyline clip-path="url(#clip060)" style="stroke:#009af9; stroke-linecap:butt; stroke-linejoin:round; stroke-width:4; stroke-opacity:1; fill:none" points="
  2017.84,144.949 2159.08,144.949 
  "/>
<path clip-path="url(#clip060)" d="M2196.47 164.636 Q2194.66 169.266 2192.95 170.678 Q2191.24 172.09 2188.36 172.09 L2184.96 172.09 L2184.96 168.525 L2187.46 168.525 Q2189.22 168.525 2190.19 167.692 Q2191.17 166.858 2192.35 163.756 L2193.11 161.812 L2182.62 136.303 L2187.14 136.303 L2195.24 156.581 L2203.34 136.303 L2207.86 136.303 L2196.47 164.636 Z" fill="#000000" fill-rule="evenodd" fill-opacity="1" /><path clip-path="url(#clip060)" d="M2215.15 158.293 L2222.79 158.293 L2222.79 131.928 L2214.48 133.595 L2214.48 129.335 L2222.74 127.669 L2227.42 127.669 L2227.42 158.293 L2235.05 158.293 L2235.05 162.229 L2215.15 162.229 L2215.15 158.293 Z" fill="#000000" fill-rule="evenodd" fill-opacity="1" /></svg>
