<?xml version="1.0" encoding="utf-8"?>
<svg xmlns="http://www.w3.org/2000/svg" xmlns:xlink="http://www.w3.org/1999/xlink" width="600" height="400" viewBox="0 0 2400 1600">
<defs>
  <clipPath id="clip100">
    <rect x="0" y="0" width="2400" height="1600"/>
  </clipPath>
</defs>
<path clip-path="url(#clip100)" d="
M0 1600 L2400 1600 L2400 0 L0 0  Z
  " fill="#ffffff" fill-rule="evenodd" fill-opacity="1"/>
<defs>
  <clipPath id="clip101">
    <rect x="480" y="0" width="1681" height="1600"/>
  </clipPath>
</defs>
<path clip-path="url(#clip100)" d="
M199.283 1486.45 L2352.76 1486.45 L2352.76 47.2441 L199.283 47.2441  Z
  " fill="#ffffff" fill-rule="evenodd" fill-opacity="1"/>
<defs>
  <clipPath id="clip102">
    <rect x="199" y="47" width="2154" height="1440"/>
  </clipPath>
</defs>
<polyline clip-path="url(#clip102)" style="stroke:#000000; stroke-linecap:butt; stroke-linejoin:round; stroke-width:2; stroke-opacity:0.1; fill:none" points="
  218.77,1486.45 218.77,47.2441 
  "/>
<polyline clip-path="url(#clip102)" style="stroke:#000000; stroke-linecap:butt; stroke-linejoin:round; stroke-width:2; stroke-opacity:0.1; fill:none" points="
  633.378,1486.45 633.378,47.2441 
  "/>
<polyline clip-path="url(#clip102)" style="stroke:#000000; stroke-linecap:butt; stroke-linejoin:round; stroke-width:2; stroke-opacity:0.1; fill:none" points="
  1047.99,1486.45 1047.99,47.2441 
  "/>
<polyline clip-path="url(#clip102)" style="stroke:#000000; stroke-linecap:butt; stroke-linejoin:round; stroke-width:2; stroke-opacity:0.1; fill:none" points="
  1462.59,1486.45 1462.59,47.2441 
  "/>
<polyline clip-path="url(#clip102)" style="stroke:#000000; stroke-linecap:butt; stroke-linejoin:round; stroke-width:2; stroke-opacity:0.1; fill:none" points="
  1877.2,1486.45 1877.2,47.2441 
  "/>
<polyline clip-path="url(#clip102)" style="stroke:#000000; stroke-linecap:butt; stroke-linejoin:round; stroke-width:2; stroke-opacity:0.1; fill:none" points="
  2291.81,1486.45 2291.81,47.2441 
  "/>
<polyline clip-path="url(#clip100)" style="stroke:#000000; stroke-linecap:butt; stroke-linejoin:round; stroke-width:4; stroke-opacity:1; fill:none" points="
  199.283,1486.45 2352.76,1486.45 
  "/>
<polyline clip-path="url(#clip100)" style="stroke:#000000; stroke-linecap:butt; stroke-linejoin:round; stroke-width:4; stroke-opacity:1; fill:none" points="
  218.77,1486.45 218.77,1467.55 
  "/>
<polyline clip-path="url(#clip100)" style="stroke:#000000; stroke-linecap:butt; stroke-linejoin:round; stroke-width:4; stroke-opacity:1; fill:none" points="
  633.378,1486.45 633.378,1467.55 
  "/>
<polyline clip-path="url(#clip100)" style="stroke:#000000; stroke-linecap:butt; stroke-linejoin:round; stroke-width:4; stroke-opacity:1; fill:none" points="
  1047.99,1486.45 1047.99,1467.55 
  "/>
<polyline clip-path="url(#clip100)" style="stroke:#000000; stroke-linecap:butt; stroke-linejoin:round; stroke-width:4; stroke-opacity:1; fill:none" points="
  1462.59,1486.45 1462.59,1467.55 
  "/>
<polyline clip-path="url(#clip100)" style="stroke:#000000; stroke-linecap:butt; stroke-linejoin:round; stroke-width:4; stroke-opacity:1; fill:none" points="
  1877.2,1486.45 1877.2,1467.55 
  "/>
<polyline clip-path="url(#clip100)" style="stroke:#000000; stroke-linecap:butt; stroke-linejoin:round; stroke-width:4; stroke-opacity:1; fill:none" points="
  2291.81,1486.45 2291.81,1467.55 
  "/>
<path clip-path="url(#clip100)" d="M218.77 1517.37 Q215.159 1517.37 213.33 1520.93 Q211.524 1524.47 211.524 1531.6 Q211.524 1538.71 213.33 1542.27 Q215.159 1545.82 218.77 1545.82 Q222.404 1545.82 224.21 1542.27 Q226.038 1538.71 226.038 1531.6 Q226.038 1524.47 224.21 1520.93 Q222.404 1517.37 218.77 1517.37 M218.77 1513.66 Q224.58 1513.66 227.635 1518.27 Q230.714 1522.85 230.714 1531.6 Q230.714 1540.33 227.635 1544.94 Q224.58 1549.52 218.77 1549.52 Q212.96 1549.52 209.881 1544.94 Q206.825 1540.33 206.825 1531.6 Q206.825 1522.85 209.881 1518.27 Q212.96 1513.66 218.77 1513.66 Z" fill="#000000" fill-rule="evenodd" fill-opacity="1" /><path clip-path="url(#clip100)" d="M608.065 1544.91 L615.704 1544.91 L615.704 1518.55 L607.394 1520.21 L607.394 1515.95 L615.658 1514.29 L620.334 1514.29 L620.334 1544.91 L627.972 1544.91 L627.972 1548.85 L608.065 1548.85 L608.065 1544.91 Z" fill="#000000" fill-rule="evenodd" fill-opacity="1" /><path clip-path="url(#clip100)" d="M647.417 1517.37 Q643.806 1517.37 641.977 1520.93 Q640.171 1524.47 640.171 1531.6 Q640.171 1538.71 641.977 1542.27 Q643.806 1545.82 647.417 1545.82 Q651.051 1545.82 652.857 1542.27 Q654.685 1538.71 654.685 1531.6 Q654.685 1524.47 652.857 1520.93 Q651.051 1517.37 647.417 1517.37 M647.417 1513.66 Q653.227 1513.66 656.282 1518.27 Q659.361 1522.85 659.361 1531.6 Q659.361 1540.33 656.282 1544.94 Q653.227 1549.52 647.417 1549.52 Q641.607 1549.52 638.528 1544.94 Q635.472 1540.33 635.472 1531.6 Q635.472 1522.85 638.528 1518.27 Q641.607 1513.66 647.417 1513.66 Z" fill="#000000" fill-rule="evenodd" fill-opacity="1" /><path clip-path="url(#clip100)" d="M1026.76 1544.91 L1043.08 1544.91 L1043.08 1548.85 L1021.13 1548.85 L1021.13 1544.91 Q1023.8 1542.16 1028.38 1537.53 Q1032.99 1532.88 1034.17 1531.53 Q1036.41 1529.01 1037.29 1527.27 Q1038.19 1525.51 1038.19 1523.82 Q1038.19 1521.07 1036.25 1519.33 Q1034.33 1517.6 1031.23 1517.6 Q1029.03 1517.6 1026.57 1518.36 Q1024.14 1519.13 1021.37 1520.68 L1021.37 1515.95 Q1024.19 1514.82 1026.64 1514.24 Q1029.1 1513.66 1031.13 1513.66 Q1036.5 1513.66 1039.7 1516.35 Q1042.89 1519.03 1042.89 1523.52 Q1042.89 1525.65 1042.08 1527.57 Q1041.3 1529.47 1039.19 1532.07 Q1038.61 1532.74 1035.51 1535.95 Q1032.41 1539.15 1026.76 1544.91 Z" fill="#000000" fill-rule="evenodd" fill-opacity="1" /><path clip-path="url(#clip100)" d="M1062.89 1517.37 Q1059.28 1517.37 1057.45 1520.93 Q1055.65 1524.47 1055.65 1531.6 Q1055.65 1538.71 1057.45 1542.27 Q1059.28 1545.82 1062.89 1545.82 Q1066.53 1545.82 1068.33 1542.27 Q1070.16 1538.71 1070.16 1531.6 Q1070.16 1524.47 1068.33 1520.93 Q1066.53 1517.37 1062.89 1517.37 M1062.89 1513.66 Q1068.7 1513.66 1071.76 1518.27 Q1074.84 1522.85 1074.84 1531.6 Q1074.84 1540.33 1071.76 1544.94 Q1068.7 1549.52 1062.89 1549.52 Q1057.08 1549.52 1054 1544.94 Q1050.95 1540.33 1050.95 1531.6 Q1050.95 1522.85 1054 1518.27 Q1057.08 1513.66 1062.89 1513.66 Z" fill="#000000" fill-rule="evenodd" fill-opacity="1" /><path clip-path="url(#clip100)" d="M1451.44 1530.21 Q1454.79 1530.93 1456.67 1533.2 Q1458.57 1535.47 1458.57 1538.8 Q1458.57 1543.92 1455.05 1546.72 Q1451.53 1549.52 1445.05 1549.52 Q1442.87 1549.52 1440.56 1549.08 Q1438.26 1548.66 1435.81 1547.81 L1435.81 1543.29 Q1437.76 1544.43 1440.07 1545.01 Q1442.38 1545.58 1444.91 1545.58 Q1449.31 1545.58 1451.6 1543.85 Q1453.91 1542.11 1453.91 1538.8 Q1453.91 1535.75 1451.76 1534.03 Q1449.63 1532.3 1445.81 1532.3 L1441.78 1532.3 L1441.78 1528.45 L1446 1528.45 Q1449.44 1528.45 1451.27 1527.09 Q1453.1 1525.7 1453.1 1523.11 Q1453.1 1520.45 1451.2 1519.03 Q1449.33 1517.6 1445.81 1517.6 Q1443.89 1517.6 1441.69 1518.01 Q1439.49 1518.43 1436.85 1519.31 L1436.85 1515.14 Q1439.51 1514.4 1441.83 1514.03 Q1444.17 1513.66 1446.23 1513.66 Q1451.55 1513.66 1454.65 1516.09 Q1457.76 1518.5 1457.76 1522.62 Q1457.76 1525.49 1456.11 1527.48 Q1454.47 1529.45 1451.44 1530.21 Z" fill="#000000" fill-rule="evenodd" fill-opacity="1" /><path clip-path="url(#clip100)" d="M1477.43 1517.37 Q1473.82 1517.37 1471.99 1520.93 Q1470.19 1524.47 1470.19 1531.6 Q1470.19 1538.71 1471.99 1542.27 Q1473.82 1545.82 1477.43 1545.82 Q1481.07 1545.82 1482.87 1542.27 Q1484.7 1538.71 1484.7 1531.6 Q1484.7 1524.47 1482.87 1520.93 Q1481.07 1517.37 1477.43 1517.37 M1477.43 1513.66 Q1483.24 1513.66 1486.3 1518.27 Q1489.38 1522.85 1489.38 1531.6 Q1489.38 1540.33 1486.3 1544.94 Q1483.24 1549.52 1477.43 1549.52 Q1471.62 1549.52 1468.54 1544.94 Q1465.49 1540.33 1465.49 1531.6 Q1465.49 1522.85 1468.54 1518.27 Q1471.62 1513.66 1477.43 1513.66 Z" fill="#000000" fill-rule="evenodd" fill-opacity="1" /><path clip-path="url(#clip100)" d="M1865.37 1518.36 L1853.57 1536.81 L1865.37 1536.81 L1865.37 1518.36 M1864.15 1514.29 L1870.02 1514.29 L1870.02 1536.81 L1874.96 1536.81 L1874.96 1540.7 L1870.02 1540.7 L1870.02 1548.85 L1865.37 1548.85 L1865.37 1540.7 L1849.77 1540.7 L1849.77 1536.19 L1864.15 1514.29 Z" fill="#000000" fill-rule="evenodd" fill-opacity="1" /><path clip-path="url(#clip100)" d="M1892.69 1517.37 Q1889.08 1517.37 1887.25 1520.93 Q1885.44 1524.47 1885.44 1531.6 Q1885.44 1538.71 1887.25 1542.27 Q1889.08 1545.82 1892.69 1545.82 Q1896.32 1545.82 1898.13 1542.27 Q1899.96 1538.71 1899.96 1531.6 Q1899.96 1524.47 1898.13 1520.93 Q1896.32 1517.37 1892.69 1517.37 M1892.69 1513.66 Q1898.5 1513.66 1901.55 1518.27 Q1904.63 1522.85 1904.63 1531.6 Q1904.63 1540.33 1901.55 1544.94 Q1898.5 1549.52 1892.69 1549.52 Q1886.88 1549.52 1883.8 1544.94 Q1880.74 1540.33 1880.74 1531.6 Q1880.74 1522.85 1883.8 1518.27 Q1886.88 1513.66 1892.69 1513.66 Z" fill="#000000" fill-rule="evenodd" fill-opacity="1" /><path clip-path="url(#clip100)" d="M2266.51 1514.29 L2284.86 1514.29 L2284.86 1518.22 L2270.79 1518.22 L2270.79 1526.7 Q2271.81 1526.35 2272.83 1526.19 Q2273.85 1526 2274.86 1526 Q2280.65 1526 2284.03 1529.17 Q2287.41 1532.34 2287.41 1537.76 Q2287.41 1543.34 2283.94 1546.44 Q2280.47 1549.52 2274.15 1549.52 Q2271.97 1549.52 2269.7 1549.15 Q2267.46 1548.78 2265.05 1548.04 L2265.05 1543.34 Q2267.13 1544.47 2269.35 1545.03 Q2271.58 1545.58 2274.05 1545.58 Q2278.06 1545.58 2280.4 1543.48 Q2282.73 1541.37 2282.73 1537.76 Q2282.73 1534.15 2280.4 1532.04 Q2278.06 1529.94 2274.05 1529.94 Q2272.18 1529.94 2270.3 1530.35 Q2268.45 1530.77 2266.51 1531.65 L2266.51 1514.29 Z" fill="#000000" fill-rule="evenodd" fill-opacity="1" /><path clip-path="url(#clip100)" d="M2306.62 1517.37 Q2303.01 1517.37 2301.18 1520.93 Q2299.38 1524.47 2299.38 1531.6 Q2299.38 1538.71 2301.18 1542.27 Q2303.01 1545.82 2306.62 1545.82 Q2310.26 1545.82 2312.06 1542.27 Q2313.89 1538.71 2313.89 1531.6 Q2313.89 1524.47 2312.06 1520.93 Q2310.26 1517.37 2306.62 1517.37 M2306.62 1513.66 Q2312.43 1513.66 2315.49 1518.27 Q2318.57 1522.85 2318.57 1531.6 Q2318.57 1540.33 2315.49 1544.94 Q2312.43 1549.52 2306.62 1549.52 Q2300.81 1549.52 2297.73 1544.94 Q2294.68 1540.33 2294.68 1531.6 Q2294.68 1522.85 2297.73 1518.27 Q2300.81 1513.66 2306.62 1513.66 Z" fill="#000000" fill-rule="evenodd" fill-opacity="1" /><polyline clip-path="url(#clip102)" style="stroke:#000000; stroke-linecap:butt; stroke-linejoin:round; stroke-width:2; stroke-opacity:0.1; fill:none" points="
  199.283,1483.68 2352.76,1483.68 
  "/>
<polyline clip-path="url(#clip102)" style="stroke:#000000; stroke-linecap:butt; stroke-linejoin:round; stroke-width:2; stroke-opacity:0.1; fill:none" points="
  199.283,1022.06 2352.76,1022.06 
  "/>
<polyline clip-path="url(#clip102)" style="stroke:#000000; stroke-linecap:butt; stroke-linejoin:round; stroke-width:2; stroke-opacity:0.1; fill:none" points="
  199.283,560.433 2352.76,560.433 
  "/>
<polyline clip-path="url(#clip102)" style="stroke:#000000; stroke-linecap:butt; stroke-linejoin:round; stroke-width:2; stroke-opacity:0.1; fill:none" points="
  199.283,98.8065 2352.76,98.8065 
  "/>
<polyline clip-path="url(#clip100)" style="stroke:#000000; stroke-linecap:butt; stroke-linejoin:round; stroke-width:4; stroke-opacity:1; fill:none" points="
  199.283,1486.45 199.283,47.2441 
  "/>
<polyline clip-path="url(#clip100)" style="stroke:#000000; stroke-linecap:butt; stroke-linejoin:round; stroke-width:4; stroke-opacity:1; fill:none" points="
  199.283,1483.68 218.181,1483.68 
  "/>
<polyline clip-path="url(#clip100)" style="stroke:#000000; stroke-linecap:butt; stroke-linejoin:round; stroke-width:4; stroke-opacity:1; fill:none" points="
  199.283,1022.06 218.181,1022.06 
  "/>
<polyline clip-path="url(#clip100)" style="stroke:#000000; stroke-linecap:butt; stroke-linejoin:round; stroke-width:4; stroke-opacity:1; fill:none" points="
  199.283,560.433 218.181,560.433 
  "/>
<polyline clip-path="url(#clip100)" style="stroke:#000000; stroke-linecap:butt; stroke-linejoin:round; stroke-width:4; stroke-opacity:1; fill:none" points="
  199.283,98.8065 218.181,98.8065 
  "/>
<path clip-path="url(#clip100)" d="M151.339 1469.48 Q147.728 1469.48 145.899 1473.05 Q144.093 1476.59 144.093 1483.72 Q144.093 1490.83 145.899 1494.39 Q147.728 1497.93 151.339 1497.93 Q154.973 1497.93 156.779 1494.39 Q158.607 1490.83 158.607 1483.72 Q158.607 1476.59 156.779 1473.05 Q154.973 1469.48 151.339 1469.48 M151.339 1465.78 Q157.149 1465.78 160.205 1470.39 Q163.283 1474.97 163.283 1483.72 Q163.283 1492.45 160.205 1497.05 Q157.149 1501.64 151.339 1501.64 Q145.529 1501.64 142.45 1497.05 Q139.394 1492.45 139.394 1483.72 Q139.394 1474.97 142.45 1470.39 Q145.529 1465.78 151.339 1465.78 Z" fill="#000000" fill-rule="evenodd" fill-opacity="1" /><path clip-path="url(#clip100)" d="M81.0614 1004.78 L99.4178 1004.78 L99.4178 1008.71 L85.3438 1008.71 L85.3438 1017.19 Q86.3623 1016.84 87.3808 1016.68 Q88.3993 1016.49 89.4178 1016.49 Q95.2049 1016.49 98.5845 1019.66 Q101.964 1022.83 101.964 1028.25 Q101.964 1033.83 98.4919 1036.93 Q95.0197 1040.01 88.7003 1040.01 Q86.5243 1040.01 84.2558 1039.64 Q82.0105 1039.27 79.6031 1038.53 L79.6031 1033.83 Q81.6864 1034.96 83.9086 1035.52 Q86.1308 1036.07 88.6077 1036.07 Q92.6123 1036.07 94.9502 1033.97 Q97.2882 1031.86 97.2882 1028.25 Q97.2882 1024.64 94.9502 1022.53 Q92.6123 1020.43 88.6077 1020.43 Q86.7327 1020.43 84.8577 1020.84 Q83.0058 1021.26 81.0614 1022.14 L81.0614 1004.78 Z" fill="#000000" fill-rule="evenodd" fill-opacity="1" /><path clip-path="url(#clip100)" d="M121.177 1007.86 Q117.566 1007.86 115.737 1011.42 Q113.932 1014.96 113.932 1022.09 Q113.932 1029.2 115.737 1032.76 Q117.566 1036.31 121.177 1036.31 Q124.811 1036.31 126.617 1032.76 Q128.445 1029.2 128.445 1022.09 Q128.445 1014.96 126.617 1011.42 Q124.811 1007.86 121.177 1007.86 M121.177 1004.15 Q126.987 1004.15 130.043 1008.76 Q133.121 1013.34 133.121 1022.09 Q133.121 1030.82 130.043 1035.43 Q126.987 1040.01 121.177 1040.01 Q115.367 1040.01 112.288 1035.43 Q109.233 1030.82 109.233 1022.09 Q109.233 1013.34 112.288 1008.76 Q115.367 1004.15 121.177 1004.15 Z" fill="#000000" fill-rule="evenodd" fill-opacity="1" /><path clip-path="url(#clip100)" d="M151.339 1007.86 Q147.728 1007.86 145.899 1011.42 Q144.093 1014.96 144.093 1022.09 Q144.093 1029.2 145.899 1032.76 Q147.728 1036.31 151.339 1036.31 Q154.973 1036.31 156.779 1032.76 Q158.607 1029.2 158.607 1022.09 Q158.607 1014.96 156.779 1011.42 Q154.973 1007.86 151.339 1007.86 M151.339 1004.15 Q157.149 1004.15 160.205 1008.76 Q163.283 1013.34 163.283 1022.09 Q163.283 1030.82 160.205 1035.43 Q157.149 1040.01 151.339 1040.01 Q145.529 1040.01 142.45 1035.43 Q139.394 1030.82 139.394 1022.09 Q139.394 1013.34 142.45 1008.76 Q145.529 1004.15 151.339 1004.15 Z" fill="#000000" fill-rule="evenodd" fill-opacity="1" /><path clip-path="url(#clip100)" d="M51.6634 573.778 L59.3023 573.778 L59.3023 547.412 L50.9921 549.079 L50.9921 544.819 L59.256 543.153 L63.9319 543.153 L63.9319 573.778 L71.5707 573.778 L71.5707 577.713 L51.6634 577.713 L51.6634 573.778 Z" fill="#000000" fill-rule="evenodd" fill-opacity="1" /><path clip-path="url(#clip100)" d="M91.0151 546.231 Q87.404 546.231 85.5753 549.796 Q83.7697 553.338 83.7697 560.467 Q83.7697 567.574 85.5753 571.139 Q87.404 574.68 91.0151 574.68 Q94.6493 574.68 96.4548 571.139 Q98.2835 567.574 98.2835 560.467 Q98.2835 553.338 96.4548 549.796 Q94.6493 546.231 91.0151 546.231 M91.0151 542.528 Q96.8252 542.528 99.8808 547.134 Q102.959 551.717 102.959 560.467 Q102.959 569.194 99.8808 573.801 Q96.8252 578.384 91.0151 578.384 Q85.2049 578.384 82.1262 573.801 Q79.0707 569.194 79.0707 560.467 Q79.0707 551.717 82.1262 547.134 Q85.2049 542.528 91.0151 542.528 Z" fill="#000000" fill-rule="evenodd" fill-opacity="1" /><path clip-path="url(#clip100)" d="M121.177 546.231 Q117.566 546.231 115.737 549.796 Q113.932 553.338 113.932 560.467 Q113.932 567.574 115.737 571.139 Q117.566 574.68 121.177 574.68 Q124.811 574.68 126.617 571.139 Q128.445 567.574 128.445 560.467 Q128.445 553.338 126.617 549.796 Q124.811 546.231 121.177 546.231 M121.177 542.528 Q126.987 542.528 130.043 547.134 Q133.121 551.717 133.121 560.467 Q133.121 569.194 130.043 573.801 Q126.987 578.384 121.177 578.384 Q115.367 578.384 112.288 573.801 Q109.233 569.194 109.233 560.467 Q109.233 551.717 112.288 547.134 Q115.367 542.528 121.177 542.528 Z" fill="#000000" fill-rule="evenodd" fill-opacity="1" /><path clip-path="url(#clip100)" d="M151.339 546.231 Q147.728 546.231 145.899 549.796 Q144.093 553.338 144.093 560.467 Q144.093 567.574 145.899 571.139 Q147.728 574.68 151.339 574.68 Q154.973 574.68 156.779 571.139 Q158.607 567.574 158.607 560.467 Q158.607 553.338 156.779 549.796 Q154.973 546.231 151.339 546.231 M151.339 542.528 Q157.149 542.528 160.205 547.134 Q163.283 551.717 163.283 560.467 Q163.283 569.194 160.205 573.801 Q157.149 578.384 151.339 578.384 Q145.529 578.384 142.45 573.801 Q139.394 569.194 139.394 560.467 Q139.394 551.717 142.45 547.134 Q145.529 542.528 151.339 542.528 Z" fill="#000000" fill-rule="evenodd" fill-opacity="1" /><path clip-path="url(#clip100)" d="M51.6634 112.151 L59.3023 112.151 L59.3023 85.7857 L50.9921 87.4524 L50.9921 83.1932 L59.256 81.5265 L63.9319 81.5265 L63.9319 112.151 L71.5707 112.151 L71.5707 116.087 L51.6634 116.087 L51.6634 112.151 Z" fill="#000000" fill-rule="evenodd" fill-opacity="1" /><path clip-path="url(#clip100)" d="M81.0614 81.5265 L99.4178 81.5265 L99.4178 85.4617 L85.3438 85.4617 L85.3438 93.9339 Q86.3623 93.5866 87.3808 93.4246 Q88.3993 93.2394 89.4178 93.2394 Q95.2049 93.2394 98.5845 96.4107 Q101.964 99.582 101.964 104.999 Q101.964 110.577 98.4919 113.679 Q95.0197 116.758 88.7003 116.758 Q86.5243 116.758 84.2558 116.387 Q82.0105 116.017 79.6031 115.276 L79.6031 110.577 Q81.6864 111.712 83.9086 112.267 Q86.1308 112.823 88.6077 112.823 Q92.6123 112.823 94.9502 110.716 Q97.2882 108.61 97.2882 104.999 Q97.2882 101.388 94.9502 99.281 Q92.6123 97.1746 88.6077 97.1746 Q86.7327 97.1746 84.8577 97.5912 Q83.0058 98.0079 81.0614 98.8875 L81.0614 81.5265 Z" fill="#000000" fill-rule="evenodd" fill-opacity="1" /><path clip-path="url(#clip100)" d="M121.177 84.6052 Q117.566 84.6052 115.737 88.17 Q113.932 91.7116 113.932 98.8412 Q113.932 105.948 115.737 109.512 Q117.566 113.054 121.177 113.054 Q124.811 113.054 126.617 109.512 Q128.445 105.948 128.445 98.8412 Q128.445 91.7116 126.617 88.17 Q124.811 84.6052 121.177 84.6052 M121.177 80.9015 Q126.987 80.9015 130.043 85.508 Q133.121 90.0913 133.121 98.8412 Q133.121 107.568 130.043 112.174 Q126.987 116.758 121.177 116.758 Q115.367 116.758 112.288 112.174 Q109.233 107.568 109.233 98.8412 Q109.233 90.0913 112.288 85.508 Q115.367 80.9015 121.177 80.9015 Z" fill="#000000" fill-rule="evenodd" fill-opacity="1" /><path clip-path="url(#clip100)" d="M151.339 84.6052 Q147.728 84.6052 145.899 88.17 Q144.093 91.7116 144.093 98.8412 Q144.093 105.948 145.899 109.512 Q147.728 113.054 151.339 113.054 Q154.973 113.054 156.779 109.512 Q158.607 105.948 158.607 98.8412 Q158.607 91.7116 156.779 88.17 Q154.973 84.6052 151.339 84.6052 M151.339 80.9015 Q157.149 80.9015 160.205 85.508 Q163.283 90.0913 163.283 98.8412 Q163.283 107.568 160.205 112.174 Q157.149 116.758 151.339 116.758 Q145.529 116.758 142.45 112.174 Q139.394 107.568 139.394 98.8412 Q139.394 90.0913 142.45 85.508 Q145.529 80.9015 151.339 80.9015 Z" fill="#000000" fill-rule="evenodd" fill-opacity="1" /><circle clip-path="url(#clip102)" cx="260.231" cy="1303.56" r="14" fill="#009af9" fill-rule="evenodd" fill-opacity="1" stroke="#000000" stroke-opacity="1" stroke-width="3.2"/>
<circle clip-path="url(#clip102)" cx="301.691" cy="1283.7" r="14" fill="#009af9" fill-rule="evenodd" fill-opacity="1" stroke="#000000" stroke-opacity="1" stroke-width="3.2"/>
<circle clip-path="url(#clip102)" cx="343.152" cy="1285.49" r="14" fill="#009af9" fill-rule="evenodd" fill-opacity="1" stroke="#000000" stroke-opacity="1" stroke-width="3.2"/>
<circle clip-path="url(#clip102)" cx="384.613" cy="1269.95" r="14" fill="#009af9" fill-rule="evenodd" fill-opacity="1" stroke="#000000" stroke-opacity="1" stroke-width="3.2"/>
<circle clip-path="url(#clip102)" cx="426.074" cy="1212.28" r="14" fill="#009af9" fill-rule="evenodd" fill-opacity="1" stroke="#000000" stroke-opacity="1" stroke-width="3.2"/>
<circle clip-path="url(#clip102)" cx="467.534" cy="1185.9" r="14" fill="#009af9" fill-rule="evenodd" fill-opacity="1" stroke="#000000" stroke-opacity="1" stroke-width="3.2"/>
<circle clip-path="url(#clip102)" cx="508.995" cy="1128.2" r="14" fill="#009af9" fill-rule="evenodd" fill-opacity="1" stroke="#000000" stroke-opacity="1" stroke-width="3.2"/>
<circle clip-path="url(#clip102)" cx="550.456" cy="1138.68" r="14" fill="#009af9" fill-rule="evenodd" fill-opacity="1" stroke="#000000" stroke-opacity="1" stroke-width="3.2"/>
<circle clip-path="url(#clip102)" cx="591.917" cy="1149.72" r="14" fill="#009af9" fill-rule="evenodd" fill-opacity="1" stroke="#000000" stroke-opacity="1" stroke-width="3.2"/>
<circle clip-path="url(#clip102)" cx="633.378" cy="1118.95" r="14" fill="#009af9" fill-rule="evenodd" fill-opacity="1" stroke="#000000" stroke-opacity="1" stroke-width="3.2"/>
<circle clip-path="url(#clip102)" cx="674.838" cy="1191.34" r="14" fill="#009af9" fill-rule="evenodd" fill-opacity="1" stroke="#000000" stroke-opacity="1" stroke-width="3.2"/>
<circle clip-path="url(#clip102)" cx="716.299" cy="1055.86" r="14" fill="#009af9" fill-rule="evenodd" fill-opacity="1" stroke="#000000" stroke-opacity="1" stroke-width="3.2"/>
<circle clip-path="url(#clip102)" cx="757.76" cy="1027.37" r="14" fill="#009af9" fill-rule="evenodd" fill-opacity="1" stroke="#000000" stroke-opacity="1" stroke-width="3.2"/>
<circle clip-path="url(#clip102)" cx="799.221" cy="1082.49" r="14" fill="#009af9" fill-rule="evenodd" fill-opacity="1" stroke="#000000" stroke-opacity="1" stroke-width="3.2"/>
<circle clip-path="url(#clip102)" cx="840.681" cy="1034.62" r="14" fill="#009af9" fill-rule="evenodd" fill-opacity="1" stroke="#000000" stroke-opacity="1" stroke-width="3.2"/>
<circle clip-path="url(#clip102)" cx="882.142" cy="1004.94" r="14" fill="#009af9" fill-rule="evenodd" fill-opacity="1" stroke="#000000" stroke-opacity="1" stroke-width="3.2"/>
<circle clip-path="url(#clip102)" cx="923.603" cy="860.905" r="14" fill="#009af9" fill-rule="evenodd" fill-opacity="1" stroke="#000000" stroke-opacity="1" stroke-width="3.2"/>
<circle clip-path="url(#clip102)" cx="965.064" cy="977.486" r="14" fill="#009af9" fill-rule="evenodd" fill-opacity="1" stroke="#000000" stroke-opacity="1" stroke-width="3.2"/>
<circle clip-path="url(#clip102)" cx="1006.52" cy="917.22" r="14" fill="#009af9" fill-rule="evenodd" fill-opacity="1" stroke="#000000" stroke-opacity="1" stroke-width="3.2"/>
<circle clip-path="url(#clip102)" cx="1047.99" cy="885.297" r="14" fill="#009af9" fill-rule="evenodd" fill-opacity="1" stroke="#000000" stroke-opacity="1" stroke-width="3.2"/>
<circle clip-path="url(#clip102)" cx="1089.45" cy="863.485" r="14" fill="#009af9" fill-rule="evenodd" fill-opacity="1" stroke="#000000" stroke-opacity="1" stroke-width="3.2"/>
<circle clip-path="url(#clip102)" cx="1130.91" cy="774.929" r="14" fill="#009af9" fill-rule="evenodd" fill-opacity="1" stroke="#000000" stroke-opacity="1" stroke-width="3.2"/>
<circle clip-path="url(#clip102)" cx="1172.37" cy="816.021" r="14" fill="#009af9" fill-rule="evenodd" fill-opacity="1" stroke="#000000" stroke-opacity="1" stroke-width="3.2"/>
<circle clip-path="url(#clip102)" cx="1213.83" cy="743.081" r="14" fill="#009af9" fill-rule="evenodd" fill-opacity="1" stroke="#000000" stroke-opacity="1" stroke-width="3.2"/>
<circle clip-path="url(#clip102)" cx="1255.29" cy="774.657" r="14" fill="#009af9" fill-rule="evenodd" fill-opacity="1" stroke="#000000" stroke-opacity="1" stroke-width="3.2"/>
<circle clip-path="url(#clip102)" cx="1296.75" cy="766.889" r="14" fill="#009af9" fill-rule="evenodd" fill-opacity="1" stroke="#000000" stroke-opacity="1" stroke-width="3.2"/>
<circle clip-path="url(#clip102)" cx="1338.21" cy="768.984" r="14" fill="#009af9" fill-rule="evenodd" fill-opacity="1" stroke="#000000" stroke-opacity="1" stroke-width="3.2"/>
<circle clip-path="url(#clip102)" cx="1379.67" cy="812.288" r="14" fill="#009af9" fill-rule="evenodd" fill-opacity="1" stroke="#000000" stroke-opacity="1" stroke-width="3.2"/>
<circle clip-path="url(#clip102)" cx="1421.13" cy="497.661" r="14" fill="#009af9" fill-rule="evenodd" fill-opacity="1" stroke="#000000" stroke-opacity="1" stroke-width="3.2"/>
<circle clip-path="url(#clip102)" cx="1462.59" cy="738.19" r="14" fill="#009af9" fill-rule="evenodd" fill-opacity="1" stroke="#000000" stroke-opacity="1" stroke-width="3.2"/>
<circle clip-path="url(#clip102)" cx="1504.05" cy="832.08" r="14" fill="#009af9" fill-rule="evenodd" fill-opacity="1" stroke="#000000" stroke-opacity="1" stroke-width="3.2"/>
<circle clip-path="url(#clip102)" cx="1545.51" cy="534.267" r="14" fill="#009af9" fill-rule="evenodd" fill-opacity="1" stroke="#000000" stroke-opacity="1" stroke-width="3.2"/>
<circle clip-path="url(#clip102)" cx="1586.98" cy="554.516" r="14" fill="#009af9" fill-rule="evenodd" fill-opacity="1" stroke="#000000" stroke-opacity="1" stroke-width="3.2"/>
<circle clip-path="url(#clip102)" cx="1628.44" cy="659.794" r="14" fill="#009af9" fill-rule="evenodd" fill-opacity="1" stroke="#000000" stroke-opacity="1" stroke-width="3.2"/>
<circle clip-path="url(#clip102)" cx="1669.9" cy="660.666" r="14" fill="#009af9" fill-rule="evenodd" fill-opacity="1" stroke="#000000" stroke-opacity="1" stroke-width="3.2"/>
<circle clip-path="url(#clip102)" cx="1711.36" cy="533.492" r="14" fill="#009af9" fill-rule="evenodd" fill-opacity="1" stroke="#000000" stroke-opacity="1" stroke-width="3.2"/>
<circle clip-path="url(#clip102)" cx="1752.82" cy="328.665" r="14" fill="#009af9" fill-rule="evenodd" fill-opacity="1" stroke="#000000" stroke-opacity="1" stroke-width="3.2"/>
<circle clip-path="url(#clip102)" cx="1794.28" cy="457.016" r="14" fill="#009af9" fill-rule="evenodd" fill-opacity="1" stroke="#000000" stroke-opacity="1" stroke-width="3.2"/>
<circle clip-path="url(#clip102)" cx="1835.74" cy="301.249" r="14" fill="#009af9" fill-rule="evenodd" fill-opacity="1" stroke="#000000" stroke-opacity="1" stroke-width="3.2"/>
<circle clip-path="url(#clip102)" cx="1877.2" cy="620.712" r="14" fill="#009af9" fill-rule="evenodd" fill-opacity="1" stroke="#000000" stroke-opacity="1" stroke-width="3.2"/>
<circle clip-path="url(#clip102)" cx="1918.66" cy="520.814" r="14" fill="#009af9" fill-rule="evenodd" fill-opacity="1" stroke="#000000" stroke-opacity="1" stroke-width="3.2"/>
<circle clip-path="url(#clip102)" cx="1960.12" cy="87.9763" r="14" fill="#009af9" fill-rule="evenodd" fill-opacity="1" stroke="#000000" stroke-opacity="1" stroke-width="3.2"/>
<circle clip-path="url(#clip102)" cx="2001.58" cy="169.262" r="14" fill="#009af9" fill-rule="evenodd" fill-opacity="1" stroke="#000000" stroke-opacity="1" stroke-width="3.2"/>
<circle clip-path="url(#clip102)" cx="2043.04" cy="449.526" r="14" fill="#009af9" fill-rule="evenodd" fill-opacity="1" stroke="#000000" stroke-opacity="1" stroke-width="3.2"/>
<circle clip-path="url(#clip102)" cx="2084.5" cy="425.186" r="14" fill="#009af9" fill-rule="evenodd" fill-opacity="1" stroke="#000000" stroke-opacity="1" stroke-width="3.2"/>
<circle clip-path="url(#clip102)" cx="2125.97" cy="300.543" r="14" fill="#009af9" fill-rule="evenodd" fill-opacity="1" stroke="#000000" stroke-opacity="1" stroke-width="3.2"/>
<circle clip-path="url(#clip102)" cx="2167.43" cy="167.43" r="14" fill="#009af9" fill-rule="evenodd" fill-opacity="1" stroke="#000000" stroke-opacity="1" stroke-width="3.2"/>
<circle clip-path="url(#clip102)" cx="2208.89" cy="435.175" r="14" fill="#009af9" fill-rule="evenodd" fill-opacity="1" stroke="#000000" stroke-opacity="1" stroke-width="3.2"/>
<circle clip-path="url(#clip102)" cx="2250.35" cy="158.908" r="14" fill="#009af9" fill-rule="evenodd" fill-opacity="1" stroke="#000000" stroke-opacity="1" stroke-width="3.2"/>
<circle clip-path="url(#clip102)" cx="2291.81" cy="258.434" r="14" fill="#009af9" fill-rule="evenodd" fill-opacity="1" stroke="#000000" stroke-opacity="1" stroke-width="3.2"/>
<polyline clip-path="url(#clip102)" style="stroke:#e26f46; stroke-linecap:butt; stroke-linejoin:round; stroke-width:4; stroke-opacity:1; fill:none" points="
  260.231,1322.12 301.691,1299.03 343.152,1275.95 384.613,1252.87 426.074,1229.79 467.534,1206.71 508.995,1183.63 550.456,1160.55 591.917,1137.47 633.378,1114.38 
  674.838,1091.3 716.299,1068.22 757.76,1045.14 799.221,1022.06 840.681,998.978 882.142,975.896 923.603,952.815 965.064,929.734 1006.52,906.652 1047.99,883.571 
  1089.45,860.49 1130.91,837.408 1172.37,814.327 1213.83,791.246 1255.29,768.164 1296.75,745.083 1338.21,722.002 1379.67,698.921 1421.13,675.839 1462.59,652.758 
  1504.05,629.677 1545.51,606.595 1586.98,583.514 1628.44,560.433 1669.9,537.351 1711.36,514.27 1752.82,491.189 1794.28,468.107 1835.74,445.026 1877.2,421.945 
  1918.66,398.864 1960.12,375.782 2001.58,352.701 2043.04,329.62 2084.5,306.538 2125.97,283.457 2167.43,260.376 2208.89,237.294 2250.35,214.213 2291.81,191.132 
  
  "/>
<polyline clip-path="url(#clip102)" style="stroke:#3da44d; stroke-linecap:butt; stroke-linejoin:round; stroke-width:4; stroke-opacity:1; fill:none" points="
  260.231,1445.72 301.691,1419.09 343.152,1392.47 384.613,1365.85 426.074,1339.23 467.534,1312.6 508.995,1285.98 550.456,1259.36 591.917,1232.74 633.378,1206.12 
  674.838,1179.49 716.299,1152.87 757.76,1126.25 799.221,1099.63 840.681,1073.01 882.142,1046.38 923.603,1019.76 965.064,993.139 1006.52,966.517 1047.99,939.895 
  1089.45,913.272 1130.91,886.65 1172.37,860.028 1213.83,833.406 1255.29,806.784 1296.75,780.162 1338.21,753.539 1379.67,726.917 1421.13,700.295 1462.59,673.673 
  1504.05,647.051 1545.51,620.429 1586.98,593.806 1628.44,567.184 1669.9,540.562 1711.36,513.94 1752.82,487.318 1794.28,460.696 1835.74,434.073 1877.2,407.451 
  1918.66,380.829 1960.12,354.207 2001.58,327.585 2043.04,300.963 2084.5,274.34 2125.97,247.718 2167.43,221.096 2208.89,194.474 2250.35,167.852 2291.81,141.23 
  
  "/>
<path clip-path="url(#clip100)" d="
M271.066 302.578 L781.103 302.578 L781.103 95.2176 L271.066 95.2176  Z
  " fill="#ffffff" fill-rule="evenodd" fill-opacity="1"/>
<polyline clip-path="url(#clip100)" style="stroke:#000000; stroke-linecap:butt; stroke-linejoin:round; stroke-width:4; stroke-opacity:1; fill:none" points="
  271.066,302.578 781.103,302.578 781.103,95.2176 271.066,95.2176 271.066,302.578 
  "/>
<circle clip-path="url(#clip100)" cx="366.776" cy="147.058" r="23" fill="#009af9" fill-rule="evenodd" fill-opacity="1" stroke="#000000" stroke-opacity="1" stroke-width="5.12"/>
<path clip-path="url(#clip100)" d="M462.485 129.778 L491.721 129.778 L491.721 133.713 L479.453 133.713 L479.453 164.338 L474.754 164.338 L474.754 133.713 L462.485 133.713 L462.485 129.778 Z" fill="#000000" fill-rule="evenodd" fill-opacity="1" /><path clip-path="url(#clip100)" d="M499.985 151.305 Q494.823 151.305 492.832 152.486 Q490.842 153.666 490.842 156.514 Q490.842 158.782 492.323 160.125 Q493.828 161.444 496.397 161.444 Q499.939 161.444 502.069 158.944 Q504.221 156.421 504.221 152.254 L504.221 151.305 L499.985 151.305 M508.481 149.546 L508.481 164.338 L504.221 164.338 L504.221 160.402 Q502.763 162.763 500.587 163.898 Q498.411 165.009 495.263 165.009 Q491.282 165.009 488.92 162.787 Q486.583 160.541 486.583 156.791 Q486.583 152.416 489.499 150.194 Q492.439 147.972 498.249 147.972 L504.221 147.972 L504.221 147.555 Q504.221 144.615 502.277 143.018 Q500.356 141.398 496.86 141.398 Q494.638 141.398 492.532 141.93 Q490.425 142.463 488.481 143.527 L488.481 139.592 Q490.819 138.69 493.018 138.25 Q495.217 137.787 497.3 137.787 Q502.925 137.787 505.703 140.703 Q508.481 143.62 508.481 149.546 Z" fill="#000000" fill-rule="evenodd" fill-opacity="1" /><path clip-path="url(#clip100)" d="M532.277 142.393 Q531.559 141.977 530.703 141.791 Q529.869 141.583 528.851 141.583 Q525.24 141.583 523.295 143.944 Q521.374 146.282 521.374 150.68 L521.374 164.338 L517.092 164.338 L517.092 138.412 L521.374 138.412 L521.374 142.44 Q522.717 140.078 524.869 138.944 Q527.022 137.787 530.101 137.787 Q530.541 137.787 531.073 137.856 Q531.605 137.903 532.254 138.018 L532.277 142.393 Z" fill="#000000" fill-rule="evenodd" fill-opacity="1" /><path clip-path="url(#clip100)" d="M552.971 151.074 Q552.971 146.444 551.05 143.898 Q549.152 141.352 545.703 141.352 Q542.277 141.352 540.355 143.898 Q538.457 146.444 538.457 151.074 Q538.457 155.68 540.355 158.226 Q542.277 160.773 545.703 160.773 Q549.152 160.773 551.05 158.226 Q552.971 155.68 552.971 151.074 M557.23 161.12 Q557.23 167.74 554.29 170.958 Q551.351 174.199 545.286 174.199 Q543.041 174.199 541.05 173.851 Q539.059 173.527 537.184 172.833 L537.184 168.689 Q539.059 169.708 540.888 170.194 Q542.716 170.68 544.615 170.68 Q548.804 170.68 550.888 168.481 Q552.971 166.305 552.971 161.884 L552.971 159.777 Q551.652 162.069 549.591 163.203 Q547.531 164.338 544.661 164.338 Q539.892 164.338 536.976 160.703 Q534.059 157.069 534.059 151.074 Q534.059 145.055 536.976 141.421 Q539.892 137.787 544.661 137.787 Q547.531 137.787 549.591 138.921 Q551.652 140.055 552.971 142.347 L552.971 138.412 L557.23 138.412 L557.23 161.12 Z" fill="#000000" fill-rule="evenodd" fill-opacity="1" /><path clip-path="url(#clip100)" d="M588.179 150.31 L588.179 152.393 L568.596 152.393 Q568.874 156.791 571.235 159.106 Q573.619 161.398 577.855 161.398 Q580.309 161.398 582.601 160.796 Q584.915 160.194 587.184 158.99 L587.184 163.018 Q584.892 163.99 582.485 164.5 Q580.077 165.009 577.601 165.009 Q571.397 165.009 567.763 161.398 Q564.152 157.787 564.152 151.629 Q564.152 145.264 567.577 141.537 Q571.026 137.787 576.86 137.787 Q582.091 137.787 585.124 141.166 Q588.179 144.523 588.179 150.31 M583.92 149.06 Q583.874 145.565 581.952 143.481 Q580.054 141.398 576.906 141.398 Q573.341 141.398 571.189 143.412 Q569.059 145.426 568.735 149.083 L583.92 149.06 Z" fill="#000000" fill-rule="evenodd" fill-opacity="1" /><path clip-path="url(#clip100)" d="M599.383 131.051 L599.383 138.412 L608.156 138.412 L608.156 141.722 L599.383 141.722 L599.383 155.796 Q599.383 158.967 600.239 159.87 Q601.119 160.773 603.781 160.773 L608.156 160.773 L608.156 164.338 L603.781 164.338 Q598.85 164.338 596.975 162.509 Q595.1 160.657 595.1 155.796 L595.1 141.722 L591.975 141.722 L591.975 138.412 L595.1 138.412 L595.1 131.051 L599.383 131.051 Z" fill="#000000" fill-rule="evenodd" fill-opacity="1" /><path clip-path="url(#clip100)" d="M633.688 133.62 L633.688 160.495 L639.336 160.495 Q646.489 160.495 649.799 157.254 Q653.133 154.014 653.133 147.023 Q653.133 140.078 649.799 136.861 Q646.489 133.62 639.336 133.62 L633.688 133.62 M629.012 129.778 L638.619 129.778 Q648.665 129.778 653.364 133.967 Q658.063 138.134 658.063 147.023 Q658.063 155.958 653.341 160.148 Q648.619 164.338 638.619 164.338 L629.012 164.338 L629.012 129.778 Z" fill="#000000" fill-rule="evenodd" fill-opacity="1" /><path clip-path="url(#clip100)" d="M677.114 151.305 Q671.952 151.305 669.961 152.486 Q667.97 153.666 667.97 156.514 Q667.97 158.782 669.452 160.125 Q670.957 161.444 673.526 161.444 Q677.068 161.444 679.197 158.944 Q681.35 156.421 681.35 152.254 L681.35 151.305 L677.114 151.305 M685.609 149.546 L685.609 164.338 L681.35 164.338 L681.35 160.402 Q679.892 162.763 677.716 163.898 Q675.54 165.009 672.392 165.009 Q668.41 165.009 666.049 162.787 Q663.711 160.541 663.711 156.791 Q663.711 152.416 666.628 150.194 Q669.568 147.972 675.378 147.972 L681.35 147.972 L681.35 147.555 Q681.35 144.615 679.406 143.018 Q677.484 141.398 673.989 141.398 Q671.767 141.398 669.66 141.93 Q667.554 142.463 665.609 143.527 L665.609 139.592 Q667.947 138.69 670.146 138.25 Q672.345 137.787 674.429 137.787 Q680.054 137.787 682.831 140.703 Q685.609 143.62 685.609 149.546 Z" fill="#000000" fill-rule="evenodd" fill-opacity="1" /><path clip-path="url(#clip100)" d="M698.595 131.051 L698.595 138.412 L707.368 138.412 L707.368 141.722 L698.595 141.722 L698.595 155.796 Q698.595 158.967 699.452 159.87 Q700.331 160.773 702.993 160.773 L707.368 160.773 L707.368 164.338 L702.993 164.338 Q698.063 164.338 696.188 162.509 Q694.313 160.657 694.313 155.796 L694.313 141.722 L691.188 141.722 L691.188 138.412 L694.313 138.412 L694.313 131.051 L698.595 131.051 Z" fill="#000000" fill-rule="evenodd" fill-opacity="1" /><path clip-path="url(#clip100)" d="M724.753 151.305 Q719.591 151.305 717.6 152.486 Q715.609 153.666 715.609 156.514 Q715.609 158.782 717.091 160.125 Q718.595 161.444 721.165 161.444 Q724.706 161.444 726.836 158.944 Q728.989 156.421 728.989 152.254 L728.989 151.305 L724.753 151.305 M733.248 149.546 L733.248 164.338 L728.989 164.338 L728.989 160.402 Q727.53 162.763 725.354 163.898 Q723.178 165.009 720.03 165.009 Q716.049 165.009 713.688 162.787 Q711.35 160.541 711.35 156.791 Q711.35 152.416 714.266 150.194 Q717.206 147.972 723.016 147.972 L728.989 147.972 L728.989 147.555 Q728.989 144.615 727.044 143.018 Q725.123 141.398 721.628 141.398 Q719.405 141.398 717.299 141.93 Q715.192 142.463 713.248 143.527 L713.248 139.592 Q715.586 138.69 717.785 138.25 Q719.984 137.787 722.067 137.787 Q727.692 137.787 730.47 140.703 Q733.248 143.62 733.248 149.546 Z" fill="#000000" fill-rule="evenodd" fill-opacity="1" /><polyline clip-path="url(#clip100)" style="stroke:#e26f46; stroke-linecap:butt; stroke-linejoin:round; stroke-width:4; stroke-opacity:1; fill:none" points="
  294.993,198.898 438.558,198.898 
  "/>
<path clip-path="url(#clip100)" d="M462.485 181.618 L491.721 181.618 L491.721 185.553 L479.453 185.553 L479.453 216.178 L474.754 216.178 L474.754 185.553 L462.485 185.553 L462.485 181.618 Z" fill="#000000" fill-rule="evenodd" fill-opacity="1" /><path clip-path="url(#clip100)" d="M499.985 203.145 Q494.823 203.145 492.832 204.326 Q490.842 205.506 490.842 208.354 Q490.842 210.622 492.323 211.965 Q493.828 213.284 496.397 213.284 Q499.939 213.284 502.069 210.784 Q504.221 208.261 504.221 204.094 L504.221 203.145 L499.985 203.145 M508.481 201.386 L508.481 216.178 L504.221 216.178 L504.221 212.242 Q502.763 214.603 500.587 215.738 Q498.411 216.849 495.263 216.849 Q491.282 216.849 488.92 214.627 Q486.583 212.381 486.583 208.631 Q486.583 204.256 489.499 202.034 Q492.439 199.812 498.249 199.812 L504.221 199.812 L504.221 199.395 Q504.221 196.455 502.277 194.858 Q500.356 193.238 496.86 193.238 Q494.638 193.238 492.532 193.77 Q490.425 194.303 488.481 195.367 L488.481 191.432 Q490.819 190.53 493.018 190.09 Q495.217 189.627 497.3 189.627 Q502.925 189.627 505.703 192.543 Q508.481 195.46 508.481 201.386 Z" fill="#000000" fill-rule="evenodd" fill-opacity="1" /><path clip-path="url(#clip100)" d="M532.277 194.233 Q531.559 193.817 530.703 193.631 Q529.869 193.423 528.851 193.423 Q525.24 193.423 523.295 195.784 Q521.374 198.122 521.374 202.52 L521.374 216.178 L517.092 216.178 L517.092 190.252 L521.374 190.252 L521.374 194.28 Q522.717 191.918 524.869 190.784 Q527.022 189.627 530.101 189.627 Q530.541 189.627 531.073 189.696 Q531.605 189.743 532.254 189.858 L532.277 194.233 Z" fill="#000000" fill-rule="evenodd" fill-opacity="1" /><path clip-path="url(#clip100)" d="M552.971 202.914 Q552.971 198.284 551.05 195.738 Q549.152 193.192 545.703 193.192 Q542.277 193.192 540.355 195.738 Q538.457 198.284 538.457 202.914 Q538.457 207.52 540.355 210.066 Q542.277 212.613 545.703 212.613 Q549.152 212.613 551.05 210.066 Q552.971 207.52 552.971 202.914 M557.23 212.96 Q557.23 219.58 554.29 222.798 Q551.351 226.039 545.286 226.039 Q543.041 226.039 541.05 225.691 Q539.059 225.367 537.184 224.673 L537.184 220.529 Q539.059 221.548 540.888 222.034 Q542.716 222.52 544.615 222.52 Q548.804 222.52 550.888 220.321 Q552.971 218.145 552.971 213.724 L552.971 211.617 Q551.652 213.909 549.591 215.043 Q547.531 216.178 544.661 216.178 Q539.892 216.178 536.976 212.543 Q534.059 208.909 534.059 202.914 Q534.059 196.895 536.976 193.261 Q539.892 189.627 544.661 189.627 Q547.531 189.627 549.591 190.761 Q551.652 191.895 552.971 194.187 L552.971 190.252 L557.23 190.252 L557.23 212.96 Z" fill="#000000" fill-rule="evenodd" fill-opacity="1" /><path clip-path="url(#clip100)" d="M588.179 202.15 L588.179 204.233 L568.596 204.233 Q568.874 208.631 571.235 210.946 Q573.619 213.238 577.855 213.238 Q580.309 213.238 582.601 212.636 Q584.915 212.034 587.184 210.83 L587.184 214.858 Q584.892 215.83 582.485 216.34 Q580.077 216.849 577.601 216.849 Q571.397 216.849 567.763 213.238 Q564.152 209.627 564.152 203.469 Q564.152 197.104 567.577 193.377 Q571.026 189.627 576.86 189.627 Q582.091 189.627 585.124 193.006 Q588.179 196.363 588.179 202.15 M583.92 200.9 Q583.874 197.405 581.952 195.321 Q580.054 193.238 576.906 193.238 Q573.341 193.238 571.189 195.252 Q569.059 197.266 568.735 200.923 L583.92 200.9 Z" fill="#000000" fill-rule="evenodd" fill-opacity="1" /><path clip-path="url(#clip100)" d="M599.383 182.891 L599.383 190.252 L608.156 190.252 L608.156 193.562 L599.383 193.562 L599.383 207.636 Q599.383 210.807 600.239 211.71 Q601.119 212.613 603.781 212.613 L608.156 212.613 L608.156 216.178 L603.781 216.178 Q598.85 216.178 596.975 214.349 Q595.1 212.497 595.1 207.636 L595.1 193.562 L591.975 193.562 L591.975 190.252 L595.1 190.252 L595.1 182.891 L599.383 182.891 Z" fill="#000000" fill-rule="evenodd" fill-opacity="1" /><path clip-path="url(#clip100)" d="M629.012 181.618 L633.688 181.618 L633.688 212.242 L650.517 212.242 L650.517 216.178 L629.012 216.178 L629.012 181.618 Z" fill="#000000" fill-rule="evenodd" fill-opacity="1" /><path clip-path="url(#clip100)" d="M655.239 190.252 L659.498 190.252 L659.498 216.178 L655.239 216.178 L655.239 190.252 M655.239 180.159 L659.498 180.159 L659.498 185.553 L655.239 185.553 L655.239 180.159 Z" fill="#000000" fill-rule="evenodd" fill-opacity="1" /><path clip-path="url(#clip100)" d="M689.961 200.529 L689.961 216.178 L685.702 216.178 L685.702 200.668 Q685.702 196.988 684.267 195.159 Q682.831 193.33 679.961 193.33 Q676.512 193.33 674.521 195.53 Q672.531 197.729 672.531 201.525 L672.531 216.178 L668.248 216.178 L668.248 190.252 L672.531 190.252 L672.531 194.28 Q674.058 191.942 676.119 190.784 Q678.202 189.627 680.91 189.627 Q685.378 189.627 687.669 192.405 Q689.961 195.159 689.961 200.529 Z" fill="#000000" fill-rule="evenodd" fill-opacity="1" /><path clip-path="url(#clip100)" d="M720.632 202.15 L720.632 204.233 L701.049 204.233 Q701.327 208.631 703.688 210.946 Q706.072 213.238 710.308 213.238 Q712.762 213.238 715.054 212.636 Q717.368 212.034 719.637 210.83 L719.637 214.858 Q717.345 215.83 714.938 216.34 Q712.53 216.849 710.054 216.849 Q703.85 216.849 700.216 213.238 Q696.605 209.627 696.605 203.469 Q696.605 197.104 700.03 193.377 Q703.479 189.627 709.313 189.627 Q714.544 189.627 717.577 193.006 Q720.632 196.363 720.632 202.15 M716.373 200.9 Q716.327 197.405 714.405 195.321 Q712.507 193.238 709.359 193.238 Q705.794 193.238 703.642 195.252 Q701.512 197.266 701.188 200.923 L716.373 200.9 Z" fill="#000000" fill-rule="evenodd" fill-opacity="1" /><polyline clip-path="url(#clip100)" style="stroke:#3da44d; stroke-linecap:butt; stroke-linejoin:round; stroke-width:4; stroke-opacity:1; fill:none" points="
  294.993,250.738 438.558,250.738 
  "/>
<path clip-path="url(#clip100)" d="M467.161 237.3 L467.161 250.286 L473.041 250.286 Q476.305 250.286 478.087 248.596 Q479.87 246.907 479.87 243.782 Q479.87 240.68 478.087 238.99 Q476.305 237.3 473.041 237.3 L467.161 237.3 M462.485 233.458 L473.041 233.458 Q478.851 233.458 481.814 236.096 Q484.8 238.712 484.8 243.782 Q484.8 248.897 481.814 251.513 Q478.851 254.129 473.041 254.129 L467.161 254.129 L467.161 268.018 L462.485 268.018 L462.485 233.458 Z" fill="#000000" fill-rule="evenodd" fill-opacity="1" /><path clip-path="url(#clip100)" d="M505.078 246.073 Q504.36 245.657 503.504 245.471 Q502.67 245.263 501.652 245.263 Q498.041 245.263 496.096 247.624 Q494.175 249.962 494.175 254.36 L494.175 268.018 L489.893 268.018 L489.893 242.092 L494.175 242.092 L494.175 246.12 Q495.518 243.758 497.67 242.624 Q499.823 241.467 502.902 241.467 Q503.342 241.467 503.874 241.536 Q504.406 241.583 505.055 241.698 L505.078 246.073 Z" fill="#000000" fill-rule="evenodd" fill-opacity="1" /><path clip-path="url(#clip100)" d="M530.679 253.99 L530.679 256.073 L511.096 256.073 Q511.374 260.471 513.735 262.786 Q516.119 265.078 520.355 265.078 Q522.809 265.078 525.101 264.476 Q527.416 263.874 529.684 262.67 L529.684 266.698 Q527.392 267.67 524.985 268.18 Q522.578 268.689 520.101 268.689 Q513.897 268.689 510.263 265.078 Q506.652 261.467 506.652 255.309 Q506.652 248.944 510.078 245.217 Q513.527 241.467 519.36 241.467 Q524.592 241.467 527.624 244.846 Q530.679 248.203 530.679 253.99 M526.42 252.74 Q526.374 249.245 524.453 247.161 Q522.555 245.078 519.406 245.078 Q515.842 245.078 513.689 247.092 Q511.559 249.106 511.235 252.763 L526.42 252.74 Z" fill="#000000" fill-rule="evenodd" fill-opacity="1" /><path clip-path="url(#clip100)" d="M554.73 246.027 L554.73 231.999 L558.99 231.999 L558.99 268.018 L554.73 268.018 L554.73 264.129 Q553.388 266.443 551.328 267.578 Q549.291 268.689 546.42 268.689 Q541.721 268.689 538.758 264.939 Q535.818 261.189 535.818 255.078 Q535.818 248.967 538.758 245.217 Q541.721 241.467 546.42 241.467 Q549.291 241.467 551.328 242.601 Q553.388 243.712 554.73 246.027 M540.216 255.078 Q540.216 259.777 542.138 262.462 Q544.082 265.124 547.462 265.124 Q550.841 265.124 552.786 262.462 Q554.73 259.777 554.73 255.078 Q554.73 250.379 552.786 247.717 Q550.841 245.032 547.462 245.032 Q544.082 245.032 542.138 247.717 Q540.216 250.379 540.216 255.078 Z" fill="#000000" fill-rule="evenodd" fill-opacity="1" /><path clip-path="url(#clip100)" d="M567.763 242.092 L572.022 242.092 L572.022 268.018 L567.763 268.018 L567.763 242.092 M567.763 231.999 L572.022 231.999 L572.022 237.393 L567.763 237.393 L567.763 231.999 Z" fill="#000000" fill-rule="evenodd" fill-opacity="1" /><path clip-path="url(#clip100)" d="M599.591 243.087 L599.591 247.069 Q597.786 246.073 595.957 245.587 Q594.151 245.078 592.3 245.078 Q588.156 245.078 585.864 247.717 Q583.573 250.332 583.573 255.078 Q583.573 259.823 585.864 262.462 Q588.156 265.078 592.3 265.078 Q594.151 265.078 595.957 264.592 Q597.786 264.082 599.591 263.087 L599.591 267.022 Q597.809 267.856 595.887 268.272 Q593.989 268.689 591.837 268.689 Q585.98 268.689 582.531 265.008 Q579.082 261.328 579.082 255.078 Q579.082 248.735 582.554 245.101 Q586.05 241.467 592.114 241.467 Q594.082 241.467 595.957 241.883 Q597.832 242.277 599.591 243.087 Z" fill="#000000" fill-rule="evenodd" fill-opacity="1" /><path clip-path="url(#clip100)" d="M611.211 234.731 L611.211 242.092 L619.985 242.092 L619.985 245.402 L611.211 245.402 L611.211 259.476 Q611.211 262.647 612.068 263.55 Q612.948 264.453 615.61 264.453 L619.985 264.453 L619.985 268.018 L615.61 268.018 Q610.679 268.018 608.804 266.189 Q606.929 264.337 606.929 259.476 L606.929 245.402 L603.804 245.402 L603.804 242.092 L606.929 242.092 L606.929 234.731 L611.211 234.731 Z" fill="#000000" fill-rule="evenodd" fill-opacity="1" /><path clip-path="url(#clip100)" d="M625.586 242.092 L629.846 242.092 L629.846 268.018 L625.586 268.018 L625.586 242.092 M625.586 231.999 L629.846 231.999 L629.846 237.393 L625.586 237.393 L625.586 231.999 Z" fill="#000000" fill-rule="evenodd" fill-opacity="1" /><path clip-path="url(#clip100)" d="M648.804 245.078 Q645.378 245.078 643.387 247.763 Q641.396 250.425 641.396 255.078 Q641.396 259.731 643.364 262.416 Q645.355 265.078 648.804 265.078 Q652.207 265.078 654.197 262.393 Q656.188 259.707 656.188 255.078 Q656.188 250.471 654.197 247.786 Q652.207 245.078 648.804 245.078 M648.804 241.467 Q654.359 241.467 657.531 245.078 Q660.702 248.689 660.702 255.078 Q660.702 261.444 657.531 265.078 Q654.359 268.689 648.804 268.689 Q643.225 268.689 640.054 265.078 Q636.906 261.444 636.906 255.078 Q636.906 248.689 640.054 245.078 Q643.225 241.467 648.804 241.467 Z" fill="#000000" fill-rule="evenodd" fill-opacity="1" /><path clip-path="url(#clip100)" d="M689.313 252.369 L689.313 268.018 L685.054 268.018 L685.054 252.508 Q685.054 248.828 683.618 246.999 Q682.183 245.17 679.313 245.17 Q675.864 245.17 673.873 247.37 Q671.882 249.569 671.882 253.365 L671.882 268.018 L667.6 268.018 L667.6 242.092 L671.882 242.092 L671.882 246.12 Q673.41 243.782 675.47 242.624 Q677.554 241.467 680.262 241.467 Q684.73 241.467 687.021 244.245 Q689.313 246.999 689.313 252.369 Z" fill="#000000" fill-rule="evenodd" fill-opacity="1" /></svg>
