<?xml version="1.0" encoding="utf-8"?>
<svg xmlns="http://www.w3.org/2000/svg" xmlns:xlink="http://www.w3.org/1999/xlink" width="600" height="400" viewBox="0 0 2400 1600">
<defs>
  <clipPath id="clip020">
    <rect x="0" y="0" width="2400" height="1600"/>
  </clipPath>
</defs>
<path clip-path="url(#clip020)" d="
M0 1600 L2400 1600 L2400 0 L0 0  Z
  " fill="#ffffff" fill-rule="evenodd" fill-opacity="1"/>
<defs>
  <clipPath id="clip021">
    <rect x="480" y="0" width="1681" height="1600"/>
  </clipPath>
</defs>
<path clip-path="url(#clip020)" d="
M199.283 1486.45 L2352.76 1486.45 L2352.76 47.2441 L199.283 47.2441  Z
  " fill="#ffffff" fill-rule="evenodd" fill-opacity="1"/>
<defs>
  <clipPath id="clip022">
    <rect x="199" y="47" width="2154" height="1440"/>
  </clipPath>
</defs>
<polyline clip-path="url(#clip022)" style="stroke:#000000; stroke-linecap:butt; stroke-linejoin:round; stroke-width:2; stroke-opacity:0.1; fill:none" points="
  218.77,1486.45 218.77,47.2441 
  "/>
<polyline clip-path="url(#clip022)" style="stroke:#000000; stroke-linecap:butt; stroke-linejoin:round; stroke-width:2; stroke-opacity:0.1; fill:none" points="
  633.378,1486.45 633.378,47.2441 
  "/>
<polyline clip-path="url(#clip022)" style="stroke:#000000; stroke-linecap:butt; stroke-linejoin:round; stroke-width:2; stroke-opacity:0.1; fill:none" points="
  1047.99,1486.45 1047.99,47.2441 
  "/>
<polyline clip-path="url(#clip022)" style="stroke:#000000; stroke-linecap:butt; stroke-linejoin:round; stroke-width:2; stroke-opacity:0.1; fill:none" points="
  1462.59,1486.45 1462.59,47.2441 
  "/>
<polyline clip-path="url(#clip022)" style="stroke:#000000; stroke-linecap:butt; stroke-linejoin:round; stroke-width:2; stroke-opacity:0.1; fill:none" points="
  1877.2,1486.45 1877.2,47.2441 
  "/>
<polyline clip-path="url(#clip022)" style="stroke:#000000; stroke-linecap:butt; stroke-linejoin:round; stroke-width:2; stroke-opacity:0.1; fill:none" points="
  2291.81,1486.45 2291.81,47.2441 
  "/>
<polyline clip-path="url(#clip020)" style="stroke:#000000; stroke-linecap:butt; stroke-linejoin:round; stroke-width:4; stroke-opacity:1; fill:none" points="
  199.283,1486.45 2352.76,1486.45 
  "/>
<polyline clip-path="url(#clip020)" style="stroke:#000000; stroke-linecap:butt; stroke-linejoin:round; stroke-width:4; stroke-opacity:1; fill:none" points="
  218.77,1486.45 218.77,1467.55 
  "/>
<polyline clip-path="url(#clip020)" style="stroke:#000000; stroke-linecap:butt; stroke-linejoin:round; stroke-width:4; stroke-opacity:1; fill:none" points="
  633.378,1486.45 633.378,1467.55 
  "/>
<polyline clip-path="url(#clip020)" style="stroke:#000000; stroke-linecap:butt; stroke-linejoin:round; stroke-width:4; stroke-opacity:1; fill:none" points="
  1047.99,1486.45 1047.99,1467.55 
  "/>
<polyline clip-path="url(#clip020)" style="stroke:#000000; stroke-linecap:butt; stroke-linejoin:round; stroke-width:4; stroke-opacity:1; fill:none" points="
  1462.59,1486.45 1462.59,1467.55 
  "/>
<polyline clip-path="url(#clip020)" style="stroke:#000000; stroke-linecap:butt; stroke-linejoin:round; stroke-width:4; stroke-opacity:1; fill:none" points="
  1877.2,1486.45 1877.2,1467.55 
  "/>
<polyline clip-path="url(#clip020)" style="stroke:#000000; stroke-linecap:butt; stroke-linejoin:round; stroke-width:4; stroke-opacity:1; fill:none" points="
  2291.81,1486.45 2291.81,1467.55 
  "/>
<path clip-path="url(#clip020)" d="M218.77 1517.37 Q215.159 1517.37 213.33 1520.93 Q211.524 1524.47 211.524 1531.6 Q211.524 1538.71 213.33 1542.27 Q215.159 1545.82 218.77 1545.82 Q222.404 1545.82 224.21 1542.27 Q226.038 1538.71 226.038 1531.6 Q226.038 1524.47 224.21 1520.93 Q222.404 1517.37 218.77 1517.37 M218.77 1513.66 Q224.58 1513.66 227.635 1518.27 Q230.714 1522.85 230.714 1531.6 Q230.714 1540.33 227.635 1544.94 Q224.58 1549.52 218.77 1549.52 Q212.96 1549.52 209.881 1544.94 Q206.825 1540.33 206.825 1531.6 Q206.825 1522.85 209.881 1518.27 Q212.96 1513.66 218.77 1513.66 Z" fill="#000000" fill-rule="evenodd" fill-opacity="1" /><path clip-path="url(#clip020)" d="M608.065 1544.91 L615.704 1544.91 L615.704 1518.55 L607.394 1520.21 L607.394 1515.95 L615.658 1514.29 L620.334 1514.29 L620.334 1544.91 L627.972 1544.91 L627.972 1548.85 L608.065 1548.85 L608.065 1544.91 Z" fill="#000000" fill-rule="evenodd" fill-opacity="1" /><path clip-path="url(#clip020)" d="M647.417 1517.37 Q643.806 1517.37 641.977 1520.93 Q640.171 1524.47 640.171 1531.6 Q640.171 1538.71 641.977 1542.27 Q643.806 1545.82 647.417 1545.82 Q651.051 1545.82 652.857 1542.27 Q654.685 1538.71 654.685 1531.6 Q654.685 1524.47 652.857 1520.93 Q651.051 1517.37 647.417 1517.37 M647.417 1513.66 Q653.227 1513.66 656.282 1518.27 Q659.361 1522.85 659.361 1531.6 Q659.361 1540.33 656.282 1544.94 Q653.227 1549.52 647.417 1549.52 Q641.607 1549.52 638.528 1544.94 Q635.472 1540.33 635.472 1531.6 Q635.472 1522.85 638.528 1518.27 Q641.607 1513.66 647.417 1513.66 Z" fill="#000000" fill-rule="evenodd" fill-opacity="1" /><path clip-path="url(#clip020)" d="M1026.76 1544.91 L1043.08 1544.91 L1043.08 1548.85 L1021.13 1548.85 L1021.13 1544.91 Q1023.8 1542.16 1028.38 1537.53 Q1032.99 1532.88 1034.17 1531.53 Q1036.41 1529.01 1037.29 1527.27 Q1038.19 1525.51 1038.19 1523.82 Q1038.19 1521.07 1036.25 1519.33 Q1034.33 1517.6 1031.23 1517.6 Q1029.03 1517.6 1026.57 1518.36 Q1024.14 1519.13 1021.37 1520.68 L1021.37 1515.95 Q1024.19 1514.82 1026.64 1514.24 Q1029.1 1513.66 1031.13 1513.66 Q1036.5 1513.66 1039.7 1516.35 Q1042.89 1519.03 1042.89 1523.52 Q1042.89 1525.65 1042.08 1527.57 Q1041.3 1529.47 1039.19 1532.07 Q1038.61 1532.74 1035.51 1535.95 Q1032.41 1539.15 1026.76 1544.91 Z" fill="#000000" fill-rule="evenodd" fill-opacity="1" /><path clip-path="url(#clip020)" d="M1062.89 1517.37 Q1059.28 1517.37 1057.45 1520.93 Q1055.65 1524.47 1055.65 1531.6 Q1055.65 1538.71 1057.45 1542.27 Q1059.28 1545.82 1062.89 1545.82 Q1066.53 1545.82 1068.33 1542.27 Q1070.16 1538.71 1070.16 1531.6 Q1070.16 1524.47 1068.33 1520.93 Q1066.53 1517.37 1062.89 1517.37 M1062.89 1513.66 Q1068.7 1513.66 1071.76 1518.27 Q1074.84 1522.85 1074.84 1531.6 Q1074.84 1540.33 1071.76 1544.94 Q1068.7 1549.52 1062.89 1549.52 Q1057.08 1549.52 1054 1544.94 Q1050.95 1540.33 1050.95 1531.6 Q1050.95 1522.85 1054 1518.27 Q1057.08 1513.66 1062.89 1513.66 Z" fill="#000000" fill-rule="evenodd" fill-opacity="1" /><path clip-path="url(#clip020)" d="M1451.44 1530.21 Q1454.79 1530.93 1456.67 1533.2 Q1458.57 1535.47 1458.57 1538.8 Q1458.57 1543.92 1455.05 1546.72 Q1451.53 1549.52 1445.05 1549.52 Q1442.87 1549.52 1440.56 1549.08 Q1438.26 1548.66 1435.81 1547.81 L1435.81 1543.29 Q1437.76 1544.43 1440.07 1545.01 Q1442.38 1545.58 1444.91 1545.58 Q1449.31 1545.58 1451.6 1543.85 Q1453.91 1542.11 1453.91 1538.8 Q1453.91 1535.75 1451.76 1534.03 Q1449.63 1532.3 1445.81 1532.3 L1441.78 1532.3 L1441.78 1528.45 L1446 1528.45 Q1449.44 1528.45 1451.27 1527.09 Q1453.1 1525.7 1453.1 1523.11 Q1453.1 1520.45 1451.2 1519.03 Q1449.33 1517.6 1445.81 1517.6 Q1443.89 1517.6 1441.69 1518.01 Q1439.49 1518.43 1436.85 1519.31 L1436.85 1515.14 Q1439.51 1514.4 1441.83 1514.03 Q1444.17 1513.66 1446.23 1513.66 Q1451.55 1513.66 1454.65 1516.09 Q1457.76 1518.5 1457.76 1522.62 Q1457.76 1525.49 1456.11 1527.48 Q1454.47 1529.45 1451.44 1530.21 Z" fill="#000000" fill-rule="evenodd" fill-opacity="1" /><path clip-path="url(#clip020)" d="M1477.43 1517.37 Q1473.82 1517.37 1471.99 1520.93 Q1470.19 1524.47 1470.19 1531.6 Q1470.19 1538.71 1471.99 1542.27 Q1473.82 1545.82 1477.43 1545.82 Q1481.07 1545.82 1482.87 1542.27 Q1484.7 1538.71 1484.7 1531.6 Q1484.7 1524.47 1482.87 1520.93 Q1481.07 1517.37 1477.43 1517.37 M1477.43 1513.66 Q1483.24 1513.66 1486.3 1518.27 Q1489.38 1522.85 1489.38 1531.6 Q1489.38 1540.33 1486.3 1544.94 Q1483.24 1549.52 1477.43 1549.52 Q1471.62 1549.52 1468.54 1544.94 Q1465.49 1540.33 1465.49 1531.6 Q1465.49 1522.85 1468.54 1518.27 Q1471.62 1513.66 1477.43 1513.66 Z" fill="#000000" fill-rule="evenodd" fill-opacity="1" /><path clip-path="url(#clip020)" d="M1865.37 1518.36 L1853.57 1536.81 L1865.37 1536.81 L1865.37 1518.36 M1864.15 1514.29 L1870.02 1514.29 L1870.02 1536.81 L1874.96 1536.81 L1874.96 1540.7 L1870.02 1540.7 L1870.02 1548.85 L1865.37 1548.85 L1865.37 1540.7 L1849.77 1540.7 L1849.77 1536.19 L1864.15 1514.29 Z" fill="#000000" fill-rule="evenodd" fill-opacity="1" /><path clip-path="url(#clip020)" d="M1892.69 1517.37 Q1889.08 1517.37 1887.25 1520.93 Q1885.44 1524.47 1885.44 1531.6 Q1885.44 1538.71 1887.25 1542.27 Q1889.08 1545.82 1892.69 1545.82 Q1896.32 1545.82 1898.13 1542.27 Q1899.96 1538.71 1899.96 1531.6 Q1899.96 1524.47 1898.13 1520.93 Q1896.32 1517.37 1892.69 1517.37 M1892.69 1513.66 Q1898.5 1513.66 1901.55 1518.27 Q1904.63 1522.85 1904.63 1531.6 Q1904.63 1540.33 1901.55 1544.94 Q1898.5 1549.52 1892.69 1549.52 Q1886.88 1549.52 1883.8 1544.94 Q1880.74 1540.33 1880.74 1531.6 Q1880.74 1522.85 1883.8 1518.27 Q1886.88 1513.66 1892.69 1513.66 Z" fill="#000000" fill-rule="evenodd" fill-opacity="1" /><path clip-path="url(#clip020)" d="M2266.51 1514.29 L2284.86 1514.29 L2284.86 1518.22 L2270.79 1518.22 L2270.79 1526.7 Q2271.81 1526.35 2272.83 1526.19 Q2273.85 1526 2274.86 1526 Q2280.65 1526 2284.03 1529.17 Q2287.41 1532.34 2287.41 1537.76 Q2287.41 1543.34 2283.94 1546.44 Q2280.47 1549.52 2274.15 1549.52 Q2271.97 1549.52 2269.7 1549.15 Q2267.46 1548.78 2265.05 1548.04 L2265.05 1543.34 Q2267.13 1544.47 2269.35 1545.03 Q2271.58 1545.58 2274.05 1545.58 Q2278.06 1545.58 2280.4 1543.48 Q2282.73 1541.37 2282.73 1537.76 Q2282.73 1534.15 2280.4 1532.04 Q2278.06 1529.94 2274.05 1529.94 Q2272.18 1529.94 2270.3 1530.35 Q2268.45 1530.77 2266.51 1531.65 L2266.51 1514.29 Z" fill="#000000" fill-rule="evenodd" fill-opacity="1" /><path clip-path="url(#clip020)" d="M2306.62 1517.37 Q2303.01 1517.37 2301.18 1520.93 Q2299.38 1524.47 2299.38 1531.6 Q2299.38 1538.71 2301.18 1542.27 Q2303.01 1545.82 2306.62 1545.82 Q2310.26 1545.82 2312.06 1542.27 Q2313.89 1538.71 2313.89 1531.6 Q2313.89 1524.47 2312.06 1520.93 Q2310.26 1517.37 2306.62 1517.37 M2306.62 1513.66 Q2312.43 1513.66 2315.49 1518.27 Q2318.57 1522.85 2318.57 1531.6 Q2318.57 1540.33 2315.49 1544.94 Q2312.43 1549.52 2306.62 1549.52 Q2300.81 1549.52 2297.73 1544.94 Q2294.68 1540.33 2294.68 1531.6 Q2294.68 1522.85 2297.73 1518.27 Q2300.81 1513.66 2306.62 1513.66 Z" fill="#000000" fill-rule="evenodd" fill-opacity="1" /><polyline clip-path="url(#clip022)" style="stroke:#000000; stroke-linecap:butt; stroke-linejoin:round; stroke-width:2; stroke-opacity:0.1; fill:none" points="
  199.283,1355.48 2352.76,1355.48 
  "/>
<polyline clip-path="url(#clip022)" style="stroke:#000000; stroke-linecap:butt; stroke-linejoin:round; stroke-width:2; stroke-opacity:0.1; fill:none" points="
  199.283,1162.23 2352.76,1162.23 
  "/>
<polyline clip-path="url(#clip022)" style="stroke:#000000; stroke-linecap:butt; stroke-linejoin:round; stroke-width:2; stroke-opacity:0.1; fill:none" points="
  199.283,968.969 2352.76,968.969 
  "/>
<polyline clip-path="url(#clip022)" style="stroke:#000000; stroke-linecap:butt; stroke-linejoin:round; stroke-width:2; stroke-opacity:0.1; fill:none" points="
  199.283,775.712 2352.76,775.712 
  "/>
<polyline clip-path="url(#clip022)" style="stroke:#000000; stroke-linecap:butt; stroke-linejoin:round; stroke-width:2; stroke-opacity:0.1; fill:none" points="
  199.283,582.455 2352.76,582.455 
  "/>
<polyline clip-path="url(#clip022)" style="stroke:#000000; stroke-linecap:butt; stroke-linejoin:round; stroke-width:2; stroke-opacity:0.1; fill:none" points="
  199.283,389.197 2352.76,389.197 
  "/>
<polyline clip-path="url(#clip022)" style="stroke:#000000; stroke-linecap:butt; stroke-linejoin:round; stroke-width:2; stroke-opacity:0.1; fill:none" points="
  199.283,195.94 2352.76,195.94 
  "/>
<polyline clip-path="url(#clip020)" style="stroke:#000000; stroke-linecap:butt; stroke-linejoin:round; stroke-width:4; stroke-opacity:1; fill:none" points="
  199.283,1486.45 199.283,47.2441 
  "/>
<polyline clip-path="url(#clip020)" style="stroke:#000000; stroke-linecap:butt; stroke-linejoin:round; stroke-width:4; stroke-opacity:1; fill:none" points="
  199.283,1355.48 218.181,1355.48 
  "/>
<polyline clip-path="url(#clip020)" style="stroke:#000000; stroke-linecap:butt; stroke-linejoin:round; stroke-width:4; stroke-opacity:1; fill:none" points="
  199.283,1162.23 218.181,1162.23 
  "/>
<polyline clip-path="url(#clip020)" style="stroke:#000000; stroke-linecap:butt; stroke-linejoin:round; stroke-width:4; stroke-opacity:1; fill:none" points="
  199.283,968.969 218.181,968.969 
  "/>
<polyline clip-path="url(#clip020)" style="stroke:#000000; stroke-linecap:butt; stroke-linejoin:round; stroke-width:4; stroke-opacity:1; fill:none" points="
  199.283,775.712 218.181,775.712 
  "/>
<polyline clip-path="url(#clip020)" style="stroke:#000000; stroke-linecap:butt; stroke-linejoin:round; stroke-width:4; stroke-opacity:1; fill:none" points="
  199.283,582.455 218.181,582.455 
  "/>
<polyline clip-path="url(#clip020)" style="stroke:#000000; stroke-linecap:butt; stroke-linejoin:round; stroke-width:4; stroke-opacity:1; fill:none" points="
  199.283,389.197 218.181,389.197 
  "/>
<polyline clip-path="url(#clip020)" style="stroke:#000000; stroke-linecap:butt; stroke-linejoin:round; stroke-width:4; stroke-opacity:1; fill:none" points="
  199.283,195.94 218.181,195.94 
  "/>
<path clip-path="url(#clip020)" d="M85.0429 1368.83 L101.362 1368.83 L101.362 1372.76 L79.4179 1372.76 L79.4179 1368.83 Q82.0799 1366.07 86.6632 1361.44 Q91.2697 1356.79 92.4502 1355.45 Q94.6956 1352.93 95.5752 1351.19 Q96.478 1349.43 96.478 1347.74 Q96.478 1344.99 94.5336 1343.25 Q92.6123 1341.51 89.5104 1341.51 Q87.3114 1341.51 84.8577 1342.28 Q82.4271 1343.04 79.6494 1344.59 L79.6494 1339.87 Q82.4734 1338.74 84.9271 1338.16 Q87.3808 1337.58 89.4178 1337.58 Q94.7882 1337.58 97.9826 1340.26 Q101.177 1342.95 101.177 1347.44 Q101.177 1349.57 100.367 1351.49 Q99.5798 1353.39 97.4734 1355.98 Q96.8947 1356.65 93.7928 1359.87 Q90.691 1363.06 85.0429 1368.83 Z" fill="#000000" fill-rule="evenodd" fill-opacity="1" /><path clip-path="url(#clip020)" d="M121.177 1341.28 Q117.566 1341.28 115.737 1344.85 Q113.932 1348.39 113.932 1355.52 Q113.932 1362.63 115.737 1366.19 Q117.566 1369.73 121.177 1369.73 Q124.811 1369.73 126.617 1366.19 Q128.445 1362.63 128.445 1355.52 Q128.445 1348.39 126.617 1344.85 Q124.811 1341.28 121.177 1341.28 M121.177 1337.58 Q126.987 1337.58 130.043 1342.19 Q133.121 1346.77 133.121 1355.52 Q133.121 1364.25 130.043 1368.85 Q126.987 1373.44 121.177 1373.44 Q115.367 1373.44 112.288 1368.85 Q109.233 1364.25 109.233 1355.52 Q109.233 1346.77 112.288 1342.19 Q115.367 1337.58 121.177 1337.58 Z" fill="#000000" fill-rule="evenodd" fill-opacity="1" /><path clip-path="url(#clip020)" d="M151.339 1341.28 Q147.728 1341.28 145.899 1344.85 Q144.093 1348.39 144.093 1355.52 Q144.093 1362.63 145.899 1366.19 Q147.728 1369.73 151.339 1369.73 Q154.973 1369.73 156.779 1366.19 Q158.607 1362.63 158.607 1355.52 Q158.607 1348.39 156.779 1344.85 Q154.973 1341.28 151.339 1341.28 M151.339 1337.58 Q157.149 1337.58 160.205 1342.19 Q163.283 1346.77 163.283 1355.52 Q163.283 1364.25 160.205 1368.85 Q157.149 1373.44 151.339 1373.44 Q145.529 1373.44 142.45 1368.85 Q139.394 1364.25 139.394 1355.52 Q139.394 1346.77 142.45 1342.19 Q145.529 1337.58 151.339 1337.58 Z" fill="#000000" fill-rule="evenodd" fill-opacity="1" /><path clip-path="url(#clip020)" d="M93.8623 1149.02 L82.0568 1167.47 L93.8623 1167.47 L93.8623 1149.02 M92.6354 1144.95 L98.515 1144.95 L98.515 1167.47 L103.446 1167.47 L103.446 1171.36 L98.515 1171.36 L98.515 1179.51 L93.8623 1179.51 L93.8623 1171.36 L78.2605 1171.36 L78.2605 1166.84 L92.6354 1144.95 Z" fill="#000000" fill-rule="evenodd" fill-opacity="1" /><path clip-path="url(#clip020)" d="M121.177 1148.03 Q117.566 1148.03 115.737 1151.59 Q113.932 1155.13 113.932 1162.26 Q113.932 1169.37 115.737 1172.93 Q117.566 1176.47 121.177 1176.47 Q124.811 1176.47 126.617 1172.93 Q128.445 1169.37 128.445 1162.26 Q128.445 1155.13 126.617 1151.59 Q124.811 1148.03 121.177 1148.03 M121.177 1144.32 Q126.987 1144.32 130.043 1148.93 Q133.121 1153.51 133.121 1162.26 Q133.121 1170.99 130.043 1175.59 Q126.987 1180.18 121.177 1180.18 Q115.367 1180.18 112.288 1175.59 Q109.233 1170.99 109.233 1162.26 Q109.233 1153.51 112.288 1148.93 Q115.367 1144.32 121.177 1144.32 Z" fill="#000000" fill-rule="evenodd" fill-opacity="1" /><path clip-path="url(#clip020)" d="M151.339 1148.03 Q147.728 1148.03 145.899 1151.59 Q144.093 1155.13 144.093 1162.26 Q144.093 1169.37 145.899 1172.93 Q147.728 1176.47 151.339 1176.47 Q154.973 1176.47 156.779 1172.93 Q158.607 1169.37 158.607 1162.26 Q158.607 1155.13 156.779 1151.59 Q154.973 1148.03 151.339 1148.03 M151.339 1144.32 Q157.149 1144.32 160.205 1148.93 Q163.283 1153.51 163.283 1162.26 Q163.283 1170.99 160.205 1175.59 Q157.149 1180.18 151.339 1180.18 Q145.529 1180.18 142.45 1175.59 Q139.394 1170.99 139.394 1162.26 Q139.394 1153.51 142.45 1148.93 Q145.529 1144.32 151.339 1144.32 Z" fill="#000000" fill-rule="evenodd" fill-opacity="1" /><path clip-path="url(#clip020)" d="M91.5938 967.106 Q88.4456 967.106 86.5938 969.259 Q84.7651 971.411 84.7651 975.161 Q84.7651 978.888 86.5938 981.064 Q88.4456 983.217 91.5938 983.217 Q94.7419 983.217 96.5706 981.064 Q98.4224 978.888 98.4224 975.161 Q98.4224 971.411 96.5706 969.259 Q94.7419 967.106 91.5938 967.106 M100.876 952.453 L100.876 956.712 Q99.1169 955.879 97.3113 955.439 Q95.5289 954.999 93.7697 954.999 Q89.1401 954.999 86.6864 958.124 Q84.2558 961.249 83.9086 967.569 Q85.2743 965.555 87.3345 964.49 Q89.3947 963.402 91.8715 963.402 Q97.0798 963.402 100.089 966.573 Q103.121 969.722 103.121 975.161 Q103.121 980.485 99.9733 983.703 Q96.8252 986.921 91.5938 986.921 Q85.5984 986.921 82.4271 982.337 Q79.2559 977.731 79.2559 969.004 Q79.2559 960.81 83.1447 955.948 Q87.0336 951.064 93.5845 951.064 Q95.3437 951.064 97.1261 951.411 Q98.9317 951.759 100.876 952.453 Z" fill="#000000" fill-rule="evenodd" fill-opacity="1" /><path clip-path="url(#clip020)" d="M121.177 954.768 Q117.566 954.768 115.737 958.333 Q113.932 961.874 113.932 969.004 Q113.932 976.11 115.737 979.675 Q117.566 983.217 121.177 983.217 Q124.811 983.217 126.617 979.675 Q128.445 976.11 128.445 969.004 Q128.445 961.874 126.617 958.333 Q124.811 954.768 121.177 954.768 M121.177 951.064 Q126.987 951.064 130.043 955.671 Q133.121 960.254 133.121 969.004 Q133.121 977.731 130.043 982.337 Q126.987 986.921 121.177 986.921 Q115.367 986.921 112.288 982.337 Q109.233 977.731 109.233 969.004 Q109.233 960.254 112.288 955.671 Q115.367 951.064 121.177 951.064 Z" fill="#000000" fill-rule="evenodd" fill-opacity="1" /><path clip-path="url(#clip020)" d="M151.339 954.768 Q147.728 954.768 145.899 958.333 Q144.093 961.874 144.093 969.004 Q144.093 976.11 145.899 979.675 Q147.728 983.217 151.339 983.217 Q154.973 983.217 156.779 979.675 Q158.607 976.11 158.607 969.004 Q158.607 961.874 156.779 958.333 Q154.973 954.768 151.339 954.768 M151.339 951.064 Q157.149 951.064 160.205 955.671 Q163.283 960.254 163.283 969.004 Q163.283 977.731 160.205 982.337 Q157.149 986.921 151.339 986.921 Q145.529 986.921 142.45 982.337 Q139.394 977.731 139.394 969.004 Q139.394 960.254 142.45 955.671 Q145.529 951.064 151.339 951.064 Z" fill="#000000" fill-rule="evenodd" fill-opacity="1" /><path clip-path="url(#clip020)" d="M91.0151 776.58 Q87.6817 776.58 85.7605 778.362 Q83.8623 780.145 83.8623 783.27 Q83.8623 786.395 85.7605 788.177 Q87.6817 789.96 91.0151 789.96 Q94.3484 789.96 96.2697 788.177 Q98.1909 786.372 98.1909 783.27 Q98.1909 780.145 96.2697 778.362 Q94.3715 776.58 91.0151 776.58 M86.3392 774.589 Q83.3299 773.849 81.6401 771.788 Q79.9735 769.728 79.9735 766.765 Q79.9735 762.622 82.9133 760.214 Q85.8762 757.807 91.0151 757.807 Q96.1771 757.807 99.1169 760.214 Q102.057 762.622 102.057 766.765 Q102.057 769.728 100.367 771.788 Q98.7002 773.849 95.7141 774.589 Q99.0937 775.376 100.969 777.668 Q102.867 779.96 102.867 783.27 Q102.867 788.293 99.7882 790.978 Q96.7326 793.663 91.0151 793.663 Q85.2975 793.663 82.2188 790.978 Q79.1633 788.293 79.1633 783.27 Q79.1633 779.96 81.0614 777.668 Q82.9595 775.376 86.3392 774.589 M84.6262 767.205 Q84.6262 769.89 86.2929 771.395 Q87.9827 772.899 91.0151 772.899 Q94.0243 772.899 95.7141 771.395 Q97.4271 769.89 97.4271 767.205 Q97.4271 764.52 95.7141 763.015 Q94.0243 761.511 91.0151 761.511 Q87.9827 761.511 86.2929 763.015 Q84.6262 764.52 84.6262 767.205 Z" fill="#000000" fill-rule="evenodd" fill-opacity="1" /><path clip-path="url(#clip020)" d="M121.177 761.511 Q117.566 761.511 115.737 765.075 Q113.932 768.617 113.932 775.747 Q113.932 782.853 115.737 786.418 Q117.566 789.96 121.177 789.96 Q124.811 789.96 126.617 786.418 Q128.445 782.853 128.445 775.747 Q128.445 768.617 126.617 765.075 Q124.811 761.511 121.177 761.511 M121.177 757.807 Q126.987 757.807 130.043 762.413 Q133.121 766.997 133.121 775.747 Q133.121 784.473 130.043 789.08 Q126.987 793.663 121.177 793.663 Q115.367 793.663 112.288 789.08 Q109.233 784.473 109.233 775.747 Q109.233 766.997 112.288 762.413 Q115.367 757.807 121.177 757.807 Z" fill="#000000" fill-rule="evenodd" fill-opacity="1" /><path clip-path="url(#clip020)" d="M151.339 761.511 Q147.728 761.511 145.899 765.075 Q144.093 768.617 144.093 775.747 Q144.093 782.853 145.899 786.418 Q147.728 789.96 151.339 789.96 Q154.973 789.96 156.779 786.418 Q158.607 782.853 158.607 775.747 Q158.607 768.617 156.779 765.075 Q154.973 761.511 151.339 761.511 M151.339 757.807 Q157.149 757.807 160.205 762.413 Q163.283 766.997 163.283 775.747 Q163.283 784.473 160.205 789.08 Q157.149 793.663 151.339 793.663 Q145.529 793.663 142.45 789.08 Q139.394 784.473 139.394 775.747 Q139.394 766.997 142.45 762.413 Q145.529 757.807 151.339 757.807 Z" fill="#000000" fill-rule="evenodd" fill-opacity="1" /><path clip-path="url(#clip020)" d="M51.6634 595.799 L59.3023 595.799 L59.3023 569.434 L50.9921 571.1 L50.9921 566.841 L59.256 565.175 L63.9319 565.175 L63.9319 595.799 L71.5707 595.799 L71.5707 599.735 L51.6634 599.735 L51.6634 595.799 Z" fill="#000000" fill-rule="evenodd" fill-opacity="1" /><path clip-path="url(#clip020)" d="M91.0151 568.253 Q87.404 568.253 85.5753 571.818 Q83.7697 575.36 83.7697 582.489 Q83.7697 589.596 85.5753 593.161 Q87.404 596.702 91.0151 596.702 Q94.6493 596.702 96.4548 593.161 Q98.2835 589.596 98.2835 582.489 Q98.2835 575.36 96.4548 571.818 Q94.6493 568.253 91.0151 568.253 M91.0151 564.55 Q96.8252 564.55 99.8808 569.156 Q102.959 573.739 102.959 582.489 Q102.959 591.216 99.8808 595.823 Q96.8252 600.406 91.0151 600.406 Q85.2049 600.406 82.1262 595.823 Q79.0707 591.216 79.0707 582.489 Q79.0707 573.739 82.1262 569.156 Q85.2049 564.55 91.0151 564.55 Z" fill="#000000" fill-rule="evenodd" fill-opacity="1" /><path clip-path="url(#clip020)" d="M121.177 568.253 Q117.566 568.253 115.737 571.818 Q113.932 575.36 113.932 582.489 Q113.932 589.596 115.737 593.161 Q117.566 596.702 121.177 596.702 Q124.811 596.702 126.617 593.161 Q128.445 589.596 128.445 582.489 Q128.445 575.36 126.617 571.818 Q124.811 568.253 121.177 568.253 M121.177 564.55 Q126.987 564.55 130.043 569.156 Q133.121 573.739 133.121 582.489 Q133.121 591.216 130.043 595.823 Q126.987 600.406 121.177 600.406 Q115.367 600.406 112.288 595.823 Q109.233 591.216 109.233 582.489 Q109.233 573.739 112.288 569.156 Q115.367 564.55 121.177 564.55 Z" fill="#000000" fill-rule="evenodd" fill-opacity="1" /><path clip-path="url(#clip020)" d="M151.339 568.253 Q147.728 568.253 145.899 571.818 Q144.093 575.36 144.093 582.489 Q144.093 589.596 145.899 593.161 Q147.728 596.702 151.339 596.702 Q154.973 596.702 156.779 593.161 Q158.607 589.596 158.607 582.489 Q158.607 575.36 156.779 571.818 Q154.973 568.253 151.339 568.253 M151.339 564.55 Q157.149 564.55 160.205 569.156 Q163.283 573.739 163.283 582.489 Q163.283 591.216 160.205 595.823 Q157.149 600.406 151.339 600.406 Q145.529 600.406 142.45 595.823 Q139.394 591.216 139.394 582.489 Q139.394 573.739 142.45 569.156 Q145.529 564.55 151.339 564.55 Z" fill="#000000" fill-rule="evenodd" fill-opacity="1" /><path clip-path="url(#clip020)" d="M51.6634 402.542 L59.3023 402.542 L59.3023 376.177 L50.9921 377.843 L50.9921 373.584 L59.256 371.917 L63.9319 371.917 L63.9319 402.542 L71.5707 402.542 L71.5707 406.477 L51.6634 406.477 L51.6634 402.542 Z" fill="#000000" fill-rule="evenodd" fill-opacity="1" /><path clip-path="url(#clip020)" d="M85.0429 402.542 L101.362 402.542 L101.362 406.477 L79.4179 406.477 L79.4179 402.542 Q82.0799 399.788 86.6632 395.158 Q91.2697 390.505 92.4502 389.163 Q94.6956 386.639 95.5752 384.903 Q96.478 383.144 96.478 381.454 Q96.478 378.7 94.5336 376.964 Q92.6123 375.227 89.5104 375.227 Q87.3114 375.227 84.8577 375.991 Q82.4271 376.755 79.6494 378.306 L79.6494 373.584 Q82.4734 372.45 84.9271 371.871 Q87.3808 371.292 89.4178 371.292 Q94.7882 371.292 97.9826 373.977 Q101.177 376.663 101.177 381.153 Q101.177 383.283 100.367 385.204 Q99.5798 387.102 97.4734 389.695 Q96.8947 390.366 93.7928 393.584 Q90.691 396.778 85.0429 402.542 Z" fill="#000000" fill-rule="evenodd" fill-opacity="1" /><path clip-path="url(#clip020)" d="M121.177 374.996 Q117.566 374.996 115.737 378.561 Q113.932 382.102 113.932 389.232 Q113.932 396.338 115.737 399.903 Q117.566 403.445 121.177 403.445 Q124.811 403.445 126.617 399.903 Q128.445 396.338 128.445 389.232 Q128.445 382.102 126.617 378.561 Q124.811 374.996 121.177 374.996 M121.177 371.292 Q126.987 371.292 130.043 375.899 Q133.121 380.482 133.121 389.232 Q133.121 397.959 130.043 402.565 Q126.987 407.149 121.177 407.149 Q115.367 407.149 112.288 402.565 Q109.233 397.959 109.233 389.232 Q109.233 380.482 112.288 375.899 Q115.367 371.292 121.177 371.292 Z" fill="#000000" fill-rule="evenodd" fill-opacity="1" /><path clip-path="url(#clip020)" d="M151.339 374.996 Q147.728 374.996 145.899 378.561 Q144.093 382.102 144.093 389.232 Q144.093 396.338 145.899 399.903 Q147.728 403.445 151.339 403.445 Q154.973 403.445 156.779 399.903 Q158.607 396.338 158.607 389.232 Q158.607 382.102 156.779 378.561 Q154.973 374.996 151.339 374.996 M151.339 371.292 Q157.149 371.292 160.205 375.899 Q163.283 380.482 163.283 389.232 Q163.283 397.959 160.205 402.565 Q157.149 407.149 151.339 407.149 Q145.529 407.149 142.45 402.565 Q139.394 397.959 139.394 389.232 Q139.394 380.482 142.45 375.899 Q145.529 371.292 151.339 371.292 Z" fill="#000000" fill-rule="evenodd" fill-opacity="1" /><path clip-path="url(#clip020)" d="M51.6634 209.285 L59.3023 209.285 L59.3023 182.919 L50.9921 184.586 L50.9921 180.327 L59.256 178.66 L63.9319 178.66 L63.9319 209.285 L71.5707 209.285 L71.5707 213.22 L51.6634 213.22 L51.6634 209.285 Z" fill="#000000" fill-rule="evenodd" fill-opacity="1" /><path clip-path="url(#clip020)" d="M93.8623 182.734 L82.0568 201.183 L93.8623 201.183 L93.8623 182.734 M92.6354 178.66 L98.515 178.66 L98.515 201.183 L103.446 201.183 L103.446 205.072 L98.515 205.072 L98.515 213.22 L93.8623 213.22 L93.8623 205.072 L78.2605 205.072 L78.2605 200.558 L92.6354 178.66 Z" fill="#000000" fill-rule="evenodd" fill-opacity="1" /><path clip-path="url(#clip020)" d="M121.177 181.739 Q117.566 181.739 115.737 185.303 Q113.932 188.845 113.932 195.975 Q113.932 203.081 115.737 206.646 Q117.566 210.188 121.177 210.188 Q124.811 210.188 126.617 206.646 Q128.445 203.081 128.445 195.975 Q128.445 188.845 126.617 185.303 Q124.811 181.739 121.177 181.739 M121.177 178.035 Q126.987 178.035 130.043 182.641 Q133.121 187.225 133.121 195.975 Q133.121 204.702 130.043 209.308 Q126.987 213.891 121.177 213.891 Q115.367 213.891 112.288 209.308 Q109.233 204.702 109.233 195.975 Q109.233 187.225 112.288 182.641 Q115.367 178.035 121.177 178.035 Z" fill="#000000" fill-rule="evenodd" fill-opacity="1" /><path clip-path="url(#clip020)" d="M151.339 181.739 Q147.728 181.739 145.899 185.303 Q144.093 188.845 144.093 195.975 Q144.093 203.081 145.899 206.646 Q147.728 210.188 151.339 210.188 Q154.973 210.188 156.779 206.646 Q158.607 203.081 158.607 195.975 Q158.607 188.845 156.779 185.303 Q154.973 181.739 151.339 181.739 M151.339 178.035 Q157.149 178.035 160.205 182.641 Q163.283 187.225 163.283 195.975 Q163.283 204.702 160.205 209.308 Q157.149 213.891 151.339 213.891 Q145.529 213.891 142.45 209.308 Q139.394 204.702 139.394 195.975 Q139.394 187.225 142.45 182.641 Q145.529 178.035 151.339 178.035 Z" fill="#000000" fill-rule="evenodd" fill-opacity="1" /><circle clip-path="url(#clip022)" cx="260.231" cy="1360.22" r="14" fill="#009af9" fill-rule="evenodd" fill-opacity="1" stroke="#000000" stroke-opacity="1" stroke-width="3.2"/>
<circle clip-path="url(#clip022)" cx="301.691" cy="1339.43" r="14" fill="#009af9" fill-rule="evenodd" fill-opacity="1" stroke="#000000" stroke-opacity="1" stroke-width="3.2"/>
<circle clip-path="url(#clip022)" cx="343.152" cy="1341.31" r="14" fill="#009af9" fill-rule="evenodd" fill-opacity="1" stroke="#000000" stroke-opacity="1" stroke-width="3.2"/>
<circle clip-path="url(#clip022)" cx="384.613" cy="1325.04" r="14" fill="#009af9" fill-rule="evenodd" fill-opacity="1" stroke="#000000" stroke-opacity="1" stroke-width="3.2"/>
<circle clip-path="url(#clip022)" cx="426.074" cy="1264.68" r="14" fill="#009af9" fill-rule="evenodd" fill-opacity="1" stroke="#000000" stroke-opacity="1" stroke-width="3.2"/>
<circle clip-path="url(#clip022)" cx="467.534" cy="1237.08" r="14" fill="#009af9" fill-rule="evenodd" fill-opacity="1" stroke="#000000" stroke-opacity="1" stroke-width="3.2"/>
<circle clip-path="url(#clip022)" cx="508.995" cy="1176.68" r="14" fill="#009af9" fill-rule="evenodd" fill-opacity="1" stroke="#000000" stroke-opacity="1" stroke-width="3.2"/>
<circle clip-path="url(#clip022)" cx="550.456" cy="1187.66" r="14" fill="#009af9" fill-rule="evenodd" fill-opacity="1" stroke="#000000" stroke-opacity="1" stroke-width="3.2"/>
<circle clip-path="url(#clip022)" cx="591.917" cy="1199.21" r="14" fill="#009af9" fill-rule="evenodd" fill-opacity="1" stroke="#000000" stroke-opacity="1" stroke-width="3.2"/>
<circle clip-path="url(#clip022)" cx="633.378" cy="1167.01" r="14" fill="#009af9" fill-rule="evenodd" fill-opacity="1" stroke="#000000" stroke-opacity="1" stroke-width="3.2"/>
<circle clip-path="url(#clip022)" cx="674.838" cy="1242.76" r="14" fill="#009af9" fill-rule="evenodd" fill-opacity="1" stroke="#000000" stroke-opacity="1" stroke-width="3.2"/>
<circle clip-path="url(#clip022)" cx="716.299" cy="1100.98" r="14" fill="#009af9" fill-rule="evenodd" fill-opacity="1" stroke="#000000" stroke-opacity="1" stroke-width="3.2"/>
<circle clip-path="url(#clip022)" cx="757.76" cy="1071.16" r="14" fill="#009af9" fill-rule="evenodd" fill-opacity="1" stroke="#000000" stroke-opacity="1" stroke-width="3.2"/>
<circle clip-path="url(#clip022)" cx="799.221" cy="1128.85" r="14" fill="#009af9" fill-rule="evenodd" fill-opacity="1" stroke="#000000" stroke-opacity="1" stroke-width="3.2"/>
<circle clip-path="url(#clip022)" cx="840.681" cy="1078.74" r="14" fill="#009af9" fill-rule="evenodd" fill-opacity="1" stroke="#000000" stroke-opacity="1" stroke-width="3.2"/>
<circle clip-path="url(#clip022)" cx="882.142" cy="1047.68" r="14" fill="#009af9" fill-rule="evenodd" fill-opacity="1" stroke="#000000" stroke-opacity="1" stroke-width="3.2"/>
<circle clip-path="url(#clip022)" cx="923.603" cy="896.932" r="14" fill="#009af9" fill-rule="evenodd" fill-opacity="1" stroke="#000000" stroke-opacity="1" stroke-width="3.2"/>
<circle clip-path="url(#clip022)" cx="965.064" cy="1018.95" r="14" fill="#009af9" fill-rule="evenodd" fill-opacity="1" stroke="#000000" stroke-opacity="1" stroke-width="3.2"/>
<circle clip-path="url(#clip022)" cx="1006.52" cy="955.872" r="14" fill="#009af9" fill-rule="evenodd" fill-opacity="1" stroke="#000000" stroke-opacity="1" stroke-width="3.2"/>
<circle clip-path="url(#clip022)" cx="1047.99" cy="922.461" r="14" fill="#009af9" fill-rule="evenodd" fill-opacity="1" stroke="#000000" stroke-opacity="1" stroke-width="3.2"/>
<circle clip-path="url(#clip022)" cx="1089.45" cy="899.632" r="14" fill="#009af9" fill-rule="evenodd" fill-opacity="1" stroke="#000000" stroke-opacity="1" stroke-width="3.2"/>
<circle clip-path="url(#clip022)" cx="1130.91" cy="806.949" r="14" fill="#009af9" fill-rule="evenodd" fill-opacity="1" stroke="#000000" stroke-opacity="1" stroke-width="3.2"/>
<circle clip-path="url(#clip022)" cx="1172.37" cy="849.956" r="14" fill="#009af9" fill-rule="evenodd" fill-opacity="1" stroke="#000000" stroke-opacity="1" stroke-width="3.2"/>
<circle clip-path="url(#clip022)" cx="1213.83" cy="773.617" r="14" fill="#009af9" fill-rule="evenodd" fill-opacity="1" stroke="#000000" stroke-opacity="1" stroke-width="3.2"/>
<circle clip-path="url(#clip022)" cx="1255.29" cy="806.665" r="14" fill="#009af9" fill-rule="evenodd" fill-opacity="1" stroke="#000000" stroke-opacity="1" stroke-width="3.2"/>
<circle clip-path="url(#clip022)" cx="1296.75" cy="798.534" r="14" fill="#009af9" fill-rule="evenodd" fill-opacity="1" stroke="#000000" stroke-opacity="1" stroke-width="3.2"/>
<circle clip-path="url(#clip022)" cx="1338.21" cy="800.727" r="14" fill="#009af9" fill-rule="evenodd" fill-opacity="1" stroke="#000000" stroke-opacity="1" stroke-width="3.2"/>
<circle clip-path="url(#clip022)" cx="1379.67" cy="846.049" r="14" fill="#009af9" fill-rule="evenodd" fill-opacity="1" stroke="#000000" stroke-opacity="1" stroke-width="3.2"/>
<circle clip-path="url(#clip022)" cx="1421.13" cy="516.757" r="14" fill="#009af9" fill-rule="evenodd" fill-opacity="1" stroke="#000000" stroke-opacity="1" stroke-width="3.2"/>
<circle clip-path="url(#clip022)" cx="1462.59" cy="768.498" r="14" fill="#009af9" fill-rule="evenodd" fill-opacity="1" stroke="#000000" stroke-opacity="1" stroke-width="3.2"/>
<circle clip-path="url(#clip022)" cx="1504.05" cy="866.763" r="14" fill="#009af9" fill-rule="evenodd" fill-opacity="1" stroke="#000000" stroke-opacity="1" stroke-width="3.2"/>
<circle clip-path="url(#clip022)" cx="1545.51" cy="555.069" r="14" fill="#009af9" fill-rule="evenodd" fill-opacity="1" stroke="#000000" stroke-opacity="1" stroke-width="3.2"/>
<circle clip-path="url(#clip022)" cx="1586.98" cy="576.262" r="14" fill="#009af9" fill-rule="evenodd" fill-opacity="1" stroke="#000000" stroke-opacity="1" stroke-width="3.2"/>
<circle clip-path="url(#clip022)" cx="1628.44" cy="686.447" r="14" fill="#009af9" fill-rule="evenodd" fill-opacity="1" stroke="#000000" stroke-opacity="1" stroke-width="3.2"/>
<circle clip-path="url(#clip022)" cx="1669.9" cy="687.36" r="14" fill="#009af9" fill-rule="evenodd" fill-opacity="1" stroke="#000000" stroke-opacity="1" stroke-width="3.2"/>
<circle clip-path="url(#clip022)" cx="1711.36" cy="554.258" r="14" fill="#009af9" fill-rule="evenodd" fill-opacity="1" stroke="#000000" stroke-opacity="1" stroke-width="3.2"/>
<circle clip-path="url(#clip022)" cx="1752.82" cy="339.884" r="14" fill="#009af9" fill-rule="evenodd" fill-opacity="1" stroke="#000000" stroke-opacity="1" stroke-width="3.2"/>
<circle clip-path="url(#clip022)" cx="1794.28" cy="474.218" r="14" fill="#009af9" fill-rule="evenodd" fill-opacity="1" stroke="#000000" stroke-opacity="1" stroke-width="3.2"/>
<circle clip-path="url(#clip022)" cx="1835.74" cy="311.19" r="14" fill="#009af9" fill-rule="evenodd" fill-opacity="1" stroke="#000000" stroke-opacity="1" stroke-width="3.2"/>
<circle clip-path="url(#clip022)" cx="1877.2" cy="645.544" r="14" fill="#009af9" fill-rule="evenodd" fill-opacity="1" stroke="#000000" stroke-opacity="1" stroke-width="3.2"/>
<circle clip-path="url(#clip022)" cx="1918.66" cy="540.989" r="14" fill="#009af9" fill-rule="evenodd" fill-opacity="1" stroke="#000000" stroke-opacity="1" stroke-width="3.2"/>
<circle clip-path="url(#clip022)" cx="1960.12" cy="87.9763" r="14" fill="#009af9" fill-rule="evenodd" fill-opacity="1" stroke="#000000" stroke-opacity="1" stroke-width="3.2"/>
<circle clip-path="url(#clip022)" cx="2001.58" cy="173.051" r="14" fill="#009af9" fill-rule="evenodd" fill-opacity="1" stroke="#000000" stroke-opacity="1" stroke-width="3.2"/>
<circle clip-path="url(#clip022)" cx="2043.04" cy="466.378" r="14" fill="#009af9" fill-rule="evenodd" fill-opacity="1" stroke="#000000" stroke-opacity="1" stroke-width="3.2"/>
<circle clip-path="url(#clip022)" cx="2084.5" cy="440.903" r="14" fill="#009af9" fill-rule="evenodd" fill-opacity="1" stroke="#000000" stroke-opacity="1" stroke-width="3.2"/>
<circle clip-path="url(#clip022)" cx="2125.97" cy="310.451" r="14" fill="#009af9" fill-rule="evenodd" fill-opacity="1" stroke="#000000" stroke-opacity="1" stroke-width="3.2"/>
<circle clip-path="url(#clip022)" cx="2167.43" cy="171.133" r="14" fill="#009af9" fill-rule="evenodd" fill-opacity="1" stroke="#000000" stroke-opacity="1" stroke-width="3.2"/>
<circle clip-path="url(#clip022)" cx="2208.89" cy="451.359" r="14" fill="#009af9" fill-rule="evenodd" fill-opacity="1" stroke="#000000" stroke-opacity="1" stroke-width="3.2"/>
<circle clip-path="url(#clip022)" cx="2250.35" cy="162.214" r="14" fill="#009af9" fill-rule="evenodd" fill-opacity="1" stroke="#000000" stroke-opacity="1" stroke-width="3.2"/>
<circle clip-path="url(#clip022)" cx="2291.81" cy="266.38" r="14" fill="#009af9" fill-rule="evenodd" fill-opacity="1" stroke="#000000" stroke-opacity="1" stroke-width="3.2"/>
<polyline clip-path="url(#clip022)" style="stroke:#e26f46; stroke-linecap:butt; stroke-linejoin:round; stroke-width:4; stroke-opacity:1; fill:none" points="
  260.231,1445.72 301.691,1419.94 343.152,1394.15 384.613,1368.37 426.074,1342.59 467.534,1316.81 508.995,1291.03 550.456,1265.25 591.917,1239.47 633.378,1213.69 
  674.838,1187.91 716.299,1162.13 757.76,1136.35 799.221,1110.57 840.681,1084.79 882.142,1059.01 923.603,1033.23 965.064,1007.45 1006.52,981.666 1047.99,955.886 
  1089.45,930.105 1130.91,904.325 1172.37,878.544 1213.83,852.764 1255.29,826.983 1296.75,801.203 1338.21,775.422 1379.67,749.642 1421.13,723.861 1462.59,698.08 
  1504.05,672.3 1545.51,646.519 1586.98,620.739 1628.44,594.958 1669.9,569.178 1711.36,543.397 1752.82,517.617 1794.28,491.836 1835.74,466.056 1877.2,440.275 
  1918.66,414.495 1960.12,388.714 2001.58,362.934 2043.04,337.153 2084.5,311.373 2125.97,285.592 2167.43,259.812 2208.89,234.031 2250.35,208.25 2291.81,182.47 
  
  "/>
<path clip-path="url(#clip020)" d="
M271.066 250.738 L1444.04 250.738 L1444.04 95.2176 L271.066 95.2176  Z
  " fill="#ffffff" fill-rule="evenodd" fill-opacity="1"/>
<polyline clip-path="url(#clip020)" style="stroke:#000000; stroke-linecap:butt; stroke-linejoin:round; stroke-width:4; stroke-opacity:1; fill:none" points="
  271.066,250.738 1444.04,250.738 1444.04,95.2176 271.066,95.2176 271.066,250.738 
  "/>
<circle clip-path="url(#clip020)" cx="366.776" cy="147.058" r="23" fill="#009af9" fill-rule="evenodd" fill-opacity="1" stroke="#000000" stroke-opacity="1" stroke-width="5.12"/>
<path clip-path="url(#clip020)" d="M462.485 129.778 L491.721 129.778 L491.721 133.713 L479.453 133.713 L479.453 164.338 L474.754 164.338 L474.754 133.713 L462.485 133.713 L462.485 129.778 Z" fill="#000000" fill-rule="evenodd" fill-opacity="1" /><path clip-path="url(#clip020)" d="M499.985 151.305 Q494.823 151.305 492.832 152.486 Q490.842 153.666 490.842 156.514 Q490.842 158.782 492.323 160.125 Q493.828 161.444 496.397 161.444 Q499.939 161.444 502.069 158.944 Q504.221 156.421 504.221 152.254 L504.221 151.305 L499.985 151.305 M508.481 149.546 L508.481 164.338 L504.221 164.338 L504.221 160.402 Q502.763 162.763 500.587 163.898 Q498.411 165.009 495.263 165.009 Q491.282 165.009 488.92 162.787 Q486.583 160.541 486.583 156.791 Q486.583 152.416 489.499 150.194 Q492.439 147.972 498.249 147.972 L504.221 147.972 L504.221 147.555 Q504.221 144.615 502.277 143.018 Q500.356 141.398 496.86 141.398 Q494.638 141.398 492.532 141.93 Q490.425 142.463 488.481 143.527 L488.481 139.592 Q490.819 138.69 493.018 138.25 Q495.217 137.787 497.3 137.787 Q502.925 137.787 505.703 140.703 Q508.481 143.62 508.481 149.546 Z" fill="#000000" fill-rule="evenodd" fill-opacity="1" /><path clip-path="url(#clip020)" d="M532.277 142.393 Q531.559 141.977 530.703 141.791 Q529.869 141.583 528.851 141.583 Q525.24 141.583 523.295 143.944 Q521.374 146.282 521.374 150.68 L521.374 164.338 L517.092 164.338 L517.092 138.412 L521.374 138.412 L521.374 142.44 Q522.717 140.078 524.869 138.944 Q527.022 137.787 530.101 137.787 Q530.541 137.787 531.073 137.856 Q531.605 137.903 532.254 138.018 L532.277 142.393 Z" fill="#000000" fill-rule="evenodd" fill-opacity="1" /><path clip-path="url(#clip020)" d="M552.971 151.074 Q552.971 146.444 551.05 143.898 Q549.152 141.352 545.703 141.352 Q542.277 141.352 540.355 143.898 Q538.457 146.444 538.457 151.074 Q538.457 155.68 540.355 158.226 Q542.277 160.773 545.703 160.773 Q549.152 160.773 551.05 158.226 Q552.971 155.68 552.971 151.074 M557.23 161.12 Q557.23 167.74 554.29 170.958 Q551.351 174.199 545.286 174.199 Q543.041 174.199 541.05 173.851 Q539.059 173.527 537.184 172.833 L537.184 168.689 Q539.059 169.708 540.888 170.194 Q542.716 170.68 544.615 170.68 Q548.804 170.68 550.888 168.481 Q552.971 166.305 552.971 161.884 L552.971 159.777 Q551.652 162.069 549.591 163.203 Q547.531 164.338 544.661 164.338 Q539.892 164.338 536.976 160.703 Q534.059 157.069 534.059 151.074 Q534.059 145.055 536.976 141.421 Q539.892 137.787 544.661 137.787 Q547.531 137.787 549.591 138.921 Q551.652 140.055 552.971 142.347 L552.971 138.412 L557.23 138.412 L557.23 161.12 Z" fill="#000000" fill-rule="evenodd" fill-opacity="1" /><path clip-path="url(#clip020)" d="M588.179 150.31 L588.179 152.393 L568.596 152.393 Q568.874 156.791 571.235 159.106 Q573.619 161.398 577.855 161.398 Q580.309 161.398 582.601 160.796 Q584.915 160.194 587.184 158.99 L587.184 163.018 Q584.892 163.99 582.485 164.5 Q580.077 165.009 577.601 165.009 Q571.397 165.009 567.763 161.398 Q564.152 157.787 564.152 151.629 Q564.152 145.264 567.577 141.537 Q571.026 137.787 576.86 137.787 Q582.091 137.787 585.124 141.166 Q588.179 144.523 588.179 150.31 M583.92 149.06 Q583.874 145.565 581.952 143.481 Q580.054 141.398 576.906 141.398 Q573.341 141.398 571.189 143.412 Q569.059 145.426 568.735 149.083 L583.92 149.06 Z" fill="#000000" fill-rule="evenodd" fill-opacity="1" /><path clip-path="url(#clip020)" d="M599.383 131.051 L599.383 138.412 L608.156 138.412 L608.156 141.722 L599.383 141.722 L599.383 155.796 Q599.383 158.967 600.239 159.87 Q601.119 160.773 603.781 160.773 L608.156 160.773 L608.156 164.338 L603.781 164.338 Q598.85 164.338 596.975 162.509 Q595.1 160.657 595.1 155.796 L595.1 141.722 L591.975 141.722 L591.975 138.412 L595.1 138.412 L595.1 131.051 L599.383 131.051 Z" fill="#000000" fill-rule="evenodd" fill-opacity="1" /><path clip-path="url(#clip020)" d="M626.35 138.412 L630.61 138.412 L635.934 158.643 L641.234 138.412 L646.258 138.412 L651.582 158.643 L656.883 138.412 L661.142 138.412 L654.359 164.338 L649.336 164.338 L643.758 143.088 L638.156 164.338 L633.133 164.338 L626.35 138.412 Z" fill="#000000" fill-rule="evenodd" fill-opacity="1" /><path clip-path="url(#clip020)" d="M667.6 138.412 L671.859 138.412 L671.859 164.338 L667.6 164.338 L667.6 138.412 M667.6 128.319 L671.859 128.319 L671.859 133.713 L667.6 133.713 L667.6 128.319 Z" fill="#000000" fill-rule="evenodd" fill-opacity="1" /><path clip-path="url(#clip020)" d="M684.984 131.051 L684.984 138.412 L693.757 138.412 L693.757 141.722 L684.984 141.722 L684.984 155.796 Q684.984 158.967 685.841 159.87 Q686.72 160.773 689.382 160.773 L693.757 160.773 L693.757 164.338 L689.382 164.338 Q684.452 164.338 682.577 162.509 Q680.702 160.657 680.702 155.796 L680.702 141.722 L677.577 141.722 L677.577 138.412 L680.702 138.412 L680.702 131.051 L684.984 131.051 Z" fill="#000000" fill-rule="evenodd" fill-opacity="1" /><path clip-path="url(#clip020)" d="M720.91 148.689 L720.91 164.338 L716.651 164.338 L716.651 148.828 Q716.651 145.148 715.216 143.319 Q713.78 141.49 710.91 141.49 Q707.461 141.49 705.47 143.69 Q703.479 145.889 703.479 149.685 L703.479 164.338 L699.197 164.338 L699.197 128.319 L703.479 128.319 L703.479 142.44 Q705.007 140.102 707.067 138.944 Q709.151 137.787 711.859 137.787 Q716.327 137.787 718.618 140.565 Q720.91 143.319 720.91 148.689 Z" fill="#000000" fill-rule="evenodd" fill-opacity="1" /><path clip-path="url(#clip020)" d="M757.6 128.319 L757.6 131.861 L753.526 131.861 Q751.234 131.861 750.331 132.787 Q749.451 133.713 749.451 136.12 L749.451 138.412 L756.465 138.412 L756.465 141.722 L749.451 141.722 L749.451 164.338 L745.169 164.338 L745.169 141.722 L741.095 141.722 L741.095 138.412 L745.169 138.412 L745.169 136.606 Q745.169 132.278 747.183 130.31 Q749.197 128.319 753.572 128.319 L757.6 128.319 Z" fill="#000000" fill-rule="evenodd" fill-opacity="1" /><path clip-path="url(#clip020)" d="M771.396 128.366 Q768.294 133.69 766.789 138.898 Q765.285 144.106 765.285 149.453 Q765.285 154.801 766.789 160.055 Q768.317 165.287 771.396 170.588 L767.692 170.588 Q764.22 165.148 762.484 159.893 Q760.771 154.639 760.771 149.453 Q760.771 144.291 762.484 139.06 Q764.197 133.828 767.692 128.366 L771.396 128.366 Z" fill="#000000" fill-rule="evenodd" fill-opacity="1" /><path clip-path="url(#clip020)" d="M801.21 138.412 L791.835 151.027 L801.697 164.338 L796.673 164.338 L789.127 154.152 L781.581 164.338 L776.558 164.338 L786.627 150.773 L777.414 138.412 L782.437 138.412 L789.312 147.648 L796.187 138.412 L801.21 138.412 Z" fill="#000000" fill-rule="evenodd" fill-opacity="1" /><path clip-path="url(#clip020)" d="M807.044 128.366 L810.747 128.366 Q814.22 133.828 815.933 139.06 Q817.669 144.291 817.669 149.453 Q817.669 154.639 815.933 159.893 Q814.22 165.148 810.747 170.588 L807.044 170.588 Q810.122 165.287 811.627 160.055 Q813.155 154.801 813.155 149.453 Q813.155 144.106 811.627 138.898 Q810.122 133.69 807.044 128.366 Z" fill="#000000" fill-rule="evenodd" fill-opacity="1" /><path clip-path="url(#clip020)" d="M841.835 142.81 L871.511 142.81 L871.511 146.699 L841.835 146.699 L841.835 142.81 M841.835 152.254 L871.511 152.254 L871.511 156.189 L841.835 156.189 L841.835 152.254 Z" fill="#000000" fill-rule="evenodd" fill-opacity="1" /><path clip-path="url(#clip020)" d="M900.701 160.402 L917.02 160.402 L917.02 164.338 L895.076 164.338 L895.076 160.402 Q897.738 157.648 902.321 153.018 Q906.927 148.365 908.108 147.023 Q910.353 144.5 911.233 142.764 Q912.136 141.004 912.136 139.315 Q912.136 136.56 910.191 134.824 Q908.27 133.088 905.168 133.088 Q902.969 133.088 900.515 133.852 Q898.085 134.615 895.307 136.166 L895.307 131.444 Q898.131 130.31 900.585 129.731 Q903.039 129.153 905.076 129.153 Q910.446 129.153 913.64 131.838 Q916.835 134.523 916.835 139.014 Q916.835 141.143 916.025 143.065 Q915.238 144.963 913.131 147.555 Q912.552 148.227 909.451 151.444 Q906.349 154.639 900.701 160.402 Z" fill="#000000" fill-rule="evenodd" fill-opacity="1" /><path clip-path="url(#clip020)" d="M926.881 129.778 L945.237 129.778 L945.237 133.713 L931.163 133.713 L931.163 142.185 Q932.182 141.838 933.2 141.676 Q934.219 141.49 935.238 141.49 Q941.025 141.49 944.404 144.662 Q947.784 147.833 947.784 153.25 Q947.784 158.828 944.312 161.93 Q940.839 165.009 934.52 165.009 Q932.344 165.009 930.075 164.638 Q927.83 164.268 925.423 163.527 L925.423 158.828 Q927.506 159.963 929.728 160.518 Q931.95 161.074 934.427 161.074 Q938.432 161.074 940.77 158.967 Q943.108 156.861 943.108 153.25 Q943.108 149.639 940.77 147.532 Q938.432 145.426 934.427 145.426 Q932.552 145.426 930.677 145.842 Q928.826 146.259 926.881 147.139 L926.881 129.778 Z" fill="#000000" fill-rule="evenodd" fill-opacity="1" /><path clip-path="url(#clip020)" d="M956.997 158.458 L961.881 158.458 L961.881 164.338 L956.997 164.338 L956.997 158.458 Z" fill="#000000" fill-rule="evenodd" fill-opacity="1" /><path clip-path="url(#clip020)" d="M982.066 132.856 Q978.455 132.856 976.626 136.421 Q974.821 139.963 974.821 147.092 Q974.821 154.199 976.626 157.764 Q978.455 161.305 982.066 161.305 Q985.7 161.305 987.506 157.764 Q989.334 154.199 989.334 147.092 Q989.334 139.963 987.506 136.421 Q985.7 132.856 982.066 132.856 M982.066 129.153 Q987.876 129.153 990.932 133.759 Q994.01 138.342 994.01 147.092 Q994.01 155.819 990.932 160.426 Q987.876 165.009 982.066 165.009 Q976.256 165.009 973.177 160.426 Q970.122 155.819 970.122 147.092 Q970.122 138.342 973.177 133.759 Q976.256 129.153 982.066 129.153 Z" fill="#000000" fill-rule="evenodd" fill-opacity="1" /><path clip-path="url(#clip020)" d="M1034.52 135.472 L1026.21 139.963 L1034.52 144.477 L1033.18 146.745 L1025.4 142.046 L1025.4 150.773 L1022.76 150.773 L1022.76 142.046 L1014.98 146.745 L1013.64 144.477 L1021.95 139.963 L1013.64 135.472 L1014.98 133.18 L1022.76 137.879 L1022.76 129.153 L1025.4 129.153 L1025.4 137.879 L1033.18 133.18 L1034.52 135.472 Z" fill="#000000" fill-rule="evenodd" fill-opacity="1" /><path clip-path="url(#clip020)" d="M1077.02 138.412 L1067.64 151.027 L1077.51 164.338 L1072.48 164.338 L1064.94 154.152 L1057.39 164.338 L1052.37 164.338 L1062.44 150.773 L1053.22 138.412 L1058.25 138.412 L1065.12 147.648 L1072 138.412 L1077.02 138.412 Z" fill="#000000" fill-rule="evenodd" fill-opacity="1" /><path clip-path="url(#clip020)" d="M1115.93 134.615 L1115.93 147.509 L1128.82 147.509 L1128.82 151.444 L1115.93 151.444 L1115.93 164.338 L1112.04 164.338 L1112.04 151.444 L1099.15 151.444 L1099.15 147.509 L1112.04 147.509 L1112.04 134.615 L1115.93 134.615 Z" fill="#000000" fill-rule="evenodd" fill-opacity="1" /><path clip-path="url(#clip020)" d="M1154.8 160.402 L1162.44 160.402 L1162.44 134.037 L1154.13 135.703 L1154.13 131.444 L1162.39 129.778 L1167.06 129.778 L1167.06 160.402 L1174.7 160.402 L1174.7 164.338 L1154.8 164.338 L1154.8 160.402 Z" fill="#000000" fill-rule="evenodd" fill-opacity="1" /><path clip-path="url(#clip020)" d="M1184.19 129.778 L1202.55 129.778 L1202.55 133.713 L1188.48 133.713 L1188.48 142.185 Q1189.5 141.838 1190.51 141.676 Q1191.53 141.49 1192.55 141.49 Q1198.34 141.49 1201.72 144.662 Q1205.1 147.833 1205.1 153.25 Q1205.1 158.828 1201.62 161.93 Q1198.15 165.009 1191.83 165.009 Q1189.66 165.009 1187.39 164.638 Q1185.14 164.268 1182.74 163.527 L1182.74 158.828 Q1184.82 159.963 1187.04 160.518 Q1189.26 161.074 1191.74 161.074 Q1195.75 161.074 1198.08 158.967 Q1200.42 156.861 1200.42 153.25 Q1200.42 149.639 1198.08 147.532 Q1195.75 145.426 1191.74 145.426 Q1189.87 145.426 1187.99 145.842 Q1186.14 146.259 1184.19 147.139 L1184.19 129.778 Z" fill="#000000" fill-rule="evenodd" fill-opacity="1" /><path clip-path="url(#clip020)" d="M1224.31 132.856 Q1220.7 132.856 1218.87 136.421 Q1217.06 139.963 1217.06 147.092 Q1217.06 154.199 1218.87 157.764 Q1220.7 161.305 1224.31 161.305 Q1227.94 161.305 1229.75 157.764 Q1231.58 154.199 1231.58 147.092 Q1231.58 139.963 1229.75 136.421 Q1227.94 132.856 1224.31 132.856 M1224.31 129.153 Q1230.12 129.153 1233.18 133.759 Q1236.25 138.342 1236.25 147.092 Q1236.25 155.819 1233.18 160.426 Q1230.12 165.009 1224.31 165.009 Q1218.5 165.009 1215.42 160.426 Q1212.37 155.819 1212.37 147.092 Q1212.37 138.342 1215.42 133.759 Q1218.5 129.153 1224.31 129.153 Z" fill="#000000" fill-rule="evenodd" fill-opacity="1" /><path clip-path="url(#clip020)" d="M1244.47 158.458 L1249.36 158.458 L1249.36 164.338 L1244.47 164.338 L1244.47 158.458 Z" fill="#000000" fill-rule="evenodd" fill-opacity="1" /><path clip-path="url(#clip020)" d="M1269.54 132.856 Q1265.93 132.856 1264.1 136.421 Q1262.3 139.963 1262.3 147.092 Q1262.3 154.199 1264.1 157.764 Q1265.93 161.305 1269.54 161.305 Q1273.18 161.305 1274.98 157.764 Q1276.81 154.199 1276.81 147.092 Q1276.81 139.963 1274.98 136.421 Q1273.18 132.856 1269.54 132.856 M1269.54 129.153 Q1275.35 129.153 1278.41 133.759 Q1281.49 138.342 1281.49 147.092 Q1281.49 155.819 1278.41 160.426 Q1275.35 165.009 1269.54 165.009 Q1263.73 165.009 1260.65 160.426 Q1257.6 155.819 1257.6 147.092 Q1257.6 138.342 1260.65 133.759 Q1263.73 129.153 1269.54 129.153 Z" fill="#000000" fill-rule="evenodd" fill-opacity="1" /><polyline clip-path="url(#clip020)" style="stroke:#e26f46; stroke-linecap:butt; stroke-linejoin:round; stroke-width:4; stroke-opacity:1; fill:none" points="
  294.993,198.898 438.558,198.898 
  "/>
<path clip-path="url(#clip020)" d="M467.161 185.46 L467.161 198.446 L473.041 198.446 Q476.305 198.446 478.087 196.756 Q479.87 195.067 479.87 191.942 Q479.87 188.84 478.087 187.15 Q476.305 185.46 473.041 185.46 L467.161 185.46 M462.485 181.618 L473.041 181.618 Q478.851 181.618 481.814 184.256 Q484.8 186.872 484.8 191.942 Q484.8 197.057 481.814 199.673 Q478.851 202.289 473.041 202.289 L467.161 202.289 L467.161 216.178 L462.485 216.178 L462.485 181.618 Z" fill="#000000" fill-rule="evenodd" fill-opacity="1" /><path clip-path="url(#clip020)" d="M505.078 194.233 Q504.36 193.817 503.504 193.631 Q502.67 193.423 501.652 193.423 Q498.041 193.423 496.096 195.784 Q494.175 198.122 494.175 202.52 L494.175 216.178 L489.893 216.178 L489.893 190.252 L494.175 190.252 L494.175 194.28 Q495.518 191.918 497.67 190.784 Q499.823 189.627 502.902 189.627 Q503.342 189.627 503.874 189.696 Q504.406 189.743 505.055 189.858 L505.078 194.233 Z" fill="#000000" fill-rule="evenodd" fill-opacity="1" /><path clip-path="url(#clip020)" d="M530.679 202.15 L530.679 204.233 L511.096 204.233 Q511.374 208.631 513.735 210.946 Q516.119 213.238 520.355 213.238 Q522.809 213.238 525.101 212.636 Q527.416 212.034 529.684 210.83 L529.684 214.858 Q527.392 215.83 524.985 216.34 Q522.578 216.849 520.101 216.849 Q513.897 216.849 510.263 213.238 Q506.652 209.627 506.652 203.469 Q506.652 197.104 510.078 193.377 Q513.527 189.627 519.36 189.627 Q524.592 189.627 527.624 193.006 Q530.679 196.363 530.679 202.15 M526.42 200.9 Q526.374 197.405 524.453 195.321 Q522.555 193.238 519.406 193.238 Q515.842 193.238 513.689 195.252 Q511.559 197.266 511.235 200.923 L526.42 200.9 Z" fill="#000000" fill-rule="evenodd" fill-opacity="1" /><path clip-path="url(#clip020)" d="M554.73 194.187 L554.73 180.159 L558.99 180.159 L558.99 216.178 L554.73 216.178 L554.73 212.289 Q553.388 214.603 551.328 215.738 Q549.291 216.849 546.42 216.849 Q541.721 216.849 538.758 213.099 Q535.818 209.349 535.818 203.238 Q535.818 197.127 538.758 193.377 Q541.721 189.627 546.42 189.627 Q549.291 189.627 551.328 190.761 Q553.388 191.872 554.73 194.187 M540.216 203.238 Q540.216 207.937 542.138 210.622 Q544.082 213.284 547.462 213.284 Q550.841 213.284 552.786 210.622 Q554.73 207.937 554.73 203.238 Q554.73 198.539 552.786 195.877 Q550.841 193.192 547.462 193.192 Q544.082 193.192 542.138 195.877 Q540.216 198.539 540.216 203.238 Z" fill="#000000" fill-rule="evenodd" fill-opacity="1" /><path clip-path="url(#clip020)" d="M567.763 190.252 L572.022 190.252 L572.022 216.178 L567.763 216.178 L567.763 190.252 M567.763 180.159 L572.022 180.159 L572.022 185.553 L567.763 185.553 L567.763 180.159 Z" fill="#000000" fill-rule="evenodd" fill-opacity="1" /><path clip-path="url(#clip020)" d="M599.591 191.247 L599.591 195.229 Q597.786 194.233 595.957 193.747 Q594.151 193.238 592.3 193.238 Q588.156 193.238 585.864 195.877 Q583.573 198.492 583.573 203.238 Q583.573 207.983 585.864 210.622 Q588.156 213.238 592.3 213.238 Q594.151 213.238 595.957 212.752 Q597.786 212.242 599.591 211.247 L599.591 215.182 Q597.809 216.016 595.887 216.432 Q593.989 216.849 591.837 216.849 Q585.98 216.849 582.531 213.168 Q579.082 209.488 579.082 203.238 Q579.082 196.895 582.554 193.261 Q586.05 189.627 592.114 189.627 Q594.082 189.627 595.957 190.043 Q597.832 190.437 599.591 191.247 Z" fill="#000000" fill-rule="evenodd" fill-opacity="1" /><path clip-path="url(#clip020)" d="M611.211 182.891 L611.211 190.252 L619.985 190.252 L619.985 193.562 L611.211 193.562 L611.211 207.636 Q611.211 210.807 612.068 211.71 Q612.948 212.613 615.61 212.613 L619.985 212.613 L619.985 216.178 L615.61 216.178 Q610.679 216.178 608.804 214.349 Q606.929 212.497 606.929 207.636 L606.929 193.562 L603.804 193.562 L603.804 190.252 L606.929 190.252 L606.929 182.891 L611.211 182.891 Z" fill="#000000" fill-rule="evenodd" fill-opacity="1" /><path clip-path="url(#clip020)" d="M625.586 190.252 L629.846 190.252 L629.846 216.178 L625.586 216.178 L625.586 190.252 M625.586 180.159 L629.846 180.159 L629.846 185.553 L625.586 185.553 L625.586 180.159 Z" fill="#000000" fill-rule="evenodd" fill-opacity="1" /><path clip-path="url(#clip020)" d="M648.804 193.238 Q645.378 193.238 643.387 195.923 Q641.396 198.585 641.396 203.238 Q641.396 207.891 643.364 210.576 Q645.355 213.238 648.804 213.238 Q652.207 213.238 654.197 210.553 Q656.188 207.867 656.188 203.238 Q656.188 198.631 654.197 195.946 Q652.207 193.238 648.804 193.238 M648.804 189.627 Q654.359 189.627 657.531 193.238 Q660.702 196.849 660.702 203.238 Q660.702 209.604 657.531 213.238 Q654.359 216.849 648.804 216.849 Q643.225 216.849 640.054 213.238 Q636.906 209.604 636.906 203.238 Q636.906 196.849 640.054 193.238 Q643.225 189.627 648.804 189.627 Z" fill="#000000" fill-rule="evenodd" fill-opacity="1" /><path clip-path="url(#clip020)" d="M689.313 200.529 L689.313 216.178 L685.054 216.178 L685.054 200.668 Q685.054 196.988 683.618 195.159 Q682.183 193.33 679.313 193.33 Q675.864 193.33 673.873 195.53 Q671.882 197.729 671.882 201.525 L671.882 216.178 L667.6 216.178 L667.6 190.252 L671.882 190.252 L671.882 194.28 Q673.41 191.942 675.47 190.784 Q677.554 189.627 680.262 189.627 Q684.73 189.627 687.021 192.405 Q689.313 195.159 689.313 200.529 Z" fill="#000000" fill-rule="evenodd" fill-opacity="1" /><path clip-path="url(#clip020)" d="M710.401 190.252 L714.66 190.252 L719.984 210.483 L725.285 190.252 L730.308 190.252 L735.632 210.483 L740.933 190.252 L745.192 190.252 L738.41 216.178 L733.387 216.178 L727.808 194.928 L722.206 216.178 L717.183 216.178 L710.401 190.252 Z" fill="#000000" fill-rule="evenodd" fill-opacity="1" /><path clip-path="url(#clip020)" d="M751.651 190.252 L755.91 190.252 L755.91 216.178 L751.651 216.178 L751.651 190.252 M751.651 180.159 L755.91 180.159 L755.91 185.553 L751.651 185.553 L751.651 180.159 Z" fill="#000000" fill-rule="evenodd" fill-opacity="1" /><path clip-path="url(#clip020)" d="M769.035 182.891 L769.035 190.252 L777.808 190.252 L777.808 193.562 L769.035 193.562 L769.035 207.636 Q769.035 210.807 769.891 211.71 Q770.771 212.613 773.433 212.613 L777.808 212.613 L777.808 216.178 L773.433 216.178 Q768.502 216.178 766.627 214.349 Q764.752 212.497 764.752 207.636 L764.752 193.562 L761.627 193.562 L761.627 190.252 L764.752 190.252 L764.752 182.891 L769.035 182.891 Z" fill="#000000" fill-rule="evenodd" fill-opacity="1" /><path clip-path="url(#clip020)" d="M804.96 200.529 L804.96 216.178 L800.701 216.178 L800.701 200.668 Q800.701 196.988 799.266 195.159 Q797.831 193.33 794.96 193.33 Q791.511 193.33 789.521 195.53 Q787.53 197.729 787.53 201.525 L787.53 216.178 L783.248 216.178 L783.248 180.159 L787.53 180.159 L787.53 194.28 Q789.058 191.942 791.118 190.784 Q793.201 189.627 795.91 189.627 Q800.377 189.627 802.669 192.405 Q804.96 195.159 804.96 200.529 Z" fill="#000000" fill-rule="evenodd" fill-opacity="1" /><path clip-path="url(#clip020)" d="M841.65 180.159 L841.65 183.701 L837.576 183.701 Q835.284 183.701 834.382 184.627 Q833.502 185.553 833.502 187.96 L833.502 190.252 L840.516 190.252 L840.516 193.562 L833.502 193.562 L833.502 216.178 L829.22 216.178 L829.22 193.562 L825.146 193.562 L825.146 190.252 L829.22 190.252 L829.22 188.446 Q829.22 184.118 831.233 182.15 Q833.247 180.159 837.622 180.159 L841.65 180.159 Z" fill="#000000" fill-rule="evenodd" fill-opacity="1" /><path clip-path="url(#clip020)" d="M855.446 180.206 Q852.344 185.53 850.84 190.738 Q849.335 195.946 849.335 201.293 Q849.335 206.641 850.84 211.895 Q852.368 217.127 855.446 222.428 L851.743 222.428 Q848.27 216.988 846.534 211.733 Q844.821 206.479 844.821 201.293 Q844.821 196.131 846.534 190.9 Q848.247 185.668 851.743 180.206 L855.446 180.206 Z" fill="#000000" fill-rule="evenodd" fill-opacity="1" /><path clip-path="url(#clip020)" d="M885.261 190.252 L875.886 202.867 L885.747 216.178 L880.724 216.178 L873.178 205.992 L865.631 216.178 L860.608 216.178 L870.678 202.613 L861.465 190.252 L866.488 190.252 L873.363 199.488 L880.238 190.252 L885.261 190.252 Z" fill="#000000" fill-rule="evenodd" fill-opacity="1" /><path clip-path="url(#clip020)" d="M891.094 180.206 L894.798 180.206 Q898.27 185.668 899.983 190.9 Q901.719 196.131 901.719 201.293 Q901.719 206.479 899.983 211.733 Q898.27 216.988 894.798 222.428 L891.094 222.428 Q894.173 217.127 895.678 211.895 Q897.205 206.641 897.205 201.293 Q897.205 195.946 895.678 190.738 Q894.173 185.53 891.094 180.206 Z" fill="#000000" fill-rule="evenodd" fill-opacity="1" /><path clip-path="url(#clip020)" d="M925.886 194.65 L955.561 194.65 L955.561 198.539 L925.886 198.539 L925.886 194.65 M925.886 204.094 L955.561 204.094 L955.561 208.029 L925.886 208.029 L925.886 204.094 Z" fill="#000000" fill-rule="evenodd" fill-opacity="1" /><path clip-path="url(#clip020)" d="M984.751 212.242 L1001.07 212.242 L1001.07 216.178 L979.126 216.178 L979.126 212.242 Q981.788 209.488 986.371 204.858 Q990.978 200.205 992.158 198.863 Q994.404 196.34 995.283 194.604 Q996.186 192.844 996.186 191.155 Q996.186 188.4 994.242 186.664 Q992.321 184.928 989.219 184.928 Q987.02 184.928 984.566 185.692 Q982.135 186.455 979.358 188.006 L979.358 183.284 Q982.182 182.15 984.635 181.571 Q987.089 180.993 989.126 180.993 Q994.496 180.993 997.691 183.678 Q1000.89 186.363 1000.89 190.854 Q1000.89 192.983 1000.08 194.905 Q999.288 196.803 997.182 199.395 Q996.603 200.067 993.501 203.284 Q990.399 206.479 984.751 212.242 Z" fill="#000000" fill-rule="evenodd" fill-opacity="1" /><path clip-path="url(#clip020)" d="M1021.46 197.034 Q1018.32 197.034 1016.46 199.187 Q1014.64 201.34 1014.64 205.09 Q1014.64 208.816 1016.46 210.992 Q1018.32 213.145 1021.46 213.145 Q1024.61 213.145 1026.44 210.992 Q1028.29 208.816 1028.29 205.09 Q1028.29 201.34 1026.44 199.187 Q1024.61 197.034 1021.46 197.034 M1030.75 182.381 L1030.75 186.641 Q1028.99 185.807 1027.18 185.368 Q1025.4 184.928 1023.64 184.928 Q1019.01 184.928 1016.56 188.053 Q1014.13 191.178 1013.78 197.497 Q1015.14 195.483 1017.2 194.418 Q1019.26 193.33 1021.74 193.33 Q1026.95 193.33 1029.96 196.502 Q1032.99 199.65 1032.99 205.09 Q1032.99 210.414 1029.84 213.631 Q1026.7 216.849 1021.46 216.849 Q1015.47 216.849 1012.3 212.266 Q1009.13 207.659 1009.13 198.932 Q1009.13 190.738 1013.01 185.877 Q1016.9 180.993 1023.45 180.993 Q1025.21 180.993 1027 181.34 Q1028.8 181.687 1030.75 182.381 Z" fill="#000000" fill-rule="evenodd" fill-opacity="1" /><path clip-path="url(#clip020)" d="M1041.05 210.298 L1045.93 210.298 L1045.93 216.178 L1041.05 216.178 L1041.05 210.298 Z" fill="#000000" fill-rule="evenodd" fill-opacity="1" /><path clip-path="url(#clip020)" d="M1066.7 197.034 Q1063.55 197.034 1061.7 199.187 Q1059.87 201.34 1059.87 205.09 Q1059.87 208.816 1061.7 210.992 Q1063.55 213.145 1066.7 213.145 Q1069.84 213.145 1071.67 210.992 Q1073.52 208.816 1073.52 205.09 Q1073.52 201.34 1071.67 199.187 Q1069.84 197.034 1066.7 197.034 M1075.98 182.381 L1075.98 186.641 Q1074.22 185.807 1072.41 185.368 Q1070.63 184.928 1068.87 184.928 Q1064.24 184.928 1061.79 188.053 Q1059.36 191.178 1059.01 197.497 Q1060.38 195.483 1062.44 194.418 Q1064.5 193.33 1066.97 193.33 Q1072.18 193.33 1075.19 196.502 Q1078.22 199.65 1078.22 205.09 Q1078.22 210.414 1075.07 213.631 Q1071.93 216.849 1066.7 216.849 Q1060.7 216.849 1057.53 212.266 Q1054.36 207.659 1054.36 198.932 Q1054.36 190.738 1058.25 185.877 Q1062.13 180.993 1068.69 180.993 Q1070.45 180.993 1072.23 181.34 Q1074.03 181.687 1075.98 182.381 Z" fill="#000000" fill-rule="evenodd" fill-opacity="1" /><path clip-path="url(#clip020)" d="M1096.28 199.766 Q1092.94 199.766 1091.02 201.548 Q1089.13 203.33 1089.13 206.455 Q1089.13 209.58 1091.02 211.363 Q1092.94 213.145 1096.28 213.145 Q1099.61 213.145 1101.53 211.363 Q1103.45 209.557 1103.45 206.455 Q1103.45 203.33 1101.53 201.548 Q1099.63 199.766 1096.28 199.766 M1091.6 197.775 Q1088.59 197.034 1086.9 194.974 Q1085.24 192.914 1085.24 189.951 Q1085.24 185.807 1088.18 183.4 Q1091.14 180.993 1096.28 180.993 Q1101.44 180.993 1104.38 183.4 Q1107.32 185.807 1107.32 189.951 Q1107.32 192.914 1105.63 194.974 Q1103.96 197.034 1100.98 197.775 Q1104.36 198.562 1106.23 200.854 Q1108.13 203.145 1108.13 206.455 Q1108.13 211.479 1105.05 214.164 Q1102 216.849 1096.28 216.849 Q1090.56 216.849 1087.48 214.164 Q1084.43 211.479 1084.43 206.455 Q1084.43 203.145 1086.32 200.854 Q1088.22 198.562 1091.6 197.775 M1089.89 190.391 Q1089.89 193.076 1091.56 194.58 Q1093.25 196.085 1096.28 196.085 Q1099.29 196.085 1100.98 194.58 Q1102.69 193.076 1102.69 190.391 Q1102.69 187.705 1100.98 186.201 Q1099.29 184.696 1096.28 184.696 Q1093.25 184.696 1091.56 186.201 Q1089.89 187.705 1089.89 190.391 Z" fill="#000000" fill-rule="evenodd" fill-opacity="1" /><path clip-path="url(#clip020)" d="M1148.73 187.312 L1140.42 191.803 L1148.73 196.317 L1147.39 198.585 L1139.61 193.886 L1139.61 202.613 L1136.97 202.613 L1136.97 193.886 L1129.19 198.585 L1127.85 196.317 L1136.16 191.803 L1127.85 187.312 L1129.19 185.02 L1136.97 189.719 L1136.97 180.993 L1139.61 180.993 L1139.61 189.719 L1147.39 185.02 L1148.73 187.312 Z" fill="#000000" fill-rule="evenodd" fill-opacity="1" /><path clip-path="url(#clip020)" d="M1191.23 190.252 L1181.86 202.867 L1191.72 216.178 L1186.69 216.178 L1179.15 205.992 L1171.6 216.178 L1166.58 216.178 L1176.65 202.613 L1167.44 190.252 L1172.46 190.252 L1179.33 199.488 L1186.21 190.252 L1191.23 190.252 Z" fill="#000000" fill-rule="evenodd" fill-opacity="1" /><path clip-path="url(#clip020)" d="M1230.14 186.455 L1230.14 199.349 L1243.04 199.349 L1243.04 203.284 L1230.14 203.284 L1230.14 216.178 L1226.25 216.178 L1226.25 203.284 L1213.36 203.284 L1213.36 199.349 L1226.25 199.349 L1226.25 186.455 L1230.14 186.455 Z" fill="#000000" fill-rule="evenodd" fill-opacity="1" /><path clip-path="url(#clip020)" d="M1267.02 181.618 L1289.24 181.618 L1289.24 183.608 L1276.69 216.178 L1271.81 216.178 L1283.62 185.553 L1267.02 185.553 L1267.02 181.618 Z" fill="#000000" fill-rule="evenodd" fill-opacity="1" /><path clip-path="url(#clip020)" d="M1298.5 215.46 L1298.5 211.201 Q1300.26 212.034 1302.06 212.474 Q1303.87 212.914 1305.61 212.914 Q1310.24 212.914 1312.67 209.812 Q1315.12 206.687 1315.47 200.344 Q1314.12 202.335 1312.06 203.4 Q1310 204.465 1307.5 204.465 Q1302.32 204.465 1299.29 201.34 Q1296.28 198.192 1296.28 192.752 Q1296.28 187.428 1299.43 184.21 Q1302.57 180.993 1307.8 180.993 Q1313.8 180.993 1316.95 185.599 Q1320.12 190.182 1320.12 198.932 Q1320.12 207.104 1316.23 211.988 Q1312.37 216.849 1305.81 216.849 Q1304.05 216.849 1302.25 216.502 Q1300.44 216.154 1298.5 215.46 M1307.8 200.807 Q1310.95 200.807 1312.78 198.654 Q1314.63 196.502 1314.63 192.752 Q1314.63 189.025 1312.78 186.872 Q1310.95 184.696 1307.8 184.696 Q1304.66 184.696 1302.8 186.872 Q1300.98 189.025 1300.98 192.752 Q1300.98 196.502 1302.8 198.654 Q1304.66 200.807 1307.8 200.807 Z" fill="#000000" fill-rule="evenodd" fill-opacity="1" /><path clip-path="url(#clip020)" d="M1328.52 210.298 L1333.41 210.298 L1333.41 216.178 L1328.52 216.178 L1328.52 210.298 Z" fill="#000000" fill-rule="evenodd" fill-opacity="1" /><path clip-path="url(#clip020)" d="M1343.73 215.46 L1343.73 211.201 Q1345.49 212.034 1347.3 212.474 Q1349.1 212.914 1350.84 212.914 Q1355.47 212.914 1357.9 209.812 Q1360.35 206.687 1360.7 200.344 Q1359.36 202.335 1357.3 203.4 Q1355.24 204.465 1352.74 204.465 Q1347.55 204.465 1344.52 201.34 Q1341.51 198.192 1341.51 192.752 Q1341.51 187.428 1344.66 184.21 Q1347.8 180.993 1353.04 180.993 Q1359.03 180.993 1362.18 185.599 Q1365.35 190.182 1365.35 198.932 Q1365.35 207.104 1361.46 211.988 Q1357.6 216.849 1351.05 216.849 Q1349.29 216.849 1347.48 216.502 Q1345.68 216.154 1343.73 215.46 M1353.04 200.807 Q1356.18 200.807 1358.01 198.654 Q1359.86 196.502 1359.86 192.752 Q1359.86 189.025 1358.01 186.872 Q1356.18 184.696 1353.04 184.696 Q1349.89 184.696 1348.04 186.872 Q1346.21 189.025 1346.21 192.752 Q1346.21 196.502 1348.04 198.654 Q1349.89 200.807 1353.04 200.807 Z" fill="#000000" fill-rule="evenodd" fill-opacity="1" /><path clip-path="url(#clip020)" d="M1386.6 185.692 L1374.8 204.141 L1386.6 204.141 L1386.6 185.692 M1385.37 181.618 L1391.25 181.618 L1391.25 204.141 L1396.18 204.141 L1396.18 208.029 L1391.25 208.029 L1391.25 216.178 L1386.6 216.178 L1386.6 208.029 L1371 208.029 L1371 203.516 L1385.37 181.618 Z" fill="#000000" fill-rule="evenodd" fill-opacity="1" /></svg>
