<?xml version="1.0" encoding="utf-8"?>
<svg xmlns="http://www.w3.org/2000/svg" xmlns:xlink="http://www.w3.org/1999/xlink" width="600" height="400" viewBox="0 0 2400 1600">
<defs>
  <clipPath id="clip420">
    <rect x="0" y="0" width="2400" height="1600"/>
  </clipPath>
</defs>
<path clip-path="url(#clip420)" d="
M0 1600 L2400 1600 L2400 0 L0 0  Z
  " fill="#ffffff" fill-rule="evenodd" fill-opacity="1"/>
<defs>
  <clipPath id="clip421">
    <rect x="480" y="0" width="1681" height="1600"/>
  </clipPath>
</defs>
<path clip-path="url(#clip420)" d="
M147.478 1486.45 L2352.76 1486.45 L2352.76 47.2441 L147.478 47.2441  Z
  " fill="#ffffff" fill-rule="evenodd" fill-opacity="1"/>
<defs>
  <clipPath id="clip422">
    <rect x="147" y="47" width="2206" height="1440"/>
  </clipPath>
</defs>
<polyline clip-path="url(#clip422)" style="stroke:#000000; stroke-linecap:butt; stroke-linejoin:round; stroke-width:2; stroke-opacity:0.1; fill:none" points="
  167.433,1486.45 167.433,47.2441 
  "/>
<polyline clip-path="url(#clip422)" style="stroke:#000000; stroke-linecap:butt; stroke-linejoin:round; stroke-width:2; stroke-opacity:0.1; fill:none" points="
  592.015,1486.45 592.015,47.2441 
  "/>
<polyline clip-path="url(#clip422)" style="stroke:#000000; stroke-linecap:butt; stroke-linejoin:round; stroke-width:2; stroke-opacity:0.1; fill:none" points="
  1016.6,1486.45 1016.6,47.2441 
  "/>
<polyline clip-path="url(#clip422)" style="stroke:#000000; stroke-linecap:butt; stroke-linejoin:round; stroke-width:2; stroke-opacity:0.1; fill:none" points="
  1441.18,1486.45 1441.18,47.2441 
  "/>
<polyline clip-path="url(#clip422)" style="stroke:#000000; stroke-linecap:butt; stroke-linejoin:round; stroke-width:2; stroke-opacity:0.1; fill:none" points="
  1865.76,1486.45 1865.76,47.2441 
  "/>
<polyline clip-path="url(#clip422)" style="stroke:#000000; stroke-linecap:butt; stroke-linejoin:round; stroke-width:2; stroke-opacity:0.1; fill:none" points="
  2290.34,1486.45 2290.34,47.2441 
  "/>
<polyline clip-path="url(#clip420)" style="stroke:#000000; stroke-linecap:butt; stroke-linejoin:round; stroke-width:4; stroke-opacity:1; fill:none" points="
  147.478,1486.45 2352.76,1486.45 
  "/>
<polyline clip-path="url(#clip420)" style="stroke:#000000; stroke-linecap:butt; stroke-linejoin:round; stroke-width:4; stroke-opacity:1; fill:none" points="
  167.433,1486.45 167.433,1467.55 
  "/>
<polyline clip-path="url(#clip420)" style="stroke:#000000; stroke-linecap:butt; stroke-linejoin:round; stroke-width:4; stroke-opacity:1; fill:none" points="
  592.015,1486.45 592.015,1467.55 
  "/>
<polyline clip-path="url(#clip420)" style="stroke:#000000; stroke-linecap:butt; stroke-linejoin:round; stroke-width:4; stroke-opacity:1; fill:none" points="
  1016.6,1486.45 1016.6,1467.55 
  "/>
<polyline clip-path="url(#clip420)" style="stroke:#000000; stroke-linecap:butt; stroke-linejoin:round; stroke-width:4; stroke-opacity:1; fill:none" points="
  1441.18,1486.45 1441.18,1467.55 
  "/>
<polyline clip-path="url(#clip420)" style="stroke:#000000; stroke-linecap:butt; stroke-linejoin:round; stroke-width:4; stroke-opacity:1; fill:none" points="
  1865.76,1486.45 1865.76,1467.55 
  "/>
<polyline clip-path="url(#clip420)" style="stroke:#000000; stroke-linecap:butt; stroke-linejoin:round; stroke-width:4; stroke-opacity:1; fill:none" points="
  2290.34,1486.45 2290.34,1467.55 
  "/>
<path clip-path="url(#clip420)" d="M167.433 1517.37 Q163.822 1517.37 161.993 1520.93 Q160.188 1524.47 160.188 1531.6 Q160.188 1538.71 161.993 1542.27 Q163.822 1545.82 167.433 1545.82 Q171.067 1545.82 172.873 1542.27 Q174.702 1538.71 174.702 1531.6 Q174.702 1524.47 172.873 1520.93 Q171.067 1517.37 167.433 1517.37 M167.433 1513.66 Q173.243 1513.66 176.299 1518.27 Q179.378 1522.85 179.378 1531.6 Q179.378 1540.33 176.299 1544.94 Q173.243 1549.52 167.433 1549.52 Q161.623 1549.52 158.544 1544.94 Q155.489 1540.33 155.489 1531.6 Q155.489 1522.85 158.544 1518.27 Q161.623 1513.66 167.433 1513.66 Z" fill="#000000" fill-rule="evenodd" fill-opacity="1" /><path clip-path="url(#clip420)" d="M566.703 1544.91 L574.342 1544.91 L574.342 1518.55 L566.031 1520.21 L566.031 1515.95 L574.295 1514.29 L578.971 1514.29 L578.971 1544.91 L586.61 1544.91 L586.61 1548.85 L566.703 1548.85 L566.703 1544.91 Z" fill="#000000" fill-rule="evenodd" fill-opacity="1" /><path clip-path="url(#clip420)" d="M606.054 1517.37 Q602.443 1517.37 600.615 1520.93 Q598.809 1524.47 598.809 1531.6 Q598.809 1538.71 600.615 1542.27 Q602.443 1545.82 606.054 1545.82 Q609.689 1545.82 611.494 1542.27 Q613.323 1538.71 613.323 1531.6 Q613.323 1524.47 611.494 1520.93 Q609.689 1517.37 606.054 1517.37 M606.054 1513.66 Q611.865 1513.66 614.92 1518.27 Q617.999 1522.85 617.999 1531.6 Q617.999 1540.33 614.92 1544.94 Q611.865 1549.52 606.054 1549.52 Q600.244 1549.52 597.166 1544.94 Q594.11 1540.33 594.11 1531.6 Q594.11 1522.85 597.166 1518.27 Q600.244 1513.66 606.054 1513.66 Z" fill="#000000" fill-rule="evenodd" fill-opacity="1" /><path clip-path="url(#clip420)" d="M995.37 1544.91 L1011.69 1544.91 L1011.69 1548.85 L989.745 1548.85 L989.745 1544.91 Q992.407 1542.16 996.991 1537.53 Q1001.6 1532.88 1002.78 1531.53 Q1005.02 1529.01 1005.9 1527.27 Q1006.81 1525.51 1006.81 1523.82 Q1006.81 1521.07 1004.86 1519.33 Q1002.94 1517.6 999.838 1517.6 Q997.639 1517.6 995.185 1518.36 Q992.754 1519.13 989.977 1520.68 L989.977 1515.95 Q992.801 1514.82 995.254 1514.24 Q997.708 1513.66 999.745 1513.66 Q1005.12 1513.66 1008.31 1516.35 Q1011.5 1519.03 1011.5 1523.52 Q1011.5 1525.65 1010.69 1527.57 Q1009.91 1529.47 1007.8 1532.07 Q1007.22 1532.74 1004.12 1535.95 Q1001.02 1539.15 995.37 1544.91 Z" fill="#000000" fill-rule="evenodd" fill-opacity="1" /><path clip-path="url(#clip420)" d="M1031.5 1517.37 Q1027.89 1517.37 1026.06 1520.93 Q1024.26 1524.47 1024.26 1531.6 Q1024.26 1538.71 1026.06 1542.27 Q1027.89 1545.82 1031.5 1545.82 Q1035.14 1545.82 1036.94 1542.27 Q1038.77 1538.71 1038.77 1531.6 Q1038.77 1524.47 1036.94 1520.93 Q1035.14 1517.37 1031.5 1517.37 M1031.5 1513.66 Q1037.31 1513.66 1040.37 1518.27 Q1043.45 1522.85 1043.45 1531.6 Q1043.45 1540.33 1040.37 1544.94 Q1037.31 1549.52 1031.5 1549.52 Q1025.69 1549.52 1022.62 1544.94 Q1019.56 1540.33 1019.56 1531.6 Q1019.56 1522.85 1022.62 1518.27 Q1025.69 1513.66 1031.5 1513.66 Z" fill="#000000" fill-rule="evenodd" fill-opacity="1" /><path clip-path="url(#clip420)" d="M1430.02 1530.21 Q1433.38 1530.93 1435.25 1533.2 Q1437.15 1535.47 1437.15 1538.8 Q1437.15 1543.92 1433.63 1546.72 Q1430.11 1549.52 1423.63 1549.52 Q1421.46 1549.52 1419.14 1549.08 Q1416.85 1548.66 1414.4 1547.81 L1414.4 1543.29 Q1416.34 1544.43 1418.66 1545.01 Q1420.97 1545.58 1423.49 1545.58 Q1427.89 1545.58 1430.18 1543.85 Q1432.5 1542.11 1432.5 1538.8 Q1432.5 1535.75 1430.35 1534.03 Q1428.22 1532.3 1424.4 1532.3 L1420.37 1532.3 L1420.37 1528.45 L1424.58 1528.45 Q1428.03 1528.45 1429.86 1527.09 Q1431.69 1525.7 1431.69 1523.11 Q1431.69 1520.45 1429.79 1519.03 Q1427.91 1517.6 1424.4 1517.6 Q1422.48 1517.6 1420.28 1518.01 Q1418.08 1518.43 1415.44 1519.31 L1415.44 1515.14 Q1418.1 1514.4 1420.41 1514.03 Q1422.75 1513.66 1424.81 1513.66 Q1430.14 1513.66 1433.24 1516.09 Q1436.34 1518.5 1436.34 1522.62 Q1436.34 1525.49 1434.7 1527.48 Q1433.05 1529.45 1430.02 1530.21 Z" fill="#000000" fill-rule="evenodd" fill-opacity="1" /><path clip-path="url(#clip420)" d="M1456.02 1517.37 Q1452.41 1517.37 1450.58 1520.93 Q1448.77 1524.47 1448.77 1531.6 Q1448.77 1538.71 1450.58 1542.27 Q1452.41 1545.82 1456.02 1545.82 Q1459.65 1545.82 1461.46 1542.27 Q1463.29 1538.71 1463.29 1531.6 Q1463.29 1524.47 1461.46 1520.93 Q1459.65 1517.37 1456.02 1517.37 M1456.02 1513.66 Q1461.83 1513.66 1464.88 1518.27 Q1467.96 1522.85 1467.96 1531.6 Q1467.96 1540.33 1464.88 1544.94 Q1461.83 1549.52 1456.02 1549.52 Q1450.21 1549.52 1447.13 1544.94 Q1444.07 1540.33 1444.07 1531.6 Q1444.07 1522.85 1447.13 1518.27 Q1450.21 1513.66 1456.02 1513.66 Z" fill="#000000" fill-rule="evenodd" fill-opacity="1" /><path clip-path="url(#clip420)" d="M1853.93 1518.36 L1842.13 1536.81 L1853.93 1536.81 L1853.93 1518.36 M1852.71 1514.29 L1858.58 1514.29 L1858.58 1536.81 L1863.52 1536.81 L1863.52 1540.7 L1858.58 1540.7 L1858.58 1548.85 L1853.93 1548.85 L1853.93 1540.7 L1838.33 1540.7 L1838.33 1536.19 L1852.71 1514.29 Z" fill="#000000" fill-rule="evenodd" fill-opacity="1" /><path clip-path="url(#clip420)" d="M1881.25 1517.37 Q1877.64 1517.37 1875.81 1520.93 Q1874 1524.47 1874 1531.6 Q1874 1538.71 1875.81 1542.27 Q1877.64 1545.82 1881.25 1545.82 Q1884.88 1545.82 1886.69 1542.27 Q1888.52 1538.71 1888.52 1531.6 Q1888.52 1524.47 1886.69 1520.93 Q1884.88 1517.37 1881.25 1517.37 M1881.25 1513.66 Q1887.06 1513.66 1890.11 1518.27 Q1893.19 1522.85 1893.19 1531.6 Q1893.19 1540.33 1890.11 1544.94 Q1887.06 1549.52 1881.25 1549.52 Q1875.44 1549.52 1872.36 1544.94 Q1869.3 1540.33 1869.3 1531.6 Q1869.3 1522.85 1872.36 1518.27 Q1875.44 1513.66 1881.25 1513.66 Z" fill="#000000" fill-rule="evenodd" fill-opacity="1" /><path clip-path="url(#clip420)" d="M2265.04 1514.29 L2283.4 1514.29 L2283.4 1518.22 L2269.32 1518.22 L2269.32 1526.7 Q2270.34 1526.35 2271.36 1526.19 Q2272.38 1526 2273.4 1526 Q2279.19 1526 2282.56 1529.17 Q2285.94 1532.34 2285.94 1537.76 Q2285.94 1543.34 2282.47 1546.44 Q2279 1549.52 2272.68 1549.52 Q2270.5 1549.52 2268.24 1549.15 Q2265.99 1548.78 2263.58 1548.04 L2263.58 1543.34 Q2265.67 1544.47 2267.89 1545.03 Q2270.11 1545.58 2272.59 1545.58 Q2276.59 1545.58 2278.93 1543.48 Q2281.27 1541.37 2281.27 1537.76 Q2281.27 1534.15 2278.93 1532.04 Q2276.59 1529.94 2272.59 1529.94 Q2270.71 1529.94 2268.84 1530.35 Q2266.99 1530.77 2265.04 1531.65 L2265.04 1514.29 Z" fill="#000000" fill-rule="evenodd" fill-opacity="1" /><path clip-path="url(#clip420)" d="M2305.16 1517.37 Q2301.55 1517.37 2299.72 1520.93 Q2297.91 1524.47 2297.91 1531.6 Q2297.91 1538.71 2299.72 1542.27 Q2301.55 1545.82 2305.16 1545.82 Q2308.79 1545.82 2310.6 1542.27 Q2312.43 1538.71 2312.43 1531.6 Q2312.43 1524.47 2310.6 1520.93 Q2308.79 1517.37 2305.16 1517.37 M2305.16 1513.66 Q2310.97 1513.66 2314.02 1518.27 Q2317.1 1522.85 2317.1 1531.6 Q2317.1 1540.33 2314.02 1544.94 Q2310.97 1549.52 2305.16 1549.52 Q2299.35 1549.52 2296.27 1544.94 Q2293.21 1540.33 2293.21 1531.6 Q2293.21 1522.85 2296.27 1518.27 Q2299.35 1513.66 2305.16 1513.66 Z" fill="#000000" fill-rule="evenodd" fill-opacity="1" /><polyline clip-path="url(#clip422)" style="stroke:#000000; stroke-linecap:butt; stroke-linejoin:round; stroke-width:2; stroke-opacity:0.1; fill:none" points="
  147.478,1189.59 2352.76,1189.59 
  "/>
<polyline clip-path="url(#clip422)" style="stroke:#000000; stroke-linecap:butt; stroke-linejoin:round; stroke-width:2; stroke-opacity:0.1; fill:none" points="
  147.478,816.556 2352.76,816.556 
  "/>
<polyline clip-path="url(#clip422)" style="stroke:#000000; stroke-linecap:butt; stroke-linejoin:round; stroke-width:2; stroke-opacity:0.1; fill:none" points="
  147.478,443.523 2352.76,443.523 
  "/>
<polyline clip-path="url(#clip422)" style="stroke:#000000; stroke-linecap:butt; stroke-linejoin:round; stroke-width:2; stroke-opacity:0.1; fill:none" points="
  147.478,70.4908 2352.76,70.4908 
  "/>
<polyline clip-path="url(#clip420)" style="stroke:#000000; stroke-linecap:butt; stroke-linejoin:round; stroke-width:4; stroke-opacity:1; fill:none" points="
  147.478,1486.45 147.478,47.2441 
  "/>
<polyline clip-path="url(#clip420)" style="stroke:#000000; stroke-linecap:butt; stroke-linejoin:round; stroke-width:4; stroke-opacity:1; fill:none" points="
  147.478,1189.59 166.376,1189.59 
  "/>
<polyline clip-path="url(#clip420)" style="stroke:#000000; stroke-linecap:butt; stroke-linejoin:round; stroke-width:4; stroke-opacity:1; fill:none" points="
  147.478,816.556 166.376,816.556 
  "/>
<polyline clip-path="url(#clip420)" style="stroke:#000000; stroke-linecap:butt; stroke-linejoin:round; stroke-width:4; stroke-opacity:1; fill:none" points="
  147.478,443.523 166.376,443.523 
  "/>
<polyline clip-path="url(#clip420)" style="stroke:#000000; stroke-linecap:butt; stroke-linejoin:round; stroke-width:4; stroke-opacity:1; fill:none" points="
  147.478,70.4908 166.376,70.4908 
  "/>
<path clip-path="url(#clip420)" d="M50.9921 1190.04 L80.6679 1190.04 L80.6679 1193.98 L50.9921 1193.98 L50.9921 1190.04 Z" fill="#000000" fill-rule="evenodd" fill-opacity="1" /><path clip-path="url(#clip420)" d="M91.5706 1202.93 L99.2095 1202.93 L99.2095 1176.57 L90.8993 1178.23 L90.8993 1173.98 L99.1632 1172.31 L103.839 1172.31 L103.839 1202.93 L111.478 1202.93 L111.478 1206.87 L91.5706 1206.87 L91.5706 1202.93 Z" fill="#000000" fill-rule="evenodd" fill-opacity="1" /><path clip-path="url(#clip420)" d="M99.5335 802.355 Q95.9224 802.355 94.0937 805.919 Q92.2882 809.461 92.2882 816.591 Q92.2882 823.697 94.0937 827.262 Q95.9224 830.804 99.5335 830.804 Q103.168 830.804 104.973 827.262 Q106.802 823.697 106.802 816.591 Q106.802 809.461 104.973 805.919 Q103.168 802.355 99.5335 802.355 M99.5335 798.651 Q105.344 798.651 108.399 803.257 Q111.478 807.841 111.478 816.591 Q111.478 825.317 108.399 829.924 Q105.344 834.507 99.5335 834.507 Q93.7234 834.507 90.6447 829.924 Q87.5892 825.317 87.5892 816.591 Q87.5892 807.841 90.6447 803.257 Q93.7234 798.651 99.5335 798.651 Z" fill="#000000" fill-rule="evenodd" fill-opacity="1" /><path clip-path="url(#clip420)" d="M91.5706 456.868 L99.2095 456.868 L99.2095 430.503 L90.8993 432.169 L90.8993 427.91 L99.1632 426.243 L103.839 426.243 L103.839 456.868 L111.478 456.868 L111.478 460.803 L91.5706 460.803 L91.5706 456.868 Z" fill="#000000" fill-rule="evenodd" fill-opacity="1" /><path clip-path="url(#clip420)" d="M95.1586 83.8356 L111.478 83.8356 L111.478 87.7708 L89.5336 87.7708 L89.5336 83.8356 Q92.1956 81.081 96.7789 76.4514 Q101.385 71.7986 102.566 70.456 Q104.811 67.9329 105.691 66.1968 Q106.594 64.4376 106.594 62.7478 Q106.594 59.9931 104.649 58.257 Q102.728 56.5209 99.6261 56.5209 Q97.4271 56.5209 94.9734 57.2848 Q92.5428 58.0487 89.7651 59.5996 L89.7651 54.8774 Q92.5891 53.7432 95.0428 53.1645 Q97.4965 52.5858 99.5335 52.5858 Q104.904 52.5858 108.098 55.2709 Q111.293 57.9561 111.293 62.4468 Q111.293 64.5764 110.483 66.4977 Q109.696 68.3959 107.589 70.9885 Q107.01 71.6597 103.909 74.8773 Q100.807 78.0717 95.1586 83.8356 Z" fill="#000000" fill-rule="evenodd" fill-opacity="1" /><circle clip-path="url(#clip422)" cx="209.891" cy="1400.95" r="14" fill="#009af9" fill-rule="evenodd" fill-opacity="1" stroke="#000000" stroke-opacity="1" stroke-width="3.2"/>
<circle clip-path="url(#clip422)" cx="252.35" cy="1379.49" r="14" fill="#009af9" fill-rule="evenodd" fill-opacity="1" stroke="#000000" stroke-opacity="1" stroke-width="3.2"/>
<circle clip-path="url(#clip422)" cx="294.808" cy="1381.42" r="14" fill="#009af9" fill-rule="evenodd" fill-opacity="1" stroke="#000000" stroke-opacity="1" stroke-width="3.2"/>
<circle clip-path="url(#clip422)" cx="337.266" cy="1364.64" r="14" fill="#009af9" fill-rule="evenodd" fill-opacity="1" stroke="#000000" stroke-opacity="1" stroke-width="3.2"/>
<circle clip-path="url(#clip422)" cx="379.724" cy="1302.35" r="14" fill="#009af9" fill-rule="evenodd" fill-opacity="1" stroke="#000000" stroke-opacity="1" stroke-width="3.2"/>
<circle clip-path="url(#clip422)" cx="422.182" cy="1273.86" r="14" fill="#009af9" fill-rule="evenodd" fill-opacity="1" stroke="#000000" stroke-opacity="1" stroke-width="3.2"/>
<circle clip-path="url(#clip422)" cx="464.641" cy="1211.53" r="14" fill="#009af9" fill-rule="evenodd" fill-opacity="1" stroke="#000000" stroke-opacity="1" stroke-width="3.2"/>
<circle clip-path="url(#clip422)" cx="507.099" cy="1222.86" r="14" fill="#009af9" fill-rule="evenodd" fill-opacity="1" stroke="#000000" stroke-opacity="1" stroke-width="3.2"/>
<circle clip-path="url(#clip422)" cx="549.557" cy="1234.77" r="14" fill="#009af9" fill-rule="evenodd" fill-opacity="1" stroke="#000000" stroke-opacity="1" stroke-width="3.2"/>
<circle clip-path="url(#clip422)" cx="592.015" cy="1201.54" r="14" fill="#009af9" fill-rule="evenodd" fill-opacity="1" stroke="#000000" stroke-opacity="1" stroke-width="3.2"/>
<circle clip-path="url(#clip422)" cx="634.473" cy="1279.73" r="14" fill="#009af9" fill-rule="evenodd" fill-opacity="1" stroke="#000000" stroke-opacity="1" stroke-width="3.2"/>
<circle clip-path="url(#clip422)" cx="676.931" cy="1133.4" r="14" fill="#009af9" fill-rule="evenodd" fill-opacity="1" stroke="#000000" stroke-opacity="1" stroke-width="3.2"/>
<circle clip-path="url(#clip422)" cx="719.39" cy="1102.63" r="14" fill="#009af9" fill-rule="evenodd" fill-opacity="1" stroke="#000000" stroke-opacity="1" stroke-width="3.2"/>
<circle clip-path="url(#clip422)" cx="761.848" cy="1162.17" r="14" fill="#009af9" fill-rule="evenodd" fill-opacity="1" stroke="#000000" stroke-opacity="1" stroke-width="3.2"/>
<circle clip-path="url(#clip422)" cx="804.306" cy="1110.46" r="14" fill="#009af9" fill-rule="evenodd" fill-opacity="1" stroke="#000000" stroke-opacity="1" stroke-width="3.2"/>
<circle clip-path="url(#clip422)" cx="846.764" cy="1078.4" r="14" fill="#009af9" fill-rule="evenodd" fill-opacity="1" stroke="#000000" stroke-opacity="1" stroke-width="3.2"/>
<circle clip-path="url(#clip422)" cx="889.222" cy="922.826" r="14" fill="#009af9" fill-rule="evenodd" fill-opacity="1" stroke="#000000" stroke-opacity="1" stroke-width="3.2"/>
<circle clip-path="url(#clip422)" cx="931.681" cy="1048.75" r="14" fill="#009af9" fill-rule="evenodd" fill-opacity="1" stroke="#000000" stroke-opacity="1" stroke-width="3.2"/>
<circle clip-path="url(#clip422)" cx="974.139" cy="983.652" r="14" fill="#009af9" fill-rule="evenodd" fill-opacity="1" stroke="#000000" stroke-opacity="1" stroke-width="3.2"/>
<circle clip-path="url(#clip422)" cx="1016.6" cy="949.172" r="14" fill="#009af9" fill-rule="evenodd" fill-opacity="1" stroke="#000000" stroke-opacity="1" stroke-width="3.2"/>
<circle clip-path="url(#clip422)" cx="1059.06" cy="925.613" r="14" fill="#009af9" fill-rule="evenodd" fill-opacity="1" stroke="#000000" stroke-opacity="1" stroke-width="3.2"/>
<circle clip-path="url(#clip422)" cx="1101.51" cy="829.963" r="14" fill="#009af9" fill-rule="evenodd" fill-opacity="1" stroke="#000000" stroke-opacity="1" stroke-width="3.2"/>
<circle clip-path="url(#clip422)" cx="1143.97" cy="874.346" r="14" fill="#009af9" fill-rule="evenodd" fill-opacity="1" stroke="#000000" stroke-opacity="1" stroke-width="3.2"/>
<circle clip-path="url(#clip422)" cx="1186.43" cy="795.563" r="14" fill="#009af9" fill-rule="evenodd" fill-opacity="1" stroke="#000000" stroke-opacity="1" stroke-width="3.2"/>
<circle clip-path="url(#clip422)" cx="1228.89" cy="829.669" r="14" fill="#009af9" fill-rule="evenodd" fill-opacity="1" stroke="#000000" stroke-opacity="1" stroke-width="3.2"/>
<circle clip-path="url(#clip422)" cx="1271.35" cy="821.278" r="14" fill="#009af9" fill-rule="evenodd" fill-opacity="1" stroke="#000000" stroke-opacity="1" stroke-width="3.2"/>
<circle clip-path="url(#clip422)" cx="1313.8" cy="823.541" r="14" fill="#009af9" fill-rule="evenodd" fill-opacity="1" stroke="#000000" stroke-opacity="1" stroke-width="3.2"/>
<circle clip-path="url(#clip422)" cx="1356.26" cy="870.314" r="14" fill="#009af9" fill-rule="evenodd" fill-opacity="1" stroke="#000000" stroke-opacity="1" stroke-width="3.2"/>
<circle clip-path="url(#clip422)" cx="1398.72" cy="530.482" r="14" fill="#009af9" fill-rule="evenodd" fill-opacity="1" stroke="#000000" stroke-opacity="1" stroke-width="3.2"/>
<circle clip-path="url(#clip422)" cx="1441.18" cy="790.28" r="14" fill="#009af9" fill-rule="evenodd" fill-opacity="1" stroke="#000000" stroke-opacity="1" stroke-width="3.2"/>
<circle clip-path="url(#clip422)" cx="1483.64" cy="891.691" r="14" fill="#009af9" fill-rule="evenodd" fill-opacity="1" stroke="#000000" stroke-opacity="1" stroke-width="3.2"/>
<circle clip-path="url(#clip422)" cx="1526.1" cy="570.02" r="14" fill="#009af9" fill-rule="evenodd" fill-opacity="1" stroke="#000000" stroke-opacity="1" stroke-width="3.2"/>
<circle clip-path="url(#clip422)" cx="1568.55" cy="591.892" r="14" fill="#009af9" fill-rule="evenodd" fill-opacity="1" stroke="#000000" stroke-opacity="1" stroke-width="3.2"/>
<circle clip-path="url(#clip422)" cx="1611.01" cy="705.603" r="14" fill="#009af9" fill-rule="evenodd" fill-opacity="1" stroke="#000000" stroke-opacity="1" stroke-width="3.2"/>
<circle clip-path="url(#clip422)" cx="1653.47" cy="706.546" r="14" fill="#009af9" fill-rule="evenodd" fill-opacity="1" stroke="#000000" stroke-opacity="1" stroke-width="3.2"/>
<circle clip-path="url(#clip422)" cx="1695.93" cy="569.183" r="14" fill="#009af9" fill-rule="evenodd" fill-opacity="1" stroke="#000000" stroke-opacity="1" stroke-width="3.2"/>
<circle clip-path="url(#clip422)" cx="1738.39" cy="347.947" r="14" fill="#009af9" fill-rule="evenodd" fill-opacity="1" stroke="#000000" stroke-opacity="1" stroke-width="3.2"/>
<circle clip-path="url(#clip422)" cx="1780.84" cy="486.581" r="14" fill="#009af9" fill-rule="evenodd" fill-opacity="1" stroke="#000000" stroke-opacity="1" stroke-width="3.2"/>
<circle clip-path="url(#clip422)" cx="1823.3" cy="318.335" r="14" fill="#009af9" fill-rule="evenodd" fill-opacity="1" stroke="#000000" stroke-opacity="1" stroke-width="3.2"/>
<circle clip-path="url(#clip422)" cx="1865.76" cy="663.391" r="14" fill="#009af9" fill-rule="evenodd" fill-opacity="1" stroke="#000000" stroke-opacity="1" stroke-width="3.2"/>
<circle clip-path="url(#clip422)" cx="1908.22" cy="555.489" r="14" fill="#009af9" fill-rule="evenodd" fill-opacity="1" stroke="#000000" stroke-opacity="1" stroke-width="3.2"/>
<circle clip-path="url(#clip422)" cx="1950.68" cy="87.9763" r="14" fill="#009af9" fill-rule="evenodd" fill-opacity="1" stroke="#000000" stroke-opacity="1" stroke-width="3.2"/>
<circle clip-path="url(#clip422)" cx="1993.14" cy="175.774" r="14" fill="#009af9" fill-rule="evenodd" fill-opacity="1" stroke="#000000" stroke-opacity="1" stroke-width="3.2"/>
<circle clip-path="url(#clip422)" cx="2035.59" cy="478.49" r="14" fill="#009af9" fill-rule="evenodd" fill-opacity="1" stroke="#000000" stroke-opacity="1" stroke-width="3.2"/>
<circle clip-path="url(#clip422)" cx="2078.05" cy="452.2" r="14" fill="#009af9" fill-rule="evenodd" fill-opacity="1" stroke="#000000" stroke-opacity="1" stroke-width="3.2"/>
<circle clip-path="url(#clip422)" cx="2120.51" cy="317.572" r="14" fill="#009af9" fill-rule="evenodd" fill-opacity="1" stroke="#000000" stroke-opacity="1" stroke-width="3.2"/>
<circle clip-path="url(#clip422)" cx="2162.97" cy="173.795" r="14" fill="#009af9" fill-rule="evenodd" fill-opacity="1" stroke="#000000" stroke-opacity="1" stroke-width="3.2"/>
<circle clip-path="url(#clip422)" cx="2205.43" cy="462.99" r="14" fill="#009af9" fill-rule="evenodd" fill-opacity="1" stroke="#000000" stroke-opacity="1" stroke-width="3.2"/>
<circle clip-path="url(#clip422)" cx="2247.88" cy="164.59" r="14" fill="#009af9" fill-rule="evenodd" fill-opacity="1" stroke="#000000" stroke-opacity="1" stroke-width="3.2"/>
<circle clip-path="url(#clip422)" cx="2290.34" cy="272.09" r="14" fill="#009af9" fill-rule="evenodd" fill-opacity="1" stroke="#000000" stroke-opacity="1" stroke-width="3.2"/>
<polyline clip-path="url(#clip422)" style="stroke:#e26f46; stroke-linecap:butt; stroke-linejoin:round; stroke-width:4; stroke-opacity:1; fill:none" points="
  209.891,1443.51 252.35,1417.92 294.808,1392.33 337.266,1366.74 379.724,1341.15 422.182,1315.56 464.641,1289.97 507.099,1264.38 549.557,1238.79 592.015,1213.2 
  634.473,1187.61 676.931,1162.02 719.39,1136.43 761.848,1110.84 804.306,1085.25 846.764,1059.66 889.222,1034.07 931.681,1008.48 974.139,982.89 1016.6,957.3 
  1059.06,931.71 1101.51,906.12 1143.97,880.53 1186.43,854.941 1228.89,829.351 1271.35,803.761 1313.8,778.171 1356.26,752.581 1398.72,726.992 1441.18,701.402 
  1483.64,675.812 1526.1,650.222 1568.55,624.632 1611.01,599.042 1653.47,573.453 1695.93,547.863 1738.39,522.273 1780.84,496.683 1823.3,471.093 1865.76,445.503 
  1908.22,419.914 1950.68,394.324 1993.14,368.734 2035.59,343.144 2078.05,317.554 2120.51,291.965 2162.97,266.375 2205.43,240.785 2247.88,215.195 2290.34,189.605 
  
  "/>
<polyline clip-path="url(#clip422)" style="stroke:#3da44d; stroke-linecap:butt; stroke-linejoin:round; stroke-width:4; stroke-opacity:1; fill:none" points="
  209.891,1445.72 252.35,1420.12 294.808,1394.52 337.266,1368.93 379.724,1343.33 422.182,1317.73 464.641,1292.14 507.099,1266.54 549.557,1240.94 592.015,1215.35 
  634.473,1189.75 676.931,1164.15 719.39,1138.56 761.848,1112.96 804.306,1087.37 846.764,1061.77 889.222,1036.17 931.681,1010.58 974.139,984.979 1016.6,959.383 
  1059.06,933.787 1101.51,908.19 1143.97,882.594 1186.43,856.997 1228.89,831.401 1271.35,805.804 1313.8,780.208 1356.26,754.611 1398.72,729.015 1441.18,703.418 
  1483.64,677.822 1526.1,652.225 1568.55,626.629 1611.01,601.033 1653.47,575.436 1695.93,549.84 1738.39,524.243 1780.84,498.647 1823.3,473.05 1865.76,447.454 
  1908.22,421.857 1950.68,396.261 1993.14,370.664 2035.59,345.068 2078.05,319.471 2120.51,293.875 2162.97,268.279 2205.43,242.682 2247.88,217.086 2290.34,191.489 
  
  "/>
<path clip-path="url(#clip420)" d="
M220.987 302.578 L704.35 302.578 L704.35 95.2176 L220.987 95.2176  Z
  " fill="#ffffff" fill-rule="evenodd" fill-opacity="1"/>
<polyline clip-path="url(#clip420)" style="stroke:#000000; stroke-linecap:butt; stroke-linejoin:round; stroke-width:4; stroke-opacity:1; fill:none" points="
  220.987,302.578 704.35,302.578 704.35,95.2176 220.987,95.2176 220.987,302.578 
  "/>
<circle clip-path="url(#clip420)" cx="319" cy="147.058" r="23" fill="#009af9" fill-rule="evenodd" fill-opacity="1" stroke="#000000" stroke-opacity="1" stroke-width="5.12"/>
<path clip-path="url(#clip420)" d="M438.725 148.689 L438.725 164.338 L434.466 164.338 L434.466 148.828 Q434.466 145.148 433.03 143.319 Q431.595 141.49 428.725 141.49 Q425.276 141.49 423.285 143.69 Q421.294 145.889 421.294 149.685 L421.294 164.338 L417.012 164.338 L417.012 138.412 L421.294 138.412 L421.294 142.44 Q422.822 140.102 424.882 138.944 Q426.966 137.787 429.674 137.787 Q434.141 137.787 436.433 140.565 Q438.725 143.319 438.725 148.689 Z" fill="#000000" fill-rule="evenodd" fill-opacity="1" /><path clip-path="url(#clip420)" d="M457.266 141.398 Q453.84 141.398 451.85 144.083 Q449.859 146.745 449.859 151.398 Q449.859 156.051 451.827 158.736 Q453.817 161.398 457.266 161.398 Q460.669 161.398 462.66 158.713 Q464.651 156.027 464.651 151.398 Q464.651 146.791 462.66 144.106 Q460.669 141.398 457.266 141.398 M457.266 137.787 Q462.822 137.787 465.993 141.398 Q469.164 145.009 469.164 151.398 Q469.164 157.764 465.993 161.398 Q462.822 165.009 457.266 165.009 Q451.688 165.009 448.516 161.398 Q445.368 157.764 445.368 151.398 Q445.368 145.009 448.516 141.398 Q451.688 137.787 457.266 137.787 Z" fill="#000000" fill-rule="evenodd" fill-opacity="1" /><path clip-path="url(#clip420)" d="M476.225 138.412 L480.484 138.412 L480.484 164.338 L476.225 164.338 L476.225 138.412 M476.225 128.319 L480.484 128.319 L480.484 133.713 L476.225 133.713 L476.225 128.319 Z" fill="#000000" fill-rule="evenodd" fill-opacity="1" /><path clip-path="url(#clip420)" d="M505.923 139.176 L505.923 143.203 Q504.118 142.277 502.173 141.815 Q500.229 141.352 498.146 141.352 Q494.974 141.352 493.377 142.324 Q491.803 143.296 491.803 145.24 Q491.803 146.722 492.937 147.578 Q494.072 148.412 497.498 149.176 L498.956 149.5 Q503.493 150.472 505.391 152.254 Q507.312 154.014 507.312 157.185 Q507.312 160.796 504.442 162.902 Q501.595 165.009 496.595 165.009 Q494.511 165.009 492.243 164.592 Q489.998 164.199 487.498 163.388 L487.498 158.99 Q489.859 160.217 492.15 160.842 Q494.442 161.444 496.687 161.444 Q499.697 161.444 501.317 160.426 Q502.937 159.384 502.937 157.509 Q502.937 155.773 501.757 154.847 Q500.599 153.921 496.641 153.064 L495.16 152.717 Q491.201 151.884 489.442 150.171 Q487.683 148.435 487.683 145.426 Q487.683 141.768 490.275 139.778 Q492.868 137.787 497.636 137.787 Q499.998 137.787 502.081 138.134 Q504.164 138.481 505.923 139.176 Z" fill="#000000" fill-rule="evenodd" fill-opacity="1" /><path clip-path="url(#clip420)" d="M524.882 166.745 Q523.076 171.375 521.363 172.787 Q519.65 174.199 516.78 174.199 L513.377 174.199 L513.377 170.634 L515.877 170.634 Q517.636 170.634 518.609 169.8 Q519.581 168.967 520.761 165.865 L521.525 163.921 L511.039 138.412 L515.553 138.412 L523.655 158.689 L531.757 138.412 L536.271 138.412 L524.882 166.745 Z" fill="#000000" fill-rule="evenodd" fill-opacity="1" /><path clip-path="url(#clip420)" d="M542.335 129.778 L547.011 129.778 L547.011 160.402 L563.84 160.402 L563.84 164.338 L542.335 164.338 L542.335 129.778 Z" fill="#000000" fill-rule="evenodd" fill-opacity="1" /><path clip-path="url(#clip420)" d="M568.562 138.412 L572.821 138.412 L572.821 164.338 L568.562 164.338 L568.562 138.412 M568.562 128.319 L572.821 128.319 L572.821 133.713 L568.562 133.713 L568.562 128.319 Z" fill="#000000" fill-rule="evenodd" fill-opacity="1" /><path clip-path="url(#clip420)" d="M603.284 148.689 L603.284 164.338 L599.025 164.338 L599.025 148.828 Q599.025 145.148 597.59 143.319 Q596.154 141.49 593.284 141.49 Q589.835 141.49 587.844 143.69 Q585.854 145.889 585.854 149.685 L585.854 164.338 L581.571 164.338 L581.571 138.412 L585.854 138.412 L585.854 142.44 Q587.381 140.102 589.442 138.944 Q591.525 137.787 594.233 137.787 Q598.701 137.787 600.992 140.565 Q603.284 143.319 603.284 148.689 Z" fill="#000000" fill-rule="evenodd" fill-opacity="1" /><path clip-path="url(#clip420)" d="M633.955 150.31 L633.955 152.393 L614.372 152.393 Q614.65 156.791 617.011 159.106 Q619.395 161.398 623.631 161.398 Q626.085 161.398 628.376 160.796 Q630.691 160.194 632.96 158.99 L632.96 163.018 Q630.668 163.99 628.261 164.5 Q625.853 165.009 623.377 165.009 Q617.173 165.009 613.539 161.398 Q609.928 157.787 609.928 151.629 Q609.928 145.264 613.353 141.537 Q616.802 137.787 622.636 137.787 Q627.867 137.787 630.9 141.166 Q633.955 144.523 633.955 150.31 M629.696 149.06 Q629.65 145.565 627.728 143.481 Q625.83 141.398 622.682 141.398 Q619.117 141.398 616.965 143.412 Q614.835 145.426 614.511 149.083 L629.696 149.06 Z" fill="#000000" fill-rule="evenodd" fill-opacity="1" /><polyline clip-path="url(#clip420)" style="stroke:#e26f46; stroke-linecap:butt; stroke-linejoin:round; stroke-width:4; stroke-opacity:1; fill:none" points="
  245.49,198.898 392.509,198.898 
  "/>
<path clip-path="url(#clip420)" d="M417.012 180.159 L421.271 180.159 L421.271 216.178 L417.012 216.178 L417.012 180.159 Z" fill="#000000" fill-rule="evenodd" fill-opacity="1" /><path clip-path="url(#clip420)" d="M430.183 190.252 L434.442 190.252 L434.442 216.178 L430.183 216.178 L430.183 190.252 M430.183 180.159 L434.442 180.159 L434.442 185.553 L430.183 185.553 L430.183 180.159 Z" fill="#000000" fill-rule="evenodd" fill-opacity="1" /><path clip-path="url(#clip420)" d="M464.905 200.529 L464.905 216.178 L460.646 216.178 L460.646 200.668 Q460.646 196.988 459.211 195.159 Q457.776 193.33 454.905 193.33 Q451.456 193.33 449.465 195.53 Q447.475 197.729 447.475 201.525 L447.475 216.178 L443.192 216.178 L443.192 190.252 L447.475 190.252 L447.475 194.28 Q449.002 191.942 451.063 190.784 Q453.146 189.627 455.854 189.627 Q460.322 189.627 462.613 192.405 Q464.905 195.159 464.905 200.529 Z" fill="#000000" fill-rule="evenodd" fill-opacity="1" /><path clip-path="url(#clip420)" d="M495.576 202.15 L495.576 204.233 L475.993 204.233 Q476.271 208.631 478.632 210.946 Q481.016 213.238 485.252 213.238 Q487.706 213.238 489.998 212.636 Q492.312 212.034 494.581 210.83 L494.581 214.858 Q492.289 215.83 489.882 216.34 Q487.474 216.849 484.998 216.849 Q478.794 216.849 475.16 213.238 Q471.549 209.627 471.549 203.469 Q471.549 197.104 474.975 193.377 Q478.424 189.627 484.257 189.627 Q489.488 189.627 492.521 193.006 Q495.576 196.363 495.576 202.15 M491.317 200.9 Q491.271 197.405 489.349 195.321 Q487.451 193.238 484.303 193.238 Q480.738 193.238 478.586 195.252 Q476.456 197.266 476.132 200.923 L491.317 200.9 Z" fill="#000000" fill-rule="evenodd" fill-opacity="1" /><path clip-path="url(#clip420)" d="M497.961 181.618 L527.196 181.618 L527.196 185.553 L514.928 185.553 L514.928 216.178 L510.229 216.178 L510.229 185.553 L497.961 185.553 L497.961 181.618 Z" fill="#000000" fill-rule="evenodd" fill-opacity="1" /><path clip-path="url(#clip420)" d="M539.581 194.233 Q538.863 193.817 538.007 193.631 Q537.173 193.423 536.155 193.423 Q532.544 193.423 530.599 195.784 Q528.678 198.122 528.678 202.52 L528.678 216.178 L524.396 216.178 L524.396 190.252 L528.678 190.252 L528.678 194.28 Q530.021 191.918 532.173 190.784 Q534.326 189.627 537.405 189.627 Q537.845 189.627 538.377 189.696 Q538.909 189.743 539.558 189.858 L539.581 194.233 Z" fill="#000000" fill-rule="evenodd" fill-opacity="1" /><path clip-path="url(#clip420)" d="M543.608 205.946 L543.608 190.252 L547.868 190.252 L547.868 205.784 Q547.868 209.465 549.303 211.316 Q550.738 213.145 553.608 213.145 Q557.057 213.145 559.048 210.946 Q561.062 208.747 561.062 204.951 L561.062 190.252 L565.321 190.252 L565.321 216.178 L561.062 216.178 L561.062 212.196 Q559.511 214.557 557.451 215.715 Q555.414 216.849 552.706 216.849 Q548.238 216.849 545.923 214.071 Q543.608 211.293 543.608 205.946 M554.326 189.627 L554.326 189.627 Z" fill="#000000" fill-rule="evenodd" fill-opacity="1" /><path clip-path="url(#clip420)" d="M596.27 202.15 L596.27 204.233 L576.687 204.233 Q576.965 208.631 579.326 210.946 Q581.71 213.238 585.946 213.238 Q588.4 213.238 590.692 212.636 Q593.006 212.034 595.275 210.83 L595.275 214.858 Q592.983 215.83 590.576 216.34 Q588.168 216.849 585.692 216.849 Q579.488 216.849 575.854 213.238 Q572.243 209.627 572.243 203.469 Q572.243 197.104 575.668 193.377 Q579.118 189.627 584.951 189.627 Q590.182 189.627 593.215 193.006 Q596.27 196.363 596.27 202.15 M592.011 200.9 Q591.965 197.405 590.043 195.321 Q588.145 193.238 584.997 193.238 Q581.432 193.238 579.28 195.252 Q577.15 197.266 576.826 200.923 L592.011 200.9 Z" fill="#000000" fill-rule="evenodd" fill-opacity="1" /><path clip-path="url(#clip420)" d="M613.724 181.618 L642.96 181.618 L642.96 185.553 L630.691 185.553 L630.691 216.178 L625.992 216.178 L625.992 185.553 L613.724 185.553 L613.724 181.618 Z" fill="#000000" fill-rule="evenodd" fill-opacity="1" /><path clip-path="url(#clip420)" d="M655.344 194.233 Q654.626 193.817 653.77 193.631 Q652.937 193.423 651.918 193.423 Q648.307 193.423 646.363 195.784 Q644.441 198.122 644.441 202.52 L644.441 216.178 L640.159 216.178 L640.159 190.252 L644.441 190.252 L644.441 194.28 Q645.784 191.918 647.937 190.784 Q650.089 189.627 653.168 189.627 Q653.608 189.627 654.14 189.696 Q654.673 189.743 655.321 189.858 L655.344 194.233 Z" fill="#000000" fill-rule="evenodd" fill-opacity="1" /><polyline clip-path="url(#clip420)" style="stroke:#3da44d; stroke-linecap:butt; stroke-linejoin:round; stroke-width:4; stroke-opacity:1; fill:none" points="
  245.49,250.738 392.509,250.738 
  "/>
<path clip-path="url(#clip420)" d="M417.012 231.999 L421.271 231.999 L421.271 268.018 L417.012 268.018 L417.012 231.999 Z" fill="#000000" fill-rule="evenodd" fill-opacity="1" /><path clip-path="url(#clip420)" d="M430.183 242.092 L434.442 242.092 L434.442 268.018 L430.183 268.018 L430.183 242.092 M430.183 231.999 L434.442 231.999 L434.442 237.393 L430.183 237.393 L430.183 231.999 Z" fill="#000000" fill-rule="evenodd" fill-opacity="1" /><path clip-path="url(#clip420)" d="M464.905 252.369 L464.905 268.018 L460.646 268.018 L460.646 252.508 Q460.646 248.828 459.211 246.999 Q457.776 245.17 454.905 245.17 Q451.456 245.17 449.465 247.37 Q447.475 249.569 447.475 253.365 L447.475 268.018 L443.192 268.018 L443.192 242.092 L447.475 242.092 L447.475 246.12 Q449.002 243.782 451.063 242.624 Q453.146 241.467 455.854 241.467 Q460.322 241.467 462.613 244.245 Q464.905 246.999 464.905 252.369 Z" fill="#000000" fill-rule="evenodd" fill-opacity="1" /><path clip-path="url(#clip420)" d="M495.576 253.99 L495.576 256.073 L475.993 256.073 Q476.271 260.471 478.632 262.786 Q481.016 265.078 485.252 265.078 Q487.706 265.078 489.998 264.476 Q492.312 263.874 494.581 262.67 L494.581 266.698 Q492.289 267.67 489.882 268.18 Q487.474 268.689 484.998 268.689 Q478.794 268.689 475.16 265.078 Q471.549 261.467 471.549 255.309 Q471.549 248.944 474.975 245.217 Q478.424 241.467 484.257 241.467 Q489.488 241.467 492.521 244.846 Q495.576 248.203 495.576 253.99 M491.317 252.74 Q491.271 249.245 489.349 247.161 Q487.451 245.078 484.303 245.078 Q480.738 245.078 478.586 247.092 Q476.456 249.106 476.132 252.763 L491.317 252.74 Z" fill="#000000" fill-rule="evenodd" fill-opacity="1" /><path clip-path="url(#clip420)" d="M507.428 237.3 L507.428 250.286 L513.308 250.286 Q516.572 250.286 518.354 248.596 Q520.136 246.907 520.136 243.782 Q520.136 240.68 518.354 238.99 Q516.572 237.3 513.308 237.3 L507.428 237.3 M502.752 233.458 L513.308 233.458 Q519.118 233.458 522.081 236.096 Q525.067 238.712 525.067 243.782 Q525.067 248.897 522.081 251.513 Q519.118 254.129 513.308 254.129 L507.428 254.129 L507.428 268.018 L502.752 268.018 L502.752 233.458 Z" fill="#000000" fill-rule="evenodd" fill-opacity="1" /><path clip-path="url(#clip420)" d="M545.345 246.073 Q544.627 245.657 543.77 245.471 Q542.937 245.263 541.919 245.263 Q538.308 245.263 536.363 247.624 Q534.442 249.962 534.442 254.36 L534.442 268.018 L530.159 268.018 L530.159 242.092 L534.442 242.092 L534.442 246.12 Q535.784 243.758 537.937 242.624 Q540.09 241.467 543.169 241.467 Q543.608 241.467 544.141 241.536 Q544.673 241.583 545.321 241.698 L545.345 246.073 Z" fill="#000000" fill-rule="evenodd" fill-opacity="1" /><path clip-path="url(#clip420)" d="M570.946 253.99 L570.946 256.073 L551.363 256.073 Q551.641 260.471 554.002 262.786 Q556.386 265.078 560.622 265.078 Q563.076 265.078 565.368 264.476 Q567.682 263.874 569.951 262.67 L569.951 266.698 Q567.659 267.67 565.252 268.18 Q562.844 268.689 560.368 268.689 Q554.164 268.689 550.53 265.078 Q546.919 261.467 546.919 255.309 Q546.919 248.944 550.345 245.217 Q553.794 241.467 559.627 241.467 Q564.858 241.467 567.891 244.846 Q570.946 248.203 570.946 253.99 M566.687 252.74 Q566.641 249.245 564.719 247.161 Q562.821 245.078 559.673 245.078 Q556.108 245.078 553.956 247.092 Q551.826 249.106 551.502 252.763 L566.687 252.74 Z" fill="#000000" fill-rule="evenodd" fill-opacity="1" /><path clip-path="url(#clip420)" d="M594.997 246.027 L594.997 231.999 L599.256 231.999 L599.256 268.018 L594.997 268.018 L594.997 264.129 Q593.654 266.443 591.594 267.578 Q589.557 268.689 586.687 268.689 Q581.988 268.689 579.025 264.939 Q576.085 261.189 576.085 255.078 Q576.085 248.967 579.025 245.217 Q581.988 241.467 586.687 241.467 Q589.557 241.467 591.594 242.601 Q593.654 243.712 594.997 246.027 M580.483 255.078 Q580.483 259.777 582.405 262.462 Q584.349 265.124 587.729 265.124 Q591.108 265.124 593.053 262.462 Q594.997 259.777 594.997 255.078 Q594.997 250.379 593.053 247.717 Q591.108 245.032 587.729 245.032 Q584.349 245.032 582.405 247.717 Q580.483 250.379 580.483 255.078 Z" fill="#000000" fill-rule="evenodd" fill-opacity="1" /></svg>
