<?xml version="1.0" encoding="utf-8"?>
<svg xmlns="http://www.w3.org/2000/svg" xmlns:xlink="http://www.w3.org/1999/xlink" width="600" height="400" viewBox="0 0 2400 1600">
<defs>
  <clipPath id="clip140">
    <rect x="0" y="0" width="2400" height="1600"/>
  </clipPath>
</defs>
<path clip-path="url(#clip140)" d="
M0 1600 L2400 1600 L2400 0 L0 0  Z
  " fill="#ffffff" fill-rule="evenodd" fill-opacity="1"/>
<defs>
  <clipPath id="clip141">
    <rect x="480" y="0" width="1681" height="1600"/>
  </clipPath>
</defs>
<path clip-path="url(#clip140)" d="
M188.104 1486.45 L2352.76 1486.45 L2352.76 47.2441 L188.104 47.2441  Z
  " fill="#ffffff" fill-rule="evenodd" fill-opacity="1"/>
<defs>
  <clipPath id="clip142">
    <rect x="188" y="47" width="2166" height="1440"/>
  </clipPath>
</defs>
<polyline clip-path="url(#clip142)" style="stroke:#000000; stroke-linecap:butt; stroke-linejoin:round; stroke-width:2; stroke-opacity:0.1; fill:none" points="
  245.275,1486.45 245.275,47.2441 
  "/>
<polyline clip-path="url(#clip142)" style="stroke:#000000; stroke-linecap:butt; stroke-linejoin:round; stroke-width:2; stroke-opacity:0.1; fill:none" points="
  654.519,1486.45 654.519,47.2441 
  "/>
<polyline clip-path="url(#clip142)" style="stroke:#000000; stroke-linecap:butt; stroke-linejoin:round; stroke-width:2; stroke-opacity:0.1; fill:none" points="
  1063.76,1486.45 1063.76,47.2441 
  "/>
<polyline clip-path="url(#clip142)" style="stroke:#000000; stroke-linecap:butt; stroke-linejoin:round; stroke-width:2; stroke-opacity:0.1; fill:none" points="
  1473.01,1486.45 1473.01,47.2441 
  "/>
<polyline clip-path="url(#clip142)" style="stroke:#000000; stroke-linecap:butt; stroke-linejoin:round; stroke-width:2; stroke-opacity:0.1; fill:none" points="
  1882.25,1486.45 1882.25,47.2441 
  "/>
<polyline clip-path="url(#clip142)" style="stroke:#000000; stroke-linecap:butt; stroke-linejoin:round; stroke-width:2; stroke-opacity:0.1; fill:none" points="
  2291.49,1486.45 2291.49,47.2441 
  "/>
<polyline clip-path="url(#clip140)" style="stroke:#000000; stroke-linecap:butt; stroke-linejoin:round; stroke-width:4; stroke-opacity:1; fill:none" points="
  188.104,1486.45 2352.76,1486.45 
  "/>
<polyline clip-path="url(#clip140)" style="stroke:#000000; stroke-linecap:butt; stroke-linejoin:round; stroke-width:4; stroke-opacity:1; fill:none" points="
  245.275,1486.45 245.275,1467.55 
  "/>
<polyline clip-path="url(#clip140)" style="stroke:#000000; stroke-linecap:butt; stroke-linejoin:round; stroke-width:4; stroke-opacity:1; fill:none" points="
  654.519,1486.45 654.519,1467.55 
  "/>
<polyline clip-path="url(#clip140)" style="stroke:#000000; stroke-linecap:butt; stroke-linejoin:round; stroke-width:4; stroke-opacity:1; fill:none" points="
  1063.76,1486.45 1063.76,1467.55 
  "/>
<polyline clip-path="url(#clip140)" style="stroke:#000000; stroke-linecap:butt; stroke-linejoin:round; stroke-width:4; stroke-opacity:1; fill:none" points="
  1473.01,1486.45 1473.01,1467.55 
  "/>
<polyline clip-path="url(#clip140)" style="stroke:#000000; stroke-linecap:butt; stroke-linejoin:round; stroke-width:4; stroke-opacity:1; fill:none" points="
  1882.25,1486.45 1882.25,1467.55 
  "/>
<polyline clip-path="url(#clip140)" style="stroke:#000000; stroke-linecap:butt; stroke-linejoin:round; stroke-width:4; stroke-opacity:1; fill:none" points="
  2291.49,1486.45 2291.49,1467.55 
  "/>
<path clip-path="url(#clip140)" d="M245.275 1517.37 Q241.664 1517.37 239.836 1520.93 Q238.03 1524.47 238.03 1531.6 Q238.03 1538.71 239.836 1542.27 Q241.664 1545.82 245.275 1545.82 Q248.91 1545.82 250.715 1542.27 Q252.544 1538.71 252.544 1531.6 Q252.544 1524.47 250.715 1520.93 Q248.91 1517.37 245.275 1517.37 M245.275 1513.66 Q251.086 1513.66 254.141 1518.27 Q257.22 1522.85 257.22 1531.6 Q257.22 1540.33 254.141 1544.94 Q251.086 1549.52 245.275 1549.52 Q239.465 1549.52 236.387 1544.94 Q233.331 1540.33 233.331 1531.6 Q233.331 1522.85 236.387 1518.27 Q239.465 1513.66 245.275 1513.66 Z" fill="#000000" fill-rule="evenodd" fill-opacity="1" /><path clip-path="url(#clip140)" d="M614.125 1544.91 L621.764 1544.91 L621.764 1518.55 L613.454 1520.21 L613.454 1515.95 L621.718 1514.29 L626.394 1514.29 L626.394 1544.91 L634.033 1544.91 L634.033 1548.85 L614.125 1548.85 L614.125 1544.91 Z" fill="#000000" fill-rule="evenodd" fill-opacity="1" /><path clip-path="url(#clip140)" d="M653.477 1517.37 Q649.866 1517.37 648.037 1520.93 Q646.232 1524.47 646.232 1531.6 Q646.232 1538.71 648.037 1542.27 Q649.866 1545.82 653.477 1545.82 Q657.111 1545.82 658.917 1542.27 Q660.746 1538.71 660.746 1531.6 Q660.746 1524.47 658.917 1520.93 Q657.111 1517.37 653.477 1517.37 M653.477 1513.66 Q659.287 1513.66 662.343 1518.27 Q665.422 1522.85 665.422 1531.6 Q665.422 1540.33 662.343 1544.94 Q659.287 1549.52 653.477 1549.52 Q647.667 1549.52 644.588 1544.94 Q641.533 1540.33 641.533 1531.6 Q641.533 1522.85 644.588 1518.27 Q647.667 1513.66 653.477 1513.66 Z" fill="#000000" fill-rule="evenodd" fill-opacity="1" /><path clip-path="url(#clip140)" d="M683.639 1517.37 Q680.028 1517.37 678.199 1520.93 Q676.394 1524.47 676.394 1531.6 Q676.394 1538.71 678.199 1542.27 Q680.028 1545.82 683.639 1545.82 Q687.273 1545.82 689.079 1542.27 Q690.907 1538.71 690.907 1531.6 Q690.907 1524.47 689.079 1520.93 Q687.273 1517.37 683.639 1517.37 M683.639 1513.66 Q689.449 1513.66 692.505 1518.27 Q695.583 1522.85 695.583 1531.6 Q695.583 1540.33 692.505 1544.94 Q689.449 1549.52 683.639 1549.52 Q677.829 1549.52 674.75 1544.94 Q671.695 1540.33 671.695 1531.6 Q671.695 1522.85 674.75 1518.27 Q677.829 1513.66 683.639 1513.66 Z" fill="#000000" fill-rule="evenodd" fill-opacity="1" /><path clip-path="url(#clip140)" d="M1027.45 1544.91 L1043.77 1544.91 L1043.77 1548.85 L1021.83 1548.85 L1021.83 1544.91 Q1024.49 1542.16 1029.07 1537.53 Q1033.68 1532.88 1034.86 1531.53 Q1037.11 1529.01 1037.99 1527.27 Q1038.89 1525.51 1038.89 1523.82 Q1038.89 1521.07 1036.95 1519.33 Q1035.02 1517.6 1031.92 1517.6 Q1029.72 1517.6 1027.27 1518.36 Q1024.84 1519.13 1022.06 1520.68 L1022.06 1515.95 Q1024.89 1514.82 1027.34 1514.24 Q1029.79 1513.66 1031.83 1513.66 Q1037.2 1513.66 1040.39 1516.35 Q1043.59 1519.03 1043.59 1523.52 Q1043.59 1525.65 1042.78 1527.57 Q1041.99 1529.47 1039.88 1532.07 Q1039.31 1532.74 1036.2 1535.95 Q1033.1 1539.15 1027.45 1544.91 Z" fill="#000000" fill-rule="evenodd" fill-opacity="1" /><path clip-path="url(#clip140)" d="M1063.59 1517.37 Q1059.98 1517.37 1058.15 1520.93 Q1056.34 1524.47 1056.34 1531.6 Q1056.34 1538.71 1058.15 1542.27 Q1059.98 1545.82 1063.59 1545.82 Q1067.22 1545.82 1069.03 1542.27 Q1070.86 1538.71 1070.86 1531.6 Q1070.86 1524.47 1069.03 1520.93 Q1067.22 1517.37 1063.59 1517.37 M1063.59 1513.66 Q1069.4 1513.66 1072.45 1518.27 Q1075.53 1522.85 1075.53 1531.6 Q1075.53 1540.33 1072.45 1544.94 Q1069.4 1549.52 1063.59 1549.52 Q1057.78 1549.52 1054.7 1544.94 Q1051.64 1540.33 1051.64 1531.6 Q1051.64 1522.85 1054.7 1518.27 Q1057.78 1513.66 1063.59 1513.66 Z" fill="#000000" fill-rule="evenodd" fill-opacity="1" /><path clip-path="url(#clip140)" d="M1093.75 1517.37 Q1090.14 1517.37 1088.31 1520.93 Q1086.51 1524.47 1086.51 1531.6 Q1086.51 1538.71 1088.31 1542.27 Q1090.14 1545.82 1093.75 1545.82 Q1097.38 1545.82 1099.19 1542.27 Q1101.02 1538.71 1101.02 1531.6 Q1101.02 1524.47 1099.19 1520.93 Q1097.38 1517.37 1093.75 1517.37 M1093.75 1513.66 Q1099.56 1513.66 1102.62 1518.27 Q1105.69 1522.85 1105.69 1531.6 Q1105.69 1540.33 1102.62 1544.94 Q1099.56 1549.52 1093.75 1549.52 Q1087.94 1549.52 1084.86 1544.94 Q1081.81 1540.33 1081.81 1531.6 Q1081.81 1522.85 1084.86 1518.27 Q1087.94 1513.66 1093.75 1513.66 Z" fill="#000000" fill-rule="evenodd" fill-opacity="1" /><path clip-path="url(#clip140)" d="M1446.77 1530.21 Q1450.12 1530.93 1452 1533.2 Q1453.9 1535.47 1453.9 1538.8 Q1453.9 1543.92 1450.38 1546.72 Q1446.86 1549.52 1440.38 1549.52 Q1438.2 1549.52 1435.89 1549.08 Q1433.6 1548.66 1431.14 1547.81 L1431.14 1543.29 Q1433.09 1544.43 1435.4 1545.01 Q1437.72 1545.58 1440.24 1545.58 Q1444.64 1545.58 1446.93 1543.85 Q1449.24 1542.11 1449.24 1538.8 Q1449.24 1535.75 1447.09 1534.03 Q1444.96 1532.3 1441.14 1532.3 L1437.11 1532.3 L1437.11 1528.45 L1441.33 1528.45 Q1444.78 1528.45 1446.61 1527.09 Q1448.43 1525.7 1448.43 1523.11 Q1448.43 1520.45 1446.54 1519.03 Q1444.66 1517.6 1441.14 1517.6 Q1439.22 1517.6 1437.02 1518.01 Q1434.82 1518.43 1432.18 1519.31 L1432.18 1515.14 Q1434.85 1514.4 1437.16 1514.03 Q1439.5 1513.66 1441.56 1513.66 Q1446.88 1513.66 1449.98 1516.09 Q1453.09 1518.5 1453.09 1522.62 Q1453.09 1525.49 1451.44 1527.48 Q1449.8 1529.45 1446.77 1530.21 Z" fill="#000000" fill-rule="evenodd" fill-opacity="1" /><path clip-path="url(#clip140)" d="M1472.76 1517.37 Q1469.15 1517.37 1467.32 1520.93 Q1465.52 1524.47 1465.52 1531.6 Q1465.52 1538.71 1467.32 1542.27 Q1469.15 1545.82 1472.76 1545.82 Q1476.4 1545.82 1478.2 1542.27 Q1480.03 1538.71 1480.03 1531.6 Q1480.03 1524.47 1478.2 1520.93 Q1476.4 1517.37 1472.76 1517.37 M1472.76 1513.66 Q1478.57 1513.66 1481.63 1518.27 Q1484.71 1522.85 1484.71 1531.6 Q1484.71 1540.33 1481.63 1544.94 Q1478.57 1549.52 1472.76 1549.52 Q1466.95 1549.52 1463.87 1544.94 Q1460.82 1540.33 1460.82 1531.6 Q1460.82 1522.85 1463.87 1518.27 Q1466.95 1513.66 1472.76 1513.66 Z" fill="#000000" fill-rule="evenodd" fill-opacity="1" /><path clip-path="url(#clip140)" d="M1502.92 1517.37 Q1499.31 1517.37 1497.48 1520.93 Q1495.68 1524.47 1495.68 1531.6 Q1495.68 1538.71 1497.48 1542.27 Q1499.31 1545.82 1502.92 1545.82 Q1506.56 1545.82 1508.36 1542.27 Q1510.19 1538.71 1510.19 1531.6 Q1510.19 1524.47 1508.36 1520.93 Q1506.56 1517.37 1502.92 1517.37 M1502.92 1513.66 Q1508.73 1513.66 1511.79 1518.27 Q1514.87 1522.85 1514.87 1531.6 Q1514.87 1540.33 1511.79 1544.94 Q1508.73 1549.52 1502.92 1549.52 Q1497.11 1549.52 1494.04 1544.94 Q1490.98 1540.33 1490.98 1531.6 Q1490.98 1522.85 1494.04 1518.27 Q1497.11 1513.66 1502.92 1513.66 Z" fill="#000000" fill-rule="evenodd" fill-opacity="1" /><path clip-path="url(#clip140)" d="M1855.34 1518.36 L1843.53 1536.81 L1855.34 1536.81 L1855.34 1518.36 M1854.11 1514.29 L1859.99 1514.29 L1859.99 1536.81 L1864.92 1536.81 L1864.92 1540.7 L1859.99 1540.7 L1859.99 1548.85 L1855.34 1548.85 L1855.34 1540.7 L1839.74 1540.7 L1839.74 1536.19 L1854.11 1514.29 Z" fill="#000000" fill-rule="evenodd" fill-opacity="1" /><path clip-path="url(#clip140)" d="M1882.65 1517.37 Q1879.04 1517.37 1877.21 1520.93 Q1875.41 1524.47 1875.41 1531.6 Q1875.41 1538.71 1877.21 1542.27 Q1879.04 1545.82 1882.65 1545.82 Q1886.29 1545.82 1888.09 1542.27 Q1889.92 1538.71 1889.92 1531.6 Q1889.92 1524.47 1888.09 1520.93 Q1886.29 1517.37 1882.65 1517.37 M1882.65 1513.66 Q1888.46 1513.66 1891.52 1518.27 Q1894.6 1522.85 1894.6 1531.6 Q1894.6 1540.33 1891.52 1544.94 Q1888.46 1549.52 1882.65 1549.52 Q1876.84 1549.52 1873.77 1544.94 Q1870.71 1540.33 1870.71 1531.6 Q1870.71 1522.85 1873.77 1518.27 Q1876.84 1513.66 1882.65 1513.66 Z" fill="#000000" fill-rule="evenodd" fill-opacity="1" /><path clip-path="url(#clip140)" d="M1912.82 1517.37 Q1909.2 1517.37 1907.38 1520.93 Q1905.57 1524.47 1905.57 1531.6 Q1905.57 1538.71 1907.38 1542.27 Q1909.2 1545.82 1912.82 1545.82 Q1916.45 1545.82 1918.26 1542.27 Q1920.08 1538.71 1920.08 1531.6 Q1920.08 1524.47 1918.26 1520.93 Q1916.45 1517.37 1912.82 1517.37 M1912.82 1513.66 Q1918.63 1513.66 1921.68 1518.27 Q1924.76 1522.85 1924.76 1531.6 Q1924.76 1540.33 1921.68 1544.94 Q1918.63 1549.52 1912.82 1549.52 Q1907.01 1549.52 1903.93 1544.94 Q1900.87 1540.33 1900.87 1531.6 Q1900.87 1522.85 1903.93 1518.27 Q1907.01 1513.66 1912.82 1513.66 Z" fill="#000000" fill-rule="evenodd" fill-opacity="1" /><path clip-path="url(#clip140)" d="M2251.11 1514.29 L2269.47 1514.29 L2269.47 1518.22 L2255.39 1518.22 L2255.39 1526.7 Q2256.41 1526.35 2257.43 1526.19 Q2258.45 1526 2259.47 1526 Q2265.25 1526 2268.63 1529.17 Q2272.01 1532.34 2272.01 1537.76 Q2272.01 1543.34 2268.54 1546.44 Q2265.07 1549.52 2258.75 1549.52 Q2256.57 1549.52 2254.3 1549.15 Q2252.06 1548.78 2249.65 1548.04 L2249.65 1543.34 Q2251.74 1544.47 2253.96 1545.03 Q2256.18 1545.58 2258.66 1545.58 Q2262.66 1545.58 2265 1543.48 Q2267.34 1541.37 2267.34 1537.76 Q2267.34 1534.15 2265 1532.04 Q2262.66 1529.94 2258.66 1529.94 Q2256.78 1529.94 2254.91 1530.35 Q2253.05 1530.77 2251.11 1531.65 L2251.11 1514.29 Z" fill="#000000" fill-rule="evenodd" fill-opacity="1" /><path clip-path="url(#clip140)" d="M2291.23 1517.37 Q2287.61 1517.37 2285.79 1520.93 Q2283.98 1524.47 2283.98 1531.6 Q2283.98 1538.71 2285.79 1542.27 Q2287.61 1545.82 2291.23 1545.82 Q2294.86 1545.82 2296.67 1542.27 Q2298.49 1538.71 2298.49 1531.6 Q2298.49 1524.47 2296.67 1520.93 Q2294.86 1517.37 2291.23 1517.37 M2291.23 1513.66 Q2297.04 1513.66 2300.09 1518.27 Q2303.17 1522.85 2303.17 1531.6 Q2303.17 1540.33 2300.09 1544.94 Q2297.04 1549.52 2291.23 1549.52 Q2285.42 1549.52 2282.34 1544.94 Q2279.28 1540.33 2279.28 1531.6 Q2279.28 1522.85 2282.34 1518.27 Q2285.42 1513.66 2291.23 1513.66 Z" fill="#000000" fill-rule="evenodd" fill-opacity="1" /><path clip-path="url(#clip140)" d="M2321.39 1517.37 Q2317.78 1517.37 2315.95 1520.93 Q2314.14 1524.47 2314.14 1531.6 Q2314.14 1538.71 2315.95 1542.27 Q2317.78 1545.82 2321.39 1545.82 Q2325.02 1545.82 2326.83 1542.27 Q2328.66 1538.71 2328.66 1531.6 Q2328.66 1524.47 2326.83 1520.93 Q2325.02 1517.37 2321.39 1517.37 M2321.39 1513.66 Q2327.2 1513.66 2330.25 1518.27 Q2333.33 1522.85 2333.33 1531.6 Q2333.33 1540.33 2330.25 1544.94 Q2327.2 1549.52 2321.39 1549.52 Q2315.58 1549.52 2312.5 1544.94 Q2309.44 1540.33 2309.44 1531.6 Q2309.44 1522.85 2312.5 1518.27 Q2315.58 1513.66 2321.39 1513.66 Z" fill="#000000" fill-rule="evenodd" fill-opacity="1" /><polyline clip-path="url(#clip142)" style="stroke:#000000; stroke-linecap:butt; stroke-linejoin:round; stroke-width:2; stroke-opacity:0.1; fill:none" points="
  188.104,1172.85 2352.76,1172.85 
  "/>
<polyline clip-path="url(#clip142)" style="stroke:#000000; stroke-linecap:butt; stroke-linejoin:round; stroke-width:2; stroke-opacity:0.1; fill:none" points="
  188.104,599.809 2352.76,599.809 
  "/>
<polyline clip-path="url(#clip140)" style="stroke:#000000; stroke-linecap:butt; stroke-linejoin:round; stroke-width:4; stroke-opacity:1; fill:none" points="
  188.104,1486.45 188.104,47.2441 
  "/>
<polyline clip-path="url(#clip140)" style="stroke:#000000; stroke-linecap:butt; stroke-linejoin:round; stroke-width:4; stroke-opacity:1; fill:none" points="
  188.104,1172.85 207.002,1172.85 
  "/>
<polyline clip-path="url(#clip140)" style="stroke:#000000; stroke-linecap:butt; stroke-linejoin:round; stroke-width:4; stroke-opacity:1; fill:none" points="
  188.104,599.809 207.002,599.809 
  "/>
<path clip-path="url(#clip140)" d="M51.9643 1192.64 L59.6032 1192.64 L59.6032 1166.27 L51.2931 1167.94 L51.2931 1163.68 L59.5569 1162.02 L64.2328 1162.02 L64.2328 1192.64 L71.8716 1192.64 L71.8716 1196.58 L51.9643 1196.58 L51.9643 1192.64 Z" fill="#000000" fill-rule="evenodd" fill-opacity="1" /><path clip-path="url(#clip140)" d="M91.316 1165.09 Q87.7049 1165.09 85.8762 1168.66 Q84.0707 1172.2 84.0707 1179.33 Q84.0707 1186.44 85.8762 1190 Q87.7049 1193.54 91.316 1193.54 Q94.9502 1193.54 96.7558 1190 Q98.5845 1186.44 98.5845 1179.33 Q98.5845 1172.2 96.7558 1168.66 Q94.9502 1165.09 91.316 1165.09 M91.316 1161.39 Q97.1261 1161.39 100.182 1166 Q103.26 1170.58 103.26 1179.33 Q103.26 1188.06 100.182 1192.66 Q97.1261 1197.25 91.316 1197.25 Q85.5058 1197.25 82.4271 1192.66 Q79.3716 1188.06 79.3716 1179.33 Q79.3716 1170.58 82.4271 1166 Q85.5058 1161.39 91.316 1161.39 Z" fill="#000000" fill-rule="evenodd" fill-opacity="1" /><path clip-path="url(#clip140)" d="M103.26 1155.49 L127.372 1155.49 L127.372 1158.69 L103.26 1158.69 L103.26 1155.49 Z" fill="#000000" fill-rule="evenodd" fill-opacity="1" /><path clip-path="url(#clip140)" d="M138.845 1165.97 L152.104 1165.97 L152.104 1169.17 L134.274 1169.17 L134.274 1165.97 Q136.437 1163.73 140.161 1159.97 Q143.904 1156.19 144.863 1155.1 Q146.688 1153.05 147.402 1151.64 Q148.136 1150.21 148.136 1148.83 Q148.136 1146.6 146.556 1145.19 Q144.995 1143.77 142.475 1143.77 Q140.688 1143.77 138.694 1144.4 Q136.719 1145.02 134.462 1146.28 L134.462 1142.44 Q136.757 1141.52 138.751 1141.05 Q140.744 1140.58 142.399 1140.58 Q146.763 1140.58 149.358 1142.76 Q151.954 1144.94 151.954 1148.59 Q151.954 1150.32 151.295 1151.88 Q150.656 1153.42 148.944 1155.53 Q148.474 1156.07 145.954 1158.69 Q143.434 1161.28 138.845 1165.97 Z" fill="#000000" fill-rule="evenodd" fill-opacity="1" /><path clip-path="url(#clip140)" d="M51.6634 619.601 L59.3023 619.601 L59.3023 593.236 L50.9921 594.902 L50.9921 590.643 L59.256 588.976 L63.9319 588.976 L63.9319 619.601 L71.5707 619.601 L71.5707 623.536 L51.6634 623.536 L51.6634 619.601 Z" fill="#000000" fill-rule="evenodd" fill-opacity="1" /><path clip-path="url(#clip140)" d="M91.0151 592.055 Q87.404 592.055 85.5753 595.62 Q83.7697 599.162 83.7697 606.291 Q83.7697 613.398 85.5753 616.962 Q87.404 620.504 91.0151 620.504 Q94.6493 620.504 96.4548 616.962 Q98.2835 613.398 98.2835 606.291 Q98.2835 599.162 96.4548 595.62 Q94.6493 592.055 91.0151 592.055 M91.0151 588.351 Q96.8252 588.351 99.8808 592.958 Q102.959 597.541 102.959 606.291 Q102.959 615.018 99.8808 619.624 Q96.8252 624.208 91.0151 624.208 Q85.2049 624.208 82.1262 619.624 Q79.0707 615.018 79.0707 606.291 Q79.0707 597.541 82.1262 592.958 Q85.2049 588.351 91.0151 588.351 Z" fill="#000000" fill-rule="evenodd" fill-opacity="1" /><path clip-path="url(#clip140)" d="M102.959 582.453 L127.071 582.453 L127.071 585.65 L102.959 585.65 L102.959 582.453 Z" fill="#000000" fill-rule="evenodd" fill-opacity="1" /><path clip-path="url(#clip140)" d="M135.929 592.929 L142.136 592.929 L142.136 571.507 L135.384 572.861 L135.384 569.4 L142.098 568.046 L145.898 568.046 L145.898 592.929 L152.104 592.929 L152.104 596.126 L135.929 596.126 L135.929 592.929 Z" fill="#000000" fill-rule="evenodd" fill-opacity="1" /><polyline clip-path="url(#clip142)" style="stroke:#009af9; stroke-linecap:butt; stroke-linejoin:round; stroke-width:4; stroke-opacity:1; fill:none" points="
  249.368,87.9763 253.46,90.0895 257.553,92.2208 261.645,94.3705 265.738,96.5389 269.83,98.7264 273.922,100.933 278.015,103.158 282.107,105.399 286.2,107.66 
  290.292,109.944 294.385,112.248 298.477,114.572 302.57,116.921 306.662,119.291 310.754,121.682 314.847,124.099 318.939,126.539 323.032,129 327.124,131.49 
  331.217,134.004 335.309,136.541 339.401,139.107 343.494,141.7 347.586,144.318 351.679,146.965 355.771,149.642 359.864,152.345 363.956,155.079 368.048,157.845 
  372.141,160.64 376.233,163.467 380.326,166.328 384.418,169.221 388.511,172.147 392.603,175.11 396.695,178.109 400.788,181.141 404.88,184.214 408.973,187.325 
  413.065,190.472 417.158,193.663 421.25,196.896 425.343,200.167 429.435,203.486 433.527,206.85 437.62,210.255 441.712,213.712 445.805,217.218 449.897,220.77 
  453.99,224.376 458.082,228.037 462.174,231.749 466.267,235.518 470.359,239.347 474.452,243.234 478.544,247.182 482.637,251.197 486.729,255.275 490.821,259.42 
  494.914,263.639 499.006,267.929 503.099,272.29 507.191,276.735 511.284,281.261 515.376,285.863 519.468,290.56 523.561,295.346 527.653,300.22 531.746,305.197 
  535.838,310.277 539.931,315.456 544.023,320.75 548.116,326.161 552.208,331.686 556.3,337.34 560.393,343.128 564.485,349.049 568.578,355.116 572.67,361.338 
  576.763,367.715 580.855,374.259 584.947,380.985 589.04,387.895 593.132,394.998 597.225,402.318 601.317,409.857 605.41,417.625 609.502,425.652 613.594,433.947 
  617.687,442.515 621.779,451.403 625.872,460.619 629.964,470.177 634.057,480.129 638.149,490.497 642.241,501.302 646.334,512.608 650.426,524.457 654.519,536.884 
  658.611,549.972 662.704,563.794 666.796,578.416 670.889,593.954 674.981,610.538 679.073,628.296 683.166,647.413 687.258,668.142 691.351,690.744 695.443,715.589 
  699.536,743.225 703.628,774.309 707.72,809.797 711.813,851.259 715.905,901.035 719.998,963.219 724.09,1046.46 728.183,1172.42 732.275,1439.32 736.367,1445.72 
  740.46,1322.26 744.552,1370.81 748.645,1322.26 752.737,1370.81 756.83,1322.26 760.922,1370.81 765.014,1322.26 769.107,1370.81 773.199,1322.26 777.292,1370.81 
  781.384,1322.26 785.477,1370.81 789.569,1322.26 793.662,1370.81 797.754,1322.26 801.846,1370.81 805.939,1322.26 810.031,1370.81 814.124,1322.26 818.216,1370.81 
  822.309,1322.26 826.401,1370.81 830.493,1322.26 834.586,1370.81 838.678,1322.26 842.771,1370.81 846.863,1322.26 850.956,1370.81 855.048,1322.26 859.14,1370.81 
  863.233,1322.26 867.325,1370.81 871.418,1322.26 875.51,1370.81 879.603,1322.26 883.695,1370.81 887.787,1322.26 891.88,1370.81 895.972,1322.26 900.065,1370.81 
  904.157,1322.26 908.25,1370.81 912.342,1322.26 916.435,1370.81 920.527,1322.26 924.619,1370.81 928.712,1322.26 932.804,1370.81 936.897,1322.26 940.989,1370.81 
  945.082,1322.26 949.174,1370.81 953.266,1322.26 957.359,1370.81 961.451,1322.26 965.544,1370.81 969.636,1322.26 973.729,1370.81 977.821,1322.26 981.913,1370.81 
  986.006,1322.26 990.098,1370.81 994.191,1322.26 998.283,1370.81 1002.38,1322.26 1006.47,1370.81 1010.56,1322.26 1014.65,1370.81 1018.75,1322.26 1022.84,1370.81 
  1026.93,1322.26 1031.02,1370.81 1035.12,1322.26 1039.21,1370.81 1043.3,1322.26 1047.39,1370.81 1051.48,1322.26 1055.58,1370.81 1059.67,1322.26 1063.76,1370.81 
  1067.85,1322.26 1071.95,1370.81 1076.04,1322.26 1080.13,1370.81 1084.22,1322.26 1088.32,1370.81 1092.41,1322.26 1096.5,1370.81 1100.59,1322.26 1104.69,1370.81 
  1108.78,1322.26 1112.87,1370.81 1116.96,1322.26 1121.06,1370.81 1125.15,1322.26 1129.24,1370.81 1133.33,1322.26 1137.43,1370.81 1141.52,1322.26 1145.61,1370.81 
  1149.7,1322.26 1153.8,1370.81 1157.89,1322.26 1161.98,1370.81 1166.07,1322.26 1170.17,1370.81 1174.26,1322.26 1178.35,1370.81 1182.44,1322.26 1186.54,1370.81 
  1190.63,1322.26 1194.72,1370.81 1198.81,1322.26 1202.9,1370.81 1207,1322.26 1211.09,1370.81 1215.18,1322.26 1219.27,1370.81 1223.37,1322.26 1227.46,1370.81 
  1231.55,1322.26 1235.64,1370.81 1239.74,1322.26 1243.83,1370.81 1247.92,1322.26 1252.01,1370.81 1256.11,1322.26 1260.2,1370.81 1264.29,1322.26 1268.38,1370.81 
  1272.48,1322.26 1276.57,1370.81 1280.66,1322.26 1284.75,1370.81 1288.85,1322.26 1292.94,1370.81 1297.03,1322.26 1301.12,1370.81 1305.22,1322.26 1309.31,1370.81 
  1313.4,1322.26 1317.49,1370.81 1321.59,1322.26 1325.68,1370.81 1329.77,1322.26 1333.86,1370.81 1337.96,1322.26 1342.05,1370.81 1346.14,1322.26 1350.23,1370.81 
  1354.32,1322.26 1358.42,1370.81 1362.51,1322.26 1366.6,1370.81 1370.69,1322.26 1374.79,1370.81 1378.88,1322.26 1382.97,1370.81 1387.06,1322.26 1391.16,1370.81 
  1395.25,1322.26 1399.34,1370.81 1403.43,1322.26 1407.53,1370.81 1411.62,1322.26 1415.71,1370.81 1419.8,1322.26 1423.9,1370.81 1427.99,1322.26 1432.08,1370.81 
  1436.17,1322.26 1440.27,1370.81 1444.36,1322.26 1448.45,1370.81 1452.54,1322.26 1456.64,1370.81 1460.73,1322.26 1464.82,1370.81 1468.91,1322.26 1473.01,1370.81 
  1477.1,1322.26 1481.19,1370.81 1485.28,1322.26 1489.38,1370.81 1493.47,1322.26 1497.56,1370.81 1501.65,1322.26 1505.74,1370.81 1509.84,1322.26 1513.93,1370.81 
  1518.02,1322.26 1522.11,1370.81 1526.21,1322.26 1530.3,1370.81 1534.39,1322.26 1538.48,1370.81 1542.58,1322.26 1546.67,1370.81 1550.76,1322.26 1554.85,1370.81 
  1558.95,1322.26 1563.04,1370.81 1567.13,1322.26 1571.22,1370.81 1575.32,1322.26 1579.41,1370.81 1583.5,1322.26 1587.59,1370.81 1591.69,1322.26 1595.78,1370.81 
  1599.87,1322.26 1603.96,1370.81 1608.06,1322.26 1612.15,1370.81 1616.24,1322.26 1620.33,1370.81 1624.43,1322.26 1628.52,1370.81 1632.61,1322.26 1636.7,1370.81 
  1640.8,1322.26 1644.89,1370.81 1648.98,1322.26 1653.07,1370.81 1657.16,1322.26 1661.26,1370.81 1665.35,1322.26 1669.44,1370.81 1673.53,1322.26 1677.63,1370.81 
  1681.72,1322.26 1685.81,1370.81 1689.9,1322.26 1694,1370.81 1698.09,1322.26 1702.18,1370.81 1706.27,1322.26 1710.37,1370.81 1714.46,1322.26 1718.55,1370.81 
  1722.64,1322.26 1726.74,1370.81 1730.83,1322.26 1734.92,1370.81 1739.01,1322.26 1743.11,1370.81 1747.2,1322.26 1751.29,1370.81 1755.38,1322.26 1759.48,1370.81 
  1763.57,1322.26 1767.66,1370.81 1771.75,1322.26 1775.85,1370.81 1779.94,1322.26 1784.03,1370.81 1788.12,1322.26 1792.22,1370.81 1796.31,1322.26 1800.4,1370.81 
  1804.49,1322.26 1808.59,1370.81 1812.68,1322.26 1816.77,1370.81 1820.86,1322.26 1824.95,1370.81 1829.05,1322.26 1833.14,1370.81 1837.23,1322.26 1841.32,1370.81 
  1845.42,1322.26 1849.51,1370.81 1853.6,1322.26 1857.69,1370.81 1861.79,1322.26 1865.88,1370.81 1869.97,1322.26 1874.06,1370.81 1878.16,1322.26 1882.25,1370.81 
  1886.34,1322.26 1890.43,1370.81 1894.53,1322.26 1898.62,1370.81 1902.71,1322.26 1906.8,1370.81 1910.9,1322.26 1914.99,1370.81 1919.08,1322.26 1923.17,1370.81 
  1927.27,1322.26 1931.36,1370.81 1935.45,1322.26 1939.54,1370.81 1943.64,1322.26 1947.73,1370.81 1951.82,1322.26 1955.91,1370.81 1960.01,1322.26 1964.1,1370.81 
  1968.19,1322.26 1972.28,1370.81 1976.37,1322.26 1980.47,1370.81 1984.56,1322.26 1988.65,1370.81 1992.74,1322.26 1996.84,1370.81 2000.93,1322.26 2005.02,1370.81 
  2009.11,1322.26 2013.21,1370.81 2017.3,1322.26 2021.39,1370.81 2025.48,1322.26 2029.58,1370.81 2033.67,1322.26 2037.76,1370.81 2041.85,1322.26 2045.95,1370.81 
  2050.04,1322.26 2054.13,1370.81 2058.22,1322.26 2062.32,1370.81 2066.41,1322.26 2070.5,1370.81 2074.59,1322.26 2078.69,1370.81 2082.78,1322.26 2086.87,1370.81 
  2090.96,1322.26 2095.06,1370.81 2099.15,1322.26 2103.24,1370.81 2107.33,1322.26 2111.43,1370.81 2115.52,1322.26 2119.61,1370.81 2123.7,1322.26 2127.79,1370.81 
  2131.89,1322.26 2135.98,1370.81 2140.07,1322.26 2144.16,1370.81 2148.26,1322.26 2152.35,1370.81 2156.44,1322.26 2160.53,1370.81 2164.63,1322.26 2168.72,1370.81 
  2172.81,1322.26 2176.9,1370.81 2181,1322.26 2185.09,1370.81 2189.18,1322.26 2193.27,1370.81 2197.37,1322.26 2201.46,1370.81 2205.55,1322.26 2209.64,1370.81 
  2213.74,1322.26 2217.83,1370.81 2221.92,1322.26 2226.01,1370.81 2230.11,1322.26 2234.2,1370.81 2238.29,1322.26 2242.38,1370.81 2246.48,1322.26 2250.57,1370.81 
  2254.66,1322.26 2258.75,1370.81 2262.85,1322.26 2266.94,1370.81 2271.03,1322.26 2275.12,1370.81 2279.21,1322.26 2283.31,1370.81 2287.4,1322.26 2291.49,1370.81 
  
  "/>
<path clip-path="url(#clip140)" d="
M1987.65 198.898 L2280.6 198.898 L2280.6 95.2176 L1987.65 95.2176  Z
  " fill="#ffffff" fill-rule="evenodd" fill-opacity="1"/>
<polyline clip-path="url(#clip140)" style="stroke:#000000; stroke-linecap:butt; stroke-linejoin:round; stroke-width:4; stroke-opacity:1; fill:none" points="
  1987.65,198.898 2280.6,198.898 2280.6,95.2176 1987.65,95.2176 1987.65,198.898 
  "/>
<polyline clip-path="url(#clip140)" style="stroke:#009af9; stroke-linecap:butt; stroke-linejoin:round; stroke-width:4; stroke-opacity:1; fill:none" points="
  2011.71,147.058 2156.02,147.058 
  "/>
<path clip-path="url(#clip140)" d="M2193.91 166.745 Q2192.1 171.375 2190.39 172.787 Q2188.68 174.199 2185.81 174.199 L2182.41 174.199 L2182.41 170.634 L2184.91 170.634 Q2186.66 170.634 2187.64 169.8 Q2188.61 168.967 2189.79 165.865 L2190.55 163.921 L2180.07 138.412 L2184.58 138.412 L2192.68 158.689 L2200.78 138.412 L2205.3 138.412 L2193.91 166.745 Z" fill="#000000" fill-rule="evenodd" fill-opacity="1" /><path clip-path="url(#clip140)" d="M2212.59 160.402 L2220.23 160.402 L2220.23 134.037 L2211.92 135.703 L2211.92 131.444 L2220.18 129.778 L2224.86 129.778 L2224.86 160.402 L2232.5 160.402 L2232.5 164.338 L2212.59 164.338 L2212.59 160.402 Z" fill="#000000" fill-rule="evenodd" fill-opacity="1" /></svg>
