<?xml version="1.0" encoding="utf-8"?>
<svg xmlns="http://www.w3.org/2000/svg" xmlns:xlink="http://www.w3.org/1999/xlink" width="600" height="400" viewBox="0 0 2400 1600">
<defs>
  <clipPath id="clip980">
    <rect x="0" y="0" width="2400" height="1600"/>
  </clipPath>
</defs>
<path clip-path="url(#clip980)" d="
M0 1600 L2400 1600 L2400 0 L0 0  Z
  " fill="#ffffff" fill-rule="evenodd" fill-opacity="1"/>
<defs>
  <clipPath id="clip981">
    <rect x="480" y="0" width="1681" height="1600"/>
  </clipPath>
</defs>
<path clip-path="url(#clip980)" d="
M232.389 1486.45 L2352.76 1486.45 L2352.76 47.2441 L232.389 47.2441  Z
  " fill="#ffffff" fill-rule="evenodd" fill-opacity="1"/>
<defs>
  <clipPath id="clip982">
    <rect x="232" y="47" width="2121" height="1440"/>
  </clipPath>
</defs>
<polyline clip-path="url(#clip982)" style="stroke:#000000; stroke-linecap:butt; stroke-linejoin:round; stroke-width:2; stroke-opacity:0.1; fill:none" points="
  285.71,1486.45 285.71,47.2441 
  "/>
<polyline clip-path="url(#clip982)" style="stroke:#000000; stroke-linecap:butt; stroke-linejoin:round; stroke-width:2; stroke-opacity:0.1; fill:none" points="
  954.722,1486.45 954.722,47.2441 
  "/>
<polyline clip-path="url(#clip982)" style="stroke:#000000; stroke-linecap:butt; stroke-linejoin:round; stroke-width:2; stroke-opacity:0.1; fill:none" points="
  1623.73,1486.45 1623.73,47.2441 
  "/>
<polyline clip-path="url(#clip982)" style="stroke:#000000; stroke-linecap:butt; stroke-linejoin:round; stroke-width:2; stroke-opacity:0.1; fill:none" points="
  2292.75,1486.45 2292.75,47.2441 
  "/>
<polyline clip-path="url(#clip980)" style="stroke:#000000; stroke-linecap:butt; stroke-linejoin:round; stroke-width:4; stroke-opacity:1; fill:none" points="
  232.389,1486.45 2352.76,1486.45 
  "/>
<polyline clip-path="url(#clip980)" style="stroke:#000000; stroke-linecap:butt; stroke-linejoin:round; stroke-width:4; stroke-opacity:1; fill:none" points="
  285.71,1486.45 285.71,1467.55 
  "/>
<polyline clip-path="url(#clip980)" style="stroke:#000000; stroke-linecap:butt; stroke-linejoin:round; stroke-width:4; stroke-opacity:1; fill:none" points="
  954.722,1486.45 954.722,1467.55 
  "/>
<polyline clip-path="url(#clip980)" style="stroke:#000000; stroke-linecap:butt; stroke-linejoin:round; stroke-width:4; stroke-opacity:1; fill:none" points="
  1623.73,1486.45 1623.73,1467.55 
  "/>
<polyline clip-path="url(#clip980)" style="stroke:#000000; stroke-linecap:butt; stroke-linejoin:round; stroke-width:4; stroke-opacity:1; fill:none" points="
  2292.75,1486.45 2292.75,1467.55 
  "/>
<path clip-path="url(#clip980)" d="M285.71 1517.37 Q282.099 1517.37 280.27 1520.93 Q278.464 1524.47 278.464 1531.6 Q278.464 1538.71 280.27 1542.27 Q282.099 1545.82 285.71 1545.82 Q289.344 1545.82 291.149 1542.27 Q292.978 1538.71 292.978 1531.6 Q292.978 1524.47 291.149 1520.93 Q289.344 1517.37 285.71 1517.37 M285.71 1513.66 Q291.52 1513.66 294.575 1518.27 Q297.654 1522.85 297.654 1531.6 Q297.654 1540.33 294.575 1544.94 Q291.52 1549.52 285.71 1549.52 Q279.899 1549.52 276.821 1544.94 Q273.765 1540.33 273.765 1531.6 Q273.765 1522.85 276.821 1518.27 Q279.899 1513.66 285.71 1513.66 Z" fill="#000000" fill-rule="evenodd" fill-opacity="1" /><path clip-path="url(#clip980)" d="M914.328 1544.91 L921.967 1544.91 L921.967 1518.55 L913.657 1520.21 L913.657 1515.95 L921.921 1514.29 L926.597 1514.29 L926.597 1544.91 L934.236 1544.91 L934.236 1548.85 L914.328 1548.85 L914.328 1544.91 Z" fill="#000000" fill-rule="evenodd" fill-opacity="1" /><path clip-path="url(#clip980)" d="M953.68 1517.37 Q950.069 1517.37 948.24 1520.93 Q946.435 1524.47 946.435 1531.6 Q946.435 1538.71 948.24 1542.27 Q950.069 1545.82 953.68 1545.82 Q957.314 1545.82 959.12 1542.27 Q960.948 1538.71 960.948 1531.6 Q960.948 1524.47 959.12 1520.93 Q957.314 1517.37 953.68 1517.37 M953.68 1513.66 Q959.49 1513.66 962.546 1518.27 Q965.624 1522.85 965.624 1531.6 Q965.624 1540.33 962.546 1544.94 Q959.49 1549.52 953.68 1549.52 Q947.87 1549.52 944.791 1544.94 Q941.736 1540.33 941.736 1531.6 Q941.736 1522.85 944.791 1518.27 Q947.87 1513.66 953.68 1513.66 Z" fill="#000000" fill-rule="evenodd" fill-opacity="1" /><path clip-path="url(#clip980)" d="M983.842 1517.37 Q980.231 1517.37 978.402 1520.93 Q976.596 1524.47 976.596 1531.6 Q976.596 1538.71 978.402 1542.27 Q980.231 1545.82 983.842 1545.82 Q987.476 1545.82 989.282 1542.27 Q991.11 1538.71 991.11 1531.6 Q991.11 1524.47 989.282 1520.93 Q987.476 1517.37 983.842 1517.37 M983.842 1513.66 Q989.652 1513.66 992.707 1518.27 Q995.786 1522.85 995.786 1531.6 Q995.786 1540.33 992.707 1544.94 Q989.652 1549.52 983.842 1549.52 Q978.032 1549.52 974.953 1544.94 Q971.897 1540.33 971.897 1531.6 Q971.897 1522.85 974.953 1518.27 Q978.032 1513.66 983.842 1513.66 Z" fill="#000000" fill-rule="evenodd" fill-opacity="1" /><path clip-path="url(#clip980)" d="M1587.43 1544.91 L1603.75 1544.91 L1603.75 1548.85 L1581.8 1548.85 L1581.8 1544.91 Q1584.46 1542.16 1589.05 1537.53 Q1593.65 1532.88 1594.83 1531.53 Q1597.08 1529.01 1597.96 1527.27 Q1598.86 1525.51 1598.86 1523.82 Q1598.86 1521.07 1596.92 1519.33 Q1595 1517.6 1591.89 1517.6 Q1589.69 1517.6 1587.24 1518.36 Q1584.81 1519.13 1582.03 1520.68 L1582.03 1515.95 Q1584.86 1514.82 1587.31 1514.24 Q1589.76 1513.66 1591.8 1513.66 Q1597.17 1513.66 1600.37 1516.35 Q1603.56 1519.03 1603.56 1523.52 Q1603.56 1525.65 1602.75 1527.57 Q1601.96 1529.47 1599.86 1532.07 Q1599.28 1532.74 1596.18 1535.95 Q1593.07 1539.15 1587.43 1544.91 Z" fill="#000000" fill-rule="evenodd" fill-opacity="1" /><path clip-path="url(#clip980)" d="M1623.56 1517.37 Q1619.95 1517.37 1618.12 1520.93 Q1616.31 1524.47 1616.31 1531.6 Q1616.31 1538.71 1618.12 1542.27 Q1619.95 1545.82 1623.56 1545.82 Q1627.19 1545.82 1629 1542.27 Q1630.83 1538.71 1630.83 1531.6 Q1630.83 1524.47 1629 1520.93 Q1627.19 1517.37 1623.56 1517.37 M1623.56 1513.66 Q1629.37 1513.66 1632.43 1518.27 Q1635.5 1522.85 1635.5 1531.6 Q1635.5 1540.33 1632.43 1544.94 Q1629.37 1549.52 1623.56 1549.52 Q1617.75 1549.52 1614.67 1544.94 Q1611.62 1540.33 1611.62 1531.6 Q1611.62 1522.85 1614.67 1518.27 Q1617.75 1513.66 1623.56 1513.66 Z" fill="#000000" fill-rule="evenodd" fill-opacity="1" /><path clip-path="url(#clip980)" d="M1653.72 1517.37 Q1650.11 1517.37 1648.28 1520.93 Q1646.48 1524.47 1646.48 1531.6 Q1646.48 1538.71 1648.28 1542.27 Q1650.11 1545.82 1653.72 1545.82 Q1657.36 1545.82 1659.16 1542.27 Q1660.99 1538.71 1660.99 1531.6 Q1660.99 1524.47 1659.16 1520.93 Q1657.36 1517.37 1653.72 1517.37 M1653.72 1513.66 Q1659.53 1513.66 1662.59 1518.27 Q1665.67 1522.85 1665.67 1531.6 Q1665.67 1540.33 1662.59 1544.94 Q1659.53 1549.52 1653.72 1549.52 Q1647.91 1549.52 1644.83 1544.94 Q1641.78 1540.33 1641.78 1531.6 Q1641.78 1522.85 1644.83 1518.27 Q1647.91 1513.66 1653.72 1513.66 Z" fill="#000000" fill-rule="evenodd" fill-opacity="1" /><path clip-path="url(#clip980)" d="M2266.51 1530.21 Q2269.86 1530.93 2271.74 1533.2 Q2273.64 1535.47 2273.64 1538.8 Q2273.64 1543.92 2270.12 1546.72 Q2266.6 1549.52 2260.12 1549.52 Q2257.94 1549.52 2255.63 1549.08 Q2253.34 1548.66 2250.88 1547.81 L2250.88 1543.29 Q2252.83 1544.43 2255.14 1545.01 Q2257.46 1545.58 2259.98 1545.58 Q2264.38 1545.58 2266.67 1543.85 Q2268.98 1542.11 2268.98 1538.8 Q2268.98 1535.75 2266.83 1534.03 Q2264.7 1532.3 2260.88 1532.3 L2256.85 1532.3 L2256.85 1528.45 L2261.07 1528.45 Q2264.52 1528.45 2266.35 1527.09 Q2268.17 1525.7 2268.17 1523.11 Q2268.17 1520.45 2266.28 1519.03 Q2264.4 1517.6 2260.88 1517.6 Q2258.96 1517.6 2256.76 1518.01 Q2254.56 1518.43 2251.92 1519.31 L2251.92 1515.14 Q2254.59 1514.4 2256.9 1514.03 Q2259.24 1513.66 2261.3 1513.66 Q2266.62 1513.66 2269.72 1516.09 Q2272.83 1518.5 2272.83 1522.62 Q2272.83 1525.49 2271.18 1527.48 Q2269.54 1529.45 2266.51 1530.21 Z" fill="#000000" fill-rule="evenodd" fill-opacity="1" /><path clip-path="url(#clip980)" d="M2292.5 1517.37 Q2288.89 1517.37 2287.06 1520.93 Q2285.26 1524.47 2285.26 1531.6 Q2285.26 1538.71 2287.06 1542.27 Q2288.89 1545.82 2292.5 1545.82 Q2296.14 1545.82 2297.94 1542.27 Q2299.77 1538.71 2299.77 1531.6 Q2299.77 1524.47 2297.94 1520.93 Q2296.14 1517.37 2292.5 1517.37 M2292.5 1513.66 Q2298.31 1513.66 2301.37 1518.27 Q2304.45 1522.85 2304.45 1531.6 Q2304.45 1540.33 2301.37 1544.94 Q2298.31 1549.52 2292.5 1549.52 Q2286.69 1549.52 2283.61 1544.94 Q2280.56 1540.33 2280.56 1531.6 Q2280.56 1522.85 2283.61 1518.27 Q2286.69 1513.66 2292.5 1513.66 Z" fill="#000000" fill-rule="evenodd" fill-opacity="1" /><path clip-path="url(#clip980)" d="M2322.66 1517.37 Q2319.05 1517.37 2317.22 1520.93 Q2315.42 1524.47 2315.42 1531.6 Q2315.42 1538.71 2317.22 1542.27 Q2319.05 1545.82 2322.66 1545.82 Q2326.3 1545.82 2328.1 1542.27 Q2329.93 1538.71 2329.93 1531.6 Q2329.93 1524.47 2328.1 1520.93 Q2326.3 1517.37 2322.66 1517.37 M2322.66 1513.66 Q2328.47 1513.66 2331.53 1518.27 Q2334.61 1522.85 2334.61 1531.6 Q2334.61 1540.33 2331.53 1544.94 Q2328.47 1549.52 2322.66 1549.52 Q2316.85 1549.52 2313.78 1544.94 Q2310.72 1540.33 2310.72 1531.6 Q2310.72 1522.85 2313.78 1518.27 Q2316.85 1513.66 2322.66 1513.66 Z" fill="#000000" fill-rule="evenodd" fill-opacity="1" /><polyline clip-path="url(#clip982)" style="stroke:#000000; stroke-linecap:butt; stroke-linejoin:round; stroke-width:2; stroke-opacity:0.1; fill:none" points="
  232.389,1326.21 2352.76,1326.21 
  "/>
<polyline clip-path="url(#clip982)" style="stroke:#000000; stroke-linecap:butt; stroke-linejoin:round; stroke-width:2; stroke-opacity:0.1; fill:none" points="
  232.389,1142.19 2352.76,1142.19 
  "/>
<polyline clip-path="url(#clip982)" style="stroke:#000000; stroke-linecap:butt; stroke-linejoin:round; stroke-width:2; stroke-opacity:0.1; fill:none" points="
  232.389,958.181 2352.76,958.181 
  "/>
<polyline clip-path="url(#clip982)" style="stroke:#000000; stroke-linecap:butt; stroke-linejoin:round; stroke-width:2; stroke-opacity:0.1; fill:none" points="
  232.389,774.166 2352.76,774.166 
  "/>
<polyline clip-path="url(#clip982)" style="stroke:#000000; stroke-linecap:butt; stroke-linejoin:round; stroke-width:2; stroke-opacity:0.1; fill:none" points="
  232.389,590.152 2352.76,590.152 
  "/>
<polyline clip-path="url(#clip982)" style="stroke:#000000; stroke-linecap:butt; stroke-linejoin:round; stroke-width:2; stroke-opacity:0.1; fill:none" points="
  232.389,406.137 2352.76,406.137 
  "/>
<polyline clip-path="url(#clip982)" style="stroke:#000000; stroke-linecap:butt; stroke-linejoin:round; stroke-width:2; stroke-opacity:0.1; fill:none" points="
  232.389,222.123 2352.76,222.123 
  "/>
<polyline clip-path="url(#clip980)" style="stroke:#000000; stroke-linecap:butt; stroke-linejoin:round; stroke-width:4; stroke-opacity:1; fill:none" points="
  232.389,1486.45 232.389,47.2441 
  "/>
<polyline clip-path="url(#clip980)" style="stroke:#000000; stroke-linecap:butt; stroke-linejoin:round; stroke-width:4; stroke-opacity:1; fill:none" points="
  232.389,1326.21 251.287,1326.21 
  "/>
<polyline clip-path="url(#clip980)" style="stroke:#000000; stroke-linecap:butt; stroke-linejoin:round; stroke-width:4; stroke-opacity:1; fill:none" points="
  232.389,1142.19 251.287,1142.19 
  "/>
<polyline clip-path="url(#clip980)" style="stroke:#000000; stroke-linecap:butt; stroke-linejoin:round; stroke-width:4; stroke-opacity:1; fill:none" points="
  232.389,958.181 251.287,958.181 
  "/>
<polyline clip-path="url(#clip980)" style="stroke:#000000; stroke-linecap:butt; stroke-linejoin:round; stroke-width:4; stroke-opacity:1; fill:none" points="
  232.389,774.166 251.287,774.166 
  "/>
<polyline clip-path="url(#clip980)" style="stroke:#000000; stroke-linecap:butt; stroke-linejoin:round; stroke-width:4; stroke-opacity:1; fill:none" points="
  232.389,590.152 251.287,590.152 
  "/>
<polyline clip-path="url(#clip980)" style="stroke:#000000; stroke-linecap:butt; stroke-linejoin:round; stroke-width:4; stroke-opacity:1; fill:none" points="
  232.389,406.137 251.287,406.137 
  "/>
<polyline clip-path="url(#clip980)" style="stroke:#000000; stroke-linecap:butt; stroke-linejoin:round; stroke-width:4; stroke-opacity:1; fill:none" points="
  232.389,222.123 251.287,222.123 
  "/>
<path clip-path="url(#clip980)" d="M157.13 1313 L145.325 1331.45 L157.13 1331.45 L157.13 1313 M155.903 1308.93 L161.783 1308.93 L161.783 1331.45 L166.714 1331.45 L166.714 1335.34 L161.783 1335.34 L161.783 1343.49 L157.13 1343.49 L157.13 1335.34 L141.529 1335.34 L141.529 1330.83 L155.903 1308.93 Z" fill="#000000" fill-rule="evenodd" fill-opacity="1" /><path clip-path="url(#clip980)" d="M184.445 1312.01 Q180.834 1312.01 179.005 1315.57 Q177.2 1319.11 177.2 1326.24 Q177.2 1333.35 179.005 1336.92 Q180.834 1340.46 184.445 1340.46 Q188.079 1340.46 189.885 1336.92 Q191.713 1333.35 191.713 1326.24 Q191.713 1319.11 189.885 1315.57 Q188.079 1312.01 184.445 1312.01 M184.445 1308.3 Q190.255 1308.3 193.311 1312.91 Q196.389 1317.49 196.389 1326.24 Q196.389 1334.97 193.311 1339.58 Q190.255 1344.16 184.445 1344.16 Q178.635 1344.16 175.556 1339.58 Q172.501 1334.97 172.501 1326.24 Q172.501 1317.49 175.556 1312.91 Q178.635 1308.3 184.445 1308.3 Z" fill="#000000" fill-rule="evenodd" fill-opacity="1" /><path clip-path="url(#clip980)" d="M154.862 1140.33 Q151.714 1140.33 149.862 1142.48 Q148.033 1144.64 148.033 1148.39 Q148.033 1152.11 149.862 1154.29 Q151.714 1156.44 154.862 1156.44 Q158.01 1156.44 159.839 1154.29 Q161.69 1152.11 161.69 1148.39 Q161.69 1144.64 159.839 1142.48 Q158.01 1140.33 154.862 1140.33 M164.144 1125.68 L164.144 1129.94 Q162.385 1129.1 160.579 1128.66 Q158.797 1128.23 157.038 1128.23 Q152.408 1128.23 149.954 1131.35 Q147.524 1134.48 147.177 1140.79 Q148.542 1138.78 150.603 1137.72 Q152.663 1136.63 155.14 1136.63 Q160.348 1136.63 163.357 1139.8 Q166.39 1142.95 166.39 1148.39 Q166.39 1153.71 163.241 1156.93 Q160.093 1160.15 154.862 1160.15 Q148.866 1160.15 145.695 1155.56 Q142.524 1150.96 142.524 1142.23 Q142.524 1134.04 146.413 1129.17 Q150.302 1124.29 156.853 1124.29 Q158.612 1124.29 160.394 1124.64 Q162.2 1124.98 164.144 1125.68 Z" fill="#000000" fill-rule="evenodd" fill-opacity="1" /><path clip-path="url(#clip980)" d="M184.445 1127.99 Q180.834 1127.99 179.005 1131.56 Q177.2 1135.1 177.2 1142.23 Q177.2 1149.34 179.005 1152.9 Q180.834 1156.44 184.445 1156.44 Q188.079 1156.44 189.885 1152.9 Q191.713 1149.34 191.713 1142.23 Q191.713 1135.1 189.885 1131.56 Q188.079 1127.99 184.445 1127.99 M184.445 1124.29 Q190.255 1124.29 193.311 1128.9 Q196.389 1133.48 196.389 1142.23 Q196.389 1150.96 193.311 1155.56 Q190.255 1160.15 184.445 1160.15 Q178.635 1160.15 175.556 1155.56 Q172.501 1150.96 172.501 1142.23 Q172.501 1133.48 175.556 1128.9 Q178.635 1124.29 184.445 1124.29 Z" fill="#000000" fill-rule="evenodd" fill-opacity="1" /><path clip-path="url(#clip980)" d="M154.283 959.049 Q150.95 959.049 149.028 960.831 Q147.13 962.613 147.13 965.738 Q147.13 968.863 149.028 970.646 Q150.95 972.428 154.283 972.428 Q157.616 972.428 159.538 970.646 Q161.459 968.84 161.459 965.738 Q161.459 962.613 159.538 960.831 Q157.64 959.049 154.283 959.049 M149.607 957.058 Q146.598 956.317 144.908 954.257 Q143.241 952.197 143.241 949.234 Q143.241 945.09 146.181 942.683 Q149.144 940.276 154.283 940.276 Q159.445 940.276 162.385 942.683 Q165.325 945.09 165.325 949.234 Q165.325 952.197 163.635 954.257 Q161.968 956.317 158.982 957.058 Q162.362 957.845 164.237 960.137 Q166.135 962.428 166.135 965.738 Q166.135 970.761 163.056 973.447 Q160.001 976.132 154.283 976.132 Q148.566 976.132 145.487 973.447 Q142.431 970.761 142.431 965.738 Q142.431 962.428 144.329 960.137 Q146.228 957.845 149.607 957.058 M147.894 949.674 Q147.894 952.359 149.561 953.863 Q151.251 955.368 154.283 955.368 Q157.292 955.368 158.982 953.863 Q160.695 952.359 160.695 949.674 Q160.695 946.988 158.982 945.484 Q157.292 943.979 154.283 943.979 Q151.251 943.979 149.561 945.484 Q147.894 946.988 147.894 949.674 Z" fill="#000000" fill-rule="evenodd" fill-opacity="1" /><path clip-path="url(#clip980)" d="M184.445 943.979 Q180.834 943.979 179.005 947.544 Q177.2 951.086 177.2 958.215 Q177.2 965.322 179.005 968.886 Q180.834 972.428 184.445 972.428 Q188.079 972.428 189.885 968.886 Q191.713 965.322 191.713 958.215 Q191.713 951.086 189.885 947.544 Q188.079 943.979 184.445 943.979 M184.445 940.276 Q190.255 940.276 193.311 944.882 Q196.389 949.465 196.389 958.215 Q196.389 966.942 193.311 971.548 Q190.255 976.132 184.445 976.132 Q178.635 976.132 175.556 971.548 Q172.501 966.942 172.501 958.215 Q172.501 949.465 175.556 944.882 Q178.635 940.276 184.445 940.276 Z" fill="#000000" fill-rule="evenodd" fill-opacity="1" /><path clip-path="url(#clip980)" d="M114.931 787.511 L122.57 787.511 L122.57 761.145 L114.26 762.812 L114.26 758.553 L122.524 756.886 L127.2 756.886 L127.2 787.511 L134.839 787.511 L134.839 791.446 L114.931 791.446 L114.931 787.511 Z" fill="#000000" fill-rule="evenodd" fill-opacity="1" /><path clip-path="url(#clip980)" d="M154.283 759.965 Q150.672 759.965 148.843 763.53 Q147.038 767.071 147.038 774.201 Q147.038 781.307 148.843 784.872 Q150.672 788.414 154.283 788.414 Q157.917 788.414 159.723 784.872 Q161.552 781.307 161.552 774.201 Q161.552 767.071 159.723 763.53 Q157.917 759.965 154.283 759.965 M154.283 756.261 Q160.093 756.261 163.149 760.868 Q166.227 765.451 166.227 774.201 Q166.227 782.928 163.149 787.534 Q160.093 792.117 154.283 792.117 Q148.473 792.117 145.394 787.534 Q142.339 782.928 142.339 774.201 Q142.339 765.451 145.394 760.868 Q148.473 756.261 154.283 756.261 Z" fill="#000000" fill-rule="evenodd" fill-opacity="1" /><path clip-path="url(#clip980)" d="M184.445 759.965 Q180.834 759.965 179.005 763.53 Q177.2 767.071 177.2 774.201 Q177.2 781.307 179.005 784.872 Q180.834 788.414 184.445 788.414 Q188.079 788.414 189.885 784.872 Q191.713 781.307 191.713 774.201 Q191.713 767.071 189.885 763.53 Q188.079 759.965 184.445 759.965 M184.445 756.261 Q190.255 756.261 193.311 760.868 Q196.389 765.451 196.389 774.201 Q196.389 782.928 193.311 787.534 Q190.255 792.117 184.445 792.117 Q178.635 792.117 175.556 787.534 Q172.501 782.928 172.501 774.201 Q172.501 765.451 175.556 760.868 Q178.635 756.261 184.445 756.261 Z" fill="#000000" fill-rule="evenodd" fill-opacity="1" /><path clip-path="url(#clip980)" d="M114.931 603.496 L122.57 603.496 L122.57 577.131 L114.26 578.798 L114.26 574.538 L122.524 572.872 L127.2 572.872 L127.2 603.496 L134.839 603.496 L134.839 607.432 L114.931 607.432 L114.931 603.496 Z" fill="#000000" fill-rule="evenodd" fill-opacity="1" /><path clip-path="url(#clip980)" d="M148.311 603.496 L164.63 603.496 L164.63 607.432 L142.686 607.432 L142.686 603.496 Q145.348 600.742 149.931 596.112 Q154.538 591.46 155.718 590.117 Q157.964 587.594 158.843 585.858 Q159.746 584.098 159.746 582.409 Q159.746 579.654 157.802 577.918 Q155.88 576.182 152.778 576.182 Q150.579 576.182 148.126 576.946 Q145.695 577.71 142.917 579.261 L142.917 574.538 Q145.741 573.404 148.195 572.825 Q150.649 572.247 152.686 572.247 Q158.056 572.247 161.251 574.932 Q164.445 577.617 164.445 582.108 Q164.445 584.237 163.635 586.159 Q162.848 588.057 160.741 590.649 Q160.163 591.321 157.061 594.538 Q153.959 597.733 148.311 603.496 Z" fill="#000000" fill-rule="evenodd" fill-opacity="1" /><path clip-path="url(#clip980)" d="M184.445 575.95 Q180.834 575.95 179.005 579.515 Q177.2 583.057 177.2 590.186 Q177.2 597.293 179.005 600.858 Q180.834 604.399 184.445 604.399 Q188.079 604.399 189.885 600.858 Q191.713 597.293 191.713 590.186 Q191.713 583.057 189.885 579.515 Q188.079 575.95 184.445 575.95 M184.445 572.247 Q190.255 572.247 193.311 576.853 Q196.389 581.436 196.389 590.186 Q196.389 598.913 193.311 603.52 Q190.255 608.103 184.445 608.103 Q178.635 608.103 175.556 603.52 Q172.501 598.913 172.501 590.186 Q172.501 581.436 175.556 576.853 Q178.635 572.247 184.445 572.247 Z" fill="#000000" fill-rule="evenodd" fill-opacity="1" /><path clip-path="url(#clip980)" d="M114.931 419.482 L122.57 419.482 L122.57 393.116 L114.26 394.783 L114.26 390.524 L122.524 388.857 L127.2 388.857 L127.2 419.482 L134.839 419.482 L134.839 423.417 L114.931 423.417 L114.931 419.482 Z" fill="#000000" fill-rule="evenodd" fill-opacity="1" /><path clip-path="url(#clip980)" d="M157.13 392.931 L145.325 411.38 L157.13 411.38 L157.13 392.931 M155.903 388.857 L161.783 388.857 L161.783 411.38 L166.714 411.38 L166.714 415.269 L161.783 415.269 L161.783 423.417 L157.13 423.417 L157.13 415.269 L141.529 415.269 L141.529 410.755 L155.903 388.857 Z" fill="#000000" fill-rule="evenodd" fill-opacity="1" /><path clip-path="url(#clip980)" d="M184.445 391.936 Q180.834 391.936 179.005 395.501 Q177.2 399.042 177.2 406.172 Q177.2 413.278 179.005 416.843 Q180.834 420.385 184.445 420.385 Q188.079 420.385 189.885 416.843 Q191.713 413.278 191.713 406.172 Q191.713 399.042 189.885 395.501 Q188.079 391.936 184.445 391.936 M184.445 388.232 Q190.255 388.232 193.311 392.839 Q196.389 397.422 196.389 406.172 Q196.389 414.899 193.311 419.505 Q190.255 424.089 184.445 424.089 Q178.635 424.089 175.556 419.505 Q172.501 414.899 172.501 406.172 Q172.501 397.422 175.556 392.839 Q178.635 388.232 184.445 388.232 Z" fill="#000000" fill-rule="evenodd" fill-opacity="1" /><path clip-path="url(#clip980)" d="M114.931 235.468 L122.57 235.468 L122.57 209.102 L114.26 210.769 L114.26 206.509 L122.524 204.843 L127.2 204.843 L127.2 235.468 L134.839 235.468 L134.839 239.403 L114.931 239.403 L114.931 235.468 Z" fill="#000000" fill-rule="evenodd" fill-opacity="1" /><path clip-path="url(#clip980)" d="M154.862 220.259 Q151.714 220.259 149.862 222.412 Q148.033 224.565 148.033 228.315 Q148.033 232.042 149.862 234.218 Q151.714 236.37 154.862 236.37 Q158.01 236.37 159.839 234.218 Q161.69 232.042 161.69 228.315 Q161.69 224.565 159.839 222.412 Q158.01 220.259 154.862 220.259 M164.144 205.607 L164.144 209.866 Q162.385 209.033 160.579 208.593 Q158.797 208.153 157.038 208.153 Q152.408 208.153 149.954 211.278 Q147.524 214.403 147.177 220.722 Q148.542 218.708 150.603 217.644 Q152.663 216.556 155.14 216.556 Q160.348 216.556 163.357 219.727 Q166.39 222.875 166.39 228.315 Q166.39 233.639 163.241 236.857 Q160.093 240.074 154.862 240.074 Q148.866 240.074 145.695 235.491 Q142.524 230.884 142.524 222.158 Q142.524 213.963 146.413 209.102 Q150.302 204.218 156.853 204.218 Q158.612 204.218 160.394 204.565 Q162.2 204.912 164.144 205.607 Z" fill="#000000" fill-rule="evenodd" fill-opacity="1" /><path clip-path="url(#clip980)" d="M184.445 207.921 Q180.834 207.921 179.005 211.486 Q177.2 215.028 177.2 222.158 Q177.2 229.264 179.005 232.829 Q180.834 236.37 184.445 236.37 Q188.079 236.37 189.885 232.829 Q191.713 229.264 191.713 222.158 Q191.713 215.028 189.885 211.486 Q188.079 207.921 184.445 207.921 M184.445 204.218 Q190.255 204.218 193.311 208.824 Q196.389 213.408 196.389 222.158 Q196.389 230.884 193.311 235.491 Q190.255 240.074 184.445 240.074 Q178.635 240.074 175.556 235.491 Q172.501 230.884 172.501 222.158 Q172.501 213.408 175.556 208.824 Q178.635 204.218 184.445 204.218 Z" fill="#000000" fill-rule="evenodd" fill-opacity="1" /><path clip-path="url(#clip980)" d="M20.1444 1017.16 L26.9239 1017.16 Q23.9002 1020.41 22.4043 1024.1 Q20.9083 1027.76 20.9083 1031.9 Q20.9083 1040.05 25.9054 1044.37 Q30.8707 1048.7 40.2919 1048.7 Q49.6813 1048.7 54.6784 1044.37 Q59.6436 1040.05 59.6436 1031.9 Q59.6436 1027.76 58.1477 1024.1 Q56.6518 1020.41 53.6281 1017.16 L60.3439 1017.16 Q62.6355 1020.54 63.7814 1024.32 Q64.9272 1028.08 64.9272 1032.28 Q64.9272 1043.07 58.3387 1049.28 Q51.7183 1055.48 40.2919 1055.48 Q28.8336 1055.48 22.2451 1049.28 Q15.6248 1043.07 15.6248 1032.28 Q15.6248 1028.02 16.7706 1024.26 Q17.8846 1020.47 20.1444 1017.16 Z" fill="#000000" fill-rule="evenodd" fill-opacity="1" /><path clip-path="url(#clip980)" d="M32.4621 993.672 Q32.4621 998.383 36.1542 1001.12 Q39.8145 1003.86 46.212 1003.86 Q52.6095 1003.86 56.3017 1001.15 Q59.9619 998.414 59.9619 993.672 Q59.9619 988.993 56.2698 986.256 Q52.5777 983.519 46.212 983.519 Q39.8781 983.519 36.186 986.256 Q32.4621 988.993 32.4621 993.672 M27.4968 993.672 Q27.4968 986.033 32.4621 981.673 Q37.4273 977.312 46.212 977.312 Q54.9649 977.312 59.9619 981.673 Q64.9272 986.033 64.9272 993.672 Q64.9272 1001.34 59.9619 1005.7 Q54.9649 1010.03 46.212 1010.03 Q37.4273 1010.03 32.4621 1005.7 Q27.4968 1001.34 27.4968 993.672 Z" fill="#000000" fill-rule="evenodd" fill-opacity="1" /><path clip-path="url(#clip980)" d="M44.7161 937.113 L47.5806 937.113 L47.5806 964.04 Q53.6281 963.658 56.8109 960.411 Q59.9619 957.133 59.9619 951.308 Q59.9619 947.934 59.1344 944.783 Q58.3069 941.601 56.6518 938.481 L62.1899 938.481 Q63.5267 941.632 64.227 944.943 Q64.9272 948.253 64.9272 951.658 Q64.9272 960.188 59.9619 965.185 Q54.9967 970.151 46.5303 970.151 Q37.7774 970.151 32.6531 965.44 Q27.4968 960.698 27.4968 952.677 Q27.4968 945.484 32.1438 941.314 Q36.7589 937.113 44.7161 937.113 M42.9973 942.969 Q38.1912 943.033 35.3266 945.675 Q32.4621 948.285 32.4621 952.613 Q32.4621 957.515 35.2312 960.475 Q38.0002 963.403 43.0292 963.849 L42.9973 942.969 Z" fill="#000000" fill-rule="evenodd" fill-opacity="1" /><path clip-path="url(#clip980)" d="M14.479 909.454 L19.3487 909.454 L19.3487 915.056 Q19.3487 918.207 20.6219 919.448 Q21.895 920.657 25.2052 920.657 L28.3562 920.657 L28.3562 911.013 L32.9077 911.013 L32.9077 920.657 L64.0042 920.657 L64.0042 926.546 L32.9077 926.546 L32.9077 932.147 L28.3562 932.147 L28.3562 926.546 L25.8736 926.546 Q19.9216 926.546 17.2162 923.777 Q14.479 921.007 14.479 914.992 L14.479 909.454 Z" fill="#000000" fill-rule="evenodd" fill-opacity="1" /><path clip-path="url(#clip980)" d="M14.479 886.505 L19.3487 886.505 L19.3487 892.107 Q19.3487 895.258 20.6219 896.5 Q21.895 897.709 25.2052 897.709 L28.3562 897.709 L28.3562 888.065 L32.9077 888.065 L32.9077 897.709 L64.0042 897.709 L64.0042 903.597 L32.9077 903.597 L32.9077 909.199 L28.3562 909.199 L28.3562 903.597 L25.8736 903.597 Q19.9216 903.597 17.2162 900.828 Q14.479 898.059 14.479 892.044 L14.479 886.505 Z" fill="#000000" fill-rule="evenodd" fill-opacity="1" /><path clip-path="url(#clip980)" d="M28.3562 881.604 L28.3562 875.747 L64.0042 875.747 L64.0042 881.604 L28.3562 881.604 M14.479 881.604 L14.479 875.747 L21.895 875.747 L21.895 881.604 L14.479 881.604 Z" fill="#000000" fill-rule="evenodd" fill-opacity="1" /><path clip-path="url(#clip980)" d="M29.7248 837.84 L35.1993 837.84 Q33.8307 840.322 33.1623 842.837 Q32.4621 845.319 32.4621 847.866 Q32.4621 853.563 36.0905 856.714 Q39.6872 859.865 46.212 859.865 Q52.7369 859.865 56.3653 856.714 Q59.9619 853.563 59.9619 847.866 Q59.9619 845.319 59.2935 842.837 Q58.5933 840.322 57.2247 837.84 L62.6355 837.84 Q63.7814 840.29 64.3543 842.932 Q64.9272 845.542 64.9272 848.502 Q64.9272 856.555 59.8664 861.297 Q54.8057 866.04 46.212 866.04 Q37.491 866.04 32.4939 861.265 Q27.4968 856.459 27.4968 848.12 Q27.4968 845.415 28.0697 842.837 Q28.6108 840.258 29.7248 837.84 Z" fill="#000000" fill-rule="evenodd" fill-opacity="1" /><path clip-path="url(#clip980)" d="M28.3562 827.654 L28.3562 821.798 L64.0042 821.798 L64.0042 827.654 L28.3562 827.654 M14.479 827.654 L14.479 821.798 L21.895 821.798 L21.895 827.654 L14.479 827.654 Z" fill="#000000" fill-rule="evenodd" fill-opacity="1" /><path clip-path="url(#clip980)" d="M44.7161 779.052 L47.5806 779.052 L47.5806 805.979 Q53.6281 805.597 56.8109 802.351 Q59.9619 799.072 59.9619 793.248 Q59.9619 789.874 59.1344 786.723 Q58.3069 783.54 56.6518 780.421 L62.1899 780.421 Q63.5267 783.572 64.227 786.882 Q64.9272 790.192 64.9272 793.598 Q64.9272 802.128 59.9619 807.125 Q54.9967 812.09 46.5303 812.09 Q37.7774 812.09 32.6531 807.38 Q27.4968 802.637 27.4968 794.616 Q27.4968 787.423 32.1438 783.254 Q36.7589 779.052 44.7161 779.052 M42.9973 784.909 Q38.1912 784.972 35.3266 787.614 Q32.4621 790.224 32.4621 794.553 Q32.4621 799.454 35.2312 802.414 Q38.0002 805.343 43.0292 805.788 L42.9973 784.909 Z" fill="#000000" fill-rule="evenodd" fill-opacity="1" /><path clip-path="url(#clip980)" d="M42.4881 739.808 L64.0042 739.808 L64.0042 745.664 L42.679 745.664 Q37.6183 745.664 35.1038 747.637 Q32.5894 749.611 32.5894 753.558 Q32.5894 758.3 35.6131 761.037 Q38.6368 763.775 43.8567 763.775 L64.0042 763.775 L64.0042 769.663 L28.3562 769.663 L28.3562 763.775 L33.8944 763.775 Q30.6797 761.674 29.0883 758.841 Q27.4968 755.977 27.4968 752.253 Q27.4968 746.11 31.3163 742.959 Q35.1038 739.808 42.4881 739.808 Z" fill="#000000" fill-rule="evenodd" fill-opacity="1" /><path clip-path="url(#clip980)" d="M18.2347 722.334 L28.3562 722.334 L28.3562 710.271 L32.9077 710.271 L32.9077 722.334 L52.2594 722.334 Q56.6199 722.334 57.8613 721.156 Q59.1026 719.947 59.1026 716.286 L59.1026 710.271 L64.0042 710.271 L64.0042 716.286 Q64.0042 723.066 61.4897 725.644 Q58.9434 728.222 52.2594 728.222 L32.9077 728.222 L32.9077 732.519 L28.3562 732.519 L28.3562 728.222 L18.2347 728.222 L18.2347 722.334 Z" fill="#000000" fill-rule="evenodd" fill-opacity="1" /><path clip-path="url(#clip980)" d="M64.0042 669.339 L16.4842 687.482 L16.4842 680.766 L56.4926 665.711 L16.4842 650.624 L16.4842 643.94 L64.0042 662.051 L64.0042 669.339 Z" fill="#000000" fill-rule="evenodd" fill-opacity="1" /><path clip-path="url(#clip980)" d="M46.0847 626.116 Q46.0847 633.214 47.7079 635.951 Q49.3312 638.688 53.2461 638.688 Q56.3653 638.688 58.2114 636.651 Q60.0256 634.583 60.0256 631.05 Q60.0256 626.18 56.5881 623.252 Q53.1188 620.292 47.3897 620.292 L46.0847 620.292 L46.0847 626.116 M43.6657 614.435 L64.0042 614.435 L64.0042 620.292 L58.5933 620.292 Q61.8398 622.297 63.3994 625.289 Q64.9272 628.28 64.9272 632.609 Q64.9272 638.084 61.8716 641.33 Q58.7843 644.545 53.6281 644.545 Q47.6125 644.545 44.5569 640.534 Q41.5014 636.492 41.5014 628.503 L41.5014 620.292 L40.9285 620.292 Q36.8862 620.292 34.6901 622.965 Q32.4621 625.607 32.4621 630.413 Q32.4621 633.469 33.1941 636.365 Q33.9262 639.261 35.3903 641.935 L29.9795 641.935 Q28.7381 638.72 28.1334 635.697 Q27.4968 632.673 27.4968 629.808 Q27.4968 622.074 31.5072 618.254 Q35.5176 614.435 43.6657 614.435 Z" fill="#000000" fill-rule="evenodd" fill-opacity="1" /><path clip-path="url(#clip980)" d="M14.479 602.372 L14.479 596.516 L64.0042 596.516 L64.0042 602.372 L14.479 602.372 Z" fill="#000000" fill-rule="evenodd" fill-opacity="1" /><path clip-path="url(#clip980)" d="M49.9359 584.866 L28.3562 584.866 L28.3562 579.01 L49.7131 579.01 Q54.7739 579.01 57.3202 577.037 Q59.8346 575.063 59.8346 571.116 Q59.8346 566.374 56.8109 563.637 Q53.7872 560.868 48.5673 560.868 L28.3562 560.868 L28.3562 555.011 L64.0042 555.011 L64.0042 560.868 L58.5296 560.868 Q61.7762 563 63.3676 565.833 Q64.9272 568.634 64.9272 572.358 Q64.9272 578.501 61.1078 581.683 Q57.2883 584.866 49.9359 584.866 M27.4968 570.13 L27.4968 570.13 Z" fill="#000000" fill-rule="evenodd" fill-opacity="1" /><path clip-path="url(#clip980)" d="M44.7161 512.456 L47.5806 512.456 L47.5806 539.383 Q53.6281 539.001 56.8109 535.755 Q59.9619 532.477 59.9619 526.652 Q59.9619 523.278 59.1344 520.127 Q58.3069 516.944 56.6518 513.825 L62.1899 513.825 Q63.5267 516.976 64.227 520.286 Q64.9272 523.596 64.9272 527.002 Q64.9272 535.532 59.9619 540.529 Q54.9967 545.494 46.5303 545.494 Q37.7774 545.494 32.6531 540.784 Q27.4968 536.041 27.4968 528.021 Q27.4968 520.827 32.1438 516.658 Q36.7589 512.456 44.7161 512.456 M42.9973 518.313 Q38.1912 518.377 35.3266 521.018 Q32.4621 523.628 32.4621 527.957 Q32.4621 532.859 35.2312 535.819 Q38.0002 538.747 43.0292 539.192 L42.9973 518.313 Z" fill="#000000" fill-rule="evenodd" fill-opacity="1" /><path clip-path="url(#clip980)" d="M29.4065 480.119 L34.9447 480.119 Q33.6716 482.601 33.035 485.275 Q32.3984 487.948 32.3984 490.813 Q32.3984 495.174 33.7352 497.37 Q35.072 499.534 37.7456 499.534 Q39.7826 499.534 40.9603 497.974 Q42.1061 496.415 43.1565 491.704 L43.6021 489.699 Q44.9389 483.461 47.3897 480.851 Q49.8086 478.209 54.1691 478.209 Q59.1344 478.209 62.0308 482.156 Q64.9272 486.071 64.9272 492.946 Q64.9272 495.81 64.3543 498.929 Q63.8132 502.017 62.6992 505.454 L56.6518 505.454 Q58.3387 502.208 59.198 499.057 Q60.0256 495.906 60.0256 492.818 Q60.0256 488.681 58.6251 486.453 Q57.1929 484.225 54.6147 484.225 Q52.2276 484.225 50.9545 485.848 Q49.6813 487.439 48.5037 492.882 L48.0262 494.919 Q46.8804 500.362 44.5251 502.781 Q42.138 505.2 38.0002 505.2 Q32.9713 505.2 30.2341 501.635 Q27.4968 498.07 27.4968 491.513 Q27.4968 488.267 27.9743 485.402 Q28.4517 482.538 29.4065 480.119 Z" fill="#000000" fill-rule="evenodd" fill-opacity="1" /><polyline clip-path="url(#clip982)" style="stroke:#000000; stroke-linecap:butt; stroke-linejoin:round; stroke-width:4; stroke-opacity:1; fill:none" points="
  292.4,87.9763 299.09,205.285 305.78,322.595 312.47,439.904 319.16,557.029 325.85,674.154 332.54,791.279 339.231,908.405 345.921,1025.17 352.611,1141.93 
  359.301,1257.46 365.991,1369.96 372.681,1436.52 379.371,1437.73 386.061,1436.21 392.752,1436.9 399.442,1434.02 406.132,1436.36 412.822,1437.44 419.512,1435 
  426.202,1434.53 432.892,1437.09 439.582,1434.27 446.272,1436.48 452.963,1437.18 459.653,1434.35 466.343,1436.46 473.033,1436.9 479.723,1434.24 486.413,1435.98 
  493.103,1436.14 499.793,1436.55 506.484,1437.07 513.174,1434.54 519.864,1435.76 526.554,1435.3 533.244,1434.63 539.934,1435.85 546.624,1435.4 553.314,1434.72 
  560.005,1436.01 566.695,1435.24 573.385,1438.17 580.075,1435.78 586.765,1434.93 593.455,1436.78 600.145,1437.16 606.835,1437.3 613.525,1438.56 620.216,1436.28 
  626.906,1435.56 633.596,1438.26 640.286,1435.96 646.976,1435.09 653.666,1436.47 660.356,1435.73 667.046,1437.57 673.737,1438.84 680.427,1436.65 687.117,1435.78 
  693.807,1437.94 700.497,1439.21 707.187,1436.68 713.877,1436.36 720.567,1439.12 727.258,1437.34 733.948,1437.02 740.638,1436.14 747.328,1438.31 754.018,1439.29 
  760.708,1437.25 767.398,1436.93 774.088,1436.27 780.778,1438.21 787.469,1438.49 794.159,1435.63 800.849,1436.7 807.539,1435.83 814.229,1437.21 820.919,1436.55 
  827.609,1438.49 834.299,1438.65 840.99,1436.09 847.68,1437.16 854.37,1436.29 861.06,1437.67 867.75,1436.78 874.44,1438.77 881.13,1440.03 887.82,1437.85 
  894.511,1436.96 901.201,1438.98 907.891,1439.86 914.581,1437.63 921.271,1436.66 927.961,1438.45 934.651,1438.13 941.341,1437.24 948.031,1439.26 954.722,1440.13 
  961.412,1437.91 968.102,1436.94 974.792,1438.44 981.482,1438.27 988.172,1437.97 994.862,1436.94 1001.55,1438.14 1008.24,1437.49 1014.93,1438.91 1021.62,1439.01 
  1028.31,1438.49 1035,1437.61 1041.69,1439.99 1048.38,1440.28 1055.07,1437.77 1061.76,1439.19 1068.45,1439.11 1075.14,1438.96 1081.83,1438.07 1088.52,1440.11 
  1095.21,1440.78 1101.9,1438.59 1108.59,1437.4 1115.28,1438.79 1121.97,1437.77 1128.66,1438.97 1135.35,1438.19 1142.04,1439.8 1148.74,1439.83 1155.43,1439.64 
  1162.12,1439.28 1168.81,1438.96 1175.5,1437.77 1182.19,1439.15 1188.88,1437.95 1195.57,1439.33 1202.26,1437.96 1208.95,1439.5 1215.64,1438.56 1222.33,1440.17 
  1229.02,1440.2 1235.71,1440.01 1242.4,1439.69 1249.09,1439.32 1255.78,1437.88 1262.47,1438.23 1269.16,1439.61 1275.85,1438.23 1282.54,1439.76 1289.23,1438.79 
  1295.92,1440.21 1302.61,1440.05 1309.3,1439.11 1315.99,1440.72 1322.68,1440.76 1329.37,1440.38 1336.06,1440.36 1342.75,1439.45 1349.44,1441.47 1356.13,1441.92 
  1362.82,1439.25 1369.51,1440.56 1376.2,1440.55 1382.89,1439.66 1389.58,1441.64 1396.27,1441.94 1402.96,1438.8 1409.65,1439.46 1416.34,1439.94 1423.03,1441.94 
  1429.72,1438.97 1436.41,1438.86 1443.1,1439.5 1449.79,1441.19 1456.48,1440.12 1463.17,1442.13 1469.86,1439.04 1476.55,1439.23 1483.24,1439.8 1489.93,1441.24 
  1496.62,1440.95 1503.31,1439.6 1510,1440.04 1516.69,1441.66 1523.38,1441.4 1530.07,1440.78 1536.76,1442.82 1543.45,1440.07 1550.14,1440.89 1556.83,1439.5 
  1563.52,1439.68 1570.21,1440.1 1576.9,1441.45 1583.59,1440.68 1590.28,1442.11 1596.97,1442.01 1603.66,1441.82 1610.35,1440.91 1617.04,1442.56 1623.73,1442.66 
  1630.42,1443.21 1637.11,1440.14 1643.8,1440.56 1650.49,1441.91 1657.18,1441.14 1663.87,1442.57 1670.56,1442.47 1677.25,1442.28 1683.94,1441.37 1690.63,1442.98 
  1697.32,1443.03 1704.01,1442.75 1710.71,1442.65 1717.4,1442.47 1724.09,1441.53 1730.78,1443.12 1737.47,1443.02 1744.16,1442.58 1750.85,1441.79 1757.54,1444.03 
  1764.23,1440.82 1770.92,1441.57 1777.61,1442.76 1784.3,1441.9 1790.99,1443.76 1797.68,1440.42 1804.37,1440.33 1811.06,1440.52 1817.75,1444.13 1824.44,1440.79 
  1831.13,1440.7 1837.82,1440.6 1844.51,1440.79 1851.2,1444.22 1857.89,1441.25 1864.58,1441.39 1871.27,1441.74 1877.96,1442.29 1884.65,1443.61 1891.34,1443.12 
  1898.03,1441.76 1904.72,1442.52 1911.41,1443.93 1918.1,1443.7 1924.79,1443.21 1931.48,1442.02 1938.17,1442.57 1944.86,1443.89 1951.55,1443.4 1958.24,1442.04 
  1964.93,1442.79 1971.62,1444.26 1978.31,1443.77 1985,1442.99 1991.69,1441.4 1998.38,1444.44 2005.07,1443.68 2011.76,1442.71 2018.45,1443.77 2025.14,1442.41 
  2031.83,1442.98 2038.52,1444.04 2045.21,1442.68 2051.9,1443.44 2058.59,1444.83 2065.28,1444.44 2071.97,1444.08 2078.66,1442.68 2085.35,1442.68 2092.04,1443.42 
  2098.73,1444.9 2105.42,1444.41 2112.11,1442.87 2118.8,1443.61 2125.49,1445.08 2132.18,1444.59 2138.87,1443.05 2145.56,1443.79 2152.25,1445.27 2158.94,1444.78 
  2165.63,1443.24 2172.32,1443.97 2179.01,1445.45 2185.7,1444.96 2192.39,1443.15 2199.08,1444.13 2205.77,1445.72 2212.46,1442.6 2219.15,1445.05 2225.84,1443.53 
  2232.53,1444.22 2239.22,1445.34 2245.91,1444.54 2252.6,1442.84 2259.29,1445.17 2265.99,1444.42 2272.68,1445.36 2279.37,1444.36 2286.06,1445.63 2292.75,1445.06 
  
  "/>
<polyline clip-path="url(#clip982)" style="stroke:#ff0000; stroke-linecap:butt; stroke-linejoin:round; stroke-width:4; stroke-opacity:1; fill:none" points="
  292.4,1264.15 299.09,1268.75 305.78,1273.35 312.47,1277.95 319.16,1282.37 325.85,1286.78 332.54,1291.2 339.231,1295.62 345.921,1299.85 352.611,1304.09 
  359.301,1307.97 365.991,1311.34 372.681,1312.15 379.371,1310.79 386.061,1309.41 392.752,1308.09 399.442,1306.76 406.132,1305.53 412.822,1304.2 419.512,1302.85 
  426.202,1301.6 432.892,1300.36 439.582,1299.04 446.272,1297.81 452.963,1296.5 459.653,1295.18 466.343,1293.95 473.033,1292.63 479.723,1291.33 486.413,1290.11 
  493.103,1288.82 499.793,1287.51 506.484,1286.2 513.174,1284.9 519.864,1283.7 526.554,1282.43 533.244,1281.22 539.934,1280.02 546.624,1278.75 553.314,1277.54 
  560.005,1276.35 566.695,1275.09 573.385,1273.84 580.075,1272.49 586.765,1271.26 593.455,1270.05 600.145,1268.75 606.835,1267.44 613.525,1266.11 620.216,1264.75 
  626.906,1263.5 633.596,1262.25 640.286,1260.91 646.976,1259.69 653.666,1258.5 660.356,1257.27 667.046,1256.03 673.737,1254.7 680.427,1253.35 687.117,1252.11 
  693.807,1250.88 700.497,1249.55 707.187,1248.19 713.877,1246.93 720.567,1245.67 727.258,1244.31 733.948,1243.05 740.638,1241.81 747.328,1240.57 754.018,1239.23 
  760.708,1237.87 767.398,1236.61 774.088,1235.38 780.778,1234.16 787.469,1232.84 794.159,1231.55 800.849,1230.36 807.539,1229.15 814.229,1227.96 820.919,1226.73 
  827.609,1225.51 834.299,1224.19 840.99,1222.9 847.68,1221.71 854.37,1220.5 861.06,1219.31 867.75,1218.07 874.44,1216.83 881.13,1215.5 887.82,1214.16 
  894.511,1212.92 901.201,1211.69 907.891,1210.36 914.581,1209.01 921.271,1207.79 927.961,1206.59 934.651,1205.32 941.341,1204.09 948.031,1202.86 954.722,1201.52 
  961.412,1200.18 968.102,1198.96 974.792,1197.75 981.482,1196.47 988.172,1195.22 994.862,1194 1001.55,1192.82 1008.24,1191.6 1014.93,1190.39 1021.62,1189.11 
  1028.31,1187.84 1035,1186.61 1041.69,1185.39 1048.38,1184.06 1055.07,1182.76 1061.76,1181.55 1068.45,1180.28 1075.14,1179.01 1081.83,1177.77 1088.52,1176.54 
  1095.21,1175.21 1101.9,1173.88 1108.59,1172.66 1115.28,1171.48 1121.97,1170.27 1128.66,1169.08 1135.35,1167.86 1142.04,1166.64 1148.74,1165.36 1155.43,1164.08 
  1162.12,1162.8 1168.81,1161.55 1175.5,1160.33 1182.19,1159.16 1188.88,1157.94 1195.57,1156.76 1202.26,1155.54 1208.95,1154.36 1215.64,1153.13 1222.33,1151.92 
  1229.02,1150.64 1235.71,1149.36 1242.4,1148.08 1249.09,1146.84 1255.78,1145.65 1262.47,1144.5 1269.16,1143.33 1275.85,1142.11 1282.54,1140.93 1289.23,1139.71 
  1295.92,1138.51 1302.61,1137.25 1309.3,1136.02 1315.99,1134.81 1322.68,1133.53 1329.37,1132.25 1336.06,1130.99 1342.75,1129.75 1349.44,1128.53 1356.13,1127.21 
  1362.82,1125.91 1369.51,1124.7 1376.2,1123.44 1382.89,1122.21 1389.58,1120.99 1396.27,1119.68 1402.96,1118.41 1409.65,1117.3 1416.34,1116.13 1423.03,1114.9 
  1429.72,1113.65 1436.41,1112.52 1443.1,1111.37 1449.79,1110.19 1456.48,1108.95 1463.17,1107.72 1469.86,1106.46 1476.55,1105.34 1483.24,1104.19 1489.93,1103 
  1496.62,1101.75 1503.31,1100.56 1510,1099.41 1516.69,1098.2 1523.38,1096.94 1530.07,1095.7 1536.76,1094.46 1543.45,1093.18 1550.14,1092 1556.83,1090.82 
  1563.52,1089.7 1570.21,1088.56 1576.9,1087.38 1583.59,1086.16 1590.28,1084.95 1596.97,1083.67 1603.66,1082.41 1610.35,1081.18 1617.04,1079.96 1623.73,1078.66 
  1630.42,1077.36 1637.11,1076.09 1643.8,1074.95 1650.49,1073.76 1657.18,1072.54 1663.87,1071.33 1670.56,1070.05 1677.25,1068.79 1683.94,1067.57 1690.63,1066.36 
  1697.32,1065.07 1704.01,1063.78 1710.71,1062.51 1717.4,1061.25 1724.09,1060.03 1730.78,1058.82 1737.47,1057.54 1744.16,1056.27 1750.85,1055.03 1757.54,1053.8 
  1764.23,1052.53 1770.92,1051.39 1777.61,1050.2 1784.3,1048.97 1790.99,1047.74 1797.68,1046.49 1804.37,1045.38 1811.06,1044.29 1817.75,1043.14 1824.44,1041.89 
  1831.13,1040.78 1837.82,1039.68 1844.51,1038.59 1851.2,1037.43 1857.89,1036.18 1864.58,1035.06 1871.27,1033.94 1877.96,1032.8 1884.65,1031.6 1891.34,1030.35 
  1898.03,1029.16 1904.72,1028.01 1911.41,1026.8 1918.1,1025.53 1924.79,1024.28 1931.48,1023.09 1938.17,1021.94 1944.86,1020.75 1951.55,1019.5 1958.24,1018.3 
  1964.93,1017.16 1971.62,1015.95 1978.31,1014.69 1985,1013.45 1991.69,1012.3 1998.38,1011.18 2005.07,1009.92 2011.76,1008.71 2018.45,1007.54 2025.14,1006.35 
  2031.83,1005.22 2038.52,1004.04 2045.21,1002.84 2051.9,1001.7 2058.59,1000.49 2065.28,999.218 2071.97,997.974 2078.66,996.792 2085.35,995.666 2092.04,994.525 
  2098.73,993.329 2105.42,992.081 2112.11,990.882 2118.8,989.741 2125.49,988.545 2132.18,987.297 2138.87,986.097 2145.56,984.956 2152.25,983.76 2158.94,982.513 
  2165.63,981.313 2172.32,980.172 2179.01,978.976 2185.7,977.728 2192.39,976.521 2199.08,975.373 2205.77,974.151 2212.46,972.944 2219.15,971.84 2225.84,970.644 
  2232.53,969.507 2239.22,968.314 2245.91,967.085 2252.6,965.948 2259.29,964.829 2265.99,963.625 2272.68,962.437 2279.37,961.222 2286.06,960.026 2292.75,958.782 
  
  "/>
<path clip-path="url(#clip980)" d="
M303.068 818.686 L732.506 818.686 L732.506 663.166 L303.068 663.166  Z
  " fill="#ffffff" fill-rule="evenodd" fill-opacity="1"/>
<polyline clip-path="url(#clip980)" style="stroke:#000000; stroke-linecap:butt; stroke-linejoin:round; stroke-width:4; stroke-opacity:1; fill:none" points="
  303.068,818.686 732.506,818.686 732.506,663.166 303.068,663.166 303.068,818.686 
  "/>
<polyline clip-path="url(#clip980)" style="stroke:#000000; stroke-linecap:butt; stroke-linejoin:round; stroke-width:4; stroke-opacity:1; fill:none" points="
  326.628,715.006 467.986,715.006 
  "/>
<path clip-path="url(#clip980)" d="M504.948 719.254 Q499.786 719.254 497.795 720.434 Q495.804 721.615 495.804 724.462 Q495.804 726.73 497.286 728.073 Q498.791 729.392 501.36 729.392 Q504.902 729.392 507.031 726.892 Q509.184 724.369 509.184 720.203 L509.184 719.254 L504.948 719.254 M513.443 717.494 L513.443 732.286 L509.184 732.286 L509.184 728.351 Q507.726 730.712 505.55 731.846 Q503.374 732.957 500.226 732.957 Q496.244 732.957 493.883 730.735 Q491.545 728.49 491.545 724.74 Q491.545 720.365 494.462 718.143 Q497.402 715.92 503.212 715.92 L509.184 715.92 L509.184 715.504 Q509.184 712.564 507.24 710.967 Q505.318 709.346 501.823 709.346 Q499.601 709.346 497.494 709.879 Q495.388 710.411 493.443 711.476 L493.443 707.541 Q495.781 706.638 497.98 706.198 Q500.179 705.735 502.263 705.735 Q507.888 705.735 510.666 708.652 Q513.443 711.569 513.443 717.494 Z" fill="#000000" fill-rule="evenodd" fill-opacity="1" /><path clip-path="url(#clip980)" d="M546.383 732.286 L533.189 697.726 L538.073 697.726 L549.022 726.823 L559.994 697.726 L564.855 697.726 L551.684 732.286 L546.383 732.286 Z" fill="#000000" fill-rule="evenodd" fill-opacity="1" /><path clip-path="url(#clip980)" d="M577.818 719.254 Q572.656 719.254 570.665 720.434 Q568.674 721.615 568.674 724.462 Q568.674 726.73 570.156 728.073 Q571.661 729.392 574.23 729.392 Q577.772 729.392 579.901 726.892 Q582.054 724.369 582.054 720.203 L582.054 719.254 L577.818 719.254 M586.313 717.494 L586.313 732.286 L582.054 732.286 L582.054 728.351 Q580.596 730.712 578.42 731.846 Q576.244 732.957 573.096 732.957 Q569.114 732.957 566.753 730.735 Q564.415 728.49 564.415 724.74 Q564.415 720.365 567.332 718.143 Q570.272 715.92 576.082 715.92 L582.054 715.92 L582.054 715.504 Q582.054 712.564 580.11 710.967 Q578.188 709.346 574.693 709.346 Q572.471 709.346 570.364 709.879 Q568.258 710.411 566.313 711.476 L566.313 707.541 Q568.651 706.638 570.85 706.198 Q573.049 705.735 575.133 705.735 Q580.758 705.735 583.536 708.652 Q586.313 711.569 586.313 717.494 Z" fill="#000000" fill-rule="evenodd" fill-opacity="1" /><path clip-path="url(#clip980)" d="M595.086 696.268 L599.346 696.268 L599.346 732.286 L595.086 732.286 L595.086 696.268 Z" fill="#000000" fill-rule="evenodd" fill-opacity="1" /><path clip-path="url(#clip980)" d="M607.818 722.055 L607.818 706.36 L612.077 706.36 L612.077 721.893 Q612.077 725.573 613.512 727.425 Q614.947 729.254 617.818 729.254 Q621.267 729.254 623.258 727.055 Q625.271 724.855 625.271 721.059 L625.271 706.36 L629.531 706.36 L629.531 732.286 L625.271 732.286 L625.271 728.305 Q623.72 730.666 621.66 731.823 Q619.623 732.957 616.915 732.957 Q612.447 732.957 610.133 730.18 Q607.818 727.402 607.818 722.055 M618.535 705.735 L618.535 705.735 Z" fill="#000000" fill-rule="evenodd" fill-opacity="1" /><path clip-path="url(#clip980)" d="M660.48 718.258 L660.48 720.342 L640.896 720.342 Q641.174 724.74 643.535 727.055 Q645.919 729.346 650.156 729.346 Q652.609 729.346 654.901 728.744 Q657.216 728.142 659.484 726.939 L659.484 730.967 Q657.193 731.939 654.785 732.448 Q652.378 732.957 649.901 732.957 Q643.697 732.957 640.063 729.346 Q636.452 725.735 636.452 719.578 Q636.452 713.212 639.878 709.485 Q643.327 705.735 649.16 705.735 Q654.392 705.735 657.424 709.115 Q660.48 712.471 660.48 718.258 M656.22 717.008 Q656.174 713.513 654.253 711.43 Q652.355 709.346 649.206 709.346 Q645.642 709.346 643.489 711.36 Q641.359 713.374 641.035 717.031 L656.22 717.008 Z" fill="#000000" fill-rule="evenodd" fill-opacity="1" /><path clip-path="url(#clip980)" d="M683.998 707.124 L683.998 711.152 Q682.192 710.226 680.248 709.763 Q678.304 709.3 676.22 709.3 Q673.049 709.3 671.452 710.272 Q669.878 711.244 669.878 713.189 Q669.878 714.67 671.012 715.527 Q672.146 716.36 675.572 717.124 L677.03 717.448 Q681.567 718.42 683.466 720.203 Q685.387 721.962 685.387 725.133 Q685.387 728.744 682.516 730.851 Q679.669 732.957 674.669 732.957 Q672.586 732.957 670.317 732.541 Q668.072 732.147 665.572 731.337 L665.572 726.939 Q667.933 728.166 670.225 728.791 Q672.517 729.392 674.762 729.392 Q677.771 729.392 679.391 728.374 Q681.012 727.332 681.012 725.457 Q681.012 723.721 679.831 722.795 Q678.674 721.869 674.716 721.013 L673.234 720.666 Q669.276 719.832 667.517 718.119 Q665.757 716.383 665.757 713.374 Q665.757 709.717 668.35 707.726 Q670.942 705.735 675.711 705.735 Q678.072 705.735 680.155 706.082 Q682.239 706.43 683.998 707.124 Z" fill="#000000" fill-rule="evenodd" fill-opacity="1" /><polyline clip-path="url(#clip980)" style="stroke:#ff0000; stroke-linecap:butt; stroke-linejoin:round; stroke-width:4; stroke-opacity:1; fill:none" points="
  326.628,766.846 467.986,766.846 
  "/>
<path clip-path="url(#clip980)" d="M510.318 771.186 Q510.318 766.487 508.374 763.825 Q506.453 761.14 503.073 761.14 Q499.693 761.14 497.749 763.825 Q495.828 766.487 495.828 771.186 Q495.828 775.885 497.749 778.57 Q499.693 781.232 503.073 781.232 Q506.453 781.232 508.374 778.57 Q510.318 775.885 510.318 771.186 M495.828 762.135 Q497.17 759.821 499.207 758.709 Q501.267 757.575 504.115 757.575 Q508.837 757.575 511.777 761.325 Q514.74 765.075 514.74 771.186 Q514.74 777.297 511.777 781.047 Q508.837 784.797 504.115 784.797 Q501.267 784.797 499.207 783.686 Q497.17 782.552 495.828 780.237 L495.828 784.126 L491.545 784.126 L491.545 748.108 L495.828 748.108 L495.828 762.135 Z" fill="#000000" fill-rule="evenodd" fill-opacity="1" /><path clip-path="url(#clip980)" d="M545.966 784.126 L532.772 749.566 L537.656 749.566 L548.605 778.663 L559.577 749.566 L564.438 749.566 L551.267 784.126 L545.966 784.126 Z" fill="#000000" fill-rule="evenodd" fill-opacity="1" /><path clip-path="url(#clip980)" d="M577.401 771.094 Q572.239 771.094 570.249 772.274 Q568.258 773.455 568.258 776.302 Q568.258 778.57 569.739 779.913 Q571.244 781.232 573.813 781.232 Q577.355 781.232 579.485 778.732 Q581.637 776.209 581.637 772.043 L581.637 771.094 L577.401 771.094 M585.897 769.334 L585.897 784.126 L581.637 784.126 L581.637 780.191 Q580.179 782.552 578.003 783.686 Q575.827 784.797 572.679 784.797 Q568.698 784.797 566.337 782.575 Q563.999 780.33 563.999 776.58 Q563.999 772.205 566.915 769.983 Q569.855 767.76 575.665 767.76 L581.637 767.76 L581.637 767.344 Q581.637 764.404 579.693 762.807 Q577.772 761.186 574.276 761.186 Q572.054 761.186 569.948 761.719 Q567.841 762.251 565.897 763.316 L565.897 759.381 Q568.235 758.478 570.434 758.038 Q572.633 757.575 574.716 757.575 Q580.341 757.575 583.119 760.492 Q585.897 763.409 585.897 769.334 Z" fill="#000000" fill-rule="evenodd" fill-opacity="1" /><path clip-path="url(#clip980)" d="M594.67 748.108 L598.929 748.108 L598.929 784.126 L594.67 784.126 L594.67 748.108 Z" fill="#000000" fill-rule="evenodd" fill-opacity="1" /><path clip-path="url(#clip980)" d="M607.401 773.895 L607.401 758.2 L611.66 758.2 L611.66 773.733 Q611.66 777.413 613.096 779.265 Q614.531 781.094 617.401 781.094 Q620.85 781.094 622.841 778.895 Q624.855 776.695 624.855 772.899 L624.855 758.2 L629.114 758.2 L629.114 784.126 L624.855 784.126 L624.855 780.145 Q623.304 782.506 621.244 783.663 Q619.207 784.797 616.498 784.797 Q612.031 784.797 609.716 782.02 Q607.401 779.242 607.401 773.895 M618.119 757.575 L618.119 757.575 Z" fill="#000000" fill-rule="evenodd" fill-opacity="1" /><path clip-path="url(#clip980)" d="M660.063 770.098 L660.063 772.182 L640.48 772.182 Q640.757 776.58 643.119 778.895 Q645.503 781.186 649.739 781.186 Q652.193 781.186 654.484 780.584 Q656.799 779.982 659.068 778.779 L659.068 782.807 Q656.776 783.779 654.368 784.288 Q651.961 784.797 649.484 784.797 Q643.281 784.797 639.646 781.186 Q636.035 777.575 636.035 771.418 Q636.035 765.052 639.461 761.325 Q642.91 757.575 648.743 757.575 Q653.975 757.575 657.007 760.955 Q660.063 764.311 660.063 770.098 M655.804 768.848 Q655.757 765.353 653.836 763.27 Q651.938 761.186 648.79 761.186 Q645.225 761.186 643.072 763.2 Q640.943 765.214 640.619 768.871 L655.804 768.848 Z" fill="#000000" fill-rule="evenodd" fill-opacity="1" /><path clip-path="url(#clip980)" d="M683.581 758.964 L683.581 762.992 Q681.776 762.066 679.831 761.603 Q677.887 761.14 675.804 761.14 Q672.632 761.14 671.035 762.112 Q669.461 763.084 669.461 765.029 Q669.461 766.51 670.595 767.367 Q671.729 768.2 675.155 768.964 L676.614 769.288 Q681.151 770.26 683.049 772.043 Q684.97 773.802 684.97 776.973 Q684.97 780.584 682.1 782.691 Q679.253 784.797 674.253 784.797 Q672.169 784.797 669.901 784.381 Q667.655 783.987 665.155 783.177 L665.155 778.779 Q667.517 780.006 669.808 780.631 Q672.1 781.232 674.345 781.232 Q677.354 781.232 678.975 780.214 Q680.595 779.172 680.595 777.297 Q680.595 775.561 679.415 774.635 Q678.257 773.709 674.299 772.853 L672.817 772.506 Q668.859 771.672 667.1 769.959 Q665.341 768.223 665.341 765.214 Q665.341 761.557 667.933 759.566 Q670.526 757.575 675.294 757.575 Q677.655 757.575 679.739 757.922 Q681.822 758.27 683.581 758.964 Z" fill="#000000" fill-rule="evenodd" fill-opacity="1" /></svg>
